M48
; DRILL file {KiCad (6.0.1)} date Sun Jan 30 13:06:29 2022
; FORMAT={-:-/ absolute / metric / decimal}
; #@! TF.CreationDate,2022-01-30T13:06:29+00:00
; #@! TF.GenerationSoftware,Kicad,Pcbnew,(6.0.1)
; #@! TF.FileFunction,MixedPlating,1,4
FMAT,2
METRIC
; #@! TA.AperFunction,Plated,PTH,ViaDrill
T1C0.300
; #@! TA.AperFunction,Plated,PTH,ComponentDrill
T2C0.600
; #@! TA.AperFunction,Plated,PTH,ComponentDrill
T3C0.890
; #@! TA.AperFunction,Plated,PTH,ComponentDrill
T4C2.010
; #@! TA.AperFunction,NonPlated,NPTH,ComponentDrill
T5C0.650
; #@! TA.AperFunction,NonPlated,NPTH,ComponentDrill
T6C3.200
%
G90
G05
T1
X127.0Y-85.0
X127.0Y-88.0
X127.0Y-91.0
X127.0Y-94.0
X127.0Y-97.0
X127.0Y-100.0
X127.0Y-103.0
X127.0Y-106.0
X127.0Y-109.0
X127.0Y-112.0
X127.0Y-115.0
X127.0Y-118.0
X127.0Y-121.0
X127.0Y-124.0
X127.0Y-127.0
X128.1Y-95.8
X129.15Y-95.9
X130.0Y-85.0
X130.0Y-124.0
X130.0Y-127.0
X130.09Y-97.12
X130.9Y-117.7
X130.9Y-118.7
X131.691Y-106.732
X132.0Y-77.0
X132.0Y-80.0
X132.0Y-82.0
X132.0Y-89.0
X132.0Y-92.0
X132.0Y-95.0
X132.5Y-132.0
X132.9Y-108.0
X132.9Y-110.8
X132.95Y-111.85
X133.0Y-85.0
X133.0Y-124.0
X133.0Y-127.0
X135.0Y-77.0
X135.0Y-80.0
X135.0Y-82.0
X135.0Y-89.0
X135.0Y-92.0
X135.0Y-95.0
X135.4Y-121.2
X135.8Y-113.4
X136.0Y-128.0
X136.2Y-132.0
X136.25Y-103.45
X136.7Y-109.1
X136.75Y-84.4
X137.4Y-103.4
X137.4Y-113.0
X137.4Y-113.8
X138.7Y-97.3
X138.7Y-98.9
X138.9Y-83.65
X139.0Y-91.5
X139.0Y-128.0
X139.1Y-132.0
X139.5Y-98.05
X139.5Y-99.5
X139.6Y-100.5
X139.6Y-101.5
X140.35Y-116.65
X140.75Y-104.2
X140.8Y-85.6
X140.85Y-77.9
X140.95Y-107.15
X141.8Y-104.2
X142.05Y-107.15
X142.1Y-124.1
X142.2Y-122.1
X142.55Y-127.1
X142.646Y-94.204
X142.65Y-96.05
X143.4Y-124.4
X143.9Y-103.4
X144.0Y-109.0
X144.0Y-112.0
X144.0Y-115.0
X144.2Y-98.1
X144.2Y-126.35
X144.4Y-76.2
X144.55Y-104.4
X144.8Y-121.4
X145.2Y-130.9
X145.3Y-85.6
X145.65Y-76.2
X145.75Y-121.4
X145.75Y-126.4
X145.9Y-98.1
X146.0Y-115.0
X146.4Y-93.2
X146.5Y-104.0
X146.95Y-103.0
X147.0Y-109.0
X147.0Y-112.0
X147.7Y-118.9
X147.7Y-119.8
X148.55Y-91.1
X148.6Y-93.6
X149.0Y-109.0
X149.0Y-112.0
X149.1Y-115.6
X149.1Y-116.5
X149.1Y-117.4
X149.7Y-91.1
X149.8Y-85.6
X149.85Y-81.25
X150.0Y-134.0
X150.0Y-137.0
X150.0Y-140.0
X150.0Y-143.0
X150.0Y-146.0
X150.3Y-98.0
X150.3Y-115.6
X150.3Y-116.5
X150.3Y-117.4
X150.35Y-96.35
X150.4Y-95.4
X150.6Y-91.2
X151.4Y-96.5
X151.5Y-90.596
X151.6Y-76.85
X151.6Y-77.9
X151.9Y-128.5
X152.0Y-109.0
X152.0Y-112.0
X152.125Y-126.1
X152.5Y-95.5
X153.0Y-134.0
X153.0Y-137.0
X153.0Y-140.0
X153.0Y-143.0
X153.0Y-146.0
X153.2Y-96.8
X154.15Y-96.85
X154.2Y-110.5
X154.7Y-104.7
X155.3Y-95.7
X155.3Y-110.5
X155.697Y-86.185
X156.0Y-77.0
X157.0Y-80.0
X157.0Y-83.0
X157.0Y-88.0
X157.0Y-103.9
X157.0Y-115.0
X157.0Y-118.0
X157.0Y-121.0
X157.55Y-93.15
X157.6Y-127.1
X158.587Y-93.142
X159.0Y-77.0
X159.0Y-115.0
X159.0Y-118.0
X159.0Y-121.0
X159.007Y-112.293
X159.05Y-108.4
X159.6Y-107.7
X160.0Y-80.0
X160.0Y-83.0
X160.1Y-126.6
X160.15Y-106.35
X160.5Y-109.2
X161.0Y-105.7
X161.3Y-94.5
X161.4Y-101.0
X161.4Y-101.9
X161.9Y-85.9
X161.9Y-87.1
X161.9Y-88.2
X162.0Y-90.0
X163.0Y-91.0
X163.5Y-100.3
X164.2Y-101.0
X164.3Y-118.0
X164.8Y-98.9
X165.05Y-113.45
X165.3Y-115.0
X165.3Y-116.2
X165.7Y-99.4
X165.75Y-117.05
X165.8Y-91.2
X165.8Y-92.2
X166.0Y-85.4
X166.0Y-121.7
X167.3Y-89.2
X167.3Y-90.25
X167.374Y-131.3
X167.4Y-126.3
X167.689Y-103.6
X169.6Y-103.6
X170.0Y-92.0
X170.0Y-106.0
X170.0Y-109.0
X170.0Y-112.0
X170.0Y-115.0
X170.0Y-118.0
X170.0Y-121.0
X170.0Y-124.0
X170.0Y-127.0
X170.0Y-130.0
X171.0Y-90.0
X171.1Y-94.6
X171.5Y-83.65
X171.5Y-84.7
X171.7Y-96.9
X172.0Y-77.0
X172.0Y-79.0
X172.0Y-82.0
X173.0Y-88.0
X173.0Y-90.0
X173.0Y-92.0
X173.0Y-106.0
X173.0Y-109.0
X173.0Y-112.0
X173.0Y-115.0
X173.0Y-118.0
X173.0Y-121.0
X173.0Y-124.0
X173.0Y-127.0
X173.0Y-130.0
X173.7Y-93.85
X173.8Y-100.6
X174.3Y-93.2
X174.3Y-101.6
X175.0Y-88.0
X175.0Y-90.0
X176.1Y-108.8
X176.5Y-118.0
X176.5Y-121.0
X176.5Y-124.0
X176.5Y-127.0
X176.5Y-130.0
X177.4Y-91.2
X177.5Y-103.4
X178.3Y-89.59
X179.1Y-108.8
X179.5Y-118.0
X179.5Y-121.0
X179.5Y-124.0
X179.5Y-127.0
X179.5Y-130.0
T3
X140.0Y-136.0
X142.54Y-136.0
X164.0Y-136.0
X166.54Y-136.0
T4
X134.92Y-141.08
X145.08Y-141.08
X158.92Y-141.08
X169.08Y-141.08
T5
X176.855Y-94.49
X176.855Y-100.27
T6
X127.0Y-79.946
X127.0Y-144.946
X177.0Y-79.946
X177.0Y-144.946
T2
G00X175.775Y-93.06
M15
G01X176.875Y-93.06
M16
G05
G00X175.775Y-101.7
M15
G01X176.875Y-101.7
M16
G05
G00X180.205Y-93.06
M15
G01X180.805Y-93.06
M16
G05
G00X180.205Y-101.7
M15
G01X180.805Y-101.7
M16
G05
T0
M30
