%TF.GenerationSoftware,KiCad,Pcbnew,(6.0.1)*%
%TF.CreationDate,2022-01-30T13:06:37+00:00*%
%TF.ProjectId,SigGen_SigAnalyser,53696747-656e-45f5-9369-67416e616c79,rev?*%
%TF.SameCoordinates,Original*%
%TF.FileFunction,Copper,L3,Inr*%
%TF.FilePolarity,Positive*%
%FSLAX46Y46*%
G04 Gerber Fmt 4.6, Leading zero omitted, Abs format (unit mm)*
G04 Created by KiCad (PCBNEW (6.0.1)) date 2022-01-30 13:06:37*
%MOMM*%
%LPD*%
G01*
G04 APERTURE LIST*
%TA.AperFunction,ComponentPad*%
%ADD10O,1.600000X2.500000*%
%TD*%
%TA.AperFunction,ComponentPad*%
%ADD11O,3.500000X7.000000*%
%TD*%
%TA.AperFunction,ComponentPad*%
%ADD12O,2.100000X1.000000*%
%TD*%
%TA.AperFunction,ComponentPad*%
%ADD13O,1.600000X1.000000*%
%TD*%
%TA.AperFunction,ViaPad*%
%ADD14C,0.700000*%
%TD*%
G04 APERTURE END LIST*
D10*
%TO.N,/ADC/IN*%
%TO.C,J300*%
X140000000Y-136000000D03*
%TO.N,GND*%
X142540000Y-136000000D03*
D11*
X145080000Y-141080000D03*
X134920000Y-141080000D03*
%TD*%
D10*
%TO.N,Net-(D400-Pad1)*%
%TO.C,J400*%
X164000000Y-136000000D03*
D11*
%TO.N,GND*%
X158920000Y-141080000D03*
D10*
X166540000Y-136000000D03*
D11*
X169080000Y-141080000D03*
%TD*%
D12*
%TO.N,unconnected-(J200-PadS1)*%
%TO.C,J200*%
X176325000Y-93060000D03*
D13*
X180505000Y-101700000D03*
X180505000Y-93060000D03*
D12*
X176325000Y-101700000D03*
%TD*%
D14*
%TO.N,GND*%
X146400000Y-93200000D03*
X160150000Y-106350000D03*
X157000000Y-121000000D03*
X127000000Y-85000000D03*
X137400000Y-113800000D03*
X133000000Y-124000000D03*
X177400000Y-91200000D03*
X144200000Y-126350000D03*
X129150000Y-95900000D03*
X138900000Y-83650000D03*
X127000000Y-127000000D03*
X173000000Y-121000000D03*
X150000000Y-134000000D03*
X142100000Y-124100000D03*
X145200000Y-130900000D03*
X175000000Y-88000000D03*
X138700000Y-98900000D03*
X176500000Y-130000000D03*
X127000000Y-88000000D03*
X160500000Y-109200000D03*
X130900000Y-118700000D03*
X150300000Y-117400000D03*
X152000000Y-112000000D03*
X127000000Y-118000000D03*
X170000000Y-121000000D03*
X154700000Y-104700000D03*
X164800000Y-98900000D03*
X157000000Y-115000000D03*
X139100000Y-132000000D03*
X153000000Y-140000000D03*
X151900000Y-128500000D03*
X166000000Y-121700000D03*
X145750000Y-121400000D03*
X132000000Y-95000000D03*
X151600000Y-76850000D03*
X170000000Y-124000000D03*
X127000000Y-103000000D03*
X157000000Y-80000000D03*
X171000000Y-90000000D03*
X173000000Y-109000000D03*
X170000000Y-106000000D03*
X133000000Y-85000000D03*
X176500000Y-127000000D03*
X157000000Y-88000000D03*
X163500000Y-100300000D03*
X145900000Y-98100000D03*
X173700000Y-93850000D03*
X140800000Y-85600000D03*
X127000000Y-121000000D03*
X147000000Y-112000000D03*
X165750000Y-117050000D03*
X157550000Y-93150000D03*
X137400000Y-113000000D03*
X173000000Y-92000000D03*
X162000000Y-90000000D03*
X176500000Y-121000000D03*
X167300000Y-90250000D03*
X165800000Y-91200000D03*
X135400000Y-121200000D03*
X170000000Y-127000000D03*
X176500000Y-124000000D03*
X142550000Y-127100000D03*
X140850000Y-77900000D03*
X173000000Y-112000000D03*
X139600000Y-101500000D03*
X173800000Y-100600000D03*
X148550000Y-91100000D03*
X174300000Y-101600000D03*
X132000000Y-80000000D03*
X144550000Y-104400000D03*
X152000000Y-109000000D03*
X132500000Y-132000000D03*
X136200000Y-132000000D03*
X149850000Y-81250000D03*
X159007000Y-112293000D03*
X127000000Y-106000000D03*
X159000000Y-77000000D03*
X149100000Y-116500000D03*
X170000000Y-130000000D03*
X157000000Y-118000000D03*
X132000000Y-82000000D03*
X150300000Y-115600000D03*
X130000000Y-85000000D03*
X136700000Y-109100000D03*
X161900000Y-85900000D03*
X145650000Y-76200000D03*
X150350000Y-96350000D03*
X153000000Y-143000000D03*
X150000000Y-140000000D03*
X136250000Y-103450000D03*
X170000000Y-92000000D03*
X160100000Y-126600000D03*
X179500000Y-121000000D03*
X159000000Y-118000000D03*
X147000000Y-109000000D03*
X159000000Y-115000000D03*
X144000000Y-115000000D03*
X127000000Y-109000000D03*
X153000000Y-137000000D03*
X149100000Y-115600000D03*
X167689000Y-103600000D03*
X127000000Y-115000000D03*
X159050000Y-108400000D03*
X176100000Y-108800000D03*
X133000000Y-127000000D03*
X147700000Y-118900000D03*
X156000000Y-77000000D03*
X127000000Y-124000000D03*
X135800000Y-113400000D03*
X145300000Y-85600000D03*
X171100000Y-94600000D03*
X138700000Y-97300000D03*
X179500000Y-124000000D03*
X142650000Y-96050000D03*
X150000000Y-143000000D03*
X144400000Y-76200000D03*
X157000000Y-83000000D03*
X150300000Y-116500000D03*
X127000000Y-97000000D03*
X135000000Y-80000000D03*
X135000000Y-77000000D03*
X136000000Y-128000000D03*
X144200000Y-98100000D03*
X172000000Y-82000000D03*
X149000000Y-112000000D03*
X149000000Y-109000000D03*
X140350000Y-116650000D03*
X173000000Y-106000000D03*
X154150000Y-96850000D03*
X135000000Y-92000000D03*
X177500000Y-103400000D03*
X161900000Y-88200000D03*
X127000000Y-94000000D03*
X130900000Y-117700000D03*
X127000000Y-100000000D03*
X170000000Y-112000000D03*
X127000000Y-112000000D03*
X152125000Y-126100000D03*
X142050000Y-107150000D03*
X178300000Y-89589500D03*
X170000000Y-115000000D03*
X130000000Y-124000000D03*
X144000000Y-112000000D03*
X132000000Y-77000000D03*
X135000000Y-82000000D03*
X127000000Y-91000000D03*
X163000000Y-91000000D03*
X171700000Y-96900000D03*
X173000000Y-130000000D03*
X172000000Y-77000000D03*
X139000000Y-128000000D03*
X179500000Y-127000000D03*
X155300000Y-95700000D03*
X150000000Y-137000000D03*
X143400000Y-124400000D03*
X131691000Y-106732000D03*
X142646000Y-94204000D03*
X179500000Y-118000000D03*
X150400000Y-95400000D03*
X167400000Y-126300000D03*
X155300000Y-110500000D03*
X132950000Y-111850000D03*
X173000000Y-90000000D03*
X153000000Y-146000000D03*
X130090000Y-97120000D03*
X161400000Y-101900000D03*
X145750000Y-126400000D03*
X150000000Y-146000000D03*
X179500000Y-130000000D03*
X159000000Y-121000000D03*
X139000000Y-91500000D03*
X165050000Y-113450000D03*
X130000000Y-127000000D03*
X136750000Y-84400000D03*
X172000000Y-79000000D03*
X175000000Y-90000000D03*
X173000000Y-124000000D03*
X173000000Y-118000000D03*
X144000000Y-109000000D03*
X167373750Y-131300000D03*
X173000000Y-127000000D03*
X149800000Y-85600000D03*
X140750000Y-104200000D03*
X135000000Y-95000000D03*
X173000000Y-88000000D03*
X171500000Y-83650000D03*
X132000000Y-89000000D03*
X132000000Y-92000000D03*
X170000000Y-109000000D03*
X161900000Y-87100000D03*
X169600000Y-103600000D03*
X160000000Y-83000000D03*
X153000000Y-134000000D03*
X149100000Y-117400000D03*
X179100000Y-108800000D03*
X173000000Y-115000000D03*
X164300000Y-118000000D03*
X160000000Y-80000000D03*
X155697177Y-86185171D03*
X170000000Y-118000000D03*
X176500000Y-118000000D03*
X166000000Y-85400000D03*
X146950000Y-103000000D03*
X174300000Y-93200000D03*
X151500000Y-90596185D03*
X150600000Y-91200000D03*
X135000000Y-89000000D03*
X142200000Y-122100000D03*
X146000000Y-115000000D03*
X157600000Y-127100000D03*
%TO.N,+5V*%
X165700000Y-99400000D03*
X154200000Y-110500000D03*
X132900000Y-108000000D03*
X165800000Y-92200000D03*
%TO.N,+3.3VA*%
X132900000Y-110800000D03*
X144800000Y-121400000D03*
X147700000Y-119800000D03*
%TO.N,+3V3*%
X151600000Y-77900000D03*
X157000000Y-103900000D03*
X143899511Y-103400489D03*
X167300000Y-89200000D03*
X158587204Y-93141627D03*
X128100000Y-95800000D03*
X146500000Y-104000000D03*
X149700000Y-91100000D03*
X171500000Y-84700000D03*
X137400000Y-103400000D03*
X161300000Y-94500000D03*
%TO.N,/MCU/NRST*%
X150300000Y-98000000D03*
X148600000Y-93600000D03*
%TO.N,SPI2_NSS*%
X161400000Y-101000000D03*
X164200000Y-101000000D03*
%TO.N,/MCU/TIM4_CH1*%
X153200000Y-96800000D03*
X139600000Y-100500000D03*
%TO.N,/MCU/TIM4_CH2*%
X139500000Y-99500000D03*
X152500000Y-95500000D03*
%TO.N,/MCU/TIM4_CH3*%
X139500000Y-98050000D03*
X151400000Y-96500000D03*
%TO.N,SPI1_NSS*%
X140950000Y-107150000D03*
X141800000Y-104200000D03*
%TO.N,DAC_NCLR*%
X165300000Y-115000000D03*
X159600000Y-107700000D03*
%TO.N,DAC_NLDAC*%
X165300000Y-116200000D03*
X161000000Y-105700000D03*
%TD*%
%TA.AperFunction,Conductor*%
%TO.N,GND*%
G36*
X176981893Y-75347523D02*
G01*
X177005654Y-75350947D01*
X177017208Y-75348951D01*
X177020594Y-75348904D01*
X177045233Y-75347170D01*
X177268816Y-75353979D01*
X177401139Y-75358009D01*
X177414318Y-75358996D01*
X177575356Y-75378294D01*
X177800683Y-75405296D01*
X177813736Y-75407452D01*
X178051487Y-75457650D01*
X178194458Y-75487837D01*
X178207258Y-75491140D01*
X178331160Y-75529047D01*
X178579348Y-75604978D01*
X178591815Y-75609406D01*
X178952351Y-75755805D01*
X178964375Y-75761322D01*
X179055289Y-75808023D01*
X179310490Y-75939115D01*
X179321966Y-75945670D01*
X179650976Y-76153482D01*
X179661818Y-76161025D01*
X179967708Y-76394614D01*
X179971066Y-76397178D01*
X179981213Y-76405665D01*
X180268312Y-76668332D01*
X180277668Y-76677688D01*
X180540335Y-76964787D01*
X180548821Y-76974933D01*
X180784975Y-77284182D01*
X180792518Y-77295024D01*
X181000327Y-77624028D01*
X181006885Y-77635510D01*
X181099440Y-77815689D01*
X181184678Y-77981625D01*
X181190195Y-77993649D01*
X181336594Y-78354185D01*
X181341022Y-78366652D01*
X181454859Y-78738737D01*
X181458164Y-78751547D01*
X181538548Y-79132264D01*
X181540704Y-79145317D01*
X181587003Y-79531675D01*
X181587992Y-79544868D01*
X181598830Y-79900767D01*
X181596844Y-79928974D01*
X181596844Y-79929977D01*
X181595053Y-79940346D01*
X181595460Y-79943174D01*
X181595013Y-79945999D01*
X181596660Y-79956397D01*
X181598166Y-79965906D01*
X181600000Y-79989215D01*
X181600000Y-92229419D01*
X181580038Y-92303919D01*
X181525500Y-92358457D01*
X181451000Y-92378419D01*
X181376500Y-92358457D01*
X181351301Y-92340149D01*
X181343020Y-92332693D01*
X181337216Y-92327467D01*
X181330456Y-92323564D01*
X181330453Y-92323562D01*
X181267756Y-92287365D01*
X181173284Y-92232821D01*
X181039818Y-92189455D01*
X181000689Y-92176741D01*
X181000688Y-92176741D01*
X180993256Y-92174326D01*
X180985489Y-92173510D01*
X180985486Y-92173509D01*
X180915884Y-92166194D01*
X180852192Y-92159500D01*
X180157808Y-92159500D01*
X180094116Y-92166194D01*
X180024514Y-92173509D01*
X180024511Y-92173510D01*
X180016744Y-92174326D01*
X180009312Y-92176741D01*
X180009311Y-92176741D01*
X179970182Y-92189455D01*
X179836716Y-92232821D01*
X179742244Y-92287365D01*
X179679547Y-92323562D01*
X179679544Y-92323564D01*
X179672784Y-92327467D01*
X179666984Y-92332689D01*
X179666979Y-92332693D01*
X179638366Y-92358457D01*
X179532112Y-92454129D01*
X179527521Y-92460447D01*
X179527520Y-92460449D01*
X179465929Y-92545223D01*
X179420849Y-92607270D01*
X179343856Y-92780197D01*
X179342233Y-92787833D01*
X179342232Y-92787836D01*
X179306683Y-92955083D01*
X179304500Y-92965354D01*
X179304500Y-93154646D01*
X179306124Y-93162286D01*
X179306124Y-93162287D01*
X179331471Y-93281534D01*
X179343856Y-93339803D01*
X179420849Y-93512730D01*
X179425438Y-93519046D01*
X179503938Y-93627092D01*
X179532112Y-93665871D01*
X179589519Y-93717561D01*
X179666979Y-93787307D01*
X179666984Y-93787311D01*
X179672784Y-93792533D01*
X179679544Y-93796436D01*
X179679547Y-93796438D01*
X179714521Y-93816630D01*
X179836716Y-93887179D01*
X180016744Y-93945674D01*
X180024511Y-93946490D01*
X180024514Y-93946491D01*
X180078484Y-93952163D01*
X180157808Y-93960500D01*
X180852192Y-93960500D01*
X180931516Y-93952163D01*
X180985486Y-93946491D01*
X180985489Y-93946490D01*
X180993256Y-93945674D01*
X181173284Y-93887179D01*
X181295479Y-93816630D01*
X181330453Y-93796438D01*
X181330456Y-93796436D01*
X181337216Y-93792533D01*
X181351300Y-93779851D01*
X181420023Y-93744837D01*
X181497046Y-93748874D01*
X181561730Y-93790882D01*
X181596744Y-93859604D01*
X181600000Y-93890581D01*
X181600000Y-100869419D01*
X181580038Y-100943919D01*
X181525500Y-100998457D01*
X181451000Y-101018419D01*
X181376500Y-100998457D01*
X181351301Y-100980149D01*
X181343020Y-100972693D01*
X181337216Y-100967467D01*
X181330456Y-100963564D01*
X181330453Y-100963562D01*
X181248128Y-100916032D01*
X181173284Y-100872821D01*
X181049731Y-100832676D01*
X181000689Y-100816741D01*
X181000688Y-100816741D01*
X180993256Y-100814326D01*
X180985489Y-100813510D01*
X180985486Y-100813509D01*
X180915884Y-100806194D01*
X180852192Y-100799500D01*
X180157808Y-100799500D01*
X180094116Y-100806194D01*
X180024514Y-100813509D01*
X180024511Y-100813510D01*
X180016744Y-100814326D01*
X180009312Y-100816741D01*
X180009311Y-100816741D01*
X179960269Y-100832676D01*
X179836716Y-100872821D01*
X179761872Y-100916032D01*
X179679547Y-100963562D01*
X179679544Y-100963564D01*
X179672784Y-100967467D01*
X179666984Y-100972689D01*
X179666979Y-100972693D01*
X179616196Y-101018419D01*
X179532112Y-101094129D01*
X179527521Y-101100447D01*
X179527520Y-101100449D01*
X179480677Y-101164923D01*
X179420849Y-101247270D01*
X179343856Y-101420197D01*
X179304500Y-101605354D01*
X179304500Y-101794646D01*
X179343856Y-101979803D01*
X179420849Y-102152730D01*
X179532112Y-102305871D01*
X179594002Y-102361597D01*
X179666979Y-102427307D01*
X179666984Y-102427311D01*
X179672784Y-102432533D01*
X179679544Y-102436436D01*
X179679547Y-102436438D01*
X179742244Y-102472635D01*
X179836716Y-102527179D01*
X180016744Y-102585674D01*
X180024511Y-102586490D01*
X180024514Y-102586491D01*
X180094116Y-102593806D01*
X180157808Y-102600500D01*
X180852192Y-102600500D01*
X180915884Y-102593806D01*
X180985486Y-102586491D01*
X180985489Y-102586490D01*
X180993256Y-102585674D01*
X181173284Y-102527179D01*
X181267756Y-102472635D01*
X181330453Y-102436438D01*
X181330456Y-102436436D01*
X181337216Y-102432533D01*
X181351300Y-102419851D01*
X181420023Y-102384837D01*
X181497046Y-102388874D01*
X181561730Y-102430882D01*
X181596744Y-102499604D01*
X181600000Y-102530581D01*
X181600000Y-144906409D01*
X181598458Y-144927788D01*
X181597319Y-144935646D01*
X181595049Y-144951301D01*
X181597035Y-144962857D01*
X181597079Y-144966237D01*
X181598793Y-144990883D01*
X181587663Y-145346711D01*
X181586665Y-145359889D01*
X181564872Y-145540641D01*
X181540091Y-145746169D01*
X181537930Y-145759196D01*
X181461918Y-146118083D01*
X181457317Y-146139807D01*
X181454009Y-146152601D01*
X181339985Y-146524592D01*
X181335555Y-146537043D01*
X181189025Y-146897449D01*
X181183510Y-146909458D01*
X181089126Y-147093044D01*
X181007189Y-147252421D01*
X181005622Y-147255468D01*
X180999065Y-147266941D01*
X180791211Y-147595840D01*
X180783662Y-147606687D01*
X180547500Y-147915853D01*
X180539021Y-147925989D01*
X180276378Y-148213033D01*
X180267033Y-148222378D01*
X179979989Y-148485021D01*
X179969853Y-148493500D01*
X179660680Y-148729667D01*
X179649847Y-148737206D01*
X179320934Y-148945069D01*
X179309476Y-148951618D01*
X179147044Y-149035126D01*
X178963458Y-149129510D01*
X178951449Y-149135025D01*
X178591043Y-149281555D01*
X178578592Y-149285985D01*
X178206601Y-149400009D01*
X178193806Y-149403317D01*
X177813196Y-149483930D01*
X177800178Y-149486089D01*
X177455221Y-149527682D01*
X177413889Y-149532665D01*
X177400711Y-149533663D01*
X177044883Y-149544793D01*
X177020237Y-149543079D01*
X177016857Y-149543035D01*
X177005301Y-149541049D01*
X176993700Y-149542731D01*
X176993697Y-149542731D01*
X176981788Y-149544458D01*
X176960409Y-149546000D01*
X127040319Y-149546000D01*
X127018555Y-149544402D01*
X126995759Y-149541036D01*
X126984193Y-149542992D01*
X126980882Y-149543027D01*
X126956156Y-149544683D01*
X126600537Y-149532678D01*
X126587406Y-149531652D01*
X126201409Y-149484258D01*
X126188419Y-149482077D01*
X125808107Y-149400777D01*
X125795360Y-149397457D01*
X125423708Y-149282885D01*
X125411305Y-149278452D01*
X125231270Y-149204981D01*
X125051232Y-149131508D01*
X125039271Y-149125999D01*
X124693579Y-148947828D01*
X124682149Y-148941282D01*
X124353542Y-148733277D01*
X124342735Y-148725747D01*
X124033785Y-148489538D01*
X124023685Y-148481083D01*
X123736803Y-148218511D01*
X123727489Y-148209197D01*
X123464917Y-147922315D01*
X123456462Y-147912215D01*
X123220253Y-147603265D01*
X123212723Y-147592458D01*
X123004718Y-147263851D01*
X122998172Y-147252421D01*
X122828018Y-146922283D01*
X122819999Y-146906725D01*
X122814490Y-146894765D01*
X122804447Y-146870154D01*
X122711294Y-146641892D01*
X122667548Y-146534695D01*
X122663115Y-146522292D01*
X122548543Y-146150640D01*
X122545223Y-146137893D01*
X122463923Y-145757581D01*
X122461742Y-145744591D01*
X122414348Y-145358594D01*
X122413322Y-145345463D01*
X122401317Y-144989844D01*
X122402973Y-144965118D01*
X122403008Y-144961807D01*
X122404964Y-144950241D01*
X122401598Y-144927445D01*
X122400647Y-144914497D01*
X124994637Y-144914497D01*
X125010205Y-145197370D01*
X125011233Y-145202538D01*
X125039663Y-145345463D01*
X125065474Y-145475226D01*
X125159342Y-145742524D01*
X125161764Y-145747187D01*
X125161766Y-145747191D01*
X125287510Y-145989259D01*
X125287514Y-145989266D01*
X125289936Y-145993928D01*
X125454651Y-146224424D01*
X125458281Y-146228230D01*
X125458285Y-146228234D01*
X125577701Y-146353414D01*
X125650199Y-146429412D01*
X125654337Y-146432674D01*
X125654339Y-146432676D01*
X125786729Y-146537043D01*
X125872680Y-146604801D01*
X125932235Y-146639393D01*
X126113096Y-146744446D01*
X126113101Y-146744449D01*
X126117654Y-146747093D01*
X126380232Y-146853448D01*
X126520315Y-146888245D01*
X126650055Y-146920473D01*
X126650059Y-146920474D01*
X126655177Y-146921745D01*
X126660418Y-146922282D01*
X126660424Y-146922283D01*
X126893003Y-146946112D01*
X126896790Y-146946500D01*
X127072170Y-146946500D01*
X127282593Y-146931601D01*
X127559547Y-146871975D01*
X127825337Y-146773920D01*
X127829967Y-146771422D01*
X127829971Y-146771420D01*
X128070029Y-146641892D01*
X128070032Y-146641890D01*
X128074660Y-146639393D01*
X128224677Y-146528589D01*
X128298305Y-146474206D01*
X128302540Y-146471078D01*
X128306289Y-146467387D01*
X128306293Y-146467384D01*
X128402045Y-146373123D01*
X128504430Y-146272334D01*
X128676304Y-146047126D01*
X128814730Y-145799947D01*
X128916948Y-145535730D01*
X128980918Y-145259747D01*
X128986321Y-145197370D01*
X129004908Y-144982760D01*
X129004908Y-144982756D01*
X129005363Y-144977503D01*
X128989795Y-144694630D01*
X128978431Y-144637501D01*
X128935556Y-144421950D01*
X128935554Y-144421944D01*
X128934526Y-144416774D01*
X128840658Y-144149476D01*
X128813381Y-144096965D01*
X128712490Y-143902741D01*
X128712486Y-143902734D01*
X128710064Y-143898072D01*
X128545349Y-143667576D01*
X128541719Y-143663770D01*
X128541715Y-143663766D01*
X128353440Y-143466403D01*
X128349801Y-143462588D01*
X128293876Y-143418500D01*
X128189366Y-143336112D01*
X128127320Y-143287199D01*
X127997439Y-143211758D01*
X127886904Y-143147554D01*
X127886899Y-143147551D01*
X127882346Y-143144907D01*
X127619768Y-143038552D01*
X127479685Y-143003755D01*
X127349945Y-142971527D01*
X127349941Y-142971526D01*
X127344823Y-142970255D01*
X127339582Y-142969718D01*
X127339576Y-142969717D01*
X127106997Y-142945888D01*
X127103210Y-142945500D01*
X126927830Y-142945500D01*
X126717407Y-142960399D01*
X126440453Y-143020025D01*
X126174663Y-143118080D01*
X126170033Y-143120578D01*
X126170029Y-143120580D01*
X125929971Y-143250108D01*
X125925340Y-143252607D01*
X125697460Y-143420922D01*
X125693711Y-143424613D01*
X125693707Y-143424616D01*
X125658450Y-143459324D01*
X125495570Y-143619666D01*
X125323696Y-143844874D01*
X125185270Y-144092053D01*
X125083052Y-144356270D01*
X125019082Y-144632253D01*
X125018628Y-144637494D01*
X125018627Y-144637501D01*
X124995337Y-144906409D01*
X124994637Y-144914497D01*
X122400647Y-144914497D01*
X122400000Y-144905681D01*
X122400000Y-142903613D01*
X132662000Y-142903613D01*
X132662165Y-142908568D01*
X132676498Y-143124367D01*
X132677804Y-143134152D01*
X132735139Y-143418500D01*
X132737726Y-143428024D01*
X132832162Y-143702287D01*
X132835989Y-143711393D01*
X132965871Y-143970761D01*
X132970865Y-143979273D01*
X133133909Y-144219184D01*
X133139985Y-144226961D01*
X133333328Y-144443204D01*
X133340380Y-144450110D01*
X133560620Y-144638878D01*
X133568524Y-144644791D01*
X133811801Y-144802778D01*
X133820413Y-144807591D01*
X134082447Y-144932013D01*
X134091623Y-144935646D01*
X134367815Y-145024322D01*
X134377381Y-145026707D01*
X134646695Y-145075163D01*
X134662654Y-145073823D01*
X134666000Y-145066712D01*
X134666000Y-145054866D01*
X135174000Y-145054866D01*
X135178145Y-145070337D01*
X135188788Y-145073188D01*
X135261298Y-145066844D01*
X135271030Y-145065338D01*
X135554135Y-145002056D01*
X135563587Y-144999274D01*
X135835835Y-144899107D01*
X135844837Y-144895099D01*
X136101438Y-144759808D01*
X136109833Y-144754644D01*
X136346295Y-144586599D01*
X136353922Y-144580378D01*
X136566080Y-144382538D01*
X136572835Y-144375345D01*
X136756954Y-144151195D01*
X136762696Y-144143175D01*
X136915554Y-143896639D01*
X136920182Y-143887935D01*
X137039098Y-143623336D01*
X137042530Y-143614109D01*
X137125404Y-143336112D01*
X137127589Y-143326497D01*
X137173090Y-143039208D01*
X137173928Y-143030958D01*
X137177924Y-142942978D01*
X137178000Y-142939602D01*
X137178000Y-142903613D01*
X142822000Y-142903613D01*
X142822165Y-142908568D01*
X142836498Y-143124367D01*
X142837804Y-143134152D01*
X142895139Y-143418500D01*
X142897726Y-143428024D01*
X142992162Y-143702287D01*
X142995989Y-143711393D01*
X143125871Y-143970761D01*
X143130865Y-143979273D01*
X143293909Y-144219184D01*
X143299985Y-144226961D01*
X143493328Y-144443204D01*
X143500380Y-144450110D01*
X143720620Y-144638878D01*
X143728524Y-144644791D01*
X143971801Y-144802778D01*
X143980413Y-144807591D01*
X144242447Y-144932013D01*
X144251623Y-144935646D01*
X144527815Y-145024322D01*
X144537381Y-145026707D01*
X144806695Y-145075163D01*
X144822654Y-145073823D01*
X144826000Y-145066712D01*
X144826000Y-145054866D01*
X145334000Y-145054866D01*
X145338145Y-145070337D01*
X145348788Y-145073188D01*
X145421298Y-145066844D01*
X145431030Y-145065338D01*
X145714135Y-145002056D01*
X145723587Y-144999274D01*
X145995835Y-144899107D01*
X146004837Y-144895099D01*
X146261438Y-144759808D01*
X146269833Y-144754644D01*
X146506295Y-144586599D01*
X146513922Y-144580378D01*
X146726080Y-144382538D01*
X146732835Y-144375345D01*
X146916954Y-144151195D01*
X146922696Y-144143175D01*
X147075554Y-143896639D01*
X147080182Y-143887935D01*
X147199098Y-143623336D01*
X147202530Y-143614109D01*
X147285404Y-143336112D01*
X147287589Y-143326497D01*
X147333090Y-143039208D01*
X147333928Y-143030958D01*
X147337924Y-142942978D01*
X147338000Y-142939602D01*
X147338000Y-142903613D01*
X156662000Y-142903613D01*
X156662165Y-142908568D01*
X156676498Y-143124367D01*
X156677804Y-143134152D01*
X156735139Y-143418500D01*
X156737726Y-143428024D01*
X156832162Y-143702287D01*
X156835989Y-143711393D01*
X156965871Y-143970761D01*
X156970865Y-143979273D01*
X157133909Y-144219184D01*
X157139985Y-144226961D01*
X157333328Y-144443204D01*
X157340380Y-144450110D01*
X157560620Y-144638878D01*
X157568524Y-144644791D01*
X157811801Y-144802778D01*
X157820413Y-144807591D01*
X158082447Y-144932013D01*
X158091623Y-144935646D01*
X158367815Y-145024322D01*
X158377381Y-145026707D01*
X158646695Y-145075163D01*
X158662654Y-145073823D01*
X158666000Y-145066712D01*
X158666000Y-145054866D01*
X159174000Y-145054866D01*
X159178145Y-145070337D01*
X159188788Y-145073188D01*
X159261298Y-145066844D01*
X159271030Y-145065338D01*
X159554135Y-145002056D01*
X159563587Y-144999274D01*
X159835835Y-144899107D01*
X159844837Y-144895099D01*
X160101438Y-144759808D01*
X160109833Y-144754644D01*
X160346295Y-144586599D01*
X160353922Y-144580378D01*
X160566080Y-144382538D01*
X160572835Y-144375345D01*
X160756954Y-144151195D01*
X160762696Y-144143175D01*
X160915554Y-143896639D01*
X160920182Y-143887935D01*
X161039098Y-143623336D01*
X161042530Y-143614109D01*
X161125404Y-143336112D01*
X161127589Y-143326497D01*
X161173090Y-143039208D01*
X161173928Y-143030958D01*
X161177924Y-142942978D01*
X161178000Y-142939602D01*
X161178000Y-142903613D01*
X166822000Y-142903613D01*
X166822165Y-142908568D01*
X166836498Y-143124367D01*
X166837804Y-143134152D01*
X166895139Y-143418500D01*
X166897726Y-143428024D01*
X166992162Y-143702287D01*
X166995989Y-143711393D01*
X167125871Y-143970761D01*
X167130865Y-143979273D01*
X167293909Y-144219184D01*
X167299985Y-144226961D01*
X167493328Y-144443204D01*
X167500380Y-144450110D01*
X167720620Y-144638878D01*
X167728524Y-144644791D01*
X167971801Y-144802778D01*
X167980413Y-144807591D01*
X168242447Y-144932013D01*
X168251623Y-144935646D01*
X168527815Y-145024322D01*
X168537381Y-145026707D01*
X168806695Y-145075163D01*
X168822654Y-145073823D01*
X168826000Y-145066712D01*
X168826000Y-145054866D01*
X169334000Y-145054866D01*
X169338145Y-145070337D01*
X169348788Y-145073188D01*
X169421298Y-145066844D01*
X169431030Y-145065338D01*
X169714135Y-145002056D01*
X169723587Y-144999274D01*
X169954006Y-144914497D01*
X174994637Y-144914497D01*
X175010205Y-145197370D01*
X175011233Y-145202538D01*
X175039663Y-145345463D01*
X175065474Y-145475226D01*
X175159342Y-145742524D01*
X175161764Y-145747187D01*
X175161766Y-145747191D01*
X175287510Y-145989259D01*
X175287514Y-145989266D01*
X175289936Y-145993928D01*
X175454651Y-146224424D01*
X175458281Y-146228230D01*
X175458285Y-146228234D01*
X175577701Y-146353414D01*
X175650199Y-146429412D01*
X175654337Y-146432674D01*
X175654339Y-146432676D01*
X175786729Y-146537043D01*
X175872680Y-146604801D01*
X175932235Y-146639393D01*
X176113096Y-146744446D01*
X176113101Y-146744449D01*
X176117654Y-146747093D01*
X176380232Y-146853448D01*
X176520315Y-146888245D01*
X176650055Y-146920473D01*
X176650059Y-146920474D01*
X176655177Y-146921745D01*
X176660418Y-146922282D01*
X176660424Y-146922283D01*
X176893003Y-146946112D01*
X176896790Y-146946500D01*
X177072170Y-146946500D01*
X177282593Y-146931601D01*
X177559547Y-146871975D01*
X177825337Y-146773920D01*
X177829967Y-146771422D01*
X177829971Y-146771420D01*
X178070029Y-146641892D01*
X178070032Y-146641890D01*
X178074660Y-146639393D01*
X178224677Y-146528589D01*
X178298305Y-146474206D01*
X178302540Y-146471078D01*
X178306289Y-146467387D01*
X178306293Y-146467384D01*
X178402045Y-146373123D01*
X178504430Y-146272334D01*
X178676304Y-146047126D01*
X178814730Y-145799947D01*
X178916948Y-145535730D01*
X178980918Y-145259747D01*
X178986321Y-145197370D01*
X179004908Y-144982760D01*
X179004908Y-144982756D01*
X179005363Y-144977503D01*
X178989795Y-144694630D01*
X178978431Y-144637501D01*
X178935556Y-144421950D01*
X178935554Y-144421944D01*
X178934526Y-144416774D01*
X178840658Y-144149476D01*
X178813381Y-144096965D01*
X178712490Y-143902741D01*
X178712486Y-143902734D01*
X178710064Y-143898072D01*
X178545349Y-143667576D01*
X178541719Y-143663770D01*
X178541715Y-143663766D01*
X178353440Y-143466403D01*
X178349801Y-143462588D01*
X178293876Y-143418500D01*
X178189366Y-143336112D01*
X178127320Y-143287199D01*
X177997439Y-143211758D01*
X177886904Y-143147554D01*
X177886899Y-143147551D01*
X177882346Y-143144907D01*
X177619768Y-143038552D01*
X177479685Y-143003755D01*
X177349945Y-142971527D01*
X177349941Y-142971526D01*
X177344823Y-142970255D01*
X177339582Y-142969718D01*
X177339576Y-142969717D01*
X177106997Y-142945888D01*
X177103210Y-142945500D01*
X176927830Y-142945500D01*
X176717407Y-142960399D01*
X176440453Y-143020025D01*
X176174663Y-143118080D01*
X176170033Y-143120578D01*
X176170029Y-143120580D01*
X175929971Y-143250108D01*
X175925340Y-143252607D01*
X175697460Y-143420922D01*
X175693711Y-143424613D01*
X175693707Y-143424616D01*
X175658450Y-143459324D01*
X175495570Y-143619666D01*
X175323696Y-143844874D01*
X175185270Y-144092053D01*
X175083052Y-144356270D01*
X175019082Y-144632253D01*
X175018628Y-144637494D01*
X175018627Y-144637501D01*
X174995337Y-144906409D01*
X174994637Y-144914497D01*
X169954006Y-144914497D01*
X169995835Y-144899107D01*
X170004837Y-144895099D01*
X170261438Y-144759808D01*
X170269833Y-144754644D01*
X170506295Y-144586599D01*
X170513922Y-144580378D01*
X170726080Y-144382538D01*
X170732835Y-144375345D01*
X170916954Y-144151195D01*
X170922696Y-144143175D01*
X171075554Y-143896639D01*
X171080182Y-143887935D01*
X171199098Y-143623336D01*
X171202530Y-143614109D01*
X171285404Y-143336112D01*
X171287589Y-143326497D01*
X171333090Y-143039208D01*
X171333928Y-143030958D01*
X171337924Y-142942978D01*
X171338000Y-142939602D01*
X171338000Y-141353616D01*
X171333855Y-141338145D01*
X171318384Y-141334000D01*
X169353616Y-141334000D01*
X169338145Y-141338145D01*
X169334000Y-141353616D01*
X169334000Y-145054866D01*
X168826000Y-145054866D01*
X168826000Y-141353616D01*
X168821855Y-141338145D01*
X168806384Y-141334000D01*
X166841616Y-141334000D01*
X166826145Y-141338145D01*
X166822000Y-141353616D01*
X166822000Y-142903613D01*
X161178000Y-142903613D01*
X161178000Y-141353616D01*
X161173855Y-141338145D01*
X161158384Y-141334000D01*
X159193616Y-141334000D01*
X159178145Y-141338145D01*
X159174000Y-141353616D01*
X159174000Y-145054866D01*
X158666000Y-145054866D01*
X158666000Y-141353616D01*
X158661855Y-141338145D01*
X158646384Y-141334000D01*
X156681616Y-141334000D01*
X156666145Y-141338145D01*
X156662000Y-141353616D01*
X156662000Y-142903613D01*
X147338000Y-142903613D01*
X147338000Y-141353616D01*
X147333855Y-141338145D01*
X147318384Y-141334000D01*
X145353616Y-141334000D01*
X145338145Y-141338145D01*
X145334000Y-141353616D01*
X145334000Y-145054866D01*
X144826000Y-145054866D01*
X144826000Y-141353616D01*
X144821855Y-141338145D01*
X144806384Y-141334000D01*
X142841616Y-141334000D01*
X142826145Y-141338145D01*
X142822000Y-141353616D01*
X142822000Y-142903613D01*
X137178000Y-142903613D01*
X137178000Y-141353616D01*
X137173855Y-141338145D01*
X137158384Y-141334000D01*
X135193616Y-141334000D01*
X135178145Y-141338145D01*
X135174000Y-141353616D01*
X135174000Y-145054866D01*
X134666000Y-145054866D01*
X134666000Y-141353616D01*
X134661855Y-141338145D01*
X134646384Y-141334000D01*
X132681616Y-141334000D01*
X132666145Y-141338145D01*
X132662000Y-141353616D01*
X132662000Y-142903613D01*
X122400000Y-142903613D01*
X122400000Y-140806384D01*
X132662000Y-140806384D01*
X132666145Y-140821855D01*
X132681616Y-140826000D01*
X134646384Y-140826000D01*
X134661855Y-140821855D01*
X134666000Y-140806384D01*
X135174000Y-140806384D01*
X135178145Y-140821855D01*
X135193616Y-140826000D01*
X137158384Y-140826000D01*
X137173855Y-140821855D01*
X137178000Y-140806384D01*
X137178000Y-139256387D01*
X137177835Y-139251432D01*
X137163502Y-139035633D01*
X137162196Y-139025848D01*
X137104861Y-138741500D01*
X137102274Y-138731976D01*
X137007838Y-138457713D01*
X137004011Y-138448607D01*
X136874129Y-138189239D01*
X136869135Y-138180727D01*
X136706091Y-137940816D01*
X136700015Y-137933039D01*
X136506672Y-137716796D01*
X136499620Y-137709890D01*
X136279380Y-137521122D01*
X136271476Y-137515209D01*
X136028199Y-137357222D01*
X136019587Y-137352409D01*
X135757553Y-137227987D01*
X135748377Y-137224354D01*
X135472185Y-137135678D01*
X135462619Y-137133293D01*
X135193305Y-137084837D01*
X135177346Y-137086177D01*
X135174000Y-137093288D01*
X135174000Y-140806384D01*
X134666000Y-140806384D01*
X134666000Y-137105134D01*
X134661855Y-137089663D01*
X134651212Y-137086812D01*
X134578702Y-137093156D01*
X134568970Y-137094662D01*
X134285865Y-137157944D01*
X134276413Y-137160726D01*
X134004165Y-137260893D01*
X133995163Y-137264901D01*
X133738562Y-137400192D01*
X133730167Y-137405356D01*
X133493705Y-137573401D01*
X133486078Y-137579622D01*
X133273920Y-137777462D01*
X133267165Y-137784655D01*
X133083046Y-138008805D01*
X133077304Y-138016825D01*
X132924446Y-138263361D01*
X132919818Y-138272065D01*
X132800902Y-138536664D01*
X132797470Y-138545891D01*
X132714596Y-138823888D01*
X132712411Y-138833503D01*
X132666910Y-139120792D01*
X132666072Y-139129042D01*
X132662076Y-139217022D01*
X132662000Y-139220398D01*
X132662000Y-140806384D01*
X122400000Y-140806384D01*
X122400000Y-136505970D01*
X138799500Y-136505970D01*
X138814546Y-136669711D01*
X138874435Y-136882064D01*
X138877457Y-136888193D01*
X138877459Y-136888197D01*
X138885728Y-136904964D01*
X138972020Y-137079947D01*
X139104033Y-137256733D01*
X139109050Y-137261371D01*
X139109053Y-137261374D01*
X139212741Y-137357222D01*
X139266051Y-137406501D01*
X139271829Y-137410146D01*
X139271832Y-137410149D01*
X139350116Y-137459542D01*
X139452650Y-137524236D01*
X139657579Y-137605994D01*
X139688779Y-137612200D01*
X139867273Y-137647705D01*
X139867276Y-137647705D01*
X139873976Y-137649038D01*
X139985736Y-137650501D01*
X140087760Y-137651837D01*
X140087765Y-137651837D01*
X140094594Y-137651926D01*
X140101327Y-137650769D01*
X140101328Y-137650769D01*
X140305315Y-137615718D01*
X140305314Y-137615718D01*
X140312043Y-137614562D01*
X140318442Y-137612201D01*
X140318447Y-137612200D01*
X140486656Y-137550144D01*
X140519043Y-137538196D01*
X140708659Y-137425386D01*
X140874543Y-137279910D01*
X140886375Y-137264901D01*
X141006908Y-137112005D01*
X141006910Y-137112002D01*
X141011137Y-137106640D01*
X141018232Y-137093156D01*
X141078955Y-136977740D01*
X141131309Y-136921103D01*
X141204968Y-136898231D01*
X141280194Y-136915253D01*
X141336831Y-136967607D01*
X141345858Y-136984146D01*
X141400161Y-137100598D01*
X141406645Y-137111830D01*
X141530458Y-137288652D01*
X141538785Y-137298576D01*
X141691424Y-137451215D01*
X141701348Y-137459542D01*
X141878170Y-137583355D01*
X141889402Y-137589839D01*
X142085036Y-137681065D01*
X142097210Y-137685496D01*
X142267052Y-137731005D01*
X142283069Y-137731005D01*
X142286000Y-137725928D01*
X142286000Y-137716466D01*
X142794000Y-137716466D01*
X142798145Y-137731937D01*
X142803808Y-137733454D01*
X142982790Y-137685496D01*
X142994964Y-137681065D01*
X143190598Y-137589839D01*
X143201831Y-137583354D01*
X143230712Y-137563131D01*
X143303189Y-137536751D01*
X143379145Y-137550144D01*
X143438229Y-137599720D01*
X143464609Y-137672197D01*
X143451216Y-137748153D01*
X143429529Y-137780195D01*
X143430305Y-137780833D01*
X143243046Y-138008805D01*
X143237304Y-138016825D01*
X143084446Y-138263361D01*
X143079818Y-138272065D01*
X142960902Y-138536664D01*
X142957470Y-138545891D01*
X142874596Y-138823888D01*
X142872411Y-138833503D01*
X142826910Y-139120792D01*
X142826072Y-139129042D01*
X142822076Y-139217022D01*
X142822000Y-139220398D01*
X142822000Y-140806384D01*
X142826145Y-140821855D01*
X142841616Y-140826000D01*
X144806384Y-140826000D01*
X144821855Y-140821855D01*
X144826000Y-140806384D01*
X145334000Y-140806384D01*
X145338145Y-140821855D01*
X145353616Y-140826000D01*
X147318384Y-140826000D01*
X147333855Y-140821855D01*
X147338000Y-140806384D01*
X156662000Y-140806384D01*
X156666145Y-140821855D01*
X156681616Y-140826000D01*
X158646384Y-140826000D01*
X158661855Y-140821855D01*
X158666000Y-140806384D01*
X159174000Y-140806384D01*
X159178145Y-140821855D01*
X159193616Y-140826000D01*
X161158384Y-140826000D01*
X161173855Y-140821855D01*
X161178000Y-140806384D01*
X161178000Y-139256387D01*
X161177835Y-139251432D01*
X161163502Y-139035633D01*
X161162196Y-139025848D01*
X161104861Y-138741500D01*
X161102274Y-138731976D01*
X161007838Y-138457713D01*
X161004011Y-138448607D01*
X160874129Y-138189239D01*
X160869135Y-138180727D01*
X160706091Y-137940816D01*
X160700015Y-137933039D01*
X160506672Y-137716796D01*
X160499620Y-137709890D01*
X160279380Y-137521122D01*
X160271476Y-137515209D01*
X160028199Y-137357222D01*
X160019587Y-137352409D01*
X159757553Y-137227987D01*
X159748377Y-137224354D01*
X159472185Y-137135678D01*
X159462619Y-137133293D01*
X159193305Y-137084837D01*
X159177346Y-137086177D01*
X159174000Y-137093288D01*
X159174000Y-140806384D01*
X158666000Y-140806384D01*
X158666000Y-137105134D01*
X158661855Y-137089663D01*
X158651212Y-137086812D01*
X158578702Y-137093156D01*
X158568970Y-137094662D01*
X158285865Y-137157944D01*
X158276413Y-137160726D01*
X158004165Y-137260893D01*
X157995163Y-137264901D01*
X157738562Y-137400192D01*
X157730167Y-137405356D01*
X157493705Y-137573401D01*
X157486078Y-137579622D01*
X157273920Y-137777462D01*
X157267165Y-137784655D01*
X157083046Y-138008805D01*
X157077304Y-138016825D01*
X156924446Y-138263361D01*
X156919818Y-138272065D01*
X156800902Y-138536664D01*
X156797470Y-138545891D01*
X156714596Y-138823888D01*
X156712411Y-138833503D01*
X156666910Y-139120792D01*
X156666072Y-139129042D01*
X156662076Y-139217022D01*
X156662000Y-139220398D01*
X156662000Y-140806384D01*
X147338000Y-140806384D01*
X147338000Y-139256387D01*
X147337835Y-139251432D01*
X147323502Y-139035633D01*
X147322196Y-139025848D01*
X147264861Y-138741500D01*
X147262274Y-138731976D01*
X147167838Y-138457713D01*
X147164011Y-138448607D01*
X147034129Y-138189239D01*
X147029135Y-138180727D01*
X146866091Y-137940816D01*
X146860015Y-137933039D01*
X146666672Y-137716796D01*
X146659620Y-137709890D01*
X146439380Y-137521122D01*
X146431476Y-137515209D01*
X146188199Y-137357222D01*
X146179587Y-137352409D01*
X145917553Y-137227987D01*
X145908377Y-137224354D01*
X145632185Y-137135678D01*
X145622619Y-137133293D01*
X145353305Y-137084837D01*
X145337346Y-137086177D01*
X145334000Y-137093288D01*
X145334000Y-140806384D01*
X144826000Y-140806384D01*
X144826000Y-137105134D01*
X144821855Y-137089663D01*
X144811212Y-137086812D01*
X144738702Y-137093156D01*
X144728970Y-137094662D01*
X144445865Y-137157944D01*
X144436413Y-137160726D01*
X144164165Y-137260893D01*
X144155163Y-137264901D01*
X143898562Y-137400192D01*
X143890167Y-137405356D01*
X143751888Y-137503626D01*
X143679597Y-137530511D01*
X143603549Y-137517648D01*
X143544121Y-137468485D01*
X143517236Y-137396194D01*
X143530099Y-137320146D01*
X143546388Y-137294381D01*
X143545813Y-137293978D01*
X143673355Y-137111830D01*
X143679839Y-137100598D01*
X143771065Y-136904964D01*
X143775496Y-136892790D01*
X143831367Y-136684278D01*
X143833616Y-136671523D01*
X143847717Y-136510341D01*
X143847908Y-136505970D01*
X162799500Y-136505970D01*
X162814546Y-136669711D01*
X162874435Y-136882064D01*
X162877457Y-136888193D01*
X162877459Y-136888197D01*
X162885728Y-136904964D01*
X162972020Y-137079947D01*
X163104033Y-137256733D01*
X163109050Y-137261371D01*
X163109053Y-137261374D01*
X163212741Y-137357222D01*
X163266051Y-137406501D01*
X163271829Y-137410146D01*
X163271832Y-137410149D01*
X163350116Y-137459542D01*
X163452650Y-137524236D01*
X163657579Y-137605994D01*
X163688779Y-137612200D01*
X163867273Y-137647705D01*
X163867276Y-137647705D01*
X163873976Y-137649038D01*
X163985736Y-137650501D01*
X164087760Y-137651837D01*
X164087765Y-137651837D01*
X164094594Y-137651926D01*
X164101327Y-137650769D01*
X164101328Y-137650769D01*
X164305315Y-137615718D01*
X164305314Y-137615718D01*
X164312043Y-137614562D01*
X164318442Y-137612201D01*
X164318447Y-137612200D01*
X164486656Y-137550144D01*
X164519043Y-137538196D01*
X164708659Y-137425386D01*
X164874543Y-137279910D01*
X164886375Y-137264901D01*
X165006908Y-137112005D01*
X165006910Y-137112002D01*
X165011137Y-137106640D01*
X165018232Y-137093156D01*
X165078955Y-136977740D01*
X165131309Y-136921103D01*
X165204968Y-136898231D01*
X165280194Y-136915253D01*
X165336831Y-136967607D01*
X165345858Y-136984146D01*
X165400161Y-137100598D01*
X165406645Y-137111830D01*
X165530458Y-137288652D01*
X165538785Y-137298576D01*
X165691424Y-137451215D01*
X165701348Y-137459542D01*
X165878170Y-137583355D01*
X165889402Y-137589839D01*
X166085036Y-137681065D01*
X166097210Y-137685496D01*
X166267052Y-137731005D01*
X166283069Y-137731005D01*
X166286000Y-137725928D01*
X166286000Y-137716466D01*
X166794000Y-137716466D01*
X166798145Y-137731937D01*
X166803808Y-137733454D01*
X166982790Y-137685496D01*
X166994964Y-137681065D01*
X167190598Y-137589839D01*
X167201831Y-137583354D01*
X167230712Y-137563131D01*
X167303189Y-137536751D01*
X167379145Y-137550144D01*
X167438229Y-137599720D01*
X167464609Y-137672197D01*
X167451216Y-137748153D01*
X167429529Y-137780195D01*
X167430305Y-137780833D01*
X167243046Y-138008805D01*
X167237304Y-138016825D01*
X167084446Y-138263361D01*
X167079818Y-138272065D01*
X166960902Y-138536664D01*
X166957470Y-138545891D01*
X166874596Y-138823888D01*
X166872411Y-138833503D01*
X166826910Y-139120792D01*
X166826072Y-139129042D01*
X166822076Y-139217022D01*
X166822000Y-139220398D01*
X166822000Y-140806384D01*
X166826145Y-140821855D01*
X166841616Y-140826000D01*
X168806384Y-140826000D01*
X168821855Y-140821855D01*
X168826000Y-140806384D01*
X169334000Y-140806384D01*
X169338145Y-140821855D01*
X169353616Y-140826000D01*
X171318384Y-140826000D01*
X171333855Y-140821855D01*
X171338000Y-140806384D01*
X171338000Y-139256387D01*
X171337835Y-139251432D01*
X171323502Y-139035633D01*
X171322196Y-139025848D01*
X171264861Y-138741500D01*
X171262274Y-138731976D01*
X171167838Y-138457713D01*
X171164011Y-138448607D01*
X171034129Y-138189239D01*
X171029135Y-138180727D01*
X170866091Y-137940816D01*
X170860015Y-137933039D01*
X170666672Y-137716796D01*
X170659620Y-137709890D01*
X170439380Y-137521122D01*
X170431476Y-137515209D01*
X170188199Y-137357222D01*
X170179587Y-137352409D01*
X169917553Y-137227987D01*
X169908377Y-137224354D01*
X169632185Y-137135678D01*
X169622619Y-137133293D01*
X169353305Y-137084837D01*
X169337346Y-137086177D01*
X169334000Y-137093288D01*
X169334000Y-140806384D01*
X168826000Y-140806384D01*
X168826000Y-137105134D01*
X168821855Y-137089663D01*
X168811212Y-137086812D01*
X168738702Y-137093156D01*
X168728970Y-137094662D01*
X168445865Y-137157944D01*
X168436413Y-137160726D01*
X168164165Y-137260893D01*
X168155163Y-137264901D01*
X167898562Y-137400192D01*
X167890167Y-137405356D01*
X167751888Y-137503626D01*
X167679597Y-137530511D01*
X167603549Y-137517648D01*
X167544121Y-137468485D01*
X167517236Y-137396194D01*
X167530099Y-137320146D01*
X167546388Y-137294381D01*
X167545813Y-137293978D01*
X167673355Y-137111830D01*
X167679839Y-137100598D01*
X167771065Y-136904964D01*
X167775496Y-136892790D01*
X167831367Y-136684278D01*
X167833616Y-136671523D01*
X167847717Y-136510341D01*
X167848000Y-136503857D01*
X167848000Y-136273616D01*
X167843855Y-136258145D01*
X167828384Y-136254000D01*
X166813616Y-136254000D01*
X166798145Y-136258145D01*
X166794000Y-136273616D01*
X166794000Y-137716466D01*
X166286000Y-137716466D01*
X166286000Y-135726384D01*
X166794000Y-135726384D01*
X166798145Y-135741855D01*
X166813616Y-135746000D01*
X167828384Y-135746000D01*
X167843855Y-135741855D01*
X167848000Y-135726384D01*
X167848000Y-135496143D01*
X167847717Y-135489659D01*
X167833616Y-135328477D01*
X167831367Y-135315722D01*
X167775496Y-135107210D01*
X167771065Y-135095036D01*
X167679839Y-134899402D01*
X167673355Y-134888170D01*
X167549542Y-134711348D01*
X167541215Y-134701424D01*
X167388576Y-134548785D01*
X167378652Y-134540458D01*
X167201830Y-134416645D01*
X167190598Y-134410161D01*
X166994964Y-134318935D01*
X166982790Y-134314504D01*
X166812948Y-134268995D01*
X166796931Y-134268995D01*
X166794000Y-134274072D01*
X166794000Y-135726384D01*
X166286000Y-135726384D01*
X166286000Y-134283534D01*
X166281855Y-134268063D01*
X166276192Y-134266546D01*
X166097210Y-134314504D01*
X166085036Y-134318935D01*
X165889402Y-134410161D01*
X165878170Y-134416645D01*
X165701348Y-134540458D01*
X165691424Y-134548785D01*
X165538785Y-134701424D01*
X165530458Y-134711348D01*
X165406645Y-134888170D01*
X165400161Y-134899402D01*
X165345608Y-135016391D01*
X165296031Y-135075475D01*
X165223554Y-135101854D01*
X165147598Y-135088461D01*
X165088514Y-135038884D01*
X165076934Y-135019322D01*
X165031002Y-134926181D01*
X165027980Y-134920053D01*
X164895967Y-134743267D01*
X164890950Y-134738629D01*
X164890947Y-134738626D01*
X164738970Y-134598140D01*
X164738968Y-134598138D01*
X164733949Y-134593499D01*
X164728171Y-134589854D01*
X164728168Y-134589851D01*
X164553127Y-134479409D01*
X164547350Y-134475764D01*
X164342421Y-134394006D01*
X164282541Y-134382095D01*
X164132727Y-134352295D01*
X164132724Y-134352295D01*
X164126024Y-134350962D01*
X164014264Y-134349499D01*
X163912240Y-134348163D01*
X163912235Y-134348163D01*
X163905406Y-134348074D01*
X163898673Y-134349231D01*
X163898672Y-134349231D01*
X163776843Y-134370165D01*
X163687957Y-134385438D01*
X163681558Y-134387799D01*
X163681553Y-134387800D01*
X163603366Y-134416645D01*
X163480957Y-134461804D01*
X163291341Y-134574614D01*
X163125457Y-134720090D01*
X163121230Y-134725452D01*
X163121229Y-134725453D01*
X163110845Y-134738626D01*
X162988863Y-134893360D01*
X162977698Y-134914581D01*
X162912299Y-135038884D01*
X162886131Y-135088620D01*
X162884106Y-135095143D01*
X162822727Y-135292813D01*
X162822726Y-135292818D01*
X162820703Y-135299333D01*
X162819901Y-135306110D01*
X162819900Y-135306114D01*
X162817039Y-135330289D01*
X162799500Y-135478476D01*
X162799500Y-136505970D01*
X143847908Y-136505970D01*
X143848000Y-136503857D01*
X143848000Y-136273616D01*
X143843855Y-136258145D01*
X143828384Y-136254000D01*
X142813616Y-136254000D01*
X142798145Y-136258145D01*
X142794000Y-136273616D01*
X142794000Y-137716466D01*
X142286000Y-137716466D01*
X142286000Y-135726384D01*
X142794000Y-135726384D01*
X142798145Y-135741855D01*
X142813616Y-135746000D01*
X143828384Y-135746000D01*
X143843855Y-135741855D01*
X143848000Y-135726384D01*
X143848000Y-135496143D01*
X143847717Y-135489659D01*
X143833616Y-135328477D01*
X143831367Y-135315722D01*
X143775496Y-135107210D01*
X143771065Y-135095036D01*
X143679839Y-134899402D01*
X143673355Y-134888170D01*
X143549542Y-134711348D01*
X143541215Y-134701424D01*
X143388576Y-134548785D01*
X143378652Y-134540458D01*
X143201830Y-134416645D01*
X143190598Y-134410161D01*
X142994964Y-134318935D01*
X142982790Y-134314504D01*
X142812948Y-134268995D01*
X142796931Y-134268995D01*
X142794000Y-134274072D01*
X142794000Y-135726384D01*
X142286000Y-135726384D01*
X142286000Y-134283534D01*
X142281855Y-134268063D01*
X142276192Y-134266546D01*
X142097210Y-134314504D01*
X142085036Y-134318935D01*
X141889402Y-134410161D01*
X141878170Y-134416645D01*
X141701348Y-134540458D01*
X141691424Y-134548785D01*
X141538785Y-134701424D01*
X141530458Y-134711348D01*
X141406645Y-134888170D01*
X141400161Y-134899402D01*
X141345608Y-135016391D01*
X141296031Y-135075475D01*
X141223554Y-135101854D01*
X141147598Y-135088461D01*
X141088514Y-135038884D01*
X141076934Y-135019322D01*
X141031002Y-134926181D01*
X141027980Y-134920053D01*
X140895967Y-134743267D01*
X140890950Y-134738629D01*
X140890947Y-134738626D01*
X140738970Y-134598140D01*
X140738968Y-134598138D01*
X140733949Y-134593499D01*
X140728171Y-134589854D01*
X140728168Y-134589851D01*
X140553127Y-134479409D01*
X140547350Y-134475764D01*
X140342421Y-134394006D01*
X140282541Y-134382095D01*
X140132727Y-134352295D01*
X140132724Y-134352295D01*
X140126024Y-134350962D01*
X140014264Y-134349499D01*
X139912240Y-134348163D01*
X139912235Y-134348163D01*
X139905406Y-134348074D01*
X139898673Y-134349231D01*
X139898672Y-134349231D01*
X139776843Y-134370165D01*
X139687957Y-134385438D01*
X139681558Y-134387799D01*
X139681553Y-134387800D01*
X139603366Y-134416645D01*
X139480957Y-134461804D01*
X139291341Y-134574614D01*
X139125457Y-134720090D01*
X139121230Y-134725452D01*
X139121229Y-134725453D01*
X139110845Y-134738626D01*
X138988863Y-134893360D01*
X138977698Y-134914581D01*
X138912299Y-135038884D01*
X138886131Y-135088620D01*
X138884106Y-135095143D01*
X138822727Y-135292813D01*
X138822726Y-135292818D01*
X138820703Y-135299333D01*
X138819901Y-135306110D01*
X138819900Y-135306114D01*
X138817039Y-135330289D01*
X138799500Y-135478476D01*
X138799500Y-136505970D01*
X122400000Y-136505970D01*
X122400000Y-121389455D01*
X144044825Y-121389455D01*
X144045637Y-121397737D01*
X144045637Y-121397741D01*
X144048381Y-121425725D01*
X144061255Y-121557025D01*
X144114402Y-121716791D01*
X144201624Y-121860812D01*
X144318586Y-121981929D01*
X144325555Y-121986490D01*
X144325557Y-121986491D01*
X144452503Y-122069563D01*
X144452506Y-122069564D01*
X144459475Y-122074125D01*
X144617289Y-122132815D01*
X144625543Y-122133916D01*
X144625546Y-122133917D01*
X144775928Y-122153982D01*
X144775932Y-122153982D01*
X144784183Y-122155083D01*
X144892053Y-122145266D01*
X144943570Y-122140578D01*
X144943572Y-122140578D01*
X144951864Y-122139823D01*
X145111997Y-122087793D01*
X145256623Y-122001578D01*
X145378554Y-121885465D01*
X145394934Y-121860812D01*
X145467120Y-121752163D01*
X145471731Y-121745223D01*
X145531521Y-121587823D01*
X145554955Y-121421088D01*
X145555249Y-121400000D01*
X145536481Y-121232676D01*
X145481108Y-121073668D01*
X145391884Y-120930879D01*
X145273242Y-120811406D01*
X145266212Y-120806945D01*
X145266210Y-120806943D01*
X145138112Y-120725650D01*
X145138110Y-120725649D01*
X145131079Y-120721187D01*
X145123233Y-120718393D01*
X144980304Y-120667498D01*
X144980301Y-120667497D01*
X144972462Y-120664706D01*
X144964199Y-120663721D01*
X144964196Y-120663720D01*
X144869685Y-120652450D01*
X144805273Y-120644769D01*
X144796995Y-120645639D01*
X144796993Y-120645639D01*
X144721547Y-120653569D01*
X144637821Y-120662369D01*
X144478431Y-120716630D01*
X144335022Y-120804856D01*
X144214724Y-120922661D01*
X144123515Y-121064190D01*
X144065927Y-121222409D01*
X144064884Y-121230668D01*
X144064883Y-121230671D01*
X144056998Y-121293094D01*
X144044825Y-121389455D01*
X122400000Y-121389455D01*
X122400000Y-119789455D01*
X146944825Y-119789455D01*
X146945637Y-119797737D01*
X146945637Y-119797741D01*
X146948381Y-119825725D01*
X146961255Y-119957025D01*
X147014402Y-120116791D01*
X147101624Y-120260812D01*
X147218586Y-120381929D01*
X147225555Y-120386490D01*
X147225557Y-120386491D01*
X147352503Y-120469563D01*
X147352506Y-120469564D01*
X147359475Y-120474125D01*
X147517289Y-120532815D01*
X147525543Y-120533916D01*
X147525546Y-120533917D01*
X147675928Y-120553982D01*
X147675932Y-120553982D01*
X147684183Y-120555083D01*
X147792053Y-120545266D01*
X147843570Y-120540578D01*
X147843572Y-120540578D01*
X147851864Y-120539823D01*
X148011997Y-120487793D01*
X148156623Y-120401578D01*
X148278554Y-120285465D01*
X148294934Y-120260812D01*
X148367120Y-120152163D01*
X148371731Y-120145223D01*
X148431521Y-119987823D01*
X148454955Y-119821088D01*
X148455249Y-119800000D01*
X148436481Y-119632676D01*
X148381108Y-119473668D01*
X148291884Y-119330879D01*
X148173242Y-119211406D01*
X148166212Y-119206945D01*
X148166210Y-119206943D01*
X148038112Y-119125650D01*
X148038110Y-119125649D01*
X148031079Y-119121187D01*
X148023233Y-119118393D01*
X147880304Y-119067498D01*
X147880301Y-119067497D01*
X147872462Y-119064706D01*
X147864199Y-119063721D01*
X147864196Y-119063720D01*
X147769685Y-119052450D01*
X147705273Y-119044769D01*
X147696995Y-119045639D01*
X147696993Y-119045639D01*
X147621547Y-119053569D01*
X147537821Y-119062369D01*
X147378431Y-119116630D01*
X147235022Y-119204856D01*
X147114724Y-119322661D01*
X147023515Y-119464190D01*
X146965927Y-119622409D01*
X146964884Y-119630668D01*
X146964883Y-119630671D01*
X146956998Y-119693094D01*
X146944825Y-119789455D01*
X122400000Y-119789455D01*
X122400000Y-116189455D01*
X164544825Y-116189455D01*
X164545637Y-116197737D01*
X164545637Y-116197741D01*
X164548381Y-116225725D01*
X164561255Y-116357025D01*
X164614402Y-116516791D01*
X164701624Y-116660812D01*
X164818586Y-116781929D01*
X164825555Y-116786490D01*
X164825557Y-116786491D01*
X164952503Y-116869563D01*
X164952506Y-116869564D01*
X164959475Y-116874125D01*
X165117289Y-116932815D01*
X165125543Y-116933916D01*
X165125546Y-116933917D01*
X165275928Y-116953982D01*
X165275932Y-116953982D01*
X165284183Y-116955083D01*
X165392053Y-116945266D01*
X165443570Y-116940578D01*
X165443572Y-116940578D01*
X165451864Y-116939823D01*
X165611997Y-116887793D01*
X165756623Y-116801578D01*
X165878554Y-116685465D01*
X165894934Y-116660812D01*
X165967120Y-116552163D01*
X165971731Y-116545223D01*
X166031521Y-116387823D01*
X166054955Y-116221088D01*
X166055249Y-116200000D01*
X166036481Y-116032676D01*
X165981108Y-115873668D01*
X165891884Y-115730879D01*
X165886015Y-115724969D01*
X165886012Y-115724965D01*
X165867362Y-115706184D01*
X165829031Y-115639255D01*
X165829301Y-115562127D01*
X165867570Y-115497929D01*
X165867167Y-115497591D01*
X165869256Y-115495102D01*
X165870334Y-115493293D01*
X165872522Y-115491210D01*
X165872525Y-115491206D01*
X165878554Y-115485465D01*
X165894934Y-115460812D01*
X165967120Y-115352163D01*
X165971731Y-115345223D01*
X166031521Y-115187823D01*
X166054955Y-115021088D01*
X166055249Y-115000000D01*
X166036481Y-114832676D01*
X165981108Y-114673668D01*
X165891884Y-114530879D01*
X165773242Y-114411406D01*
X165766212Y-114406945D01*
X165766210Y-114406943D01*
X165638112Y-114325650D01*
X165638110Y-114325649D01*
X165631079Y-114321187D01*
X165623233Y-114318393D01*
X165480304Y-114267498D01*
X165480301Y-114267497D01*
X165472462Y-114264706D01*
X165464199Y-114263721D01*
X165464196Y-114263720D01*
X165369685Y-114252450D01*
X165305273Y-114244769D01*
X165296995Y-114245639D01*
X165296993Y-114245639D01*
X165221547Y-114253569D01*
X165137821Y-114262369D01*
X164978431Y-114316630D01*
X164835022Y-114404856D01*
X164714724Y-114522661D01*
X164623515Y-114664190D01*
X164565927Y-114822409D01*
X164564884Y-114830668D01*
X164564883Y-114830671D01*
X164556998Y-114893094D01*
X164544825Y-114989455D01*
X164545637Y-114997737D01*
X164545637Y-114997741D01*
X164548381Y-115025725D01*
X164561255Y-115157025D01*
X164614402Y-115316791D01*
X164701624Y-115460812D01*
X164735170Y-115495550D01*
X164772563Y-115563005D01*
X164771218Y-115640121D01*
X164732239Y-115705509D01*
X164714724Y-115722661D01*
X164623515Y-115864190D01*
X164565927Y-116022409D01*
X164564884Y-116030668D01*
X164564883Y-116030671D01*
X164556998Y-116093094D01*
X164544825Y-116189455D01*
X122400000Y-116189455D01*
X122400000Y-110789455D01*
X132144825Y-110789455D01*
X132145637Y-110797737D01*
X132145637Y-110797741D01*
X132148204Y-110823916D01*
X132161255Y-110957025D01*
X132163881Y-110964920D01*
X132163882Y-110964923D01*
X132207431Y-111095836D01*
X132214402Y-111116791D01*
X132301624Y-111260812D01*
X132418586Y-111381929D01*
X132425555Y-111386490D01*
X132425557Y-111386491D01*
X132552503Y-111469563D01*
X132552506Y-111469564D01*
X132559475Y-111474125D01*
X132717289Y-111532815D01*
X132725543Y-111533916D01*
X132725546Y-111533917D01*
X132875928Y-111553982D01*
X132875932Y-111553982D01*
X132884183Y-111555083D01*
X132992053Y-111545266D01*
X133043570Y-111540578D01*
X133043572Y-111540578D01*
X133051864Y-111539823D01*
X133211997Y-111487793D01*
X133356623Y-111401578D01*
X133478554Y-111285465D01*
X133494934Y-111260812D01*
X133567120Y-111152163D01*
X133571731Y-111145223D01*
X133631521Y-110987823D01*
X133632828Y-110978528D01*
X133641441Y-110917239D01*
X133654955Y-110821088D01*
X133655249Y-110800000D01*
X133636481Y-110632676D01*
X133586606Y-110489455D01*
X153444825Y-110489455D01*
X153445637Y-110497737D01*
X153445637Y-110497741D01*
X153448381Y-110525725D01*
X153461255Y-110657025D01*
X153463881Y-110664920D01*
X153463882Y-110664923D01*
X153507266Y-110795340D01*
X153514402Y-110816791D01*
X153601624Y-110960812D01*
X153718586Y-111081929D01*
X153725555Y-111086490D01*
X153725557Y-111086491D01*
X153852503Y-111169563D01*
X153852506Y-111169564D01*
X153859475Y-111174125D01*
X154017289Y-111232815D01*
X154025543Y-111233916D01*
X154025546Y-111233917D01*
X154175928Y-111253982D01*
X154175932Y-111253982D01*
X154184183Y-111255083D01*
X154292053Y-111245266D01*
X154343570Y-111240578D01*
X154343572Y-111240578D01*
X154351864Y-111239823D01*
X154511997Y-111187793D01*
X154631103Y-111116791D01*
X154649472Y-111105841D01*
X154649473Y-111105840D01*
X154656623Y-111101578D01*
X154778554Y-110985465D01*
X154794934Y-110960812D01*
X154867120Y-110852163D01*
X154871731Y-110845223D01*
X154931521Y-110687823D01*
X154954955Y-110521088D01*
X154955249Y-110500000D01*
X154936481Y-110332676D01*
X154881108Y-110173668D01*
X154791884Y-110030879D01*
X154673242Y-109911406D01*
X154666212Y-109906945D01*
X154666210Y-109906943D01*
X154538112Y-109825650D01*
X154538110Y-109825649D01*
X154531079Y-109821187D01*
X154523233Y-109818393D01*
X154380304Y-109767498D01*
X154380301Y-109767497D01*
X154372462Y-109764706D01*
X154364199Y-109763721D01*
X154364196Y-109763720D01*
X154269685Y-109752450D01*
X154205273Y-109744769D01*
X154196995Y-109745639D01*
X154196993Y-109745639D01*
X154121547Y-109753569D01*
X154037821Y-109762369D01*
X153878431Y-109816630D01*
X153735022Y-109904856D01*
X153614724Y-110022661D01*
X153523515Y-110164190D01*
X153520667Y-110172016D01*
X153520666Y-110172017D01*
X153507954Y-110206943D01*
X153465927Y-110322409D01*
X153464884Y-110330668D01*
X153464883Y-110330671D01*
X153456998Y-110393094D01*
X153444825Y-110489455D01*
X133586606Y-110489455D01*
X133581108Y-110473668D01*
X133491884Y-110330879D01*
X133373242Y-110211406D01*
X133366212Y-110206945D01*
X133366210Y-110206943D01*
X133238112Y-110125650D01*
X133238110Y-110125649D01*
X133231079Y-110121187D01*
X133223233Y-110118393D01*
X133080304Y-110067498D01*
X133080301Y-110067497D01*
X133072462Y-110064706D01*
X133064199Y-110063721D01*
X133064196Y-110063720D01*
X132969685Y-110052450D01*
X132905273Y-110044769D01*
X132896995Y-110045639D01*
X132896993Y-110045639D01*
X132821547Y-110053569D01*
X132737821Y-110062369D01*
X132578431Y-110116630D01*
X132435022Y-110204856D01*
X132314724Y-110322661D01*
X132223515Y-110464190D01*
X132165927Y-110622409D01*
X132164884Y-110630668D01*
X132164883Y-110630671D01*
X132162601Y-110648740D01*
X132144825Y-110789455D01*
X122400000Y-110789455D01*
X122400000Y-107989455D01*
X132144825Y-107989455D01*
X132145637Y-107997737D01*
X132145637Y-107997741D01*
X132148204Y-108023916D01*
X132161255Y-108157025D01*
X132163881Y-108164920D01*
X132163882Y-108164923D01*
X132207431Y-108295836D01*
X132214402Y-108316791D01*
X132301624Y-108460812D01*
X132418586Y-108581929D01*
X132425555Y-108586490D01*
X132425557Y-108586491D01*
X132552503Y-108669563D01*
X132552506Y-108669564D01*
X132559475Y-108674125D01*
X132717289Y-108732815D01*
X132725543Y-108733916D01*
X132725546Y-108733917D01*
X132875928Y-108753982D01*
X132875932Y-108753982D01*
X132884183Y-108755083D01*
X132992053Y-108745266D01*
X133043570Y-108740578D01*
X133043572Y-108740578D01*
X133051864Y-108739823D01*
X133211997Y-108687793D01*
X133356623Y-108601578D01*
X133478554Y-108485465D01*
X133494934Y-108460812D01*
X133567120Y-108352163D01*
X133571731Y-108345223D01*
X133631521Y-108187823D01*
X133632828Y-108178528D01*
X133641441Y-108117239D01*
X133654955Y-108021088D01*
X133655249Y-108000000D01*
X133636481Y-107832676D01*
X133581108Y-107673668D01*
X133491884Y-107530879D01*
X133373242Y-107411406D01*
X133366212Y-107406945D01*
X133366210Y-107406943D01*
X133238112Y-107325650D01*
X133238110Y-107325649D01*
X133231079Y-107321187D01*
X133223233Y-107318393D01*
X133080304Y-107267498D01*
X133080301Y-107267497D01*
X133072462Y-107264706D01*
X133064199Y-107263721D01*
X133064196Y-107263720D01*
X132969685Y-107252450D01*
X132905273Y-107244769D01*
X132896995Y-107245639D01*
X132896993Y-107245639D01*
X132821547Y-107253569D01*
X132737821Y-107262369D01*
X132578431Y-107316630D01*
X132435022Y-107404856D01*
X132379844Y-107458891D01*
X132342743Y-107495223D01*
X132314724Y-107522661D01*
X132223515Y-107664190D01*
X132165927Y-107822409D01*
X132164884Y-107830668D01*
X132164883Y-107830671D01*
X132162601Y-107848740D01*
X132144825Y-107989455D01*
X122400000Y-107989455D01*
X122400000Y-107139455D01*
X140194825Y-107139455D01*
X140195637Y-107147737D01*
X140195637Y-107147741D01*
X140198381Y-107175725D01*
X140211255Y-107307025D01*
X140213881Y-107314920D01*
X140213882Y-107314923D01*
X140261774Y-107458891D01*
X140264402Y-107466791D01*
X140351624Y-107610812D01*
X140468586Y-107731929D01*
X140475555Y-107736490D01*
X140475557Y-107736491D01*
X140602503Y-107819563D01*
X140602506Y-107819564D01*
X140609475Y-107824125D01*
X140767289Y-107882815D01*
X140775543Y-107883916D01*
X140775546Y-107883917D01*
X140925928Y-107903982D01*
X140925932Y-107903982D01*
X140934183Y-107905083D01*
X141042053Y-107895266D01*
X141093570Y-107890578D01*
X141093572Y-107890578D01*
X141101864Y-107889823D01*
X141261997Y-107837793D01*
X141406623Y-107751578D01*
X141471859Y-107689455D01*
X158844825Y-107689455D01*
X158845637Y-107697737D01*
X158845637Y-107697741D01*
X158849437Y-107736491D01*
X158861255Y-107857025D01*
X158863881Y-107864920D01*
X158863882Y-107864923D01*
X158907266Y-107995340D01*
X158914402Y-108016791D01*
X159001624Y-108160812D01*
X159118586Y-108281929D01*
X159125555Y-108286490D01*
X159125557Y-108286491D01*
X159252503Y-108369563D01*
X159252506Y-108369564D01*
X159259475Y-108374125D01*
X159417289Y-108432815D01*
X159425543Y-108433916D01*
X159425546Y-108433917D01*
X159575928Y-108453982D01*
X159575932Y-108453982D01*
X159584183Y-108455083D01*
X159692053Y-108445266D01*
X159743570Y-108440578D01*
X159743572Y-108440578D01*
X159751864Y-108439823D01*
X159911997Y-108387793D01*
X160031103Y-108316791D01*
X160049472Y-108305841D01*
X160049473Y-108305840D01*
X160056623Y-108301578D01*
X160178554Y-108185465D01*
X160194934Y-108160812D01*
X160267120Y-108052163D01*
X160271731Y-108045223D01*
X160331521Y-107887823D01*
X160354955Y-107721088D01*
X160355249Y-107700000D01*
X160336481Y-107532676D01*
X160281108Y-107373668D01*
X160191884Y-107230879D01*
X160073242Y-107111406D01*
X160066212Y-107106945D01*
X160066210Y-107106943D01*
X159938112Y-107025650D01*
X159938110Y-107025649D01*
X159931079Y-107021187D01*
X159923233Y-107018393D01*
X159780304Y-106967498D01*
X159780301Y-106967497D01*
X159772462Y-106964706D01*
X159764199Y-106963721D01*
X159764196Y-106963720D01*
X159669685Y-106952450D01*
X159605273Y-106944769D01*
X159596995Y-106945639D01*
X159596993Y-106945639D01*
X159521547Y-106953569D01*
X159437821Y-106962369D01*
X159278431Y-107016630D01*
X159135022Y-107104856D01*
X159014724Y-107222661D01*
X158923515Y-107364190D01*
X158920667Y-107372016D01*
X158920666Y-107372017D01*
X158907954Y-107406943D01*
X158865927Y-107522409D01*
X158864884Y-107530668D01*
X158864883Y-107530671D01*
X158856998Y-107593094D01*
X158844825Y-107689455D01*
X141471859Y-107689455D01*
X141528554Y-107635465D01*
X141544934Y-107610812D01*
X141617120Y-107502163D01*
X141621731Y-107495223D01*
X141681521Y-107337823D01*
X141704955Y-107171088D01*
X141705249Y-107150000D01*
X141686481Y-106982676D01*
X141631108Y-106823668D01*
X141541884Y-106680879D01*
X141423242Y-106561406D01*
X141416212Y-106556945D01*
X141416210Y-106556943D01*
X141288112Y-106475650D01*
X141288110Y-106475649D01*
X141281079Y-106471187D01*
X141273233Y-106468393D01*
X141130304Y-106417498D01*
X141130301Y-106417497D01*
X141122462Y-106414706D01*
X141114199Y-106413721D01*
X141114196Y-106413720D01*
X141019685Y-106402450D01*
X140955273Y-106394769D01*
X140946995Y-106395639D01*
X140946993Y-106395639D01*
X140871547Y-106403569D01*
X140787821Y-106412369D01*
X140628431Y-106466630D01*
X140485022Y-106554856D01*
X140364724Y-106672661D01*
X140273515Y-106814190D01*
X140215927Y-106972409D01*
X140214884Y-106980668D01*
X140214883Y-106980671D01*
X140210680Y-107013946D01*
X140194825Y-107139455D01*
X122400000Y-107139455D01*
X122400000Y-105689455D01*
X160244825Y-105689455D01*
X160245637Y-105697737D01*
X160245637Y-105697741D01*
X160248381Y-105725725D01*
X160261255Y-105857025D01*
X160314402Y-106016791D01*
X160401624Y-106160812D01*
X160518586Y-106281929D01*
X160525555Y-106286490D01*
X160525557Y-106286491D01*
X160652503Y-106369563D01*
X160652506Y-106369564D01*
X160659475Y-106374125D01*
X160667285Y-106377029D01*
X160667286Y-106377030D01*
X160717325Y-106395639D01*
X160817289Y-106432815D01*
X160825543Y-106433916D01*
X160825546Y-106433917D01*
X160975928Y-106453982D01*
X160975932Y-106453982D01*
X160984183Y-106455083D01*
X161092053Y-106445266D01*
X161143570Y-106440578D01*
X161143572Y-106440578D01*
X161151864Y-106439823D01*
X161311997Y-106387793D01*
X161456623Y-106301578D01*
X161578554Y-106185465D01*
X161594934Y-106160812D01*
X161667120Y-106052163D01*
X161671731Y-106045223D01*
X161731521Y-105887823D01*
X161754955Y-105721088D01*
X161755249Y-105700000D01*
X161736481Y-105532676D01*
X161681108Y-105373668D01*
X161591884Y-105230879D01*
X161473242Y-105111406D01*
X161466212Y-105106945D01*
X161466210Y-105106943D01*
X161338112Y-105025650D01*
X161338110Y-105025649D01*
X161331079Y-105021187D01*
X161323233Y-105018393D01*
X161180304Y-104967498D01*
X161180301Y-104967497D01*
X161172462Y-104964706D01*
X161164199Y-104963721D01*
X161164196Y-104963720D01*
X161069685Y-104952450D01*
X161005273Y-104944769D01*
X160996995Y-104945639D01*
X160996993Y-104945639D01*
X160921547Y-104953569D01*
X160837821Y-104962369D01*
X160678431Y-105016630D01*
X160535022Y-105104856D01*
X160414724Y-105222661D01*
X160323515Y-105364190D01*
X160265927Y-105522409D01*
X160264884Y-105530668D01*
X160264883Y-105530671D01*
X160256998Y-105593094D01*
X160244825Y-105689455D01*
X122400000Y-105689455D01*
X122400000Y-104189455D01*
X141044825Y-104189455D01*
X141045637Y-104197737D01*
X141045637Y-104197741D01*
X141048204Y-104223916D01*
X141061255Y-104357025D01*
X141063881Y-104364920D01*
X141063882Y-104364923D01*
X141105892Y-104491209D01*
X141114402Y-104516791D01*
X141201624Y-104660812D01*
X141207412Y-104666805D01*
X141207413Y-104666807D01*
X141218732Y-104678528D01*
X141318586Y-104781929D01*
X141325555Y-104786490D01*
X141325557Y-104786491D01*
X141452503Y-104869563D01*
X141452506Y-104869564D01*
X141459475Y-104874125D01*
X141617289Y-104932815D01*
X141625543Y-104933916D01*
X141625546Y-104933917D01*
X141775928Y-104953982D01*
X141775932Y-104953982D01*
X141784183Y-104955083D01*
X141897516Y-104944769D01*
X141943570Y-104940578D01*
X141943572Y-104940578D01*
X141951864Y-104939823D01*
X142111997Y-104887793D01*
X142256623Y-104801578D01*
X142378554Y-104685465D01*
X142394934Y-104660812D01*
X142467120Y-104552163D01*
X142471731Y-104545223D01*
X142531521Y-104387823D01*
X142532828Y-104378528D01*
X142542615Y-104308891D01*
X142554955Y-104221088D01*
X142555249Y-104200000D01*
X142536481Y-104032676D01*
X142481108Y-103873668D01*
X142391884Y-103730879D01*
X142273242Y-103611406D01*
X142266212Y-103606945D01*
X142266210Y-103606943D01*
X142138112Y-103525650D01*
X142138110Y-103525649D01*
X142131079Y-103521187D01*
X142118852Y-103516833D01*
X141980304Y-103467498D01*
X141980301Y-103467497D01*
X141972462Y-103464706D01*
X141964199Y-103463721D01*
X141964196Y-103463720D01*
X141869685Y-103452450D01*
X141805273Y-103444769D01*
X141796995Y-103445639D01*
X141796993Y-103445639D01*
X141721547Y-103453569D01*
X141637821Y-103462369D01*
X141478431Y-103516630D01*
X141471335Y-103520996D01*
X141471334Y-103520996D01*
X141362709Y-103587823D01*
X141335022Y-103604856D01*
X141214724Y-103722661D01*
X141210213Y-103729661D01*
X141210212Y-103729662D01*
X141204875Y-103737943D01*
X141123515Y-103864190D01*
X141065927Y-104022409D01*
X141064884Y-104030668D01*
X141064883Y-104030671D01*
X141057667Y-104087793D01*
X141044825Y-104189455D01*
X122400000Y-104189455D01*
X122400000Y-103389455D01*
X136644825Y-103389455D01*
X136645637Y-103397737D01*
X136645637Y-103397741D01*
X136652203Y-103464706D01*
X136661255Y-103557025D01*
X136663881Y-103564920D01*
X136663882Y-103564923D01*
X136711774Y-103708891D01*
X136714402Y-103716791D01*
X136801624Y-103860812D01*
X136807412Y-103866805D01*
X136807413Y-103866807D01*
X136843989Y-103904682D01*
X136918586Y-103981929D01*
X136925555Y-103986490D01*
X136925557Y-103986491D01*
X137052503Y-104069563D01*
X137052506Y-104069564D01*
X137059475Y-104074125D01*
X137067285Y-104077029D01*
X137067286Y-104077030D01*
X137084756Y-104083527D01*
X137217289Y-104132815D01*
X137225543Y-104133916D01*
X137225546Y-104133917D01*
X137375928Y-104153982D01*
X137375932Y-104153982D01*
X137384183Y-104155083D01*
X137492053Y-104145266D01*
X137543570Y-104140578D01*
X137543572Y-104140578D01*
X137551864Y-104139823D01*
X137711997Y-104087793D01*
X137856623Y-104001578D01*
X137978554Y-103885465D01*
X137994934Y-103860812D01*
X138067120Y-103752163D01*
X138071731Y-103745223D01*
X138131521Y-103587823D01*
X138133511Y-103573668D01*
X138148776Y-103465052D01*
X138154955Y-103421088D01*
X138155177Y-103405171D01*
X138155184Y-103404682D01*
X138155184Y-103404678D01*
X138155249Y-103400000D01*
X138154121Y-103389944D01*
X143144336Y-103389944D01*
X143145148Y-103398226D01*
X143145148Y-103398230D01*
X143149797Y-103445639D01*
X143160766Y-103557514D01*
X143163392Y-103565409D01*
X143163393Y-103565412D01*
X143178693Y-103611406D01*
X143213913Y-103717280D01*
X143301135Y-103861301D01*
X143306923Y-103867294D01*
X143306924Y-103867296D01*
X143358871Y-103921088D01*
X143418097Y-103982418D01*
X143425066Y-103986979D01*
X143425068Y-103986980D01*
X143552014Y-104070052D01*
X143552017Y-104070053D01*
X143558986Y-104074614D01*
X143566796Y-104077518D01*
X143566797Y-104077519D01*
X143594504Y-104087823D01*
X143716800Y-104133304D01*
X143725054Y-104134405D01*
X143725057Y-104134406D01*
X143875439Y-104154471D01*
X143875443Y-104154471D01*
X143883694Y-104155572D01*
X143991564Y-104145755D01*
X144043081Y-104141067D01*
X144043083Y-104141067D01*
X144051375Y-104140312D01*
X144211508Y-104088282D01*
X144356134Y-104002067D01*
X144369378Y-103989455D01*
X145744825Y-103989455D01*
X145745637Y-103997737D01*
X145745637Y-103997741D01*
X145752679Y-104069563D01*
X145761255Y-104157025D01*
X145763881Y-104164920D01*
X145763882Y-104164923D01*
X145792903Y-104252163D01*
X145814402Y-104316791D01*
X145901624Y-104460812D01*
X145907412Y-104466805D01*
X145907413Y-104466807D01*
X145925431Y-104485465D01*
X146018586Y-104581929D01*
X146025555Y-104586490D01*
X146025557Y-104586491D01*
X146152503Y-104669563D01*
X146152506Y-104669564D01*
X146159475Y-104674125D01*
X146167285Y-104677029D01*
X146167286Y-104677030D01*
X146196227Y-104687793D01*
X146317289Y-104732815D01*
X146325543Y-104733916D01*
X146325546Y-104733917D01*
X146475928Y-104753982D01*
X146475932Y-104753982D01*
X146484183Y-104755083D01*
X146592053Y-104745266D01*
X146643570Y-104740578D01*
X146643572Y-104740578D01*
X146651864Y-104739823D01*
X146811997Y-104687793D01*
X146956623Y-104601578D01*
X147078554Y-104485465D01*
X147094934Y-104460812D01*
X147167120Y-104352163D01*
X147171731Y-104345223D01*
X147231521Y-104187823D01*
X147236123Y-104155083D01*
X147247024Y-104077519D01*
X147254955Y-104021088D01*
X147255249Y-104000000D01*
X147242850Y-103889455D01*
X156244825Y-103889455D01*
X156245637Y-103897737D01*
X156245637Y-103897741D01*
X156248381Y-103925725D01*
X156261255Y-104057025D01*
X156263881Y-104064920D01*
X156263882Y-104064923D01*
X156307266Y-104195340D01*
X156314402Y-104216791D01*
X156401624Y-104360812D01*
X156518586Y-104481929D01*
X156525555Y-104486490D01*
X156525557Y-104486491D01*
X156652503Y-104569563D01*
X156652506Y-104569564D01*
X156659475Y-104574125D01*
X156667285Y-104577029D01*
X156667286Y-104577030D01*
X156684756Y-104583527D01*
X156817289Y-104632815D01*
X156825543Y-104633916D01*
X156825546Y-104633917D01*
X156975928Y-104653982D01*
X156975932Y-104653982D01*
X156984183Y-104655083D01*
X157092053Y-104645266D01*
X157143570Y-104640578D01*
X157143572Y-104640578D01*
X157151864Y-104639823D01*
X157311997Y-104587793D01*
X157431103Y-104516791D01*
X157449472Y-104505841D01*
X157449473Y-104505840D01*
X157456623Y-104501578D01*
X157578554Y-104385465D01*
X157594934Y-104360812D01*
X157667120Y-104252163D01*
X157671731Y-104245223D01*
X157731521Y-104087823D01*
X157733378Y-104074614D01*
X157747178Y-103976423D01*
X157754955Y-103921088D01*
X157755249Y-103900000D01*
X157736481Y-103732676D01*
X157681108Y-103573668D01*
X157591884Y-103430879D01*
X157473242Y-103311406D01*
X157466212Y-103306945D01*
X157466210Y-103306943D01*
X157338112Y-103225650D01*
X157338110Y-103225649D01*
X157331079Y-103221187D01*
X157323233Y-103218393D01*
X157180304Y-103167498D01*
X157180301Y-103167497D01*
X157172462Y-103164706D01*
X157164199Y-103163721D01*
X157164196Y-103163720D01*
X157069685Y-103152450D01*
X157005273Y-103144769D01*
X156996995Y-103145639D01*
X156996993Y-103145639D01*
X156921547Y-103153569D01*
X156837821Y-103162369D01*
X156678431Y-103216630D01*
X156671335Y-103220996D01*
X156671334Y-103220996D01*
X156605498Y-103261499D01*
X156535022Y-103304856D01*
X156513788Y-103325650D01*
X156430775Y-103406943D01*
X156414724Y-103422661D01*
X156323515Y-103564190D01*
X156320667Y-103572016D01*
X156320666Y-103572017D01*
X156307954Y-103606943D01*
X156265927Y-103722409D01*
X156264884Y-103730668D01*
X156264883Y-103730671D01*
X156256998Y-103793094D01*
X156244825Y-103889455D01*
X147242850Y-103889455D01*
X147236481Y-103832676D01*
X147181108Y-103673668D01*
X147091884Y-103530879D01*
X146973242Y-103411406D01*
X146966212Y-103406945D01*
X146966210Y-103406943D01*
X146838112Y-103325650D01*
X146838110Y-103325649D01*
X146831079Y-103321187D01*
X146823233Y-103318393D01*
X146680304Y-103267498D01*
X146680301Y-103267497D01*
X146672462Y-103264706D01*
X146664199Y-103263721D01*
X146664196Y-103263720D01*
X146569685Y-103252450D01*
X146505273Y-103244769D01*
X146496995Y-103245639D01*
X146496993Y-103245639D01*
X146421547Y-103253569D01*
X146337821Y-103262369D01*
X146178431Y-103316630D01*
X146035022Y-103404856D01*
X145977180Y-103461499D01*
X145920883Y-103516630D01*
X145914724Y-103522661D01*
X145823515Y-103664190D01*
X145765927Y-103822409D01*
X145764884Y-103830668D01*
X145764883Y-103830671D01*
X145761976Y-103853685D01*
X145744825Y-103989455D01*
X144369378Y-103989455D01*
X144478065Y-103885954D01*
X144494445Y-103861301D01*
X144566631Y-103752652D01*
X144571242Y-103745712D01*
X144631032Y-103588312D01*
X144639935Y-103524970D01*
X144652166Y-103437943D01*
X144654466Y-103421577D01*
X144654760Y-103400489D01*
X144635992Y-103233165D01*
X144580619Y-103074157D01*
X144491395Y-102931368D01*
X144372753Y-102811895D01*
X144365723Y-102807434D01*
X144365721Y-102807432D01*
X144237623Y-102726139D01*
X144237621Y-102726138D01*
X144230590Y-102721676D01*
X144222744Y-102718882D01*
X144079815Y-102667987D01*
X144079812Y-102667986D01*
X144071973Y-102665195D01*
X144063710Y-102664210D01*
X144063707Y-102664209D01*
X143969196Y-102652939D01*
X143904784Y-102645258D01*
X143896506Y-102646128D01*
X143896504Y-102646128D01*
X143821058Y-102654058D01*
X143737332Y-102662858D01*
X143577942Y-102717119D01*
X143434533Y-102805345D01*
X143372713Y-102865884D01*
X143320686Y-102916833D01*
X143314235Y-102923150D01*
X143309724Y-102930150D01*
X143309723Y-102930151D01*
X143304386Y-102938432D01*
X143223026Y-103064679D01*
X143165438Y-103222898D01*
X143164395Y-103231157D01*
X143164394Y-103231160D01*
X143160113Y-103265052D01*
X143144336Y-103389944D01*
X138154121Y-103389944D01*
X138136481Y-103232676D01*
X138081108Y-103073668D01*
X137991884Y-102930879D01*
X137932563Y-102871142D01*
X137879110Y-102817315D01*
X137873242Y-102811406D01*
X137866212Y-102806945D01*
X137866210Y-102806943D01*
X137738112Y-102725650D01*
X137738110Y-102725649D01*
X137731079Y-102721187D01*
X137719655Y-102717119D01*
X137580304Y-102667498D01*
X137580301Y-102667497D01*
X137572462Y-102664706D01*
X137564199Y-102663721D01*
X137564196Y-102663720D01*
X137469685Y-102652450D01*
X137405273Y-102644769D01*
X137396995Y-102645639D01*
X137396993Y-102645639D01*
X137321547Y-102653569D01*
X137237821Y-102662369D01*
X137078431Y-102716630D01*
X136935022Y-102804856D01*
X136814724Y-102922661D01*
X136723515Y-103064190D01*
X136665927Y-103222409D01*
X136664884Y-103230668D01*
X136664883Y-103230671D01*
X136663522Y-103241449D01*
X136644825Y-103389455D01*
X122400000Y-103389455D01*
X122400000Y-101794646D01*
X174874500Y-101794646D01*
X174913856Y-101979803D01*
X174990849Y-102152730D01*
X175102112Y-102305871D01*
X175164002Y-102361597D01*
X175236979Y-102427307D01*
X175236984Y-102427311D01*
X175242784Y-102432533D01*
X175249544Y-102436436D01*
X175249547Y-102436438D01*
X175312244Y-102472635D01*
X175406716Y-102527179D01*
X175586744Y-102585674D01*
X175594511Y-102586490D01*
X175594514Y-102586491D01*
X175664116Y-102593806D01*
X175727808Y-102600500D01*
X176922192Y-102600500D01*
X176985884Y-102593806D01*
X177055486Y-102586491D01*
X177055489Y-102586490D01*
X177063256Y-102585674D01*
X177243284Y-102527179D01*
X177337756Y-102472635D01*
X177400453Y-102436438D01*
X177400456Y-102436436D01*
X177407216Y-102432533D01*
X177413016Y-102427311D01*
X177413021Y-102427307D01*
X177485998Y-102361597D01*
X177547888Y-102305871D01*
X177659151Y-102152730D01*
X177736144Y-101979803D01*
X177775500Y-101794646D01*
X177775500Y-101605354D01*
X177736144Y-101420197D01*
X177659151Y-101247270D01*
X177599323Y-101164923D01*
X177552480Y-101100449D01*
X177552479Y-101100447D01*
X177547888Y-101094129D01*
X177407216Y-100967467D01*
X177409016Y-100965468D01*
X177368965Y-100916032D01*
X177356882Y-100839856D01*
X177384505Y-100767845D01*
X177396891Y-100752936D01*
X177439885Y-100707550D01*
X177446821Y-100695609D01*
X177520510Y-100568745D01*
X177520511Y-100568742D01*
X177524856Y-100561262D01*
X177573895Y-100399350D01*
X177578520Y-100324806D01*
X177583834Y-100239139D01*
X177584370Y-100230499D01*
X177555720Y-100063767D01*
X177544892Y-100038318D01*
X177492871Y-99916062D01*
X177492870Y-99916060D01*
X177489482Y-99908098D01*
X177389209Y-99771842D01*
X177366046Y-99752163D01*
X177315111Y-99708891D01*
X177260280Y-99662308D01*
X177109611Y-99585373D01*
X176945283Y-99545162D01*
X176938665Y-99544751D01*
X176938662Y-99544751D01*
X176936904Y-99544642D01*
X176936898Y-99544642D01*
X176934612Y-99544500D01*
X176812637Y-99544500D01*
X176808360Y-99544999D01*
X176808354Y-99544999D01*
X176757470Y-99550932D01*
X176686963Y-99559152D01*
X176527939Y-99616875D01*
X176520704Y-99621619D01*
X176520703Y-99621619D01*
X176419726Y-99687823D01*
X176386460Y-99709633D01*
X176270115Y-99832450D01*
X176265767Y-99839936D01*
X176265766Y-99839937D01*
X176189720Y-99970860D01*
X176185144Y-99978738D01*
X176178226Y-100001578D01*
X176139358Y-100129911D01*
X176136105Y-100140650D01*
X176125630Y-100309501D01*
X176154280Y-100476233D01*
X176157667Y-100484194D01*
X176157668Y-100484196D01*
X176203608Y-100592161D01*
X176214409Y-100668529D01*
X176185579Y-100740067D01*
X176124843Y-100787604D01*
X176066504Y-100799500D01*
X175727808Y-100799500D01*
X175664116Y-100806194D01*
X175594514Y-100813509D01*
X175594511Y-100813510D01*
X175586744Y-100814326D01*
X175579312Y-100816741D01*
X175579311Y-100816741D01*
X175530269Y-100832676D01*
X175406716Y-100872821D01*
X175331872Y-100916032D01*
X175249547Y-100963562D01*
X175249544Y-100963564D01*
X175242784Y-100967467D01*
X175236984Y-100972689D01*
X175236979Y-100972693D01*
X175186196Y-101018419D01*
X175102112Y-101094129D01*
X175097521Y-101100447D01*
X175097520Y-101100449D01*
X175050677Y-101164923D01*
X174990849Y-101247270D01*
X174913856Y-101420197D01*
X174874500Y-101605354D01*
X174874500Y-101794646D01*
X122400000Y-101794646D01*
X122400000Y-99489455D01*
X138744825Y-99489455D01*
X138745637Y-99497737D01*
X138745637Y-99497741D01*
X138753661Y-99579578D01*
X138761255Y-99657025D01*
X138763881Y-99664920D01*
X138763882Y-99664923D01*
X138792903Y-99752163D01*
X138814402Y-99816791D01*
X138901624Y-99960812D01*
X138907413Y-99966806D01*
X138907414Y-99966808D01*
X138911327Y-99970860D01*
X138948719Y-100038318D01*
X138947371Y-100115434D01*
X138929388Y-100155077D01*
X138923515Y-100164190D01*
X138865927Y-100322409D01*
X138864884Y-100330668D01*
X138864883Y-100330671D01*
X138857299Y-100390712D01*
X138844825Y-100489455D01*
X138845637Y-100497737D01*
X138845637Y-100497741D01*
X138852599Y-100568745D01*
X138861255Y-100657025D01*
X138914402Y-100816791D01*
X139001624Y-100960812D01*
X139007412Y-100966805D01*
X139007413Y-100966807D01*
X139043989Y-101004682D01*
X139118586Y-101081929D01*
X139125555Y-101086490D01*
X139125557Y-101086491D01*
X139252503Y-101169563D01*
X139252506Y-101169564D01*
X139259475Y-101174125D01*
X139267285Y-101177029D01*
X139267286Y-101177030D01*
X139284756Y-101183527D01*
X139417289Y-101232815D01*
X139425543Y-101233916D01*
X139425546Y-101233917D01*
X139575928Y-101253982D01*
X139575932Y-101253982D01*
X139584183Y-101255083D01*
X139692053Y-101245266D01*
X139743570Y-101240578D01*
X139743572Y-101240578D01*
X139751864Y-101239823D01*
X139911997Y-101187793D01*
X140056623Y-101101578D01*
X140174364Y-100989455D01*
X160644825Y-100989455D01*
X160645637Y-100997737D01*
X160645637Y-100997741D01*
X160648381Y-101025725D01*
X160661255Y-101157025D01*
X160663881Y-101164920D01*
X160663882Y-101164923D01*
X160699381Y-101271637D01*
X160714402Y-101316791D01*
X160801624Y-101460812D01*
X160918586Y-101581929D01*
X160925555Y-101586490D01*
X160925557Y-101586491D01*
X161052503Y-101669563D01*
X161052506Y-101669564D01*
X161059475Y-101674125D01*
X161217289Y-101732815D01*
X161225543Y-101733916D01*
X161225546Y-101733917D01*
X161375928Y-101753982D01*
X161375932Y-101753982D01*
X161384183Y-101755083D01*
X161492053Y-101745266D01*
X161543570Y-101740578D01*
X161543572Y-101740578D01*
X161551864Y-101739823D01*
X161711997Y-101687793D01*
X161856623Y-101601578D01*
X161978554Y-101485465D01*
X161994934Y-101460812D01*
X162067120Y-101352163D01*
X162071731Y-101345223D01*
X162131521Y-101187823D01*
X162134088Y-101169563D01*
X162146404Y-101081929D01*
X162154955Y-101021088D01*
X162155249Y-101000000D01*
X162154066Y-100989455D01*
X163444825Y-100989455D01*
X163445637Y-100997737D01*
X163445637Y-100997741D01*
X163448381Y-101025725D01*
X163461255Y-101157025D01*
X163463881Y-101164920D01*
X163463882Y-101164923D01*
X163499381Y-101271637D01*
X163514402Y-101316791D01*
X163601624Y-101460812D01*
X163718586Y-101581929D01*
X163725555Y-101586490D01*
X163725557Y-101586491D01*
X163852503Y-101669563D01*
X163852506Y-101669564D01*
X163859475Y-101674125D01*
X164017289Y-101732815D01*
X164025543Y-101733916D01*
X164025546Y-101733917D01*
X164175928Y-101753982D01*
X164175932Y-101753982D01*
X164184183Y-101755083D01*
X164292053Y-101745266D01*
X164343570Y-101740578D01*
X164343572Y-101740578D01*
X164351864Y-101739823D01*
X164511997Y-101687793D01*
X164656623Y-101601578D01*
X164778554Y-101485465D01*
X164794934Y-101460812D01*
X164867120Y-101352163D01*
X164871731Y-101345223D01*
X164931521Y-101187823D01*
X164934088Y-101169563D01*
X164946404Y-101081929D01*
X164954955Y-101021088D01*
X164955249Y-101000000D01*
X164936481Y-100832676D01*
X164881108Y-100673668D01*
X164791884Y-100530879D01*
X164673242Y-100411406D01*
X164666212Y-100406945D01*
X164666210Y-100406943D01*
X164538112Y-100325650D01*
X164538110Y-100325649D01*
X164531079Y-100321187D01*
X164522219Y-100318032D01*
X164380304Y-100267498D01*
X164380301Y-100267497D01*
X164372462Y-100264706D01*
X164364199Y-100263721D01*
X164364196Y-100263720D01*
X164269685Y-100252450D01*
X164205273Y-100244769D01*
X164196995Y-100245639D01*
X164196993Y-100245639D01*
X164121547Y-100253569D01*
X164037821Y-100262369D01*
X163878431Y-100316630D01*
X163871335Y-100320996D01*
X163871334Y-100320996D01*
X163852349Y-100332676D01*
X163735022Y-100404856D01*
X163673202Y-100465395D01*
X163637865Y-100500000D01*
X163614724Y-100522661D01*
X163523515Y-100664190D01*
X163465927Y-100822409D01*
X163464884Y-100830668D01*
X163464883Y-100830671D01*
X163456998Y-100893094D01*
X163444825Y-100989455D01*
X162154066Y-100989455D01*
X162136481Y-100832676D01*
X162081108Y-100673668D01*
X161991884Y-100530879D01*
X161873242Y-100411406D01*
X161866212Y-100406945D01*
X161866210Y-100406943D01*
X161738112Y-100325650D01*
X161738110Y-100325649D01*
X161731079Y-100321187D01*
X161722219Y-100318032D01*
X161580304Y-100267498D01*
X161580301Y-100267497D01*
X161572462Y-100264706D01*
X161564199Y-100263721D01*
X161564196Y-100263720D01*
X161469685Y-100252450D01*
X161405273Y-100244769D01*
X161396995Y-100245639D01*
X161396993Y-100245639D01*
X161321547Y-100253569D01*
X161237821Y-100262369D01*
X161078431Y-100316630D01*
X161071335Y-100320996D01*
X161071334Y-100320996D01*
X161052349Y-100332676D01*
X160935022Y-100404856D01*
X160873202Y-100465395D01*
X160837865Y-100500000D01*
X160814724Y-100522661D01*
X160723515Y-100664190D01*
X160665927Y-100822409D01*
X160664884Y-100830668D01*
X160664883Y-100830671D01*
X160656998Y-100893094D01*
X160644825Y-100989455D01*
X140174364Y-100989455D01*
X140178554Y-100985465D01*
X140194934Y-100960812D01*
X140267120Y-100852163D01*
X140271731Y-100845223D01*
X140331521Y-100687823D01*
X140333511Y-100673668D01*
X140349309Y-100561262D01*
X140354955Y-100521088D01*
X140355249Y-100500000D01*
X140336481Y-100332676D01*
X140281108Y-100173668D01*
X140191884Y-100030879D01*
X140186016Y-100024970D01*
X140180839Y-100018438D01*
X140183371Y-100016432D01*
X140152989Y-99963375D01*
X140153263Y-99886248D01*
X140164522Y-99857219D01*
X140167121Y-99852162D01*
X140171731Y-99845223D01*
X140231521Y-99687823D01*
X140235661Y-99658371D01*
X140249904Y-99557025D01*
X140254955Y-99521088D01*
X140255249Y-99500000D01*
X140242850Y-99389455D01*
X164944825Y-99389455D01*
X164945637Y-99397737D01*
X164945637Y-99397741D01*
X164948381Y-99425725D01*
X164961255Y-99557025D01*
X164963881Y-99564920D01*
X164963882Y-99564923D01*
X164994968Y-99658371D01*
X165014402Y-99716791D01*
X165101624Y-99860812D01*
X165218586Y-99981929D01*
X165225555Y-99986490D01*
X165225557Y-99986491D01*
X165352503Y-100069563D01*
X165352506Y-100069564D01*
X165359475Y-100074125D01*
X165517289Y-100132815D01*
X165525543Y-100133916D01*
X165525546Y-100133917D01*
X165675928Y-100153982D01*
X165675932Y-100153982D01*
X165684183Y-100155083D01*
X165792053Y-100145266D01*
X165843570Y-100140578D01*
X165843572Y-100140578D01*
X165851864Y-100139823D01*
X166011997Y-100087793D01*
X166095621Y-100037943D01*
X166149472Y-100005841D01*
X166149473Y-100005840D01*
X166156623Y-100001578D01*
X166278554Y-99885465D01*
X166294934Y-99860812D01*
X166367120Y-99752163D01*
X166371731Y-99745223D01*
X166431521Y-99587823D01*
X166435136Y-99562106D01*
X166454303Y-99425725D01*
X166454955Y-99421088D01*
X166455249Y-99400000D01*
X166436481Y-99232676D01*
X166381108Y-99073668D01*
X166291884Y-98930879D01*
X166173242Y-98811406D01*
X166166212Y-98806945D01*
X166166210Y-98806943D01*
X166038112Y-98725650D01*
X166038110Y-98725649D01*
X166031079Y-98721187D01*
X166023233Y-98718393D01*
X165880304Y-98667498D01*
X165880301Y-98667497D01*
X165872462Y-98664706D01*
X165864199Y-98663721D01*
X165864196Y-98663720D01*
X165762372Y-98651578D01*
X165705273Y-98644769D01*
X165696995Y-98645639D01*
X165696993Y-98645639D01*
X165621547Y-98653569D01*
X165537821Y-98662369D01*
X165378431Y-98716630D01*
X165371335Y-98720996D01*
X165371334Y-98720996D01*
X165315927Y-98755083D01*
X165235022Y-98804856D01*
X165194112Y-98844918D01*
X165130773Y-98906945D01*
X165114724Y-98922661D01*
X165023515Y-99064190D01*
X164965927Y-99222409D01*
X164964884Y-99230668D01*
X164964883Y-99230671D01*
X164956998Y-99293094D01*
X164944825Y-99389455D01*
X140242850Y-99389455D01*
X140236481Y-99332676D01*
X140181108Y-99173668D01*
X140091884Y-99030879D01*
X139973242Y-98911406D01*
X139957930Y-98901689D01*
X139905723Y-98844918D01*
X139888897Y-98769647D01*
X139911959Y-98696048D01*
X139947680Y-98657200D01*
X139949465Y-98655845D01*
X139956623Y-98651578D01*
X140078554Y-98535465D01*
X140094934Y-98510812D01*
X140167120Y-98402163D01*
X140171731Y-98395223D01*
X140231521Y-98237823D01*
X140254955Y-98071088D01*
X140255249Y-98050000D01*
X140248458Y-97989455D01*
X149544825Y-97989455D01*
X149545637Y-97997737D01*
X149545637Y-97997741D01*
X149548381Y-98025725D01*
X149561255Y-98157025D01*
X149563881Y-98164920D01*
X149563882Y-98164923D01*
X149577888Y-98207025D01*
X149614402Y-98316791D01*
X149701624Y-98460812D01*
X149818586Y-98581929D01*
X149825555Y-98586490D01*
X149825557Y-98586491D01*
X149952503Y-98669563D01*
X149952506Y-98669564D01*
X149959475Y-98674125D01*
X150117289Y-98732815D01*
X150125543Y-98733916D01*
X150125546Y-98733917D01*
X150275928Y-98753982D01*
X150275932Y-98753982D01*
X150284183Y-98755083D01*
X150392053Y-98745266D01*
X150443570Y-98740578D01*
X150443572Y-98740578D01*
X150451864Y-98739823D01*
X150611997Y-98687793D01*
X150756623Y-98601578D01*
X150878554Y-98485465D01*
X150894934Y-98460812D01*
X150967120Y-98352163D01*
X150971731Y-98345223D01*
X151031521Y-98187823D01*
X151054955Y-98021088D01*
X151055249Y-98000000D01*
X151036481Y-97832676D01*
X150981108Y-97673668D01*
X150891884Y-97530879D01*
X150773242Y-97411406D01*
X150766212Y-97406945D01*
X150766210Y-97406943D01*
X150638112Y-97325650D01*
X150638110Y-97325649D01*
X150631079Y-97321187D01*
X150623233Y-97318393D01*
X150480304Y-97267498D01*
X150480301Y-97267497D01*
X150472462Y-97264706D01*
X150464199Y-97263721D01*
X150464196Y-97263720D01*
X150369685Y-97252450D01*
X150305273Y-97244769D01*
X150296995Y-97245639D01*
X150296993Y-97245639D01*
X150221547Y-97253569D01*
X150137821Y-97262369D01*
X149978431Y-97316630D01*
X149971335Y-97320996D01*
X149971334Y-97320996D01*
X149882496Y-97375650D01*
X149835022Y-97404856D01*
X149714724Y-97522661D01*
X149623515Y-97664190D01*
X149565927Y-97822409D01*
X149564884Y-97830668D01*
X149564883Y-97830671D01*
X149560599Y-97864585D01*
X149544825Y-97989455D01*
X140248458Y-97989455D01*
X140236481Y-97882676D01*
X140181108Y-97723668D01*
X140091884Y-97580879D01*
X140002002Y-97490367D01*
X139979110Y-97467315D01*
X139973242Y-97461406D01*
X139966212Y-97456945D01*
X139966210Y-97456943D01*
X139838112Y-97375650D01*
X139838110Y-97375649D01*
X139831079Y-97371187D01*
X139823233Y-97368393D01*
X139680304Y-97317498D01*
X139680301Y-97317497D01*
X139672462Y-97314706D01*
X139664199Y-97313721D01*
X139664196Y-97313720D01*
X139569685Y-97302450D01*
X139505273Y-97294769D01*
X139496995Y-97295639D01*
X139496993Y-97295639D01*
X139421547Y-97303569D01*
X139337821Y-97312369D01*
X139178431Y-97366630D01*
X139171335Y-97370996D01*
X139171334Y-97370996D01*
X139114695Y-97405841D01*
X139035022Y-97454856D01*
X138914724Y-97572661D01*
X138823515Y-97714190D01*
X138765927Y-97872409D01*
X138764884Y-97880668D01*
X138764883Y-97880671D01*
X138756998Y-97943094D01*
X138744825Y-98039455D01*
X138745637Y-98047737D01*
X138745637Y-98047741D01*
X138748381Y-98075725D01*
X138761255Y-98207025D01*
X138814402Y-98366791D01*
X138901624Y-98510812D01*
X139018586Y-98631929D01*
X139025555Y-98636490D01*
X139025557Y-98636491D01*
X139045063Y-98649255D01*
X139096471Y-98706752D01*
X139112244Y-98782250D01*
X139088154Y-98855520D01*
X139048035Y-98894534D01*
X139048682Y-98895362D01*
X139042118Y-98900491D01*
X139035022Y-98904856D01*
X138914724Y-99022661D01*
X138823515Y-99164190D01*
X138765927Y-99322409D01*
X138764884Y-99330668D01*
X138764883Y-99330671D01*
X138758501Y-99381194D01*
X138744825Y-99489455D01*
X122400000Y-99489455D01*
X122400000Y-95789455D01*
X127344825Y-95789455D01*
X127345637Y-95797737D01*
X127345637Y-95797741D01*
X127349875Y-95840965D01*
X127361255Y-95957025D01*
X127363881Y-95964920D01*
X127363882Y-95964923D01*
X127393762Y-96054745D01*
X127414402Y-96116791D01*
X127501624Y-96260812D01*
X127618586Y-96381929D01*
X127625555Y-96386490D01*
X127625557Y-96386491D01*
X127752503Y-96469563D01*
X127752506Y-96469564D01*
X127759475Y-96474125D01*
X127917289Y-96532815D01*
X127925543Y-96533916D01*
X127925546Y-96533917D01*
X128075928Y-96553982D01*
X128075932Y-96553982D01*
X128084183Y-96555083D01*
X128192053Y-96545266D01*
X128243570Y-96540578D01*
X128243572Y-96540578D01*
X128251864Y-96539823D01*
X128406882Y-96489455D01*
X150644825Y-96489455D01*
X150645637Y-96497737D01*
X150645637Y-96497741D01*
X150651152Y-96553982D01*
X150661255Y-96657025D01*
X150663881Y-96664920D01*
X150663882Y-96664923D01*
X150707266Y-96795340D01*
X150714402Y-96816791D01*
X150801624Y-96960812D01*
X150918586Y-97081929D01*
X150925555Y-97086490D01*
X150925557Y-97086491D01*
X151052503Y-97169563D01*
X151052506Y-97169564D01*
X151059475Y-97174125D01*
X151217289Y-97232815D01*
X151225543Y-97233916D01*
X151225546Y-97233917D01*
X151375928Y-97253982D01*
X151375932Y-97253982D01*
X151384183Y-97255083D01*
X151497516Y-97244769D01*
X151543570Y-97240578D01*
X151543572Y-97240578D01*
X151551864Y-97239823D01*
X151711997Y-97187793D01*
X151831103Y-97116791D01*
X151849472Y-97105841D01*
X151849473Y-97105840D01*
X151856623Y-97101578D01*
X151978554Y-96985465D01*
X151994934Y-96960812D01*
X152067120Y-96852163D01*
X152071731Y-96845223D01*
X152131521Y-96687823D01*
X152154955Y-96521088D01*
X152155249Y-96500000D01*
X152144688Y-96405841D01*
X152143542Y-96395625D01*
X152155075Y-96319364D01*
X152203194Y-96259087D01*
X152275005Y-96230946D01*
X152317165Y-96233748D01*
X152317289Y-96232815D01*
X152413105Y-96245599D01*
X152484309Y-96275238D01*
X152531155Y-96336510D01*
X152541089Y-96412996D01*
X152527174Y-96458513D01*
X152523515Y-96464190D01*
X152520668Y-96472012D01*
X152520666Y-96472016D01*
X152490833Y-96553982D01*
X152465927Y-96622409D01*
X152464884Y-96630668D01*
X152464883Y-96630671D01*
X152462601Y-96648740D01*
X152444825Y-96789455D01*
X152445637Y-96797737D01*
X152445637Y-96797741D01*
X152448204Y-96823916D01*
X152461255Y-96957025D01*
X152463881Y-96964920D01*
X152463882Y-96964923D01*
X152507431Y-97095836D01*
X152514402Y-97116791D01*
X152601624Y-97260812D01*
X152607412Y-97266805D01*
X152607413Y-97266807D01*
X152618732Y-97278528D01*
X152718586Y-97381929D01*
X152725555Y-97386490D01*
X152725557Y-97386491D01*
X152852503Y-97469563D01*
X152852506Y-97469564D01*
X152859475Y-97474125D01*
X153017289Y-97532815D01*
X153025543Y-97533916D01*
X153025546Y-97533917D01*
X153175928Y-97553982D01*
X153175932Y-97553982D01*
X153184183Y-97555083D01*
X153292053Y-97545266D01*
X153343570Y-97540578D01*
X153343572Y-97540578D01*
X153351864Y-97539823D01*
X153511997Y-97487793D01*
X153630224Y-97417315D01*
X153649472Y-97405841D01*
X153649473Y-97405840D01*
X153656623Y-97401578D01*
X153778554Y-97285465D01*
X153794934Y-97260812D01*
X153867120Y-97152163D01*
X153871731Y-97145223D01*
X153931521Y-96987823D01*
X153932828Y-96978528D01*
X153941441Y-96917239D01*
X153954955Y-96821088D01*
X153955249Y-96800000D01*
X153936481Y-96632676D01*
X153881108Y-96473668D01*
X153791884Y-96330879D01*
X153673242Y-96211406D01*
X153666212Y-96206945D01*
X153666210Y-96206943D01*
X153538112Y-96125650D01*
X153538110Y-96125649D01*
X153531079Y-96121187D01*
X153496548Y-96108891D01*
X153380304Y-96067498D01*
X153380301Y-96067497D01*
X153372462Y-96064706D01*
X153364197Y-96063720D01*
X153364195Y-96063720D01*
X153335641Y-96060315D01*
X153288927Y-96054745D01*
X153217315Y-96026102D01*
X153169619Y-95965490D01*
X153158618Y-95889151D01*
X153172014Y-95845330D01*
X153171731Y-95845223D01*
X153173348Y-95840965D01*
X153231521Y-95687823D01*
X153254955Y-95521088D01*
X153255249Y-95500000D01*
X153236481Y-95332676D01*
X153181108Y-95173668D01*
X153091884Y-95030879D01*
X152973242Y-94911406D01*
X152966212Y-94906945D01*
X152966210Y-94906943D01*
X152838112Y-94825650D01*
X152838110Y-94825649D01*
X152831079Y-94821187D01*
X152818734Y-94816791D01*
X152680304Y-94767498D01*
X152680301Y-94767497D01*
X152672462Y-94764706D01*
X152664199Y-94763721D01*
X152664196Y-94763720D01*
X152569685Y-94752450D01*
X152505273Y-94744769D01*
X152496995Y-94745639D01*
X152496993Y-94745639D01*
X152421547Y-94753569D01*
X152337821Y-94762369D01*
X152178431Y-94816630D01*
X152171335Y-94820996D01*
X152171334Y-94820996D01*
X152134043Y-94843938D01*
X152035022Y-94904856D01*
X152019493Y-94920063D01*
X151944235Y-94993762D01*
X151914724Y-95022661D01*
X151823515Y-95164190D01*
X151820667Y-95172016D01*
X151820666Y-95172017D01*
X151807954Y-95206943D01*
X151765927Y-95322409D01*
X151764884Y-95330668D01*
X151764883Y-95330671D01*
X151756998Y-95393094D01*
X151744825Y-95489455D01*
X151745637Y-95497737D01*
X151745637Y-95497742D01*
X151756292Y-95606413D01*
X151743694Y-95682505D01*
X151694739Y-95742105D01*
X151622542Y-95769241D01*
X151576633Y-95766191D01*
X151572462Y-95764706D01*
X151405273Y-95744769D01*
X151396995Y-95745639D01*
X151396993Y-95745639D01*
X151321547Y-95753569D01*
X151237821Y-95762369D01*
X151078431Y-95816630D01*
X151071335Y-95820996D01*
X151071334Y-95820996D01*
X151071185Y-95821088D01*
X150935022Y-95904856D01*
X150814724Y-96022661D01*
X150723515Y-96164190D01*
X150665927Y-96322409D01*
X150664884Y-96330668D01*
X150664883Y-96330671D01*
X150659165Y-96375934D01*
X150644825Y-96489455D01*
X128406882Y-96489455D01*
X128411997Y-96487793D01*
X128556623Y-96401578D01*
X128678554Y-96285465D01*
X128694934Y-96260812D01*
X128767120Y-96152163D01*
X128771731Y-96145223D01*
X128831521Y-95987823D01*
X128854955Y-95821088D01*
X128855249Y-95800000D01*
X128836481Y-95632676D01*
X128781108Y-95473668D01*
X128691884Y-95330879D01*
X128573242Y-95211406D01*
X128566212Y-95206945D01*
X128566210Y-95206943D01*
X128438112Y-95125650D01*
X128438110Y-95125649D01*
X128431079Y-95121187D01*
X128423233Y-95118393D01*
X128280304Y-95067498D01*
X128280301Y-95067497D01*
X128272462Y-95064706D01*
X128264199Y-95063721D01*
X128264196Y-95063720D01*
X128152217Y-95050367D01*
X128105273Y-95044769D01*
X128096995Y-95045639D01*
X128096993Y-95045639D01*
X128021547Y-95053569D01*
X127937821Y-95062369D01*
X127778431Y-95116630D01*
X127771335Y-95120996D01*
X127771334Y-95120996D01*
X127646339Y-95197894D01*
X127635022Y-95204856D01*
X127514724Y-95322661D01*
X127423515Y-95464190D01*
X127365927Y-95622409D01*
X127364884Y-95630668D01*
X127364883Y-95630671D01*
X127361554Y-95657025D01*
X127344825Y-95789455D01*
X122400000Y-95789455D01*
X122400000Y-94489455D01*
X160544825Y-94489455D01*
X160545637Y-94497737D01*
X160545637Y-94497741D01*
X160548381Y-94525725D01*
X160561255Y-94657025D01*
X160563881Y-94664920D01*
X160563882Y-94664923D01*
X160596009Y-94761499D01*
X160614402Y-94816791D01*
X160701624Y-94960812D01*
X160707412Y-94966805D01*
X160707413Y-94966807D01*
X160755723Y-95016833D01*
X160818586Y-95081929D01*
X160825555Y-95086490D01*
X160825557Y-95086491D01*
X160952503Y-95169563D01*
X160952506Y-95169564D01*
X160959475Y-95174125D01*
X161117289Y-95232815D01*
X161125543Y-95233916D01*
X161125546Y-95233917D01*
X161275928Y-95253982D01*
X161275932Y-95253982D01*
X161284183Y-95255083D01*
X161392053Y-95245266D01*
X161443570Y-95240578D01*
X161443572Y-95240578D01*
X161451864Y-95239823D01*
X161611997Y-95187793D01*
X161756623Y-95101578D01*
X161878554Y-94985465D01*
X161894934Y-94960812D01*
X161967120Y-94852163D01*
X161971731Y-94845223D01*
X162031521Y-94687823D01*
X162054955Y-94521088D01*
X162055249Y-94500000D01*
X162036481Y-94332676D01*
X161981108Y-94173668D01*
X161891884Y-94030879D01*
X161773242Y-93911406D01*
X161766212Y-93906945D01*
X161766210Y-93906943D01*
X161638112Y-93825650D01*
X161638110Y-93825649D01*
X161631079Y-93821187D01*
X161623233Y-93818393D01*
X161480304Y-93767498D01*
X161480301Y-93767497D01*
X161472462Y-93764706D01*
X161464199Y-93763721D01*
X161464196Y-93763720D01*
X161369685Y-93752450D01*
X161305273Y-93744769D01*
X161296995Y-93745639D01*
X161296993Y-93745639D01*
X161221547Y-93753569D01*
X161137821Y-93762369D01*
X160978431Y-93816630D01*
X160971335Y-93820996D01*
X160971334Y-93820996D01*
X160858226Y-93890581D01*
X160835022Y-93904856D01*
X160714724Y-94022661D01*
X160623515Y-94164190D01*
X160565927Y-94322409D01*
X160564884Y-94330668D01*
X160564883Y-94330671D01*
X160561895Y-94354328D01*
X160544825Y-94489455D01*
X122400000Y-94489455D01*
X122400000Y-93589455D01*
X147844825Y-93589455D01*
X147845637Y-93597737D01*
X147845637Y-93597741D01*
X147848381Y-93625725D01*
X147861255Y-93757025D01*
X147863881Y-93764920D01*
X147863882Y-93764923D01*
X147886194Y-93831994D01*
X147914402Y-93916791D01*
X148001624Y-94060812D01*
X148118586Y-94181929D01*
X148125555Y-94186490D01*
X148125557Y-94186491D01*
X148252503Y-94269563D01*
X148252506Y-94269564D01*
X148259475Y-94274125D01*
X148417289Y-94332815D01*
X148425543Y-94333916D01*
X148425546Y-94333917D01*
X148575928Y-94353982D01*
X148575932Y-94353982D01*
X148584183Y-94355083D01*
X148692053Y-94345266D01*
X148743570Y-94340578D01*
X148743572Y-94340578D01*
X148751864Y-94339823D01*
X148911997Y-94287793D01*
X149056623Y-94201578D01*
X149178554Y-94085465D01*
X149194934Y-94060812D01*
X149267120Y-93952163D01*
X149271731Y-93945223D01*
X149331521Y-93787823D01*
X149334722Y-93765052D01*
X149354303Y-93625725D01*
X149354955Y-93621088D01*
X149355098Y-93610859D01*
X149355184Y-93604682D01*
X149355184Y-93604678D01*
X149355249Y-93600000D01*
X149336481Y-93432676D01*
X149281108Y-93273668D01*
X149192011Y-93131082D01*
X157832029Y-93131082D01*
X157832841Y-93139364D01*
X157832841Y-93139368D01*
X157835585Y-93167352D01*
X157848459Y-93298652D01*
X157851085Y-93306547D01*
X157851086Y-93306550D01*
X157898978Y-93450518D01*
X157901606Y-93458418D01*
X157988828Y-93602439D01*
X157994616Y-93608432D01*
X157994617Y-93608434D01*
X158005936Y-93620155D01*
X158105790Y-93723556D01*
X158112759Y-93728117D01*
X158112761Y-93728118D01*
X158239707Y-93811190D01*
X158239710Y-93811191D01*
X158246679Y-93815752D01*
X158254489Y-93818656D01*
X158254490Y-93818657D01*
X158261293Y-93821187D01*
X158404493Y-93874442D01*
X158412747Y-93875543D01*
X158412750Y-93875544D01*
X158563132Y-93895609D01*
X158563136Y-93895609D01*
X158571387Y-93896710D01*
X158679257Y-93886893D01*
X158730774Y-93882205D01*
X158730776Y-93882205D01*
X158739068Y-93881450D01*
X158899201Y-93829420D01*
X159043827Y-93743205D01*
X159165758Y-93627092D01*
X159172857Y-93616408D01*
X159254324Y-93493790D01*
X159258935Y-93486850D01*
X159318725Y-93329450D01*
X159342159Y-93162715D01*
X159342272Y-93154646D01*
X174874500Y-93154646D01*
X174876124Y-93162286D01*
X174876124Y-93162287D01*
X174901471Y-93281534D01*
X174913856Y-93339803D01*
X174990849Y-93512730D01*
X174995438Y-93519046D01*
X175073938Y-93627092D01*
X175102112Y-93665871D01*
X175159519Y-93717561D01*
X175236979Y-93787307D01*
X175236984Y-93787311D01*
X175242784Y-93792533D01*
X175249544Y-93796436D01*
X175249547Y-93796438D01*
X175284521Y-93816630D01*
X175406716Y-93887179D01*
X175586744Y-93945674D01*
X175594511Y-93946490D01*
X175594514Y-93946491D01*
X175648484Y-93952163D01*
X175727808Y-93960500D01*
X176064666Y-93960500D01*
X176139166Y-93980462D01*
X176193704Y-94035000D01*
X176213666Y-94109500D01*
X176193509Y-94184336D01*
X176189491Y-94191253D01*
X176189489Y-94191257D01*
X176185144Y-94198738D01*
X176182636Y-94207019D01*
X176142069Y-94340960D01*
X176136105Y-94360650D01*
X176125630Y-94529501D01*
X176154280Y-94696233D01*
X176157667Y-94704194D01*
X176157668Y-94704196D01*
X176214361Y-94837432D01*
X176220518Y-94851902D01*
X176320791Y-94988158D01*
X176449720Y-95097692D01*
X176600389Y-95174627D01*
X176764717Y-95214838D01*
X176771335Y-95215249D01*
X176771338Y-95215249D01*
X176773096Y-95215358D01*
X176773102Y-95215358D01*
X176775388Y-95215500D01*
X176897363Y-95215500D01*
X176901640Y-95215001D01*
X176901646Y-95215001D01*
X176952530Y-95209068D01*
X177023037Y-95200848D01*
X177182061Y-95143125D01*
X177215813Y-95120996D01*
X177316303Y-95055112D01*
X177316304Y-95055111D01*
X177323540Y-95050367D01*
X177439885Y-94927550D01*
X177479776Y-94858873D01*
X177520510Y-94788745D01*
X177520511Y-94788742D01*
X177524856Y-94781262D01*
X177553192Y-94687705D01*
X177571387Y-94627632D01*
X177571388Y-94627629D01*
X177573895Y-94619350D01*
X177584370Y-94450499D01*
X177555720Y-94283767D01*
X177551618Y-94274125D01*
X177492871Y-94136062D01*
X177492870Y-94136060D01*
X177489482Y-94128098D01*
X177389209Y-93991842D01*
X177391695Y-93990012D01*
X177362859Y-93935815D01*
X177365530Y-93858733D01*
X177408330Y-93791530D01*
X177441683Y-93761499D01*
X177547888Y-93665871D01*
X177576063Y-93627092D01*
X177654562Y-93519046D01*
X177659151Y-93512730D01*
X177736144Y-93339803D01*
X177748530Y-93281534D01*
X177773876Y-93162287D01*
X177773876Y-93162286D01*
X177775500Y-93154646D01*
X177775500Y-92965354D01*
X177773317Y-92955083D01*
X177737768Y-92787836D01*
X177737767Y-92787833D01*
X177736144Y-92780197D01*
X177659151Y-92607270D01*
X177614071Y-92545223D01*
X177552480Y-92460449D01*
X177552479Y-92460447D01*
X177547888Y-92454129D01*
X177441634Y-92358457D01*
X177413021Y-92332693D01*
X177413016Y-92332689D01*
X177407216Y-92327467D01*
X177400456Y-92323564D01*
X177400453Y-92323562D01*
X177337756Y-92287365D01*
X177243284Y-92232821D01*
X177109818Y-92189455D01*
X177070689Y-92176741D01*
X177070688Y-92176741D01*
X177063256Y-92174326D01*
X177055489Y-92173510D01*
X177055486Y-92173509D01*
X176985884Y-92166194D01*
X176922192Y-92159500D01*
X175727808Y-92159500D01*
X175664116Y-92166194D01*
X175594514Y-92173509D01*
X175594511Y-92173510D01*
X175586744Y-92174326D01*
X175579312Y-92176741D01*
X175579311Y-92176741D01*
X175540182Y-92189455D01*
X175406716Y-92232821D01*
X175312244Y-92287365D01*
X175249547Y-92323562D01*
X175249544Y-92323564D01*
X175242784Y-92327467D01*
X175236984Y-92332689D01*
X175236979Y-92332693D01*
X175208366Y-92358457D01*
X175102112Y-92454129D01*
X175097521Y-92460447D01*
X175097520Y-92460449D01*
X175035929Y-92545223D01*
X174990849Y-92607270D01*
X174913856Y-92780197D01*
X174912233Y-92787833D01*
X174912232Y-92787836D01*
X174876683Y-92955083D01*
X174874500Y-92965354D01*
X174874500Y-93154646D01*
X159342272Y-93154646D01*
X159342302Y-93152486D01*
X159342388Y-93146309D01*
X159342388Y-93146305D01*
X159342453Y-93141627D01*
X159323685Y-92974303D01*
X159268312Y-92815295D01*
X159179088Y-92672506D01*
X159060446Y-92553033D01*
X159053416Y-92548572D01*
X159053414Y-92548570D01*
X158925316Y-92467277D01*
X158925314Y-92467276D01*
X158918283Y-92462814D01*
X158910437Y-92460020D01*
X158767508Y-92409125D01*
X158767505Y-92409124D01*
X158759666Y-92406333D01*
X158751403Y-92405348D01*
X158751400Y-92405347D01*
X158656889Y-92394077D01*
X158592477Y-92386396D01*
X158584199Y-92387266D01*
X158584197Y-92387266D01*
X158508751Y-92395196D01*
X158425025Y-92403996D01*
X158265635Y-92458257D01*
X158258539Y-92462623D01*
X158258538Y-92462623D01*
X158170490Y-92516791D01*
X158122226Y-92546483D01*
X158001928Y-92664288D01*
X157910719Y-92805817D01*
X157907871Y-92813643D01*
X157907870Y-92813644D01*
X157890452Y-92861499D01*
X157853131Y-92964036D01*
X157852088Y-92972295D01*
X157852087Y-92972298D01*
X157844202Y-93034721D01*
X157832029Y-93131082D01*
X149192011Y-93131082D01*
X149191884Y-93130879D01*
X149073242Y-93011406D01*
X149066212Y-93006945D01*
X149066210Y-93006943D01*
X148938112Y-92925650D01*
X148938110Y-92925649D01*
X148931079Y-92921187D01*
X148923233Y-92918393D01*
X148780304Y-92867498D01*
X148780301Y-92867497D01*
X148772462Y-92864706D01*
X148764199Y-92863721D01*
X148764196Y-92863720D01*
X148669685Y-92852450D01*
X148605273Y-92844769D01*
X148596995Y-92845639D01*
X148596993Y-92845639D01*
X148521547Y-92853569D01*
X148437821Y-92862369D01*
X148278431Y-92916630D01*
X148271335Y-92920996D01*
X148271334Y-92920996D01*
X148171220Y-92982587D01*
X148135022Y-93004856D01*
X148014724Y-93122661D01*
X147923515Y-93264190D01*
X147865927Y-93422409D01*
X147864884Y-93430668D01*
X147864883Y-93430671D01*
X147857595Y-93488363D01*
X147844825Y-93589455D01*
X122400000Y-93589455D01*
X122400000Y-92189455D01*
X165044825Y-92189455D01*
X165045637Y-92197737D01*
X165045637Y-92197741D01*
X165048381Y-92225725D01*
X165061255Y-92357025D01*
X165063881Y-92364920D01*
X165063882Y-92364923D01*
X165096383Y-92462623D01*
X165114402Y-92516791D01*
X165201624Y-92660812D01*
X165207412Y-92666805D01*
X165207413Y-92666807D01*
X165212917Y-92672506D01*
X165318586Y-92781929D01*
X165325555Y-92786490D01*
X165325557Y-92786491D01*
X165452503Y-92869563D01*
X165452506Y-92869564D01*
X165459475Y-92874125D01*
X165617289Y-92932815D01*
X165625543Y-92933916D01*
X165625546Y-92933917D01*
X165775928Y-92953982D01*
X165775932Y-92953982D01*
X165784183Y-92955083D01*
X165892053Y-92945266D01*
X165943570Y-92940578D01*
X165943572Y-92940578D01*
X165951864Y-92939823D01*
X166111997Y-92887793D01*
X166189229Y-92841753D01*
X166249472Y-92805841D01*
X166249473Y-92805840D01*
X166256623Y-92801578D01*
X166378554Y-92685465D01*
X166394934Y-92660812D01*
X166467120Y-92552163D01*
X166471731Y-92545223D01*
X166531521Y-92387823D01*
X166554955Y-92221088D01*
X166555249Y-92200000D01*
X166536481Y-92032676D01*
X166481108Y-91873668D01*
X166391884Y-91730879D01*
X166273242Y-91611406D01*
X166266212Y-91606945D01*
X166266210Y-91606943D01*
X166138112Y-91525650D01*
X166138110Y-91525649D01*
X166131079Y-91521187D01*
X166123233Y-91518393D01*
X165980304Y-91467498D01*
X165980301Y-91467497D01*
X165972462Y-91464706D01*
X165964199Y-91463721D01*
X165964196Y-91463720D01*
X165867278Y-91452163D01*
X165805273Y-91444769D01*
X165796995Y-91445639D01*
X165796993Y-91445639D01*
X165734924Y-91452163D01*
X165637821Y-91462369D01*
X165478431Y-91516630D01*
X165471335Y-91520996D01*
X165471334Y-91520996D01*
X165366542Y-91585465D01*
X165335022Y-91604856D01*
X165273202Y-91665395D01*
X165242117Y-91695836D01*
X165214724Y-91722661D01*
X165123515Y-91864190D01*
X165065927Y-92022409D01*
X165064884Y-92030668D01*
X165064883Y-92030671D01*
X165056998Y-92093094D01*
X165044825Y-92189455D01*
X122400000Y-92189455D01*
X122400000Y-91089455D01*
X148944825Y-91089455D01*
X148945637Y-91097737D01*
X148945637Y-91097741D01*
X148948381Y-91125725D01*
X148961255Y-91257025D01*
X149014402Y-91416791D01*
X149101624Y-91560812D01*
X149218586Y-91681929D01*
X149225555Y-91686490D01*
X149225557Y-91686491D01*
X149352503Y-91769563D01*
X149352506Y-91769564D01*
X149359475Y-91774125D01*
X149517289Y-91832815D01*
X149525543Y-91833916D01*
X149525546Y-91833917D01*
X149675928Y-91853982D01*
X149675932Y-91853982D01*
X149684183Y-91855083D01*
X149792053Y-91845266D01*
X149843570Y-91840578D01*
X149843572Y-91840578D01*
X149851864Y-91839823D01*
X150011997Y-91787793D01*
X150095621Y-91737943D01*
X150149472Y-91705841D01*
X150149473Y-91705840D01*
X150156623Y-91701578D01*
X150278554Y-91585465D01*
X150294934Y-91560812D01*
X150367120Y-91452163D01*
X150371731Y-91445223D01*
X150431521Y-91287823D01*
X150454955Y-91121088D01*
X150455249Y-91100000D01*
X150436481Y-90932676D01*
X150381108Y-90773668D01*
X150291884Y-90630879D01*
X150173242Y-90511406D01*
X150166212Y-90506945D01*
X150166210Y-90506943D01*
X150038112Y-90425650D01*
X150038110Y-90425649D01*
X150031079Y-90421187D01*
X150023233Y-90418393D01*
X149880304Y-90367498D01*
X149880301Y-90367497D01*
X149872462Y-90364706D01*
X149864199Y-90363721D01*
X149864196Y-90363720D01*
X149769685Y-90352450D01*
X149705273Y-90344769D01*
X149696995Y-90345639D01*
X149696993Y-90345639D01*
X149621547Y-90353569D01*
X149537821Y-90362369D01*
X149378431Y-90416630D01*
X149235022Y-90504856D01*
X149114724Y-90622661D01*
X149023515Y-90764190D01*
X148965927Y-90922409D01*
X148964884Y-90930668D01*
X148964883Y-90930671D01*
X148956998Y-90993094D01*
X148944825Y-91089455D01*
X122400000Y-91089455D01*
X122400000Y-89189455D01*
X166544825Y-89189455D01*
X166545637Y-89197737D01*
X166545637Y-89197741D01*
X166548381Y-89225725D01*
X166561255Y-89357025D01*
X166614402Y-89516791D01*
X166701624Y-89660812D01*
X166818586Y-89781929D01*
X166825555Y-89786490D01*
X166825557Y-89786491D01*
X166952503Y-89869563D01*
X166952506Y-89869564D01*
X166959475Y-89874125D01*
X167117289Y-89932815D01*
X167125543Y-89933916D01*
X167125546Y-89933917D01*
X167275928Y-89953982D01*
X167275932Y-89953982D01*
X167284183Y-89955083D01*
X167392053Y-89945266D01*
X167443570Y-89940578D01*
X167443572Y-89940578D01*
X167451864Y-89939823D01*
X167611997Y-89887793D01*
X167756623Y-89801578D01*
X167878554Y-89685465D01*
X167894934Y-89660812D01*
X167967120Y-89552163D01*
X167971731Y-89545223D01*
X168031521Y-89387823D01*
X168054955Y-89221088D01*
X168055249Y-89200000D01*
X168036481Y-89032676D01*
X167981108Y-88873668D01*
X167891884Y-88730879D01*
X167773242Y-88611406D01*
X167766212Y-88606945D01*
X167766210Y-88606943D01*
X167638112Y-88525650D01*
X167638110Y-88525649D01*
X167631079Y-88521187D01*
X167623233Y-88518393D01*
X167480304Y-88467498D01*
X167480301Y-88467497D01*
X167472462Y-88464706D01*
X167464199Y-88463721D01*
X167464196Y-88463720D01*
X167369685Y-88452450D01*
X167305273Y-88444769D01*
X167296995Y-88445639D01*
X167296993Y-88445639D01*
X167221547Y-88453569D01*
X167137821Y-88462369D01*
X166978431Y-88516630D01*
X166835022Y-88604856D01*
X166714724Y-88722661D01*
X166623515Y-88864190D01*
X166565927Y-89022409D01*
X166564884Y-89030668D01*
X166564883Y-89030671D01*
X166556998Y-89093094D01*
X166544825Y-89189455D01*
X122400000Y-89189455D01*
X122400000Y-84689455D01*
X170744825Y-84689455D01*
X170745637Y-84697737D01*
X170745637Y-84697741D01*
X170748381Y-84725725D01*
X170761255Y-84857025D01*
X170814402Y-85016791D01*
X170901624Y-85160812D01*
X171018586Y-85281929D01*
X171025555Y-85286490D01*
X171025557Y-85286491D01*
X171152503Y-85369563D01*
X171152506Y-85369564D01*
X171159475Y-85374125D01*
X171317289Y-85432815D01*
X171325543Y-85433916D01*
X171325546Y-85433917D01*
X171475928Y-85453982D01*
X171475932Y-85453982D01*
X171484183Y-85455083D01*
X171592053Y-85445266D01*
X171643570Y-85440578D01*
X171643572Y-85440578D01*
X171651864Y-85439823D01*
X171811997Y-85387793D01*
X171956623Y-85301578D01*
X172078554Y-85185465D01*
X172094934Y-85160812D01*
X172167120Y-85052163D01*
X172171731Y-85045223D01*
X172231521Y-84887823D01*
X172254955Y-84721088D01*
X172255249Y-84700000D01*
X172236481Y-84532676D01*
X172181108Y-84373668D01*
X172091884Y-84230879D01*
X171973242Y-84111406D01*
X171966212Y-84106945D01*
X171966210Y-84106943D01*
X171838112Y-84025650D01*
X171838110Y-84025649D01*
X171831079Y-84021187D01*
X171823233Y-84018393D01*
X171680304Y-83967498D01*
X171680301Y-83967497D01*
X171672462Y-83964706D01*
X171664199Y-83963721D01*
X171664196Y-83963720D01*
X171569685Y-83952450D01*
X171505273Y-83944769D01*
X171496995Y-83945639D01*
X171496993Y-83945639D01*
X171421547Y-83953569D01*
X171337821Y-83962369D01*
X171178431Y-84016630D01*
X171035022Y-84104856D01*
X170914724Y-84222661D01*
X170823515Y-84364190D01*
X170765927Y-84522409D01*
X170764884Y-84530668D01*
X170764883Y-84530671D01*
X170756998Y-84593094D01*
X170744825Y-84689455D01*
X122400000Y-84689455D01*
X122400000Y-79984149D01*
X122401432Y-79963542D01*
X122403296Y-79950193D01*
X122404918Y-79938579D01*
X122402872Y-79927033D01*
X122402808Y-79923549D01*
X122402132Y-79914497D01*
X124994637Y-79914497D01*
X125010205Y-80197370D01*
X125011233Y-80202538D01*
X125023633Y-80264875D01*
X125065474Y-80475226D01*
X125159342Y-80742524D01*
X125161764Y-80747187D01*
X125161766Y-80747191D01*
X125287510Y-80989259D01*
X125287514Y-80989266D01*
X125289936Y-80993928D01*
X125454651Y-81224424D01*
X125458281Y-81228230D01*
X125458285Y-81228234D01*
X125577701Y-81353414D01*
X125650199Y-81429412D01*
X125872680Y-81604801D01*
X125932235Y-81639393D01*
X126113096Y-81744446D01*
X126113101Y-81744449D01*
X126117654Y-81747093D01*
X126380232Y-81853448D01*
X126520315Y-81888245D01*
X126650055Y-81920473D01*
X126650059Y-81920474D01*
X126655177Y-81921745D01*
X126660418Y-81922282D01*
X126660424Y-81922283D01*
X126893003Y-81946112D01*
X126896790Y-81946500D01*
X127072170Y-81946500D01*
X127282593Y-81931601D01*
X127559547Y-81871975D01*
X127825337Y-81773920D01*
X127829967Y-81771422D01*
X127829971Y-81771420D01*
X128070029Y-81641892D01*
X128070032Y-81641890D01*
X128074660Y-81639393D01*
X128302540Y-81471078D01*
X128306289Y-81467387D01*
X128306293Y-81467384D01*
X128402045Y-81373123D01*
X128504430Y-81272334D01*
X128676304Y-81047126D01*
X128814730Y-80799947D01*
X128916948Y-80535730D01*
X128980918Y-80259747D01*
X128986321Y-80197370D01*
X129004908Y-79982760D01*
X129004908Y-79982756D01*
X129005363Y-79977503D01*
X129001895Y-79914497D01*
X174994637Y-79914497D01*
X175010205Y-80197370D01*
X175011233Y-80202538D01*
X175023633Y-80264875D01*
X175065474Y-80475226D01*
X175159342Y-80742524D01*
X175161764Y-80747187D01*
X175161766Y-80747191D01*
X175287510Y-80989259D01*
X175287514Y-80989266D01*
X175289936Y-80993928D01*
X175454651Y-81224424D01*
X175458281Y-81228230D01*
X175458285Y-81228234D01*
X175577701Y-81353414D01*
X175650199Y-81429412D01*
X175872680Y-81604801D01*
X175932235Y-81639393D01*
X176113096Y-81744446D01*
X176113101Y-81744449D01*
X176117654Y-81747093D01*
X176380232Y-81853448D01*
X176520315Y-81888245D01*
X176650055Y-81920473D01*
X176650059Y-81920474D01*
X176655177Y-81921745D01*
X176660418Y-81922282D01*
X176660424Y-81922283D01*
X176893003Y-81946112D01*
X176896790Y-81946500D01*
X177072170Y-81946500D01*
X177282593Y-81931601D01*
X177559547Y-81871975D01*
X177825337Y-81773920D01*
X177829967Y-81771422D01*
X177829971Y-81771420D01*
X178070029Y-81641892D01*
X178070032Y-81641890D01*
X178074660Y-81639393D01*
X178302540Y-81471078D01*
X178306289Y-81467387D01*
X178306293Y-81467384D01*
X178402045Y-81373123D01*
X178504430Y-81272334D01*
X178676304Y-81047126D01*
X178814730Y-80799947D01*
X178916948Y-80535730D01*
X178980918Y-80259747D01*
X178986321Y-80197370D01*
X179004908Y-79982760D01*
X179004908Y-79982756D01*
X179005363Y-79977503D01*
X178989795Y-79694630D01*
X178978431Y-79637501D01*
X178935556Y-79421950D01*
X178935554Y-79421944D01*
X178934526Y-79416774D01*
X178840658Y-79149476D01*
X178838234Y-79144809D01*
X178712490Y-78902741D01*
X178712486Y-78902734D01*
X178710064Y-78898072D01*
X178545349Y-78667576D01*
X178541719Y-78663770D01*
X178541715Y-78663766D01*
X178353440Y-78466403D01*
X178349801Y-78462588D01*
X178251971Y-78385465D01*
X178131464Y-78290466D01*
X178127320Y-78287199D01*
X177951895Y-78185304D01*
X177886904Y-78147554D01*
X177886899Y-78147551D01*
X177882346Y-78144907D01*
X177619768Y-78038552D01*
X177439001Y-77993649D01*
X177349945Y-77971527D01*
X177349941Y-77971526D01*
X177344823Y-77970255D01*
X177339582Y-77969718D01*
X177339576Y-77969717D01*
X177106997Y-77945888D01*
X177103210Y-77945500D01*
X176927830Y-77945500D01*
X176717407Y-77960399D01*
X176440453Y-78020025D01*
X176174663Y-78118080D01*
X176170033Y-78120578D01*
X176170029Y-78120580D01*
X175953464Y-78237432D01*
X175925340Y-78252607D01*
X175921109Y-78255732D01*
X175921106Y-78255734D01*
X175784749Y-78356449D01*
X175697460Y-78420922D01*
X175693711Y-78424613D01*
X175693707Y-78424616D01*
X175658450Y-78459324D01*
X175495570Y-78619666D01*
X175492380Y-78623846D01*
X175492379Y-78623847D01*
X175402331Y-78741838D01*
X175323696Y-78844874D01*
X175185270Y-79092053D01*
X175083052Y-79356270D01*
X175019082Y-79632253D01*
X175018628Y-79637494D01*
X175018627Y-79637501D01*
X175013224Y-79699890D01*
X174994637Y-79914497D01*
X129001895Y-79914497D01*
X128989795Y-79694630D01*
X128978431Y-79637501D01*
X128935556Y-79421950D01*
X128935554Y-79421944D01*
X128934526Y-79416774D01*
X128840658Y-79149476D01*
X128838234Y-79144809D01*
X128712490Y-78902741D01*
X128712486Y-78902734D01*
X128710064Y-78898072D01*
X128545349Y-78667576D01*
X128541719Y-78663770D01*
X128541715Y-78663766D01*
X128353440Y-78466403D01*
X128349801Y-78462588D01*
X128251971Y-78385465D01*
X128131464Y-78290466D01*
X128127320Y-78287199D01*
X127951895Y-78185304D01*
X127886904Y-78147554D01*
X127886899Y-78147551D01*
X127882346Y-78144907D01*
X127619768Y-78038552D01*
X127439001Y-77993649D01*
X127349945Y-77971527D01*
X127349941Y-77971526D01*
X127344823Y-77970255D01*
X127339582Y-77969718D01*
X127339576Y-77969717D01*
X127106997Y-77945888D01*
X127103210Y-77945500D01*
X126927830Y-77945500D01*
X126717407Y-77960399D01*
X126440453Y-78020025D01*
X126174663Y-78118080D01*
X126170033Y-78120578D01*
X126170029Y-78120580D01*
X125953464Y-78237432D01*
X125925340Y-78252607D01*
X125921109Y-78255732D01*
X125921106Y-78255734D01*
X125784749Y-78356449D01*
X125697460Y-78420922D01*
X125693711Y-78424613D01*
X125693707Y-78424616D01*
X125658450Y-78459324D01*
X125495570Y-78619666D01*
X125492380Y-78623846D01*
X125492379Y-78623847D01*
X125402331Y-78741838D01*
X125323696Y-78844874D01*
X125185270Y-79092053D01*
X125083052Y-79356270D01*
X125019082Y-79632253D01*
X125018628Y-79637494D01*
X125018627Y-79637501D01*
X125013224Y-79699890D01*
X124994637Y-79914497D01*
X122402132Y-79914497D01*
X122400977Y-79899024D01*
X122410358Y-79542773D01*
X122411301Y-79529505D01*
X122456225Y-79142718D01*
X122458348Y-79129587D01*
X122465129Y-79096965D01*
X122506468Y-78898072D01*
X122537585Y-78748363D01*
X122540870Y-78735473D01*
X122653796Y-78362819D01*
X122658218Y-78350274D01*
X122803923Y-77989186D01*
X122809446Y-77977085D01*
X122854272Y-77889455D01*
X150844825Y-77889455D01*
X150845637Y-77897737D01*
X150845637Y-77897741D01*
X150848381Y-77925725D01*
X150861255Y-78057025D01*
X150914402Y-78216791D01*
X151001624Y-78360812D01*
X151118586Y-78481929D01*
X151125555Y-78486490D01*
X151125557Y-78486491D01*
X151252503Y-78569563D01*
X151252506Y-78569564D01*
X151259475Y-78574125D01*
X151417289Y-78632815D01*
X151425543Y-78633916D01*
X151425546Y-78633917D01*
X151575928Y-78653982D01*
X151575932Y-78653982D01*
X151584183Y-78655083D01*
X151692053Y-78645266D01*
X151743570Y-78640578D01*
X151743572Y-78640578D01*
X151751864Y-78639823D01*
X151911997Y-78587793D01*
X152056623Y-78501578D01*
X152178554Y-78385465D01*
X152194934Y-78360812D01*
X152267120Y-78252163D01*
X152271731Y-78245223D01*
X152331521Y-78087823D01*
X152354955Y-77921088D01*
X152355249Y-77900000D01*
X152336481Y-77732676D01*
X152281108Y-77573668D01*
X152191884Y-77430879D01*
X152073242Y-77311406D01*
X152066212Y-77306945D01*
X152066210Y-77306943D01*
X151938112Y-77225650D01*
X151938110Y-77225649D01*
X151931079Y-77221187D01*
X151923233Y-77218393D01*
X151780304Y-77167498D01*
X151780301Y-77167497D01*
X151772462Y-77164706D01*
X151764199Y-77163721D01*
X151764196Y-77163720D01*
X151669685Y-77152450D01*
X151605273Y-77144769D01*
X151596995Y-77145639D01*
X151596993Y-77145639D01*
X151521547Y-77153569D01*
X151437821Y-77162369D01*
X151278431Y-77216630D01*
X151271335Y-77220996D01*
X151271334Y-77220996D01*
X151168642Y-77284173D01*
X151135022Y-77304856D01*
X151014724Y-77422661D01*
X150923515Y-77564190D01*
X150865927Y-77722409D01*
X150864884Y-77730668D01*
X150864883Y-77730671D01*
X150860428Y-77765942D01*
X150844825Y-77889455D01*
X122854272Y-77889455D01*
X122986780Y-77630420D01*
X122993361Y-77618860D01*
X123120625Y-77416833D01*
X123200903Y-77289395D01*
X123208476Y-77278486D01*
X123444576Y-76968840D01*
X123453105Y-76958633D01*
X123715876Y-76671282D01*
X123725282Y-76661876D01*
X124012633Y-76399105D01*
X124022840Y-76390576D01*
X124073600Y-76351872D01*
X124332486Y-76154476D01*
X124343395Y-76146903D01*
X124658444Y-75948442D01*
X124672860Y-75939361D01*
X124684420Y-75932780D01*
X125031085Y-75755446D01*
X125043186Y-75749923D01*
X125404274Y-75604218D01*
X125416819Y-75599796D01*
X125789473Y-75486870D01*
X125802363Y-75483585D01*
X126012847Y-75439836D01*
X126183591Y-75404347D01*
X126196715Y-75402226D01*
X126304357Y-75389723D01*
X126583505Y-75357301D01*
X126596773Y-75356358D01*
X126953024Y-75346977D01*
X126977549Y-75348808D01*
X126981033Y-75348872D01*
X126992579Y-75350918D01*
X127017543Y-75347432D01*
X127038149Y-75346000D01*
X176960641Y-75346000D01*
X176981893Y-75347523D01*
G37*
%TD.AperFunction*%
%TD*%
M02*
