%TF.GenerationSoftware,KiCad,Pcbnew,(6.0.1)*%
%TF.CreationDate,2022-01-30T13:06:37+00:00*%
%TF.ProjectId,SigGen_SigAnalyser,53696747-656e-45f5-9369-67416e616c79,rev?*%
%TF.SameCoordinates,Original*%
%TF.FileFunction,Legend,Top*%
%TF.FilePolarity,Positive*%
%FSLAX46Y46*%
G04 Gerber Fmt 4.6, Leading zero omitted, Abs format (unit mm)*
G04 Created by KiCad (PCBNEW (6.0.1)) date 2022-01-30 13:06:37*
%MOMM*%
%LPD*%
G01*
G04 APERTURE LIST*
%ADD10C,0.150000*%
%ADD11C,0.400000*%
%ADD12C,0.200000*%
%ADD13C,0.100000*%
%ADD14C,0.120000*%
%ADD15C,0.239605*%
G04 APERTURE END LIST*
D10*
X156300000Y-113000000D02*
X161000000Y-113000000D01*
X168000000Y-113000000D02*
X181000000Y-113000000D01*
X142300000Y-113000000D02*
X152000000Y-113000000D01*
D11*
X131036087Y-80036087D02*
G75*
G03*
X131036087Y-80036087I-4036087J0D01*
G01*
D10*
X171550000Y-110300000D02*
X171300000Y-110300000D01*
X171300000Y-110300000D02*
X171300000Y-112250000D01*
X171300000Y-112250000D02*
X171550000Y-112250000D01*
X171550000Y-112250000D02*
X171550000Y-110300000D01*
G36*
X171550000Y-110300000D02*
G01*
X171300000Y-110300000D01*
X171300000Y-112250000D01*
X171550000Y-112250000D01*
X171550000Y-110300000D01*
G37*
D11*
X131036087Y-144936087D02*
G75*
G03*
X131036087Y-144936087I-4036087J0D01*
G01*
D10*
X170800000Y-110700000D02*
X171400000Y-109300000D01*
X171400000Y-109300000D02*
X172100000Y-110700000D01*
X172100000Y-110700000D02*
X170800000Y-110700000D01*
G36*
X172100000Y-110700000D02*
G01*
X170800000Y-110700000D01*
X171400000Y-109300000D01*
X172100000Y-110700000D01*
G37*
X172100000Y-110700000D02*
X170800000Y-110700000D01*
X171400000Y-109300000D01*
X172100000Y-110700000D01*
X149900000Y-76500000D02*
X148500000Y-75900000D01*
X148500000Y-75900000D02*
X149900000Y-75200000D01*
X149900000Y-75200000D02*
X149900000Y-76500000D01*
G36*
X149900000Y-76500000D02*
G01*
X148500000Y-75900000D01*
X149900000Y-75200000D01*
X149900000Y-76500000D01*
G37*
X149900000Y-76500000D02*
X148500000Y-75900000D01*
X149900000Y-75200000D01*
X149900000Y-76500000D01*
X123000000Y-113100000D02*
X134000000Y-113100000D01*
X149500000Y-75750000D02*
X151450000Y-75750000D01*
X151450000Y-75750000D02*
X151450000Y-76000000D01*
X151450000Y-76000000D02*
X149500000Y-76000000D01*
X149500000Y-76000000D02*
X149500000Y-75750000D01*
G36*
X149500000Y-75750000D02*
G01*
X151450000Y-75750000D01*
X151450000Y-76000000D01*
X149500000Y-76000000D01*
X149500000Y-75750000D01*
G37*
D11*
X131036087Y-144936087D02*
G75*
G03*
X131036087Y-144936087I-4036087J0D01*
G01*
D10*
X172050000Y-115200000D02*
X171450000Y-116600000D01*
X171450000Y-116600000D02*
X170750000Y-115200000D01*
X170750000Y-115200000D02*
X172050000Y-115200000D01*
G36*
X171450000Y-116600000D02*
G01*
X170750000Y-115200000D01*
X172050000Y-115200000D01*
X171450000Y-116600000D01*
G37*
X171450000Y-116600000D02*
X170750000Y-115200000D01*
X172050000Y-115200000D01*
X171450000Y-116600000D01*
X171300000Y-115600000D02*
X171550000Y-115600000D01*
X171550000Y-115600000D02*
X171550000Y-113650000D01*
X171550000Y-113650000D02*
X171300000Y-113650000D01*
X171300000Y-113650000D02*
X171300000Y-115600000D01*
G36*
X171300000Y-115600000D02*
G01*
X171550000Y-115600000D01*
X171550000Y-113650000D01*
X171300000Y-113650000D01*
X171300000Y-115600000D01*
G37*
D11*
X181036087Y-145000000D02*
G75*
G03*
X181036087Y-145000000I-4036087J0D01*
G01*
X181036087Y-79936087D02*
G75*
G03*
X181036087Y-79936087I-4036087J0D01*
G01*
D12*
X178971428Y-84478571D02*
X179257142Y-84478571D01*
X179400000Y-84550000D01*
X179542857Y-84692857D01*
X179614285Y-84978571D01*
X179614285Y-85478571D01*
X179542857Y-85764285D01*
X179400000Y-85907142D01*
X179257142Y-85978571D01*
X178971428Y-85978571D01*
X178828571Y-85907142D01*
X178685714Y-85764285D01*
X178614285Y-85478571D01*
X178614285Y-84978571D01*
X178685714Y-84692857D01*
X178828571Y-84550000D01*
X178971428Y-84478571D01*
X180257142Y-85978571D02*
X180257142Y-84478571D01*
X181114285Y-85978571D01*
X181114285Y-84478571D01*
X135464285Y-78857142D02*
X135678571Y-78928571D01*
X136035714Y-78928571D01*
X136178571Y-78857142D01*
X136250000Y-78785714D01*
X136321428Y-78642857D01*
X136321428Y-78500000D01*
X136250000Y-78357142D01*
X136178571Y-78285714D01*
X136035714Y-78214285D01*
X135750000Y-78142857D01*
X135607142Y-78071428D01*
X135535714Y-78000000D01*
X135464285Y-77857142D01*
X135464285Y-77714285D01*
X135535714Y-77571428D01*
X135607142Y-77500000D01*
X135750000Y-77428571D01*
X136107142Y-77428571D01*
X136321428Y-77500000D01*
X136821428Y-77428571D02*
X137178571Y-78928571D01*
X137464285Y-77857142D01*
X137750000Y-78928571D01*
X138107142Y-77428571D01*
X138678571Y-78928571D02*
X138678571Y-77428571D01*
X139035714Y-77428571D01*
X139250000Y-77500000D01*
X139392857Y-77642857D01*
X139464285Y-77785714D01*
X139535714Y-78071428D01*
X139535714Y-78285714D01*
X139464285Y-78571428D01*
X139392857Y-78714285D01*
X139250000Y-78857142D01*
X139035714Y-78928571D01*
X138678571Y-78928571D01*
X173921428Y-111878571D02*
X173921428Y-110378571D01*
X174278571Y-110378571D01*
X174492857Y-110450000D01*
X174635714Y-110592857D01*
X174707142Y-110735714D01*
X174778571Y-111021428D01*
X174778571Y-111235714D01*
X174707142Y-111521428D01*
X174635714Y-111664285D01*
X174492857Y-111807142D01*
X174278571Y-111878571D01*
X173921428Y-111878571D01*
X175421428Y-111878571D02*
X175421428Y-110378571D01*
X176921428Y-110450000D02*
X176778571Y-110378571D01*
X176564285Y-110378571D01*
X176350000Y-110450000D01*
X176207142Y-110592857D01*
X176135714Y-110735714D01*
X176064285Y-111021428D01*
X176064285Y-111235714D01*
X176135714Y-111521428D01*
X176207142Y-111664285D01*
X176350000Y-111807142D01*
X176564285Y-111878571D01*
X176707142Y-111878571D01*
X176921428Y-111807142D01*
X176992857Y-111735714D01*
X176992857Y-111235714D01*
X176707142Y-111235714D01*
X177635714Y-111878571D02*
X177635714Y-110378571D01*
X178135714Y-110378571D02*
X178992857Y-110378571D01*
X178564285Y-111878571D02*
X178564285Y-110378571D01*
X179421428Y-111450000D02*
X180135714Y-111450000D01*
X179278571Y-111878571D02*
X179778571Y-110378571D01*
X180278571Y-111878571D01*
X181492857Y-111878571D02*
X180778571Y-111878571D01*
X180778571Y-110378571D01*
X126328571Y-136657142D02*
X126328571Y-133657142D01*
X127757142Y-136657142D02*
X127757142Y-133657142D01*
X129471428Y-136657142D01*
X129471428Y-133657142D01*
D10*
X124599761Y-134166666D02*
X124647380Y-134023809D01*
X124647380Y-133785714D01*
X124599761Y-133690476D01*
X124552142Y-133642857D01*
X124456904Y-133595238D01*
X124361666Y-133595238D01*
X124266428Y-133642857D01*
X124218809Y-133690476D01*
X124171190Y-133785714D01*
X124123571Y-133976190D01*
X124075952Y-134071428D01*
X124028333Y-134119047D01*
X123933095Y-134166666D01*
X123837857Y-134166666D01*
X123742619Y-134119047D01*
X123695000Y-134071428D01*
X123647380Y-133976190D01*
X123647380Y-133738095D01*
X123695000Y-133595238D01*
X124647380Y-133166666D02*
X123980714Y-133166666D01*
X123647380Y-133166666D02*
X123695000Y-133214285D01*
X123742619Y-133166666D01*
X123695000Y-133119047D01*
X123647380Y-133166666D01*
X123742619Y-133166666D01*
X123980714Y-132261904D02*
X124790238Y-132261904D01*
X124885476Y-132309523D01*
X124933095Y-132357142D01*
X124980714Y-132452380D01*
X124980714Y-132595238D01*
X124933095Y-132690476D01*
X124599761Y-132261904D02*
X124647380Y-132357142D01*
X124647380Y-132547619D01*
X124599761Y-132642857D01*
X124552142Y-132690476D01*
X124456904Y-132738095D01*
X124171190Y-132738095D01*
X124075952Y-132690476D01*
X124028333Y-132642857D01*
X123980714Y-132547619D01*
X123980714Y-132357142D01*
X124028333Y-132261904D01*
X123695000Y-131261904D02*
X123647380Y-131357142D01*
X123647380Y-131500000D01*
X123695000Y-131642857D01*
X123790238Y-131738095D01*
X123885476Y-131785714D01*
X124075952Y-131833333D01*
X124218809Y-131833333D01*
X124409285Y-131785714D01*
X124504523Y-131738095D01*
X124599761Y-131642857D01*
X124647380Y-131500000D01*
X124647380Y-131404761D01*
X124599761Y-131261904D01*
X124552142Y-131214285D01*
X124218809Y-131214285D01*
X124218809Y-131404761D01*
X124599761Y-130404761D02*
X124647380Y-130500000D01*
X124647380Y-130690476D01*
X124599761Y-130785714D01*
X124504523Y-130833333D01*
X124123571Y-130833333D01*
X124028333Y-130785714D01*
X123980714Y-130690476D01*
X123980714Y-130500000D01*
X124028333Y-130404761D01*
X124123571Y-130357142D01*
X124218809Y-130357142D01*
X124314047Y-130833333D01*
X123980714Y-129928571D02*
X124647380Y-129928571D01*
X124075952Y-129928571D02*
X124028333Y-129880952D01*
X123980714Y-129785714D01*
X123980714Y-129642857D01*
X124028333Y-129547619D01*
X124123571Y-129500000D01*
X124647380Y-129500000D01*
X123599761Y-128309523D02*
X124885476Y-129166666D01*
X124599761Y-128023809D02*
X124647380Y-127880952D01*
X124647380Y-127642857D01*
X124599761Y-127547619D01*
X124552142Y-127500000D01*
X124456904Y-127452380D01*
X124361666Y-127452380D01*
X124266428Y-127500000D01*
X124218809Y-127547619D01*
X124171190Y-127642857D01*
X124123571Y-127833333D01*
X124075952Y-127928571D01*
X124028333Y-127976190D01*
X123933095Y-128023809D01*
X123837857Y-128023809D01*
X123742619Y-127976190D01*
X123695000Y-127928571D01*
X123647380Y-127833333D01*
X123647380Y-127595238D01*
X123695000Y-127452380D01*
X124647380Y-127023809D02*
X123980714Y-127023809D01*
X123647380Y-127023809D02*
X123695000Y-127071428D01*
X123742619Y-127023809D01*
X123695000Y-126976190D01*
X123647380Y-127023809D01*
X123742619Y-127023809D01*
X123980714Y-126119047D02*
X124790238Y-126119047D01*
X124885476Y-126166666D01*
X124933095Y-126214285D01*
X124980714Y-126309523D01*
X124980714Y-126452380D01*
X124933095Y-126547619D01*
X124599761Y-126119047D02*
X124647380Y-126214285D01*
X124647380Y-126404761D01*
X124599761Y-126500000D01*
X124552142Y-126547619D01*
X124456904Y-126595238D01*
X124171190Y-126595238D01*
X124075952Y-126547619D01*
X124028333Y-126500000D01*
X123980714Y-126404761D01*
X123980714Y-126214285D01*
X124028333Y-126119047D01*
X124361666Y-125690476D02*
X124361666Y-125214285D01*
X124647380Y-125785714D02*
X123647380Y-125452380D01*
X124647380Y-125119047D01*
X123980714Y-124785714D02*
X124647380Y-124785714D01*
X124075952Y-124785714D02*
X124028333Y-124738095D01*
X123980714Y-124642857D01*
X123980714Y-124500000D01*
X124028333Y-124404761D01*
X124123571Y-124357142D01*
X124647380Y-124357142D01*
X124647380Y-123452380D02*
X124123571Y-123452380D01*
X124028333Y-123500000D01*
X123980714Y-123595238D01*
X123980714Y-123785714D01*
X124028333Y-123880952D01*
X124599761Y-123452380D02*
X124647380Y-123547619D01*
X124647380Y-123785714D01*
X124599761Y-123880952D01*
X124504523Y-123928571D01*
X124409285Y-123928571D01*
X124314047Y-123880952D01*
X124266428Y-123785714D01*
X124266428Y-123547619D01*
X124218809Y-123452380D01*
X124647380Y-122833333D02*
X124599761Y-122928571D01*
X124504523Y-122976190D01*
X123647380Y-122976190D01*
X123980714Y-122547619D02*
X124647380Y-122309523D01*
X123980714Y-122071428D02*
X124647380Y-122309523D01*
X124885476Y-122404761D01*
X124933095Y-122452380D01*
X124980714Y-122547619D01*
X124599761Y-121738095D02*
X124647380Y-121642857D01*
X124647380Y-121452380D01*
X124599761Y-121357142D01*
X124504523Y-121309523D01*
X124456904Y-121309523D01*
X124361666Y-121357142D01*
X124314047Y-121452380D01*
X124314047Y-121595238D01*
X124266428Y-121690476D01*
X124171190Y-121738095D01*
X124123571Y-121738095D01*
X124028333Y-121690476D01*
X123980714Y-121595238D01*
X123980714Y-121452380D01*
X124028333Y-121357142D01*
X124599761Y-120500000D02*
X124647380Y-120595238D01*
X124647380Y-120785714D01*
X124599761Y-120880952D01*
X124504523Y-120928571D01*
X124123571Y-120928571D01*
X124028333Y-120880952D01*
X123980714Y-120785714D01*
X123980714Y-120595238D01*
X124028333Y-120500000D01*
X124123571Y-120452380D01*
X124218809Y-120452380D01*
X124314047Y-120928571D01*
X124647380Y-120023809D02*
X123980714Y-120023809D01*
X124171190Y-120023809D02*
X124075952Y-119976190D01*
X124028333Y-119928571D01*
X123980714Y-119833333D01*
X123980714Y-119738095D01*
X126257380Y-131619047D02*
X125781190Y-131952380D01*
X126257380Y-132190476D02*
X125257380Y-132190476D01*
X125257380Y-131809523D01*
X125305000Y-131714285D01*
X125352619Y-131666666D01*
X125447857Y-131619047D01*
X125590714Y-131619047D01*
X125685952Y-131666666D01*
X125733571Y-131714285D01*
X125781190Y-131809523D01*
X125781190Y-132190476D01*
X126209761Y-130809523D02*
X126257380Y-130904761D01*
X126257380Y-131095238D01*
X126209761Y-131190476D01*
X126114523Y-131238095D01*
X125733571Y-131238095D01*
X125638333Y-131190476D01*
X125590714Y-131095238D01*
X125590714Y-130904761D01*
X125638333Y-130809523D01*
X125733571Y-130761904D01*
X125828809Y-130761904D01*
X125924047Y-131238095D01*
X125590714Y-130428571D02*
X126257380Y-130190476D01*
X125590714Y-129952380D01*
X126162142Y-129571428D02*
X126209761Y-129523809D01*
X126257380Y-129571428D01*
X126209761Y-129619047D01*
X126162142Y-129571428D01*
X126257380Y-129571428D01*
X125971666Y-128380952D02*
X125971666Y-127904761D01*
X126257380Y-128476190D02*
X125257380Y-128142857D01*
X126257380Y-127809523D01*
X126257380Y-126714285D02*
X125257380Y-126714285D01*
X125638333Y-126714285D02*
X125590714Y-126619047D01*
X125590714Y-126428571D01*
X125638333Y-126333333D01*
X125685952Y-126285714D01*
X125781190Y-126238095D01*
X126066904Y-126238095D01*
X126162142Y-126285714D01*
X126209761Y-126333333D01*
X126257380Y-126428571D01*
X126257380Y-126619047D01*
X126209761Y-126714285D01*
X125590714Y-125904761D02*
X126257380Y-125666666D01*
X125590714Y-125428571D02*
X126257380Y-125666666D01*
X126495476Y-125761904D01*
X126543095Y-125809523D01*
X126590714Y-125904761D01*
X126162142Y-123714285D02*
X126209761Y-123761904D01*
X126257380Y-123904761D01*
X126257380Y-124000000D01*
X126209761Y-124142857D01*
X126114523Y-124238095D01*
X126019285Y-124285714D01*
X125828809Y-124333333D01*
X125685952Y-124333333D01*
X125495476Y-124285714D01*
X125400238Y-124238095D01*
X125305000Y-124142857D01*
X125257380Y-124000000D01*
X125257380Y-123904761D01*
X125305000Y-123761904D01*
X125352619Y-123714285D01*
X126162142Y-123285714D02*
X126209761Y-123238095D01*
X126257380Y-123285714D01*
X126209761Y-123333333D01*
X126162142Y-123285714D01*
X126257380Y-123285714D01*
X126257380Y-122809523D02*
X125257380Y-122809523D01*
X125257380Y-122571428D01*
X125305000Y-122428571D01*
X125400238Y-122333333D01*
X125495476Y-122285714D01*
X125685952Y-122238095D01*
X125828809Y-122238095D01*
X126019285Y-122285714D01*
X126114523Y-122333333D01*
X126209761Y-122428571D01*
X126257380Y-122571428D01*
X126257380Y-122809523D01*
X126162142Y-121809523D02*
X126209761Y-121761904D01*
X126257380Y-121809523D01*
X126209761Y-121857142D01*
X126162142Y-121809523D01*
X126257380Y-121809523D01*
D12*
X175607142Y-104978571D02*
X175607142Y-106192857D01*
X175678571Y-106335714D01*
X175750000Y-106407142D01*
X175892857Y-106478571D01*
X176178571Y-106478571D01*
X176321428Y-106407142D01*
X176392857Y-106335714D01*
X176464285Y-106192857D01*
X176464285Y-104978571D01*
X177107142Y-106407142D02*
X177321428Y-106478571D01*
X177678571Y-106478571D01*
X177821428Y-106407142D01*
X177892857Y-106335714D01*
X177964285Y-106192857D01*
X177964285Y-106050000D01*
X177892857Y-105907142D01*
X177821428Y-105835714D01*
X177678571Y-105764285D01*
X177392857Y-105692857D01*
X177250000Y-105621428D01*
X177178571Y-105550000D01*
X177107142Y-105407142D01*
X177107142Y-105264285D01*
X177178571Y-105121428D01*
X177250000Y-105050000D01*
X177392857Y-104978571D01*
X177750000Y-104978571D01*
X177964285Y-105050000D01*
X179107142Y-105692857D02*
X179321428Y-105764285D01*
X179392857Y-105835714D01*
X179464285Y-105978571D01*
X179464285Y-106192857D01*
X179392857Y-106335714D01*
X179321428Y-106407142D01*
X179178571Y-106478571D01*
X178607142Y-106478571D01*
X178607142Y-104978571D01*
X179107142Y-104978571D01*
X179250000Y-105050000D01*
X179321428Y-105121428D01*
X179392857Y-105264285D01*
X179392857Y-105407142D01*
X179321428Y-105550000D01*
X179250000Y-105621428D01*
X179107142Y-105692857D01*
X178607142Y-105692857D01*
X173671428Y-115950000D02*
X174385714Y-115950000D01*
X173528571Y-116378571D02*
X174028571Y-114878571D01*
X174528571Y-116378571D01*
X175028571Y-116378571D02*
X175028571Y-114878571D01*
X175885714Y-116378571D01*
X175885714Y-114878571D01*
X176528571Y-115950000D02*
X177242857Y-115950000D01*
X176385714Y-116378571D02*
X176885714Y-114878571D01*
X177385714Y-116378571D01*
X178600000Y-116378571D02*
X177885714Y-116378571D01*
X177885714Y-114878571D01*
X179385714Y-114878571D02*
X179671428Y-114878571D01*
X179814285Y-114950000D01*
X179957142Y-115092857D01*
X180028571Y-115378571D01*
X180028571Y-115878571D01*
X179957142Y-116164285D01*
X179814285Y-116307142D01*
X179671428Y-116378571D01*
X179385714Y-116378571D01*
X179242857Y-116307142D01*
X179100000Y-116164285D01*
X179028571Y-115878571D01*
X179028571Y-115378571D01*
X179100000Y-115092857D01*
X179242857Y-114950000D01*
X179385714Y-114878571D01*
X181457142Y-114950000D02*
X181314285Y-114878571D01*
X181100000Y-114878571D01*
X180885714Y-114950000D01*
X180742857Y-115092857D01*
X180671428Y-115235714D01*
X180600000Y-115521428D01*
X180600000Y-115735714D01*
X180671428Y-116021428D01*
X180742857Y-116164285D01*
X180885714Y-116307142D01*
X181100000Y-116378571D01*
X181242857Y-116378571D01*
X181457142Y-116307142D01*
X181528571Y-116235714D01*
X181528571Y-115735714D01*
X181242857Y-115735714D01*
X173700000Y-133657142D02*
X174271428Y-133657142D01*
X174557142Y-133800000D01*
X174842857Y-134085714D01*
X174985714Y-134657142D01*
X174985714Y-135657142D01*
X174842857Y-136228571D01*
X174557142Y-136514285D01*
X174271428Y-136657142D01*
X173700000Y-136657142D01*
X173414285Y-136514285D01*
X173128571Y-136228571D01*
X172985714Y-135657142D01*
X172985714Y-134657142D01*
X173128571Y-134085714D01*
X173414285Y-133800000D01*
X173700000Y-133657142D01*
X176271428Y-133657142D02*
X176271428Y-136085714D01*
X176414285Y-136371428D01*
X176557142Y-136514285D01*
X176842857Y-136657142D01*
X177414285Y-136657142D01*
X177700000Y-136514285D01*
X177842857Y-136371428D01*
X177985714Y-136085714D01*
X177985714Y-133657142D01*
X178985714Y-133657142D02*
X180700000Y-133657142D01*
X179842857Y-136657142D02*
X179842857Y-133657142D01*
D10*
X145990476Y-131647619D02*
X146038095Y-131600000D01*
X146133333Y-131552380D01*
X146371428Y-131552380D01*
X146466666Y-131600000D01*
X146514285Y-131647619D01*
X146561904Y-131742857D01*
X146561904Y-131838095D01*
X146514285Y-131980952D01*
X145942857Y-132552380D01*
X146561904Y-132552380D01*
X147180952Y-131552380D02*
X147276190Y-131552380D01*
X147371428Y-131600000D01*
X147419047Y-131647619D01*
X147466666Y-131742857D01*
X147514285Y-131933333D01*
X147514285Y-132171428D01*
X147466666Y-132361904D01*
X147419047Y-132457142D01*
X147371428Y-132504761D01*
X147276190Y-132552380D01*
X147180952Y-132552380D01*
X147085714Y-132504761D01*
X147038095Y-132457142D01*
X146990476Y-132361904D01*
X146942857Y-132171428D01*
X146942857Y-131933333D01*
X146990476Y-131742857D01*
X147038095Y-131647619D01*
X147085714Y-131600000D01*
X147180952Y-131552380D01*
X147942857Y-132552380D02*
X147942857Y-131552380D01*
X147942857Y-132028571D02*
X148514285Y-132028571D01*
X148514285Y-132552380D02*
X148514285Y-131552380D01*
X148895238Y-131885714D02*
X149419047Y-131885714D01*
X148895238Y-132552380D01*
X149419047Y-132552380D01*
X151323809Y-131885714D02*
X150561904Y-132171428D01*
X151323809Y-132457142D01*
X152895238Y-132028571D02*
X153038095Y-132076190D01*
X153085714Y-132123809D01*
X153133333Y-132219047D01*
X153133333Y-132361904D01*
X153085714Y-132457142D01*
X153038095Y-132504761D01*
X152942857Y-132552380D01*
X152561904Y-132552380D01*
X152561904Y-131552380D01*
X152895238Y-131552380D01*
X152990476Y-131600000D01*
X153038095Y-131647619D01*
X153085714Y-131742857D01*
X153085714Y-131838095D01*
X153038095Y-131933333D01*
X152990476Y-131980952D01*
X152895238Y-132028571D01*
X152561904Y-132028571D01*
X153466666Y-131552380D02*
X153704761Y-132552380D01*
X153895238Y-131838095D01*
X154085714Y-132552380D01*
X154323809Y-131552380D01*
X156228571Y-131885714D02*
X155466666Y-132171428D01*
X156228571Y-132457142D01*
X157419047Y-131647619D02*
X157466666Y-131600000D01*
X157561904Y-131552380D01*
X157800000Y-131552380D01*
X157895238Y-131600000D01*
X157942857Y-131647619D01*
X157990476Y-131742857D01*
X157990476Y-131838095D01*
X157942857Y-131980952D01*
X157371428Y-132552380D01*
X157990476Y-132552380D01*
X158609523Y-131552380D02*
X158704761Y-131552380D01*
X158800000Y-131600000D01*
X158847619Y-131647619D01*
X158895238Y-131742857D01*
X158942857Y-131933333D01*
X158942857Y-132171428D01*
X158895238Y-132361904D01*
X158847619Y-132457142D01*
X158800000Y-132504761D01*
X158704761Y-132552380D01*
X158609523Y-132552380D01*
X158514285Y-132504761D01*
X158466666Y-132457142D01*
X158419047Y-132361904D01*
X158371428Y-132171428D01*
X158371428Y-131933333D01*
X158419047Y-131742857D01*
X158466666Y-131647619D01*
X158514285Y-131600000D01*
X158609523Y-131552380D01*
X159371428Y-132552380D02*
X159371428Y-131552380D01*
X159466666Y-132171428D02*
X159752380Y-132552380D01*
X159752380Y-131885714D02*
X159371428Y-132266666D01*
X160180952Y-132552380D02*
X160180952Y-131552380D01*
X160180952Y-132028571D02*
X160752380Y-132028571D01*
X160752380Y-132552380D02*
X160752380Y-131552380D01*
X161133333Y-131885714D02*
X161657142Y-131885714D01*
X161133333Y-132552380D01*
X161657142Y-132552380D01*
D13*
%TO.C,L200*%
X164510000Y-97915000D02*
X164510000Y-95885000D01*
X166290000Y-98270000D02*
X166290000Y-95885000D01*
D14*
%TO.C,C311*%
X136840000Y-115307836D02*
X136840000Y-115092164D01*
X137560000Y-115307836D02*
X137560000Y-115092164D01*
%TO.C,J300*%
X132500000Y-148700000D02*
X132500000Y-133700000D01*
X140000000Y-148500000D02*
X141000000Y-147500000D01*
X140000000Y-148500000D02*
X139000000Y-147500000D01*
X147500000Y-148700000D02*
X132500000Y-148700000D01*
X132500000Y-133700000D02*
X147500000Y-133700000D01*
X147500000Y-133700000D02*
X147500000Y-148700000D01*
%TO.C,U401*%
X163764500Y-125042000D02*
X162964500Y-125042000D01*
X163764500Y-125042000D02*
X164564500Y-125042000D01*
X163764500Y-128162000D02*
X165564500Y-128162000D01*
X163764500Y-128162000D02*
X162964500Y-128162000D01*
%TO.C,R402*%
X162340859Y-122156000D02*
X162648141Y-122156000D01*
X162340859Y-121396000D02*
X162648141Y-121396000D01*
%TO.C,R300*%
X141794500Y-128787641D02*
X141794500Y-128480359D01*
X142554500Y-128787641D02*
X142554500Y-128480359D01*
%TO.C,U201*%
X169300000Y-95340000D02*
X168500000Y-95340000D01*
X169300000Y-98460000D02*
X168500000Y-98460000D01*
X169300000Y-98460000D02*
X171100000Y-98460000D01*
X169300000Y-95340000D02*
X170100000Y-95340000D01*
%TO.C,C405*%
X162602336Y-124422000D02*
X162386664Y-124422000D01*
X162602336Y-123702000D02*
X162386664Y-123702000D01*
%TO.C,C306*%
X143040000Y-123153836D02*
X143040000Y-122938164D01*
X143760000Y-123153836D02*
X143760000Y-122938164D01*
%TO.C,C400*%
X161559420Y-107290000D02*
X161840580Y-107290000D01*
X161559420Y-108310000D02*
X161840580Y-108310000D01*
%TO.C,R303*%
X139508500Y-125739641D02*
X139508500Y-125432359D01*
X140268500Y-125739641D02*
X140268500Y-125432359D01*
%TO.C,R104*%
X155534141Y-128220000D02*
X155226859Y-128220000D01*
X155534141Y-128980000D02*
X155226859Y-128980000D01*
%TO.C,D205*%
X140050000Y-83205000D02*
X137750000Y-83205000D01*
X140050000Y-79508000D02*
X140050000Y-83205000D01*
X137750000Y-80308000D02*
X138550000Y-79508000D01*
X138550000Y-79508000D02*
X140050000Y-79508000D01*
X137750000Y-83205000D02*
X137750000Y-80308000D01*
%TO.C,R209*%
X132073641Y-99200000D02*
X131766359Y-99200000D01*
X132073641Y-99960000D02*
X131766359Y-99960000D01*
%TO.C,R204*%
X161680000Y-95796359D02*
X161680000Y-96103641D01*
X160920000Y-95796359D02*
X160920000Y-96103641D01*
%TO.C,C300*%
X144354500Y-127510164D02*
X144354500Y-127725836D01*
X145074500Y-127510164D02*
X145074500Y-127725836D01*
%TO.C,C106*%
X166008336Y-89522000D02*
X165792664Y-89522000D01*
X166008336Y-88802000D02*
X165792664Y-88802000D01*
%TO.C,C315*%
X138040580Y-107290000D02*
X137759420Y-107290000D01*
X138040580Y-108310000D02*
X137759420Y-108310000D01*
%TO.C,R207*%
X132073641Y-101460000D02*
X131766359Y-101460000D01*
X132073641Y-100700000D02*
X131766359Y-100700000D01*
%TO.C,R403*%
X164652500Y-123400359D02*
X164652500Y-123707641D01*
X163892500Y-123400359D02*
X163892500Y-123707641D01*
%TO.C,C108*%
X157240000Y-125707836D02*
X157240000Y-125492164D01*
X157960000Y-125707836D02*
X157960000Y-125492164D01*
%TO.C,R307*%
X141284500Y-118119641D02*
X141284500Y-117812359D01*
X140524500Y-118119641D02*
X140524500Y-117812359D01*
%TO.C,C206*%
X145660000Y-99640580D02*
X145660000Y-99359420D01*
X144640000Y-99640580D02*
X144640000Y-99359420D01*
%TO.C,C203*%
X158960000Y-94892164D02*
X158960000Y-95107836D01*
X158240000Y-94892164D02*
X158240000Y-95107836D01*
%TO.C,R401*%
X163053641Y-117620000D02*
X162746359Y-117620000D01*
X163053641Y-118380000D02*
X162746359Y-118380000D01*
%TO.C,L101*%
X163514500Y-78323000D02*
X163514500Y-77378000D01*
X168794500Y-82658000D02*
X168794500Y-81713000D01*
X163514500Y-82658000D02*
X168794500Y-82658000D01*
X163514500Y-81713000D02*
X163514500Y-82658000D01*
X168794500Y-77378000D02*
X168794500Y-78323000D01*
X163514500Y-77378000D02*
X168794500Y-77378000D01*
%TO.C,C305*%
X140288664Y-123448000D02*
X140504336Y-123448000D01*
X140288664Y-124168000D02*
X140504336Y-124168000D01*
%TO.C,D400*%
X163208000Y-130150000D02*
X166905000Y-130150000D01*
X166905000Y-132450000D02*
X164008000Y-132450000D01*
X166905000Y-130150000D02*
X166905000Y-132450000D01*
X163208000Y-131650000D02*
X163208000Y-130150000D01*
X164008000Y-132450000D02*
X163208000Y-131650000D01*
%TO.C,C313*%
X136988500Y-111508164D02*
X136988500Y-111723836D01*
X137708500Y-111508164D02*
X137708500Y-111723836D01*
%TO.C,C301*%
X146292164Y-127766000D02*
X146507836Y-127766000D01*
X146292164Y-128486000D02*
X146507836Y-128486000D01*
%TO.C,U100*%
X155010500Y-117384000D02*
X155010500Y-118694000D01*
X152290500Y-117384000D02*
X155010500Y-117384000D01*
X155010500Y-122104000D02*
X152290500Y-122104000D01*
X151150500Y-117614000D02*
X152290500Y-117614000D01*
X152290500Y-122104000D02*
X152290500Y-121874000D01*
X155010500Y-120794000D02*
X155010500Y-122104000D01*
X152290500Y-117384000D02*
X152290500Y-117614000D01*
%TO.C,C205*%
X146290000Y-99127836D02*
X146290000Y-98912164D01*
X147010000Y-99127836D02*
X147010000Y-98912164D01*
%TO.C,R305*%
X136994141Y-124188000D02*
X136686859Y-124188000D01*
X136994141Y-123428000D02*
X136686859Y-123428000D01*
%TO.C,D202*%
X148195000Y-86750000D02*
X148195000Y-84450000D01*
X148195000Y-84450000D02*
X151092000Y-84450000D01*
X151892000Y-86750000D02*
X148195000Y-86750000D01*
X151892000Y-85250000D02*
X151892000Y-86750000D01*
X151092000Y-84450000D02*
X151892000Y-85250000D01*
%TO.C,R306*%
X137476500Y-118119641D02*
X137476500Y-117812359D01*
X138236500Y-118119641D02*
X138236500Y-117812359D01*
%TO.C,R205*%
X179053641Y-103020000D02*
X178746359Y-103020000D01*
X179053641Y-103780000D02*
X178746359Y-103780000D01*
%TO.C,C208*%
X143315835Y-94740000D02*
X143084165Y-94740000D01*
X143315835Y-95460000D02*
X143084165Y-95460000D01*
%TO.C,C201*%
X147260000Y-94607836D02*
X147260000Y-94392164D01*
X146540000Y-94607836D02*
X146540000Y-94392164D01*
%TO.C,R203*%
X148246359Y-103620000D02*
X148553641Y-103620000D01*
X148246359Y-104380000D02*
X148553641Y-104380000D01*
%TO.C,R213*%
X137080000Y-80696359D02*
X137080000Y-81003641D01*
X136320000Y-80696359D02*
X136320000Y-81003641D01*
%TO.C,C209*%
X140542164Y-95460000D02*
X140757836Y-95460000D01*
X140542164Y-94740000D02*
X140757836Y-94740000D01*
%TO.C,R404*%
X165896859Y-124442000D02*
X166204141Y-124442000D01*
X165896859Y-123682000D02*
X166204141Y-123682000D01*
%TO.C,R400*%
X163880000Y-105446359D02*
X163880000Y-105753641D01*
X163120000Y-105446359D02*
X163120000Y-105753641D01*
%TO.C,C200*%
X144890000Y-94640580D02*
X144890000Y-94359420D01*
X145910000Y-94640580D02*
X145910000Y-94359420D01*
%TO.C,C211*%
X128512164Y-97440000D02*
X128727836Y-97440000D01*
X128512164Y-96720000D02*
X128727836Y-96720000D01*
%TO.C,R103*%
X177020000Y-88956359D02*
X177020000Y-89263641D01*
X177780000Y-88956359D02*
X177780000Y-89263641D01*
%TO.C,D204*%
X139195000Y-84450000D02*
X142092000Y-84450000D01*
X142092000Y-84450000D02*
X142892000Y-85250000D01*
X142892000Y-85250000D02*
X142892000Y-86750000D01*
X139195000Y-86750000D02*
X139195000Y-84450000D01*
X142892000Y-86750000D02*
X139195000Y-86750000D01*
%TO.C,D203*%
X143695000Y-84450000D02*
X146592000Y-84450000D01*
X143695000Y-86750000D02*
X143695000Y-84450000D01*
X147392000Y-85250000D02*
X147392000Y-86750000D01*
X146592000Y-84450000D02*
X147392000Y-85250000D01*
X147392000Y-86750000D02*
X143695000Y-86750000D01*
%TO.C,J201*%
X147570000Y-76810000D02*
X147570000Y-78135000D01*
X141165000Y-78135000D02*
X141165000Y-81665000D01*
X147635000Y-78135000D02*
X147570000Y-78135000D01*
X141230000Y-81665000D02*
X141165000Y-81665000D01*
X147635000Y-81665000D02*
X147570000Y-81665000D01*
X147635000Y-78135000D02*
X147635000Y-81665000D01*
X141230000Y-78135000D02*
X141165000Y-78135000D01*
%TO.C,C105*%
X168692500Y-85205733D02*
X168692500Y-85498267D01*
X169712500Y-85205733D02*
X169712500Y-85498267D01*
%TO.C,C207*%
X142890000Y-99640580D02*
X142890000Y-99359420D01*
X143910000Y-99640580D02*
X143910000Y-99359420D01*
%TO.C,R100*%
X153565000Y-112838748D02*
X153565000Y-113361252D01*
X155035000Y-112838748D02*
X155035000Y-113361252D01*
%TO.C,R302*%
X147453641Y-127180000D02*
X147146359Y-127180000D01*
X147453641Y-126420000D02*
X147146359Y-126420000D01*
%TO.C,D200*%
X130130000Y-97780000D02*
X130130000Y-101580000D01*
X127330000Y-97780000D02*
X128080000Y-97780000D01*
X127330000Y-97780000D02*
X127330000Y-101580000D01*
%TO.C,C107*%
X153040580Y-130610000D02*
X152759420Y-130610000D01*
X153040580Y-129590000D02*
X152759420Y-129590000D01*
%TO.C,R201*%
X140496359Y-96630000D02*
X140803641Y-96630000D01*
X140496359Y-95870000D02*
X140803641Y-95870000D01*
%TO.C,C212*%
X137060000Y-82892164D02*
X137060000Y-83107836D01*
X136340000Y-82892164D02*
X136340000Y-83107836D01*
%TO.C,C101*%
X168210000Y-101559420D02*
X168210000Y-101840580D01*
X167190000Y-101559420D02*
X167190000Y-101840580D01*
%TO.C,C210*%
X169907836Y-94660000D02*
X169692164Y-94660000D01*
X169907836Y-93940000D02*
X169692164Y-93940000D01*
%TO.C,U303*%
X140884500Y-112165000D02*
X140884500Y-114115000D01*
X140884500Y-114115000D02*
X139184500Y-114115000D01*
X139184500Y-114115000D02*
X138384500Y-113315000D01*
X138384500Y-113315000D02*
X138384500Y-112165000D01*
X138384500Y-112165000D02*
X140884500Y-112165000D01*
D15*
X137976302Y-116442000D02*
G75*
G03*
X137976302Y-116442000I-119802J0D01*
G01*
D14*
%TO.C,C103*%
X149284500Y-119636267D02*
X149284500Y-119343733D01*
X150304500Y-119636267D02*
X150304500Y-119343733D01*
%TO.C,D100*%
X178135000Y-87801000D02*
X178135000Y-85516000D01*
X176665000Y-85516000D02*
X176665000Y-87801000D01*
X176665000Y-87801000D02*
X178135000Y-87801000D01*
%TO.C,C406*%
X161360000Y-126992164D02*
X161360000Y-127207836D01*
X160640000Y-126992164D02*
X160640000Y-127207836D01*
%TO.C,U300*%
X147290500Y-124062000D02*
X147290500Y-123262000D01*
X147290500Y-124062000D02*
X147290500Y-124862000D01*
X144170500Y-124062000D02*
X144170500Y-125862000D01*
X144170500Y-124062000D02*
X144170500Y-123262000D01*
%TO.C,C403*%
X164626859Y-121396000D02*
X164934141Y-121396000D01*
X164626859Y-122156000D02*
X164934141Y-122156000D01*
%TO.C,R210*%
X151546359Y-87120000D02*
X151853641Y-87120000D01*
X151546359Y-87880000D02*
X151853641Y-87880000D01*
%TO.C,U302*%
X132522500Y-115390000D02*
X131872500Y-115390000D01*
X132522500Y-115390000D02*
X133172500Y-115390000D01*
X132522500Y-118510000D02*
X131872500Y-118510000D01*
X132522500Y-118510000D02*
X134197500Y-118510000D01*
%TO.C,C303*%
X141530664Y-124718000D02*
X141746336Y-124718000D01*
X141530664Y-125438000D02*
X141746336Y-125438000D01*
%TO.C,R212*%
X142446359Y-87120000D02*
X142753641Y-87120000D01*
X142446359Y-87880000D02*
X142753641Y-87880000D01*
%TO.C,C100*%
X169090000Y-101559420D02*
X169090000Y-101840580D01*
X170110000Y-101559420D02*
X170110000Y-101840580D01*
%TO.C,R208*%
X132073641Y-98460000D02*
X131766359Y-98460000D01*
X132073641Y-97700000D02*
X131766359Y-97700000D01*
%TO.C,R200*%
X151720000Y-91446359D02*
X151720000Y-91753641D01*
X152480000Y-91446359D02*
X152480000Y-91753641D01*
%TO.C,R405*%
X164653641Y-129780000D02*
X164346359Y-129780000D01*
X164653641Y-129020000D02*
X164346359Y-129020000D01*
%TO.C,R102*%
X163976336Y-88252000D02*
X163760664Y-88252000D01*
X163976336Y-87532000D02*
X163760664Y-87532000D01*
%TO.C,C402*%
X159698500Y-111377420D02*
X159698500Y-111658580D01*
X160718500Y-111377420D02*
X160718500Y-111658580D01*
%TO.C,C314*%
X138007836Y-109460000D02*
X137792164Y-109460000D01*
X138007836Y-108740000D02*
X137792164Y-108740000D01*
%TO.C,D300*%
X145095500Y-132070000D02*
X142198500Y-132070000D01*
X142198500Y-132070000D02*
X141398500Y-131270000D01*
X141398500Y-129770000D02*
X145095500Y-129770000D01*
X141398500Y-131270000D02*
X141398500Y-129770000D01*
X145095500Y-129770000D02*
X145095500Y-132070000D01*
%TO.C,C401*%
X161624664Y-109592000D02*
X161840336Y-109592000D01*
X161624664Y-108872000D02*
X161840336Y-108872000D01*
%TO.C,C202*%
X155307836Y-104328000D02*
X155092164Y-104328000D01*
X155307836Y-103608000D02*
X155092164Y-103608000D01*
%TO.C,R105*%
X153248141Y-128220000D02*
X152940859Y-128220000D01*
X153248141Y-128980000D02*
X152940859Y-128980000D01*
%TO.C,C404*%
X166198500Y-125732164D02*
X166198500Y-125947836D01*
X166918500Y-125732164D02*
X166918500Y-125947836D01*
%TO.C,R309*%
X139320000Y-105953641D02*
X139320000Y-105646359D01*
X140080000Y-105953641D02*
X140080000Y-105646359D01*
%TO.C,C310*%
X135290000Y-115340580D02*
X135290000Y-115059420D01*
X136310000Y-115340580D02*
X136310000Y-115059420D01*
%TO.C,U203*%
X149090000Y-101610000D02*
X149090000Y-101160000D01*
X149540000Y-94390000D02*
X149090000Y-94390000D01*
X149540000Y-101610000D02*
X149090000Y-101610000D01*
X149090000Y-94840000D02*
X147800000Y-94840000D01*
X156310000Y-101610000D02*
X156310000Y-101160000D01*
X155860000Y-101610000D02*
X156310000Y-101610000D01*
X155860000Y-94390000D02*
X156310000Y-94390000D01*
X156310000Y-94390000D02*
X156310000Y-94840000D01*
X149090000Y-94390000D02*
X149090000Y-94840000D01*
%TO.C,C104*%
X162596500Y-85205733D02*
X162596500Y-85498267D01*
X163616500Y-85205733D02*
X163616500Y-85498267D01*
%TO.C,R308*%
X134680000Y-108446359D02*
X134680000Y-108753641D01*
X133920000Y-108446359D02*
X133920000Y-108753641D01*
%TO.C,R202*%
X158520000Y-101653641D02*
X158520000Y-101346359D01*
X159280000Y-101653641D02*
X159280000Y-101346359D01*
%TO.C,U102*%
X154737500Y-127654000D02*
X155537500Y-127654000D01*
X154737500Y-124534000D02*
X155537500Y-124534000D01*
X154737500Y-127654000D02*
X153937500Y-127654000D01*
X154737500Y-124534000D02*
X152937500Y-124534000D01*
%TO.C,R206*%
X179053641Y-91580000D02*
X178746359Y-91580000D01*
X179053641Y-90820000D02*
X178746359Y-90820000D01*
%TO.C,R301*%
X143824500Y-127771641D02*
X143824500Y-127464359D01*
X143064500Y-127771641D02*
X143064500Y-127464359D01*
%TO.C,C312*%
X135290000Y-111475420D02*
X135290000Y-111756580D01*
X136310000Y-111475420D02*
X136310000Y-111756580D01*
%TO.C,J400*%
X171500000Y-148700000D02*
X156500000Y-148700000D01*
X164000000Y-148500000D02*
X165000000Y-147500000D01*
X156500000Y-148700000D02*
X156500000Y-133700000D01*
X156500000Y-133700000D02*
X171500000Y-133700000D01*
X171500000Y-133700000D02*
X171500000Y-148700000D01*
X164000000Y-148500000D02*
X163000000Y-147500000D01*
%TO.C,C307*%
X139272664Y-117098000D02*
X139488336Y-117098000D01*
X139272664Y-117818000D02*
X139488336Y-117818000D01*
%TO.C,R304*%
X138998500Y-124471641D02*
X138998500Y-124164359D01*
X138238500Y-124471641D02*
X138238500Y-124164359D01*
%TO.C,U101*%
X166154500Y-86912000D02*
X165354500Y-86912000D01*
X166154500Y-86912000D02*
X167954500Y-86912000D01*
X166154500Y-83792000D02*
X165354500Y-83792000D01*
X166154500Y-83792000D02*
X166954500Y-83792000D01*
%TO.C,C102*%
X152734767Y-116698000D02*
X152442233Y-116698000D01*
X152734767Y-115678000D02*
X152442233Y-115678000D01*
%TO.C,C309*%
X132409080Y-120254000D02*
X132127920Y-120254000D01*
X132409080Y-119234000D02*
X132127920Y-119234000D01*
%TO.C,J200*%
X177555000Y-102080000D02*
X179555000Y-102080000D01*
X177555000Y-92680000D02*
X179555000Y-92680000D01*
%TO.C,D201*%
X148700000Y-77858000D02*
X149500000Y-77058000D01*
X149500000Y-77058000D02*
X151000000Y-77058000D01*
X151000000Y-77058000D02*
X151000000Y-80755000D01*
X148700000Y-80755000D02*
X148700000Y-77858000D01*
X151000000Y-80755000D02*
X148700000Y-80755000D01*
%TO.C,C302*%
X142534500Y-120867836D02*
X142534500Y-120652164D01*
X141814500Y-120867836D02*
X141814500Y-120652164D01*
%TO.C,U301*%
X139380500Y-122828000D02*
X140180500Y-122828000D01*
X139380500Y-119708000D02*
X140180500Y-119708000D01*
X139380500Y-119708000D02*
X137580500Y-119708000D01*
X139380500Y-122828000D02*
X138580500Y-122828000D01*
%TO.C,R211*%
X146253641Y-87880000D02*
X145946359Y-87880000D01*
X146253641Y-87120000D02*
X145946359Y-87120000D01*
%TO.C,U400*%
X161752500Y-112321000D02*
X164252500Y-112321000D01*
X164252500Y-114271000D02*
X162552500Y-114271000D01*
X164252500Y-112321000D02*
X164252500Y-114271000D01*
X162552500Y-114271000D02*
X161752500Y-113471000D01*
X161752500Y-113471000D02*
X161752500Y-112321000D01*
D15*
X161344302Y-116598000D02*
G75*
G03*
X161344302Y-116598000I-119802J0D01*
G01*
D14*
%TO.C,C204*%
X150242164Y-91740000D02*
X150457836Y-91740000D01*
X150242164Y-92460000D02*
X150457836Y-92460000D01*
%TO.C,C308*%
X133615580Y-107210000D02*
X133334420Y-107210000D01*
X133615580Y-106190000D02*
X133334420Y-106190000D01*
%TO.C,Y200*%
X143546000Y-90682000D02*
X139546000Y-90682000D01*
X143546000Y-93982000D02*
X143546000Y-90682000D01*
%TO.C,R101*%
X166008336Y-87532000D02*
X165792664Y-87532000D01*
X166008336Y-88252000D02*
X165792664Y-88252000D01*
%TO.C,C304*%
X136692500Y-121883836D02*
X136692500Y-121668164D01*
X135972500Y-121883836D02*
X135972500Y-121668164D01*
%TD*%
M02*
