%TF.GenerationSoftware,KiCad,Pcbnew,(6.0.1)*%
%TF.CreationDate,2022-01-30T13:06:37+00:00*%
%TF.ProjectId,SigGen_SigAnalyser,53696747-656e-45f5-9369-67416e616c79,rev?*%
%TF.SameCoordinates,Original*%
%TF.FileFunction,Copper,L4,Bot*%
%TF.FilePolarity,Positive*%
%FSLAX46Y46*%
G04 Gerber Fmt 4.6, Leading zero omitted, Abs format (unit mm)*
G04 Created by KiCad (PCBNEW (6.0.1)) date 2022-01-30 13:06:37*
%MOMM*%
%LPD*%
G01*
G04 APERTURE LIST*
%TA.AperFunction,ComponentPad*%
%ADD10O,1.600000X2.500000*%
%TD*%
%TA.AperFunction,ComponentPad*%
%ADD11O,3.500000X7.000000*%
%TD*%
%TA.AperFunction,ComponentPad*%
%ADD12O,2.100000X1.000000*%
%TD*%
%TA.AperFunction,ComponentPad*%
%ADD13O,1.600000X1.000000*%
%TD*%
%TA.AperFunction,ViaPad*%
%ADD14C,0.700000*%
%TD*%
%TA.AperFunction,Conductor*%
%ADD15C,0.500000*%
%TD*%
%TA.AperFunction,Conductor*%
%ADD16C,0.300000*%
%TD*%
%TA.AperFunction,Conductor*%
%ADD17C,0.293370*%
%TD*%
G04 APERTURE END LIST*
D10*
%TO.P,J300,1,In*%
%TO.N,/ADC/IN*%
X140000000Y-136000000D03*
%TO.P,J300,2,Ext*%
%TO.N,GND*%
X142540000Y-136000000D03*
D11*
X145080000Y-141080000D03*
X134920000Y-141080000D03*
%TD*%
D10*
%TO.P,J400,1,In*%
%TO.N,Net-(D400-Pad1)*%
X164000000Y-136000000D03*
D11*
%TO.P,J400,2,Ext*%
%TO.N,GND*%
X158920000Y-141080000D03*
D10*
X166540000Y-136000000D03*
D11*
X169080000Y-141080000D03*
%TD*%
D12*
%TO.P,J200,S1,SHIELD*%
%TO.N,unconnected-(J200-PadS1)*%
X176325000Y-93060000D03*
D13*
X180505000Y-101700000D03*
X180505000Y-93060000D03*
D12*
X176325000Y-101700000D03*
%TD*%
D14*
%TO.N,GND*%
X146400000Y-93200000D03*
X160150000Y-106350000D03*
X157000000Y-121000000D03*
X127000000Y-85000000D03*
X137400000Y-113800000D03*
X133000000Y-124000000D03*
X177400000Y-91200000D03*
X144200000Y-126350000D03*
X129150000Y-95900000D03*
X138900000Y-83650000D03*
X127000000Y-127000000D03*
X173000000Y-121000000D03*
X150000000Y-134000000D03*
X142100000Y-124100000D03*
X145200000Y-130900000D03*
X175000000Y-88000000D03*
X138700000Y-98900000D03*
X176500000Y-130000000D03*
X127000000Y-88000000D03*
X160500000Y-109200000D03*
X130900000Y-118700000D03*
X150300000Y-117400000D03*
X152000000Y-112000000D03*
X127000000Y-118000000D03*
X170000000Y-121000000D03*
X154700000Y-104700000D03*
X164800000Y-98900000D03*
X157000000Y-115000000D03*
X139100000Y-132000000D03*
X153000000Y-140000000D03*
X151900000Y-128500000D03*
X166000000Y-121700000D03*
X145750000Y-121400000D03*
X132000000Y-95000000D03*
X151600000Y-76850000D03*
X170000000Y-124000000D03*
X127000000Y-103000000D03*
X157000000Y-80000000D03*
X171000000Y-90000000D03*
X173000000Y-109000000D03*
X170000000Y-106000000D03*
X133000000Y-85000000D03*
X176500000Y-127000000D03*
X157000000Y-88000000D03*
X163500000Y-100300000D03*
X145900000Y-98100000D03*
X173700000Y-93850000D03*
X140800000Y-85600000D03*
X127000000Y-121000000D03*
X147000000Y-112000000D03*
X165750000Y-117050000D03*
X157550000Y-93150000D03*
X137400000Y-113000000D03*
X173000000Y-92000000D03*
X162000000Y-90000000D03*
X176500000Y-121000000D03*
X167300000Y-90250000D03*
X165800000Y-91200000D03*
X135400000Y-121200000D03*
X170000000Y-127000000D03*
X176500000Y-124000000D03*
X142550000Y-127100000D03*
X140850000Y-77900000D03*
X173000000Y-112000000D03*
X139600000Y-101500000D03*
X173800000Y-100600000D03*
X148550000Y-91100000D03*
X174300000Y-101600000D03*
X132000000Y-80000000D03*
X144550000Y-104400000D03*
X152000000Y-109000000D03*
X132500000Y-132000000D03*
X136200000Y-132000000D03*
X149850000Y-81250000D03*
X159007000Y-112293000D03*
X127000000Y-106000000D03*
X159000000Y-77000000D03*
X149100000Y-116500000D03*
X170000000Y-130000000D03*
X157000000Y-118000000D03*
X132000000Y-82000000D03*
X150300000Y-115600000D03*
X130000000Y-85000000D03*
X136700000Y-109100000D03*
X161900000Y-85900000D03*
X145650000Y-76200000D03*
X150350000Y-96350000D03*
X153000000Y-143000000D03*
X150000000Y-140000000D03*
X136250000Y-103450000D03*
X170000000Y-92000000D03*
X160100000Y-126600000D03*
X179500000Y-121000000D03*
X159000000Y-118000000D03*
X147000000Y-109000000D03*
X159000000Y-115000000D03*
X144000000Y-115000000D03*
X127000000Y-109000000D03*
X153000000Y-137000000D03*
X149100000Y-115600000D03*
X167689000Y-103600000D03*
X127000000Y-115000000D03*
X159050000Y-108400000D03*
X176100000Y-108800000D03*
X133000000Y-127000000D03*
X147700000Y-118900000D03*
X156000000Y-77000000D03*
X127000000Y-124000000D03*
X135800000Y-113400000D03*
X145300000Y-85600000D03*
X171100000Y-94600000D03*
X138700000Y-97300000D03*
X179500000Y-124000000D03*
X142650000Y-96050000D03*
X150000000Y-143000000D03*
X144400000Y-76200000D03*
X157000000Y-83000000D03*
X150300000Y-116500000D03*
X127000000Y-97000000D03*
X135000000Y-80000000D03*
X135000000Y-77000000D03*
X136000000Y-128000000D03*
X144200000Y-98100000D03*
X172000000Y-82000000D03*
X149000000Y-112000000D03*
X149000000Y-109000000D03*
X140350000Y-116650000D03*
X173000000Y-106000000D03*
X154150000Y-96850000D03*
X135000000Y-92000000D03*
X177500000Y-103400000D03*
X161900000Y-88200000D03*
X127000000Y-94000000D03*
X130900000Y-117700000D03*
X127000000Y-100000000D03*
X170000000Y-112000000D03*
X127000000Y-112000000D03*
X152125000Y-126100000D03*
X142050000Y-107150000D03*
X178300000Y-89589500D03*
X170000000Y-115000000D03*
X130000000Y-124000000D03*
X144000000Y-112000000D03*
X132000000Y-77000000D03*
X135000000Y-82000000D03*
X127000000Y-91000000D03*
X163000000Y-91000000D03*
X171700000Y-96900000D03*
X173000000Y-130000000D03*
X172000000Y-77000000D03*
X139000000Y-128000000D03*
X179500000Y-127000000D03*
X155300000Y-95700000D03*
X150000000Y-137000000D03*
X143400000Y-124400000D03*
X131691000Y-106732000D03*
X142646000Y-94204000D03*
X179500000Y-118000000D03*
X150400000Y-95400000D03*
X167400000Y-126300000D03*
X155300000Y-110500000D03*
X132950000Y-111850000D03*
X173000000Y-90000000D03*
X153000000Y-146000000D03*
X130090000Y-97120000D03*
X161400000Y-101900000D03*
X145750000Y-126400000D03*
X150000000Y-146000000D03*
X179500000Y-130000000D03*
X159000000Y-121000000D03*
X139000000Y-91500000D03*
X165050000Y-113450000D03*
X130000000Y-127000000D03*
X136750000Y-84400000D03*
X172000000Y-79000000D03*
X175000000Y-90000000D03*
X173000000Y-124000000D03*
X173000000Y-118000000D03*
X144000000Y-109000000D03*
X167373750Y-131300000D03*
X173000000Y-127000000D03*
X149800000Y-85600000D03*
X140750000Y-104200000D03*
X135000000Y-95000000D03*
X173000000Y-88000000D03*
X171500000Y-83650000D03*
X132000000Y-89000000D03*
X132000000Y-92000000D03*
X170000000Y-109000000D03*
X161900000Y-87100000D03*
X169600000Y-103600000D03*
X160000000Y-83000000D03*
X153000000Y-134000000D03*
X149100000Y-117400000D03*
X179100000Y-108800000D03*
X173000000Y-115000000D03*
X164300000Y-118000000D03*
X160000000Y-80000000D03*
X155697177Y-86185171D03*
X170000000Y-118000000D03*
X176500000Y-118000000D03*
X166000000Y-85400000D03*
X146950000Y-103000000D03*
X174300000Y-93200000D03*
X151500000Y-90596185D03*
X150600000Y-91200000D03*
X135000000Y-89000000D03*
X142200000Y-122100000D03*
X146000000Y-115000000D03*
X157600000Y-127100000D03*
%TO.N,+5V*%
X165700000Y-99400000D03*
X154200000Y-110500000D03*
X132900000Y-108000000D03*
X165800000Y-92200000D03*
%TO.N,+3.3VA*%
X132900000Y-110800000D03*
X144800000Y-121400000D03*
X147700000Y-119800000D03*
%TO.N,+3V3*%
X151600000Y-77900000D03*
X157000000Y-103900000D03*
X143899511Y-103400489D03*
X167300000Y-89200000D03*
X158587204Y-93141627D03*
X128100000Y-95800000D03*
X146500000Y-104000000D03*
X149700000Y-91100000D03*
X171500000Y-84700000D03*
X137400000Y-103400000D03*
X161300000Y-94500000D03*
%TO.N,/MCU/NRST*%
X150300000Y-98000000D03*
X148600000Y-93600000D03*
%TO.N,SPI2_NSS*%
X161400000Y-101000000D03*
X164200000Y-101000000D03*
%TO.N,/MCU/TIM4_CH1*%
X153200000Y-96800000D03*
X139600000Y-100500000D03*
%TO.N,/MCU/TIM4_CH2*%
X139500000Y-99500000D03*
X152500000Y-95500000D03*
%TO.N,/MCU/TIM4_CH3*%
X139500000Y-98050000D03*
X151400000Y-96500000D03*
%TO.N,SPI1_NSS*%
X140950000Y-107150000D03*
X141800000Y-104200000D03*
%TO.N,DAC_NCLR*%
X165300000Y-115000000D03*
X159600000Y-107700000D03*
%TO.N,DAC_NLDAC*%
X165300000Y-116200000D03*
X161000000Y-105700000D03*
%TD*%
D15*
%TO.N,+5V*%
X165800000Y-99300000D02*
X165700000Y-99400000D01*
X154200000Y-108000000D02*
X154200000Y-110500000D01*
X165700000Y-99400000D02*
X165700000Y-101300000D01*
X165800000Y-92200000D02*
X165800000Y-99300000D01*
X155100000Y-108000000D02*
X152400000Y-108000000D01*
X158199511Y-104900489D02*
X155100000Y-108000000D01*
X165700000Y-101300000D02*
X162099511Y-104900489D01*
X132900000Y-108000000D02*
X152400000Y-108000000D01*
X162099511Y-104900489D02*
X158199511Y-104900489D01*
D16*
%TO.N,+3.3VA*%
X131700000Y-120700000D02*
X131700000Y-111700000D01*
X135689748Y-121899511D02*
X132899511Y-121899511D01*
X136189259Y-121400000D02*
X135689748Y-121899511D01*
X144800000Y-121400000D02*
X136189259Y-121400000D01*
X132500000Y-121500000D02*
X131700000Y-120700000D01*
X131700000Y-111700000D02*
X132600000Y-110800000D01*
X144800000Y-121400000D02*
X144800000Y-120400000D01*
X145400000Y-119800000D02*
X147700000Y-119800000D01*
X144800000Y-120400000D02*
X145000000Y-120200000D01*
X132600000Y-110800000D02*
X132900000Y-110800000D01*
X132899511Y-121899511D02*
X132500000Y-121500000D01*
X145000000Y-120200000D02*
X145400000Y-119800000D01*
D15*
%TO.N,+3V3*%
X145900489Y-103400489D02*
X146500000Y-104000000D01*
X149300000Y-90700000D02*
X149700000Y-91100000D01*
X146500000Y-104000000D02*
X146599511Y-103900489D01*
X128100000Y-90000000D02*
X128100000Y-95800000D01*
X131700489Y-86399511D02*
X128100000Y-90000000D01*
X156999511Y-103900489D02*
X157000000Y-103900000D01*
X158587204Y-84613774D02*
X158600489Y-84600489D01*
X160450000Y-93150000D02*
X161300000Y-94000000D01*
X143899511Y-103400489D02*
X145900489Y-103400489D01*
X137400000Y-103400000D02*
X137400489Y-103400489D01*
X158600489Y-84600489D02*
X155000489Y-84600489D01*
X160450000Y-93150000D02*
X158587204Y-93141627D01*
X171500000Y-87300000D02*
X171500000Y-84700000D01*
X153900489Y-84600489D02*
X152101467Y-86399511D01*
X137400489Y-103400489D02*
X143899511Y-103400489D01*
X146599511Y-103900489D02*
X156999511Y-103900489D01*
X167300000Y-89200000D02*
X169600000Y-89200000D01*
X149300000Y-86899511D02*
X149300000Y-90600000D01*
X155100000Y-84500978D02*
X155000489Y-84600489D01*
X137400000Y-103400000D02*
X137400000Y-86500000D01*
X152101467Y-86399511D02*
X149800000Y-86399511D01*
X155100000Y-80950000D02*
X155100000Y-84500978D01*
X161300000Y-94000000D02*
X161300000Y-94500000D01*
X171500000Y-84700000D02*
X171400489Y-84600489D01*
X152050000Y-77900000D02*
X155100000Y-80950000D01*
X137400000Y-86500000D02*
X137299511Y-86399511D01*
X158587204Y-93141627D02*
X158587204Y-84613774D01*
X151600000Y-77900000D02*
X152050000Y-77900000D01*
X149800000Y-86399511D02*
X149300000Y-86899511D01*
X149300000Y-90600000D02*
X149300000Y-90700000D01*
X149800000Y-86399511D02*
X137299511Y-86399511D01*
X169600000Y-89200000D02*
X171500000Y-87300000D01*
X171400489Y-84600489D02*
X158600489Y-84600489D01*
X155000489Y-84600489D02*
X153900489Y-84600489D01*
X137299511Y-86399511D02*
X131700489Y-86399511D01*
D16*
%TO.N,/MCU/NRST*%
X148600000Y-93600000D02*
X148600000Y-96300000D01*
X148600000Y-96300000D02*
X150300000Y-98000000D01*
D17*
%TO.N,unconnected-(J200-PadS1)*%
X176325000Y-101700000D02*
X180505000Y-101700000D01*
X180505000Y-101700000D02*
X180505000Y-93060000D01*
X180505000Y-93060000D02*
X176325000Y-93060000D01*
%TO.N,SPI2_NSS*%
X164200000Y-101000000D02*
X161400000Y-101000000D01*
D16*
%TO.N,/MCU/TIM4_CH1*%
X139800000Y-100300000D02*
X151700000Y-100300000D01*
X153200000Y-98800000D02*
X153200000Y-96800000D01*
X151700000Y-100300000D02*
X153200000Y-98800000D01*
X139600000Y-100500000D02*
X139800000Y-100300000D01*
%TO.N,/MCU/TIM4_CH2*%
X139500000Y-99500000D02*
X150800000Y-99500000D01*
X152500000Y-97800000D02*
X152500000Y-95500000D01*
X150800000Y-99500000D02*
X152500000Y-97800000D01*
%TO.N,/MCU/TIM4_CH3*%
X139500000Y-98050000D02*
X140249511Y-98799511D01*
X150500489Y-98799511D02*
X151400000Y-97900000D01*
X151400000Y-97900000D02*
X151400000Y-96500000D01*
X140249511Y-98799511D02*
X150500489Y-98799511D01*
D17*
%TO.N,SPI1_NSS*%
X140950000Y-107150000D02*
X141800000Y-106300000D01*
X141800000Y-106300000D02*
X141800000Y-104200000D01*
%TO.N,DAC_NCLR*%
X165900000Y-110400000D02*
X165900000Y-114400000D01*
X159600000Y-107700000D02*
X163200000Y-107700000D01*
X163200000Y-107700000D02*
X165900000Y-110400000D01*
X165900000Y-114400000D02*
X165300000Y-115000000D01*
%TO.N,DAC_NLDAC*%
X161000000Y-105700000D02*
X164800000Y-105700000D01*
X167100000Y-115200000D02*
X166100000Y-116200000D01*
X166100000Y-116200000D02*
X165300000Y-116200000D01*
X167100000Y-108000000D02*
X167100000Y-115200000D01*
X164800000Y-105700000D02*
X167100000Y-108000000D01*
%TD*%
M02*
