%TF.GenerationSoftware,KiCad,Pcbnew,(6.0.1)*%
%TF.CreationDate,2022-01-30T13:06:37+00:00*%
%TF.ProjectId,SigGen_SigAnalyser,53696747-656e-45f5-9369-67416e616c79,rev?*%
%TF.SameCoordinates,Original*%
%TF.FileFunction,Legend,Bot*%
%TF.FilePolarity,Positive*%
%FSLAX46Y46*%
G04 Gerber Fmt 4.6, Leading zero omitted, Abs format (unit mm)*
G04 Created by KiCad (PCBNEW (6.0.1)) date 2022-01-30 13:06:37*
%MOMM*%
%LPD*%
G01*
G04 APERTURE LIST*
%ADD10C,0.400000*%
%ADD11C,0.300000*%
G04 APERTURE END LIST*
D10*
X131100000Y-80000000D02*
G75*
G03*
X131100000Y-80000000I-4022437J0D01*
G01*
X131000000Y-144800000D02*
G75*
G03*
X131000000Y-144800000I-4022437J0D01*
G01*
X181000000Y-145000000D02*
G75*
G03*
X181000000Y-145000000I-4022437J0D01*
G01*
X181000000Y-79900000D02*
G75*
G03*
X181000000Y-79900000I-4022437J0D01*
G01*
D11*
X138035714Y-136707142D02*
X137821428Y-136778571D01*
X137464285Y-136778571D01*
X137321428Y-136707142D01*
X137250000Y-136635714D01*
X137178571Y-136492857D01*
X137178571Y-136350000D01*
X137250000Y-136207142D01*
X137321428Y-136135714D01*
X137464285Y-136064285D01*
X137750000Y-135992857D01*
X137892857Y-135921428D01*
X137964285Y-135850000D01*
X138035714Y-135707142D01*
X138035714Y-135564285D01*
X137964285Y-135421428D01*
X137892857Y-135350000D01*
X137750000Y-135278571D01*
X137392857Y-135278571D01*
X137178571Y-135350000D01*
X136535714Y-136778571D02*
X136535714Y-135278571D01*
X135035714Y-135350000D02*
X135178571Y-135278571D01*
X135392857Y-135278571D01*
X135607142Y-135350000D01*
X135750000Y-135492857D01*
X135821428Y-135635714D01*
X135892857Y-135921428D01*
X135892857Y-136135714D01*
X135821428Y-136421428D01*
X135750000Y-136564285D01*
X135607142Y-136707142D01*
X135392857Y-136778571D01*
X135250000Y-136778571D01*
X135035714Y-136707142D01*
X134964285Y-136635714D01*
X134964285Y-136135714D01*
X135250000Y-136135714D01*
X147042857Y-135250000D02*
X147185714Y-135178571D01*
X147400000Y-135178571D01*
X147614285Y-135250000D01*
X147757142Y-135392857D01*
X147828571Y-135535714D01*
X147900000Y-135821428D01*
X147900000Y-136035714D01*
X147828571Y-136321428D01*
X147757142Y-136464285D01*
X147614285Y-136607142D01*
X147400000Y-136678571D01*
X147257142Y-136678571D01*
X147042857Y-136607142D01*
X146971428Y-136535714D01*
X146971428Y-136035714D01*
X147257142Y-136035714D01*
X146328571Y-136678571D02*
X146328571Y-135178571D01*
X145471428Y-136678571D01*
X145471428Y-135178571D01*
X144757142Y-136678571D02*
X144757142Y-135178571D01*
X144400000Y-135178571D01*
X144185714Y-135250000D01*
X144042857Y-135392857D01*
X143971428Y-135535714D01*
X143900000Y-135821428D01*
X143900000Y-136035714D01*
X143971428Y-136321428D01*
X144042857Y-136464285D01*
X144185714Y-136607142D01*
X144400000Y-136678571D01*
X144757142Y-136678571D01*
X142621428Y-146878571D02*
X143335714Y-146878571D01*
X143407142Y-147592857D01*
X143335714Y-147521428D01*
X143192857Y-147450000D01*
X142835714Y-147450000D01*
X142692857Y-147521428D01*
X142621428Y-147592857D01*
X142550000Y-147735714D01*
X142550000Y-148092857D01*
X142621428Y-148235714D01*
X142692857Y-148307142D01*
X142835714Y-148378571D01*
X143192857Y-148378571D01*
X143335714Y-148307142D01*
X143407142Y-148235714D01*
X141621428Y-146878571D02*
X141478571Y-146878571D01*
X141335714Y-146950000D01*
X141264285Y-147021428D01*
X141192857Y-147164285D01*
X141121428Y-147450000D01*
X141121428Y-147807142D01*
X141192857Y-148092857D01*
X141264285Y-148235714D01*
X141335714Y-148307142D01*
X141478571Y-148378571D01*
X141621428Y-148378571D01*
X141764285Y-148307142D01*
X141835714Y-148235714D01*
X141907142Y-148092857D01*
X141978571Y-147807142D01*
X141978571Y-147450000D01*
X141907142Y-147164285D01*
X141835714Y-147021428D01*
X141764285Y-146950000D01*
X141621428Y-146878571D01*
X140192857Y-146878571D02*
X139907142Y-146878571D01*
X139764285Y-146950000D01*
X139621428Y-147092857D01*
X139550000Y-147378571D01*
X139550000Y-147878571D01*
X139621428Y-148164285D01*
X139764285Y-148307142D01*
X139907142Y-148378571D01*
X140192857Y-148378571D01*
X140335714Y-148307142D01*
X140478571Y-148164285D01*
X140550000Y-147878571D01*
X140550000Y-147378571D01*
X140478571Y-147092857D01*
X140335714Y-146950000D01*
X140192857Y-146878571D01*
X138907142Y-148378571D02*
X138907142Y-146878571D01*
X138264285Y-148378571D02*
X138264285Y-147592857D01*
X138335714Y-147450000D01*
X138478571Y-147378571D01*
X138692857Y-147378571D01*
X138835714Y-147450000D01*
X138907142Y-147521428D01*
X137550000Y-148378571D02*
X137550000Y-147378571D01*
X137550000Y-147521428D02*
X137478571Y-147450000D01*
X137335714Y-147378571D01*
X137121428Y-147378571D01*
X136978571Y-147450000D01*
X136907142Y-147592857D01*
X136907142Y-148378571D01*
X136907142Y-147592857D02*
X136835714Y-147450000D01*
X136692857Y-147378571D01*
X136478571Y-147378571D01*
X136335714Y-147450000D01*
X136264285Y-147592857D01*
X136264285Y-148378571D01*
X166892857Y-148578571D02*
X167750000Y-148578571D01*
X167321428Y-148578571D02*
X167321428Y-147078571D01*
X167464285Y-147292857D01*
X167607142Y-147435714D01*
X167750000Y-147507142D01*
X166250000Y-148578571D02*
X166250000Y-147078571D01*
X165750000Y-148150000D01*
X165250000Y-147078571D01*
X165250000Y-148578571D01*
X164250000Y-147078571D02*
X163964285Y-147078571D01*
X163821428Y-147150000D01*
X163678571Y-147292857D01*
X163607142Y-147578571D01*
X163607142Y-148078571D01*
X163678571Y-148364285D01*
X163821428Y-148507142D01*
X163964285Y-148578571D01*
X164250000Y-148578571D01*
X164392857Y-148507142D01*
X164535714Y-148364285D01*
X164607142Y-148078571D01*
X164607142Y-147578571D01*
X164535714Y-147292857D01*
X164392857Y-147150000D01*
X164250000Y-147078571D01*
X162964285Y-148578571D02*
X162964285Y-147078571D01*
X162321428Y-148578571D02*
X162321428Y-147792857D01*
X162392857Y-147650000D01*
X162535714Y-147578571D01*
X162750000Y-147578571D01*
X162892857Y-147650000D01*
X162964285Y-147721428D01*
X161607142Y-148578571D02*
X161607142Y-147578571D01*
X161607142Y-147721428D02*
X161535714Y-147650000D01*
X161392857Y-147578571D01*
X161178571Y-147578571D01*
X161035714Y-147650000D01*
X160964285Y-147792857D01*
X160964285Y-148578571D01*
X160964285Y-147792857D02*
X160892857Y-147650000D01*
X160750000Y-147578571D01*
X160535714Y-147578571D01*
X160392857Y-147650000D01*
X160321428Y-147792857D01*
X160321428Y-148578571D01*
X162535714Y-136707142D02*
X162321428Y-136778571D01*
X161964285Y-136778571D01*
X161821428Y-136707142D01*
X161750000Y-136635714D01*
X161678571Y-136492857D01*
X161678571Y-136350000D01*
X161750000Y-136207142D01*
X161821428Y-136135714D01*
X161964285Y-136064285D01*
X162250000Y-135992857D01*
X162392857Y-135921428D01*
X162464285Y-135850000D01*
X162535714Y-135707142D01*
X162535714Y-135564285D01*
X162464285Y-135421428D01*
X162392857Y-135350000D01*
X162250000Y-135278571D01*
X161892857Y-135278571D01*
X161678571Y-135350000D01*
X161035714Y-136778571D02*
X161035714Y-135278571D01*
X159535714Y-135350000D02*
X159678571Y-135278571D01*
X159892857Y-135278571D01*
X160107142Y-135350000D01*
X160250000Y-135492857D01*
X160321428Y-135635714D01*
X160392857Y-135921428D01*
X160392857Y-136135714D01*
X160321428Y-136421428D01*
X160250000Y-136564285D01*
X160107142Y-136707142D01*
X159892857Y-136778571D01*
X159750000Y-136778571D01*
X159535714Y-136707142D01*
X159464285Y-136635714D01*
X159464285Y-136135714D01*
X159750000Y-136135714D01*
X171042857Y-135350000D02*
X171185714Y-135278571D01*
X171400000Y-135278571D01*
X171614285Y-135350000D01*
X171757142Y-135492857D01*
X171828571Y-135635714D01*
X171900000Y-135921428D01*
X171900000Y-136135714D01*
X171828571Y-136421428D01*
X171757142Y-136564285D01*
X171614285Y-136707142D01*
X171400000Y-136778571D01*
X171257142Y-136778571D01*
X171042857Y-136707142D01*
X170971428Y-136635714D01*
X170971428Y-136135714D01*
X171257142Y-136135714D01*
X170328571Y-136778571D02*
X170328571Y-135278571D01*
X169471428Y-136778571D01*
X169471428Y-135278571D01*
X168757142Y-136778571D02*
X168757142Y-135278571D01*
X168400000Y-135278571D01*
X168185714Y-135350000D01*
X168042857Y-135492857D01*
X167971428Y-135635714D01*
X167900000Y-135921428D01*
X167900000Y-136135714D01*
X167971428Y-136421428D01*
X168042857Y-136564285D01*
X168185714Y-136707142D01*
X168400000Y-136778571D01*
X168757142Y-136778571D01*
M02*
