%TF.GenerationSoftware,KiCad,Pcbnew,(6.0.1)*%
%TF.CreationDate,2022-01-30T13:06:37+00:00*%
%TF.ProjectId,SigGen_SigAnalyser,53696747-656e-45f5-9369-67416e616c79,rev?*%
%TF.SameCoordinates,Original*%
%TF.FileFunction,Paste,Top*%
%TF.FilePolarity,Positive*%
%FSLAX46Y46*%
G04 Gerber Fmt 4.6, Leading zero omitted, Abs format (unit mm)*
G04 Created by KiCad (PCBNEW (6.0.1)) date 2022-01-30 13:06:37*
%MOMM*%
%LPD*%
G01*
G04 APERTURE LIST*
G04 Aperture macros list*
%AMRoundRect*
0 Rectangle with rounded corners*
0 $1 Rounding radius*
0 $2 $3 $4 $5 $6 $7 $8 $9 X,Y pos of 4 corners*
0 Add a 4 corners polygon primitive as box body*
4,1,4,$2,$3,$4,$5,$6,$7,$8,$9,$2,$3,0*
0 Add four circle primitives for the rounded corners*
1,1,$1+$1,$2,$3*
1,1,$1+$1,$4,$5*
1,1,$1+$1,$6,$7*
1,1,$1+$1,$8,$9*
0 Add four rect primitives between the rounded corners*
20,1,$1+$1,$2,$3,$4,$5,0*
20,1,$1+$1,$4,$5,$6,$7,0*
20,1,$1+$1,$6,$7,$8,$9,0*
20,1,$1+$1,$8,$9,$2,$3,0*%
%AMFreePoly0*
4,1,9,3.862500,-0.866500,0.737500,-0.866500,0.737500,-0.450000,-0.737500,-0.450000,-0.737500,0.450000,0.737500,0.450000,0.737500,0.866500,3.862500,0.866500,3.862500,-0.866500,3.862500,-0.866500,$1*%
G04 Aperture macros list end*
%ADD10RoundRect,0.025500X0.229500X0.354500X-0.229500X0.354500X-0.229500X-0.354500X0.229500X-0.354500X0*%
%ADD11RoundRect,0.140000X0.170000X-0.140000X0.170000X0.140000X-0.170000X0.140000X-0.170000X-0.140000X0*%
%ADD12RoundRect,0.150000X0.512500X0.150000X-0.512500X0.150000X-0.512500X-0.150000X0.512500X-0.150000X0*%
%ADD13RoundRect,0.135000X-0.135000X-0.185000X0.135000X-0.185000X0.135000X0.185000X-0.135000X0.185000X0*%
%ADD14RoundRect,0.135000X0.185000X-0.135000X0.185000X0.135000X-0.185000X0.135000X-0.185000X-0.135000X0*%
%ADD15RoundRect,0.140000X0.140000X0.170000X-0.140000X0.170000X-0.140000X-0.170000X0.140000X-0.170000X0*%
%ADD16RoundRect,0.147500X0.147500X0.172500X-0.147500X0.172500X-0.147500X-0.172500X0.147500X-0.172500X0*%
%ADD17RoundRect,0.225000X-0.225000X-0.250000X0.225000X-0.250000X0.225000X0.250000X-0.225000X0.250000X0*%
%ADD18RoundRect,0.135000X0.135000X0.185000X-0.135000X0.185000X-0.135000X-0.185000X0.135000X-0.185000X0*%
%ADD19R,1.300000X0.600000*%
%ADD20RoundRect,0.135000X-0.185000X0.135000X-0.185000X-0.135000X0.185000X-0.135000X0.185000X0.135000X0*%
%ADD21RoundRect,0.140000X-0.170000X0.140000X-0.170000X-0.140000X0.170000X-0.140000X0.170000X0.140000X0*%
%ADD22RoundRect,0.225000X0.225000X0.250000X-0.225000X0.250000X-0.225000X-0.250000X0.225000X-0.250000X0*%
%ADD23RoundRect,0.225000X0.250000X-0.225000X0.250000X0.225000X-0.250000X0.225000X-0.250000X-0.225000X0*%
%ADD24R,1.903000X2.790000*%
%ADD25RoundRect,0.140000X-0.140000X-0.170000X0.140000X-0.170000X0.140000X0.170000X-0.140000X0.170000X0*%
%ADD26R,0.600000X1.300000*%
%ADD27R,1.300000X0.900000*%
%ADD28FreePoly0,0.000000*%
%ADD29RoundRect,0.155000X0.212500X0.155000X-0.212500X0.155000X-0.212500X-0.155000X0.212500X-0.155000X0*%
%ADD30R,0.740000X2.400000*%
%ADD31RoundRect,0.237500X-0.237500X0.300000X-0.237500X-0.300000X0.237500X-0.300000X0.237500X0.300000X0*%
%ADD32RoundRect,0.250000X-0.475000X0.250000X-0.475000X-0.250000X0.475000X-0.250000X0.475000X0.250000X0*%
%ADD33R,0.600000X1.000000*%
%ADD34RoundRect,0.225000X-0.250000X0.225000X-0.250000X-0.225000X0.250000X-0.225000X0.250000X0.225000X0*%
%ADD35R,0.300000X1.450000*%
%ADD36RoundRect,0.237500X0.237500X-0.300000X0.237500X0.300000X-0.237500X0.300000X-0.237500X-0.300000X0*%
%ADD37RoundRect,0.218750X0.256250X-0.218750X0.256250X0.218750X-0.256250X0.218750X-0.256250X-0.218750X0*%
%ADD38RoundRect,0.150000X0.150000X-0.512500X0.150000X0.512500X-0.150000X0.512500X-0.150000X-0.512500X0*%
%ADD39RoundRect,0.150000X0.587500X0.150000X-0.587500X0.150000X-0.587500X-0.150000X0.587500X-0.150000X0*%
%ADD40RoundRect,0.075000X-0.075000X-0.662500X0.075000X-0.662500X0.075000X0.662500X-0.075000X0.662500X0*%
%ADD41RoundRect,0.075000X-0.662500X-0.075000X0.662500X-0.075000X0.662500X0.075000X-0.662500X0.075000X0*%
%ADD42RoundRect,0.150000X-0.512500X-0.150000X0.512500X-0.150000X0.512500X0.150000X-0.512500X0.150000X0*%
%ADD43RoundRect,0.237500X0.300000X0.237500X-0.300000X0.237500X-0.300000X-0.237500X0.300000X-0.237500X0*%
%ADD44R,1.450000X0.600000*%
%ADD45R,1.450000X0.300000*%
%ADD46R,1.400000X1.200000*%
G04 APERTURE END LIST*
D10*
%TO.C,L200*%
X164965000Y-97900000D03*
X164965000Y-95900000D03*
X165835000Y-95900000D03*
X165835000Y-97900000D03*
%TD*%
D11*
%TO.C,C311*%
X137200000Y-115680000D03*
X137200000Y-114720000D03*
%TD*%
D12*
%TO.C,U401*%
X164902000Y-127552000D03*
X164902000Y-126602000D03*
X164902000Y-125652000D03*
X162627000Y-125652000D03*
X162627000Y-127552000D03*
%TD*%
D13*
%TO.C,R402*%
X161984500Y-121776000D03*
X163004500Y-121776000D03*
%TD*%
D14*
%TO.C,R300*%
X142174500Y-129144000D03*
X142174500Y-128124000D03*
%TD*%
D12*
%TO.C,U201*%
X168162500Y-97850000D03*
X168162500Y-96900000D03*
X168162500Y-95950000D03*
X170437500Y-95950000D03*
X170437500Y-96900000D03*
X170437500Y-97850000D03*
%TD*%
D15*
%TO.C,C405*%
X162974500Y-124062000D03*
X162014500Y-124062000D03*
%TD*%
D11*
%TO.C,C306*%
X143400000Y-123526000D03*
X143400000Y-122566000D03*
%TD*%
D16*
%TO.C,L201*%
X144885000Y-101750000D03*
X143915000Y-101750000D03*
%TD*%
D17*
%TO.C,C400*%
X160925000Y-107800000D03*
X162475000Y-107800000D03*
%TD*%
D14*
%TO.C,R303*%
X139888500Y-126096000D03*
X139888500Y-125076000D03*
%TD*%
D18*
%TO.C,R104*%
X155890500Y-128600000D03*
X154870500Y-128600000D03*
%TD*%
D19*
%TO.C,D205*%
X138900000Y-80308000D03*
X138900000Y-82443000D03*
%TD*%
D18*
%TO.C,R209*%
X132430000Y-99580000D03*
X131410000Y-99580000D03*
%TD*%
D20*
%TO.C,R204*%
X161300000Y-96460000D03*
X161300000Y-95440000D03*
%TD*%
D21*
%TO.C,C300*%
X144714500Y-127138000D03*
X144714500Y-128098000D03*
%TD*%
D15*
%TO.C,C106*%
X166380500Y-89162000D03*
X165420500Y-89162000D03*
%TD*%
D22*
%TO.C,C315*%
X138675000Y-107800000D03*
X137125000Y-107800000D03*
%TD*%
D16*
%TO.C,L100*%
X169285000Y-99600000D03*
X168315000Y-99600000D03*
%TD*%
D18*
%TO.C,R207*%
X132430000Y-101080000D03*
X131410000Y-101080000D03*
%TD*%
D20*
%TO.C,R403*%
X164272500Y-123044000D03*
X164272500Y-124064000D03*
%TD*%
D11*
%TO.C,C108*%
X157600000Y-126080000D03*
X157600000Y-125120000D03*
%TD*%
D14*
%TO.C,R307*%
X140904500Y-118476000D03*
X140904500Y-117456000D03*
%TD*%
D23*
%TO.C,C206*%
X145150000Y-100275000D03*
X145150000Y-98725000D03*
%TD*%
D21*
%TO.C,C203*%
X158600000Y-95480000D03*
X158600000Y-94520000D03*
%TD*%
D18*
%TO.C,R401*%
X163410000Y-118000000D03*
X162390000Y-118000000D03*
%TD*%
D24*
%TO.C,L101*%
X163728000Y-80018000D03*
X168581000Y-80018000D03*
%TD*%
D25*
%TO.C,C305*%
X139916500Y-123808000D03*
X140876500Y-123808000D03*
%TD*%
D26*
%TO.C,D400*%
X164008000Y-131300000D03*
X166143000Y-131300000D03*
%TD*%
D21*
%TO.C,C313*%
X137348500Y-111136000D03*
X137348500Y-112096000D03*
%TD*%
D25*
%TO.C,C301*%
X145920000Y-128126000D03*
X146880000Y-128126000D03*
%TD*%
D27*
%TO.C,U100*%
X151700500Y-118244000D03*
D28*
X151788000Y-119744000D03*
D27*
X151700500Y-121244000D03*
%TD*%
D11*
%TO.C,C205*%
X146650000Y-99500000D03*
X146650000Y-98540000D03*
%TD*%
D18*
%TO.C,R305*%
X137350500Y-123808000D03*
X136330500Y-123808000D03*
%TD*%
D26*
%TO.C,D202*%
X151092000Y-85600000D03*
X148957000Y-85600000D03*
%TD*%
D14*
%TO.C,R306*%
X137856500Y-118476000D03*
X137856500Y-117456000D03*
%TD*%
D18*
%TO.C,R205*%
X179410000Y-103400000D03*
X178390000Y-103400000D03*
%TD*%
D29*
%TO.C,C208*%
X143767500Y-95100000D03*
X142632500Y-95100000D03*
%TD*%
D11*
%TO.C,C201*%
X146900000Y-94980000D03*
X146900000Y-94020000D03*
%TD*%
D13*
%TO.C,R203*%
X147890000Y-104000000D03*
X148910000Y-104000000D03*
%TD*%
D20*
%TO.C,R213*%
X136700000Y-80340000D03*
X136700000Y-81360000D03*
%TD*%
D25*
%TO.C,C209*%
X140170000Y-95100000D03*
X141130000Y-95100000D03*
%TD*%
D13*
%TO.C,R404*%
X165540500Y-124062000D03*
X166560500Y-124062000D03*
%TD*%
D20*
%TO.C,R400*%
X163500000Y-105090000D03*
X163500000Y-106110000D03*
%TD*%
D23*
%TO.C,C200*%
X145400000Y-95275000D03*
X145400000Y-93725000D03*
%TD*%
D25*
%TO.C,C211*%
X128140000Y-97080000D03*
X129100000Y-97080000D03*
%TD*%
D20*
%TO.C,R103*%
X177400000Y-88600000D03*
X177400000Y-89620000D03*
%TD*%
D26*
%TO.C,D204*%
X142092000Y-85600000D03*
X139957000Y-85600000D03*
%TD*%
%TO.C,D203*%
X146592000Y-85600000D03*
X144457000Y-85600000D03*
%TD*%
D30*
%TO.C,J201*%
X146940000Y-77950000D03*
X146940000Y-81850000D03*
X145670000Y-77950000D03*
X145670000Y-81850000D03*
X144400000Y-77950000D03*
X144400000Y-81850000D03*
X143130000Y-77950000D03*
X143130000Y-81850000D03*
X141860000Y-77950000D03*
X141860000Y-81850000D03*
%TD*%
D31*
%TO.C,C105*%
X169202500Y-84489500D03*
X169202500Y-86214500D03*
%TD*%
D23*
%TO.C,C207*%
X143400000Y-100275000D03*
X143400000Y-98725000D03*
%TD*%
D32*
%TO.C,R100*%
X154300000Y-112150000D03*
X154300000Y-114050000D03*
%TD*%
D18*
%TO.C,R302*%
X147810000Y-126800000D03*
X146790000Y-126800000D03*
%TD*%
D33*
%TO.C,D200*%
X129380000Y-98680000D03*
X128080000Y-98680000D03*
X128080000Y-100680000D03*
X129380000Y-100680000D03*
%TD*%
D22*
%TO.C,C107*%
X153675000Y-130100000D03*
X152125000Y-130100000D03*
%TD*%
D13*
%TO.C,R201*%
X140140000Y-96250000D03*
X141160000Y-96250000D03*
%TD*%
D21*
%TO.C,C212*%
X136700000Y-82520000D03*
X136700000Y-83480000D03*
%TD*%
D34*
%TO.C,C101*%
X167700000Y-100925000D03*
X167700000Y-102475000D03*
%TD*%
D15*
%TO.C,C210*%
X169320000Y-94300000D03*
X170280000Y-94300000D03*
%TD*%
D35*
%TO.C,U303*%
X138634500Y-115340000D03*
X139134500Y-115340000D03*
X139634500Y-115340000D03*
X140134500Y-115340000D03*
X140634500Y-115340000D03*
X140634500Y-110940000D03*
X140134500Y-110940000D03*
X139634500Y-110940000D03*
X139134500Y-110940000D03*
X138634500Y-110940000D03*
%TD*%
D36*
%TO.C,C103*%
X149794500Y-120352500D03*
X149794500Y-118627500D03*
%TD*%
D37*
%TO.C,D100*%
X177400000Y-87103500D03*
X177400000Y-85528500D03*
%TD*%
D21*
%TO.C,C406*%
X161000000Y-126620000D03*
X161000000Y-127580000D03*
%TD*%
D38*
%TO.C,U300*%
X144780500Y-125199500D03*
X145730500Y-125199500D03*
X146680500Y-125199500D03*
X146680500Y-122924500D03*
X144780500Y-122924500D03*
%TD*%
D13*
%TO.C,C403*%
X164270500Y-121776000D03*
X165290500Y-121776000D03*
%TD*%
%TO.C,R210*%
X151190000Y-87500000D03*
X152210000Y-87500000D03*
%TD*%
D39*
%TO.C,U302*%
X133460000Y-117900000D03*
X133460000Y-116000000D03*
X131585000Y-116950000D03*
%TD*%
D25*
%TO.C,C303*%
X141158500Y-125078000D03*
X142118500Y-125078000D03*
%TD*%
D13*
%TO.C,R212*%
X142090000Y-87500000D03*
X143110000Y-87500000D03*
%TD*%
D34*
%TO.C,C100*%
X169600000Y-100925000D03*
X169600000Y-102475000D03*
%TD*%
D18*
%TO.C,R208*%
X132430000Y-98080000D03*
X131410000Y-98080000D03*
%TD*%
D20*
%TO.C,R200*%
X152100000Y-91090000D03*
X152100000Y-92110000D03*
%TD*%
D18*
%TO.C,R405*%
X165010000Y-129400000D03*
X163990000Y-129400000D03*
%TD*%
D15*
%TO.C,R102*%
X164348500Y-87892000D03*
X163388500Y-87892000D03*
%TD*%
D34*
%TO.C,C402*%
X160208500Y-110743000D03*
X160208500Y-112293000D03*
%TD*%
D15*
%TO.C,C314*%
X138380000Y-109100000D03*
X137420000Y-109100000D03*
%TD*%
D26*
%TO.C,D300*%
X142198500Y-130920000D03*
X144333500Y-130920000D03*
%TD*%
D25*
%TO.C,C401*%
X161252500Y-109232000D03*
X162212500Y-109232000D03*
%TD*%
D15*
%TO.C,C202*%
X155680000Y-103968000D03*
X154720000Y-103968000D03*
%TD*%
D18*
%TO.C,R105*%
X153604500Y-128600000D03*
X152584500Y-128600000D03*
%TD*%
D21*
%TO.C,C404*%
X166558500Y-125360000D03*
X166558500Y-126320000D03*
%TD*%
D14*
%TO.C,R309*%
X139700000Y-106310000D03*
X139700000Y-105290000D03*
%TD*%
D23*
%TO.C,C310*%
X135800000Y-115975000D03*
X135800000Y-114425000D03*
%TD*%
D40*
%TO.C,U203*%
X149950000Y-93837500D03*
X150450000Y-93837500D03*
X150950000Y-93837500D03*
X151450000Y-93837500D03*
X151950000Y-93837500D03*
X152450000Y-93837500D03*
X152950000Y-93837500D03*
X153450000Y-93837500D03*
X153950000Y-93837500D03*
X154450000Y-93837500D03*
X154950000Y-93837500D03*
X155450000Y-93837500D03*
D41*
X156862500Y-95250000D03*
X156862500Y-95750000D03*
X156862500Y-96250000D03*
X156862500Y-96750000D03*
X156862500Y-97250000D03*
X156862500Y-97750000D03*
X156862500Y-98250000D03*
X156862500Y-98750000D03*
X156862500Y-99250000D03*
X156862500Y-99750000D03*
X156862500Y-100250000D03*
X156862500Y-100750000D03*
D40*
X155450000Y-102162500D03*
X154950000Y-102162500D03*
X154450000Y-102162500D03*
X153950000Y-102162500D03*
X153450000Y-102162500D03*
X152950000Y-102162500D03*
X152450000Y-102162500D03*
X151950000Y-102162500D03*
X151450000Y-102162500D03*
X150950000Y-102162500D03*
X150450000Y-102162500D03*
X149950000Y-102162500D03*
D41*
X148537500Y-100750000D03*
X148537500Y-100250000D03*
X148537500Y-99750000D03*
X148537500Y-99250000D03*
X148537500Y-98750000D03*
X148537500Y-98250000D03*
X148537500Y-97750000D03*
X148537500Y-97250000D03*
X148537500Y-96750000D03*
X148537500Y-96250000D03*
X148537500Y-95750000D03*
X148537500Y-95250000D03*
%TD*%
D31*
%TO.C,C104*%
X163106500Y-84489500D03*
X163106500Y-86214500D03*
%TD*%
D20*
%TO.C,R308*%
X134300000Y-108090000D03*
X134300000Y-109110000D03*
%TD*%
D14*
%TO.C,R202*%
X158900000Y-102010000D03*
X158900000Y-100990000D03*
%TD*%
D42*
%TO.C,U102*%
X153600000Y-125144000D03*
X153600000Y-126094000D03*
X153600000Y-127044000D03*
X155875000Y-127044000D03*
X155875000Y-125144000D03*
%TD*%
D18*
%TO.C,R206*%
X179410000Y-91200000D03*
X178390000Y-91200000D03*
%TD*%
D14*
%TO.C,R301*%
X143444500Y-128128000D03*
X143444500Y-127108000D03*
%TD*%
D34*
%TO.C,C312*%
X135800000Y-110841000D03*
X135800000Y-112391000D03*
%TD*%
D25*
%TO.C,C307*%
X138900500Y-117458000D03*
X139860500Y-117458000D03*
%TD*%
D14*
%TO.C,R304*%
X138618500Y-124828000D03*
X138618500Y-123808000D03*
%TD*%
D12*
%TO.C,U101*%
X167292000Y-86302000D03*
X167292000Y-85352000D03*
X167292000Y-84402000D03*
X165017000Y-84402000D03*
X165017000Y-86302000D03*
%TD*%
D43*
%TO.C,C102*%
X153451000Y-116188000D03*
X151726000Y-116188000D03*
%TD*%
D22*
%TO.C,C309*%
X133043500Y-119744000D03*
X131493500Y-119744000D03*
%TD*%
D44*
%TO.C,J200*%
X175410000Y-100630000D03*
X175410000Y-99830000D03*
D45*
X175410000Y-99130000D03*
X175410000Y-98130000D03*
X175410000Y-96630000D03*
X175410000Y-95630000D03*
D44*
X175410000Y-94930000D03*
X175410000Y-94130000D03*
X175410000Y-94130000D03*
X175410000Y-94930000D03*
D45*
X175410000Y-96130000D03*
X175410000Y-97130000D03*
X175410000Y-97630000D03*
X175410000Y-98630000D03*
D44*
X175410000Y-99830000D03*
X175410000Y-100630000D03*
%TD*%
D19*
%TO.C,D201*%
X149850000Y-77858000D03*
X149850000Y-79993000D03*
%TD*%
D11*
%TO.C,C302*%
X142174500Y-121240000D03*
X142174500Y-120280000D03*
%TD*%
D42*
%TO.C,U301*%
X138243000Y-120318000D03*
X138243000Y-121268000D03*
X138243000Y-122218000D03*
X140518000Y-122218000D03*
X140518000Y-120318000D03*
%TD*%
D18*
%TO.C,R211*%
X146610000Y-87500000D03*
X145590000Y-87500000D03*
%TD*%
D35*
%TO.C,U400*%
X162002500Y-115496000D03*
X162502500Y-115496000D03*
X163002500Y-115496000D03*
X163502500Y-115496000D03*
X164002500Y-115496000D03*
X164002500Y-111096000D03*
X163502500Y-111096000D03*
X163002500Y-111096000D03*
X162502500Y-111096000D03*
X162002500Y-111096000D03*
%TD*%
D25*
%TO.C,C204*%
X149870000Y-92100000D03*
X150830000Y-92100000D03*
%TD*%
D22*
%TO.C,C308*%
X134250000Y-106700000D03*
X132700000Y-106700000D03*
%TD*%
D46*
%TO.C,Y200*%
X142646000Y-91482000D03*
X140446000Y-91482000D03*
X140446000Y-93182000D03*
X142646000Y-93182000D03*
%TD*%
D15*
%TO.C,R101*%
X166380500Y-87892000D03*
X165420500Y-87892000D03*
%TD*%
D11*
%TO.C,C304*%
X136332500Y-122256000D03*
X136332500Y-121296000D03*
%TD*%
M02*
