%TF.GenerationSoftware,KiCad,Pcbnew,(6.0.1)*%
%TF.CreationDate,2022-01-30T13:06:37+00:00*%
%TF.ProjectId,SigGen_SigAnalyser,53696747-656e-45f5-9369-67416e616c79,rev?*%
%TF.SameCoordinates,Original*%
%TF.FileFunction,Copper,L1,Top*%
%TF.FilePolarity,Positive*%
%FSLAX46Y46*%
G04 Gerber Fmt 4.6, Leading zero omitted, Abs format (unit mm)*
G04 Created by KiCad (PCBNEW (6.0.1)) date 2022-01-30 13:06:37*
%MOMM*%
%LPD*%
G01*
G04 APERTURE LIST*
G04 Aperture macros list*
%AMRoundRect*
0 Rectangle with rounded corners*
0 $1 Rounding radius*
0 $2 $3 $4 $5 $6 $7 $8 $9 X,Y pos of 4 corners*
0 Add a 4 corners polygon primitive as box body*
4,1,4,$2,$3,$4,$5,$6,$7,$8,$9,$2,$3,0*
0 Add four circle primitives for the rounded corners*
1,1,$1+$1,$2,$3*
1,1,$1+$1,$4,$5*
1,1,$1+$1,$6,$7*
1,1,$1+$1,$8,$9*
0 Add four rect primitives between the rounded corners*
20,1,$1+$1,$2,$3,$4,$5,0*
20,1,$1+$1,$4,$5,$6,$7,0*
20,1,$1+$1,$6,$7,$8,$9,0*
20,1,$1+$1,$8,$9,$2,$3,0*%
%AMFreePoly0*
4,1,9,3.862500,-0.866500,0.737500,-0.866500,0.737500,-0.450000,-0.737500,-0.450000,-0.737500,0.450000,0.737500,0.450000,0.737500,0.866500,3.862500,0.866500,3.862500,-0.866500,3.862500,-0.866500,$1*%
G04 Aperture macros list end*
%TA.AperFunction,SMDPad,CuDef*%
%ADD10RoundRect,0.025500X0.229500X0.354500X-0.229500X0.354500X-0.229500X-0.354500X0.229500X-0.354500X0*%
%TD*%
%TA.AperFunction,SMDPad,CuDef*%
%ADD11RoundRect,0.140000X0.170000X-0.140000X0.170000X0.140000X-0.170000X0.140000X-0.170000X-0.140000X0*%
%TD*%
%TA.AperFunction,ComponentPad*%
%ADD12O,1.600000X2.500000*%
%TD*%
%TA.AperFunction,ComponentPad*%
%ADD13O,3.500000X7.000000*%
%TD*%
%TA.AperFunction,SMDPad,CuDef*%
%ADD14RoundRect,0.150000X0.512500X0.150000X-0.512500X0.150000X-0.512500X-0.150000X0.512500X-0.150000X0*%
%TD*%
%TA.AperFunction,SMDPad,CuDef*%
%ADD15RoundRect,0.135000X-0.135000X-0.185000X0.135000X-0.185000X0.135000X0.185000X-0.135000X0.185000X0*%
%TD*%
%TA.AperFunction,SMDPad,CuDef*%
%ADD16RoundRect,0.135000X0.185000X-0.135000X0.185000X0.135000X-0.185000X0.135000X-0.185000X-0.135000X0*%
%TD*%
%TA.AperFunction,SMDPad,CuDef*%
%ADD17RoundRect,0.140000X0.140000X0.170000X-0.140000X0.170000X-0.140000X-0.170000X0.140000X-0.170000X0*%
%TD*%
%TA.AperFunction,SMDPad,CuDef*%
%ADD18RoundRect,0.147500X0.147500X0.172500X-0.147500X0.172500X-0.147500X-0.172500X0.147500X-0.172500X0*%
%TD*%
%TA.AperFunction,SMDPad,CuDef*%
%ADD19RoundRect,0.225000X-0.225000X-0.250000X0.225000X-0.250000X0.225000X0.250000X-0.225000X0.250000X0*%
%TD*%
%TA.AperFunction,SMDPad,CuDef*%
%ADD20RoundRect,0.135000X0.135000X0.185000X-0.135000X0.185000X-0.135000X-0.185000X0.135000X-0.185000X0*%
%TD*%
%TA.AperFunction,SMDPad,CuDef*%
%ADD21R,1.300000X0.600000*%
%TD*%
%TA.AperFunction,SMDPad,CuDef*%
%ADD22RoundRect,0.135000X-0.185000X0.135000X-0.185000X-0.135000X0.185000X-0.135000X0.185000X0.135000X0*%
%TD*%
%TA.AperFunction,SMDPad,CuDef*%
%ADD23RoundRect,0.140000X-0.170000X0.140000X-0.170000X-0.140000X0.170000X-0.140000X0.170000X0.140000X0*%
%TD*%
%TA.AperFunction,SMDPad,CuDef*%
%ADD24RoundRect,0.225000X0.225000X0.250000X-0.225000X0.250000X-0.225000X-0.250000X0.225000X-0.250000X0*%
%TD*%
%TA.AperFunction,SMDPad,CuDef*%
%ADD25RoundRect,0.225000X0.250000X-0.225000X0.250000X0.225000X-0.250000X0.225000X-0.250000X-0.225000X0*%
%TD*%
%TA.AperFunction,SMDPad,CuDef*%
%ADD26R,1.903000X2.790000*%
%TD*%
%TA.AperFunction,SMDPad,CuDef*%
%ADD27RoundRect,0.140000X-0.140000X-0.170000X0.140000X-0.170000X0.140000X0.170000X-0.140000X0.170000X0*%
%TD*%
%TA.AperFunction,SMDPad,CuDef*%
%ADD28R,0.600000X1.300000*%
%TD*%
%TA.AperFunction,SMDPad,CuDef*%
%ADD29R,1.300000X0.900000*%
%TD*%
%TA.AperFunction,SMDPad,CuDef*%
%ADD30FreePoly0,0.000000*%
%TD*%
%TA.AperFunction,SMDPad,CuDef*%
%ADD31RoundRect,0.155000X0.212500X0.155000X-0.212500X0.155000X-0.212500X-0.155000X0.212500X-0.155000X0*%
%TD*%
%TA.AperFunction,SMDPad,CuDef*%
%ADD32R,0.740000X2.400000*%
%TD*%
%TA.AperFunction,SMDPad,CuDef*%
%ADD33RoundRect,0.237500X-0.237500X0.300000X-0.237500X-0.300000X0.237500X-0.300000X0.237500X0.300000X0*%
%TD*%
%TA.AperFunction,SMDPad,CuDef*%
%ADD34RoundRect,0.250000X-0.475000X0.250000X-0.475000X-0.250000X0.475000X-0.250000X0.475000X0.250000X0*%
%TD*%
%TA.AperFunction,SMDPad,CuDef*%
%ADD35R,0.600000X1.000000*%
%TD*%
%TA.AperFunction,SMDPad,CuDef*%
%ADD36RoundRect,0.225000X-0.250000X0.225000X-0.250000X-0.225000X0.250000X-0.225000X0.250000X0.225000X0*%
%TD*%
%TA.AperFunction,SMDPad,CuDef*%
%ADD37R,0.300000X1.450000*%
%TD*%
%TA.AperFunction,SMDPad,CuDef*%
%ADD38RoundRect,0.237500X0.237500X-0.300000X0.237500X0.300000X-0.237500X0.300000X-0.237500X-0.300000X0*%
%TD*%
%TA.AperFunction,SMDPad,CuDef*%
%ADD39RoundRect,0.218750X0.256250X-0.218750X0.256250X0.218750X-0.256250X0.218750X-0.256250X-0.218750X0*%
%TD*%
%TA.AperFunction,SMDPad,CuDef*%
%ADD40RoundRect,0.150000X0.150000X-0.512500X0.150000X0.512500X-0.150000X0.512500X-0.150000X-0.512500X0*%
%TD*%
%TA.AperFunction,SMDPad,CuDef*%
%ADD41RoundRect,0.150000X0.587500X0.150000X-0.587500X0.150000X-0.587500X-0.150000X0.587500X-0.150000X0*%
%TD*%
%TA.AperFunction,SMDPad,CuDef*%
%ADD42RoundRect,0.075000X-0.075000X-0.662500X0.075000X-0.662500X0.075000X0.662500X-0.075000X0.662500X0*%
%TD*%
%TA.AperFunction,SMDPad,CuDef*%
%ADD43RoundRect,0.075000X-0.662500X-0.075000X0.662500X-0.075000X0.662500X0.075000X-0.662500X0.075000X0*%
%TD*%
%TA.AperFunction,SMDPad,CuDef*%
%ADD44RoundRect,0.150000X-0.512500X-0.150000X0.512500X-0.150000X0.512500X0.150000X-0.512500X0.150000X0*%
%TD*%
%TA.AperFunction,SMDPad,CuDef*%
%ADD45RoundRect,0.237500X0.300000X0.237500X-0.300000X0.237500X-0.300000X-0.237500X0.300000X-0.237500X0*%
%TD*%
%TA.AperFunction,ComponentPad*%
%ADD46O,2.100000X1.000000*%
%TD*%
%TA.AperFunction,ComponentPad*%
%ADD47O,1.600000X1.000000*%
%TD*%
%TA.AperFunction,SMDPad,CuDef*%
%ADD48R,1.450000X0.600000*%
%TD*%
%TA.AperFunction,SMDPad,CuDef*%
%ADD49R,1.450000X0.300000*%
%TD*%
%TA.AperFunction,SMDPad,CuDef*%
%ADD50R,1.400000X1.200000*%
%TD*%
%TA.AperFunction,ViaPad*%
%ADD51C,0.700000*%
%TD*%
%TA.AperFunction,Conductor*%
%ADD52C,0.293370*%
%TD*%
%TA.AperFunction,Conductor*%
%ADD53C,0.500000*%
%TD*%
%TA.AperFunction,Conductor*%
%ADD54C,0.300000*%
%TD*%
%TA.AperFunction,Conductor*%
%ADD55C,0.200000*%
%TD*%
%TA.AperFunction,Conductor*%
%ADD56C,0.262300*%
%TD*%
G04 APERTURE END LIST*
D10*
%TO.P,L200,4,4*%
%TO.N,/MCU/USB_D-*%
X164965000Y-97900000D03*
%TO.P,L200,3,3*%
%TO.N,/MCU/USB_D+*%
X164965000Y-95900000D03*
%TO.P,L200,2,2*%
%TO.N,/MCU/USB_CMC_D+*%
X165835000Y-95900000D03*
%TO.P,L200,1,1*%
%TO.N,/MCU/USB_CMC_D-*%
X165835000Y-97900000D03*
%TD*%
D11*
%TO.P,C311,1*%
%TO.N,/ADC/ADC_VREF*%
X137200000Y-115680000D03*
%TO.P,C311,2*%
%TO.N,GND*%
X137200000Y-114720000D03*
%TD*%
D12*
%TO.P,J300,1,In*%
%TO.N,/ADC/IN*%
X140000000Y-136000000D03*
%TO.P,J300,2,Ext*%
%TO.N,GND*%
X142540000Y-136000000D03*
D13*
X145080000Y-141080000D03*
X134920000Y-141080000D03*
%TD*%
D14*
%TO.P,U401,1*%
%TO.N,/DAC/OUT_AA_BUF2_OUT*%
X164902000Y-127552000D03*
%TO.P,U401,2,V-*%
%TO.N,GND*%
X164902000Y-126602000D03*
%TO.P,U401,3,+*%
%TO.N,/DAC/OUT_AA_BUF2_IN*%
X164902000Y-125652000D03*
%TO.P,U401,4,-*%
%TO.N,/DAC/OUT_AA_BUF2_OUT*%
X162627000Y-125652000D03*
%TO.P,U401,5,V+*%
%TO.N,+3.3VA*%
X162627000Y-127552000D03*
%TD*%
D15*
%TO.P,R402,1*%
%TO.N,/DAC/DAC_OUT_A*%
X161984500Y-121776000D03*
%TO.P,R402,2*%
%TO.N,Net-(C403-Pad1)*%
X163004500Y-121776000D03*
%TD*%
D16*
%TO.P,R300,1*%
%TO.N,/ADC/IN*%
X142174500Y-129144000D03*
%TO.P,R300,2*%
%TO.N,/ADC/IN_RF*%
X142174500Y-128124000D03*
%TD*%
D14*
%TO.P,U201,6,I/O1*%
%TO.N,/MCU/USB_CMC_D-*%
X168162500Y-97850000D03*
%TO.P,U201,5,VBUS*%
%TO.N,VBUS*%
X168162500Y-96900000D03*
%TO.P,U201,4,I/O2*%
%TO.N,/MCU/USB_CMC_D+*%
X168162500Y-95950000D03*
%TO.P,U201,3,I/O2*%
%TO.N,/MCU/USB_CONN_D+*%
X170437500Y-95950000D03*
%TO.P,U201,2,GND*%
%TO.N,GND*%
X170437500Y-96900000D03*
%TO.P,U201,1,I/O1*%
%TO.N,/MCU/USB_CONN_D-*%
X170437500Y-97850000D03*
%TD*%
D17*
%TO.P,C405,1*%
%TO.N,Net-(C405-Pad1)*%
X162974500Y-124062000D03*
%TO.P,C405,2*%
%TO.N,/DAC/OUT_AA_BUF2_OUT*%
X162014500Y-124062000D03*
%TD*%
D11*
%TO.P,C306,1*%
%TO.N,GND*%
X143400000Y-123526000D03*
%TO.P,C306,2*%
%TO.N,+3.3VA*%
X143400000Y-122566000D03*
%TD*%
D18*
%TO.P,L201,1,1*%
%TO.N,VDDA*%
X144885000Y-101750000D03*
%TO.P,L201,2,2*%
%TO.N,+3V3*%
X143915000Y-101750000D03*
%TD*%
D19*
%TO.P,C400,1*%
%TO.N,GND*%
X160925000Y-107800000D03*
%TO.P,C400,2*%
%TO.N,+3V3*%
X162475000Y-107800000D03*
%TD*%
D16*
%TO.P,R303,1*%
%TO.N,/ADC/IN_BUF_OUT*%
X139888500Y-126096000D03*
%TO.P,R303,2*%
%TO.N,Net-(C303-Pad1)*%
X139888500Y-125076000D03*
%TD*%
D20*
%TO.P,R104,1*%
%TO.N,+3.3VA*%
X155890500Y-128600000D03*
%TO.P,R104,2*%
%TO.N,/Power/VREF*%
X154870500Y-128600000D03*
%TD*%
D21*
%TO.P,D205,1,A1*%
%TO.N,/MCU/CONN_NRST*%
X138900000Y-80308000D03*
%TO.P,D205,2,A2*%
%TO.N,GND*%
X138900000Y-82443000D03*
%TD*%
D20*
%TO.P,R209,1*%
%TO.N,/MCU/TIM4_CH2*%
X132430000Y-99580000D03*
%TO.P,R209,2*%
%TO.N,Net-(D200-Pad4)*%
X131410000Y-99580000D03*
%TD*%
D22*
%TO.P,R204,2*%
%TO.N,/MCU/USB_D+*%
X161300000Y-96460000D03*
%TO.P,R204,1*%
%TO.N,+3V3*%
X161300000Y-95440000D03*
%TD*%
D23*
%TO.P,C300,1*%
%TO.N,GND*%
X144714500Y-127138000D03*
%TO.P,C300,2*%
%TO.N,/ADC/IN_RF*%
X144714500Y-128098000D03*
%TD*%
D17*
%TO.P,C106,1*%
%TO.N,+3V3*%
X166380500Y-89162000D03*
%TO.P,C106,2*%
%TO.N,/Power/BUCK_FB*%
X165420500Y-89162000D03*
%TD*%
D24*
%TO.P,C315,1*%
%TO.N,+3V3*%
X138675000Y-107800000D03*
%TO.P,C315,2*%
%TO.N,GND*%
X137125000Y-107800000D03*
%TD*%
D18*
%TO.P,L100,1,1*%
%TO.N,VBUS*%
X169285000Y-99600000D03*
%TO.P,L100,2,2*%
%TO.N,+5V*%
X168315000Y-99600000D03*
%TD*%
D20*
%TO.P,R207,1*%
%TO.N,/MCU/TIM4_CH1*%
X132430000Y-101080000D03*
%TO.P,R207,2*%
%TO.N,Net-(D200-Pad3)*%
X131410000Y-101080000D03*
%TD*%
D22*
%TO.P,R403,1*%
%TO.N,Net-(C403-Pad1)*%
X164272500Y-123044000D03*
%TO.P,R403,2*%
%TO.N,Net-(C405-Pad1)*%
X164272500Y-124064000D03*
%TD*%
D11*
%TO.P,C108,1*%
%TO.N,GND*%
X157600000Y-126080000D03*
%TO.P,C108,2*%
%TO.N,+3.3VA*%
X157600000Y-125120000D03*
%TD*%
D16*
%TO.P,R307,1*%
%TO.N,VCOM*%
X140904500Y-118476000D03*
%TO.P,R307,2*%
%TO.N,/ADC/ADC_IN-*%
X140904500Y-117456000D03*
%TD*%
D25*
%TO.P,C206,1*%
%TO.N,VDDA*%
X145150000Y-100275000D03*
%TO.P,C206,2*%
%TO.N,GND*%
X145150000Y-98725000D03*
%TD*%
D23*
%TO.P,C203,2*%
%TO.N,GND*%
X158600000Y-95480000D03*
%TO.P,C203,1*%
%TO.N,+3V3*%
X158600000Y-94520000D03*
%TD*%
D20*
%TO.P,R401,1*%
%TO.N,GND*%
X163410000Y-118000000D03*
%TO.P,R401,2*%
%TO.N,/DAC/DAC_OUT_B*%
X162390000Y-118000000D03*
%TD*%
D26*
%TO.P,L101,1,1*%
%TO.N,/Power/BUCK_SW*%
X163728000Y-80018000D03*
%TO.P,L101,2,2*%
%TO.N,+3V3*%
X168581000Y-80018000D03*
%TD*%
D27*
%TO.P,C305,1*%
%TO.N,Net-(C305-Pad1)*%
X139916500Y-123808000D03*
%TO.P,C305,2*%
%TO.N,/ADC/IN_AA_BUF_OUT*%
X140876500Y-123808000D03*
%TD*%
D28*
%TO.P,D400,1,A1*%
%TO.N,Net-(D400-Pad1)*%
X164008000Y-131300000D03*
%TO.P,D400,2,A2*%
%TO.N,GND*%
X166143000Y-131300000D03*
%TD*%
D23*
%TO.P,C313,1*%
%TO.N,+3.3VA*%
X137348500Y-111136000D03*
%TO.P,C313,2*%
%TO.N,GND*%
X137348500Y-112096000D03*
%TD*%
D27*
%TO.P,C301,1*%
%TO.N,/ADC/IN_RF*%
X145920000Y-128126000D03*
%TO.P,C301,2*%
%TO.N,/ADC/IN_BUF*%
X146880000Y-128126000D03*
%TD*%
D29*
%TO.P,U100,1,GND*%
%TO.N,GND*%
X151700500Y-118244000D03*
D30*
%TO.P,U100,2,VIN*%
%TO.N,/Power/+5V_FILT*%
X151788000Y-119744000D03*
D29*
%TO.P,U100,3,VOUT*%
%TO.N,+3.3VA*%
X151700500Y-121244000D03*
%TD*%
D11*
%TO.P,C205,1*%
%TO.N,VDDA*%
X146650000Y-99500000D03*
%TO.P,C205,2*%
%TO.N,GND*%
X146650000Y-98540000D03*
%TD*%
D20*
%TO.P,R305,1*%
%TO.N,Net-(C305-Pad1)*%
X137350500Y-123808000D03*
%TO.P,R305,2*%
%TO.N,/ADC/IN_AA_BUF_IN*%
X136330500Y-123808000D03*
%TD*%
D28*
%TO.P,D202,1,A1*%
%TO.N,/MCU/CONN_SWDIO*%
X151092000Y-85600000D03*
%TO.P,D202,2,A2*%
%TO.N,GND*%
X148957000Y-85600000D03*
%TD*%
D16*
%TO.P,R306,1*%
%TO.N,/ADC/IN_AA_BUF_OUT*%
X137856500Y-118476000D03*
%TO.P,R306,2*%
%TO.N,/ADC/ADC_IN+*%
X137856500Y-117456000D03*
%TD*%
D20*
%TO.P,R205,1*%
%TO.N,/MCU/USB_CONN_CC1*%
X179410000Y-103400000D03*
%TO.P,R205,2*%
%TO.N,GND*%
X178390000Y-103400000D03*
%TD*%
D31*
%TO.P,C208,1*%
%TO.N,/MCU/HSE_IN*%
X143767500Y-95100000D03*
%TO.P,C208,2*%
%TO.N,GND*%
X142632500Y-95100000D03*
%TD*%
D11*
%TO.P,C201,1*%
%TO.N,+3V3*%
X146900000Y-94980000D03*
%TO.P,C201,2*%
%TO.N,GND*%
X146900000Y-94020000D03*
%TD*%
D15*
%TO.P,R203,1*%
%TO.N,+3V3*%
X147890000Y-104000000D03*
%TO.P,R203,2*%
%TO.N,SPI1_NSS*%
X148910000Y-104000000D03*
%TD*%
D22*
%TO.P,R213,1*%
%TO.N,/MCU/CONN_NRST*%
X136700000Y-80340000D03*
%TO.P,R213,2*%
%TO.N,/MCU/NRST*%
X136700000Y-81360000D03*
%TD*%
D27*
%TO.P,C209,1*%
%TO.N,/MCU/XTAL_IN*%
X140170000Y-95100000D03*
%TO.P,C209,2*%
%TO.N,GND*%
X141130000Y-95100000D03*
%TD*%
D15*
%TO.P,R404,1*%
%TO.N,Net-(C405-Pad1)*%
X165540500Y-124062000D03*
%TO.P,R404,2*%
%TO.N,/DAC/OUT_AA_BUF2_IN*%
X166560500Y-124062000D03*
%TD*%
D22*
%TO.P,R400,1*%
%TO.N,SPI2_SCK*%
X163500000Y-105090000D03*
%TO.P,R400,2*%
%TO.N,/DAC/DAC_SCLK*%
X163500000Y-106110000D03*
%TD*%
D25*
%TO.P,C200,1*%
%TO.N,+3V3*%
X145400000Y-95275000D03*
%TO.P,C200,2*%
%TO.N,GND*%
X145400000Y-93725000D03*
%TD*%
D27*
%TO.P,C211,1*%
%TO.N,+3V3*%
X128140000Y-97080000D03*
%TO.P,C211,2*%
%TO.N,GND*%
X129100000Y-97080000D03*
%TD*%
D22*
%TO.P,R103,1*%
%TO.N,/Power/LED_PWK_K*%
X177400000Y-88600000D03*
%TO.P,R103,2*%
%TO.N,GND*%
X177400000Y-89620000D03*
%TD*%
D28*
%TO.P,D204,1,A1*%
%TO.N,/MCU/CONN_SWO*%
X142092000Y-85600000D03*
%TO.P,D204,2,A2*%
%TO.N,GND*%
X139957000Y-85600000D03*
%TD*%
%TO.P,D203,1,A1*%
%TO.N,/MCU/CONN_SWCLK*%
X146592000Y-85600000D03*
%TO.P,D203,2,A2*%
%TO.N,GND*%
X144457000Y-85600000D03*
%TD*%
D32*
%TO.P,J201,1,Pin_1*%
%TO.N,+3V3*%
X146940000Y-77950000D03*
%TO.P,J201,2,Pin_2*%
%TO.N,/MCU/CONN_SWDIO*%
X146940000Y-81850000D03*
%TO.P,J201,3,Pin_3*%
%TO.N,GND*%
X145670000Y-77950000D03*
%TO.P,J201,4,Pin_4*%
%TO.N,/MCU/CONN_SWCLK*%
X145670000Y-81850000D03*
%TO.P,J201,5,Pin_5*%
%TO.N,GND*%
X144400000Y-77950000D03*
%TO.P,J201,6,Pin_6*%
%TO.N,/MCU/CONN_SWO*%
X144400000Y-81850000D03*
%TO.P,J201,7,Pin_7*%
%TO.N,unconnected-(J201-Pad7)*%
X143130000Y-77950000D03*
%TO.P,J201,8,Pin_8*%
%TO.N,unconnected-(J201-Pad8)*%
X143130000Y-81850000D03*
%TO.P,J201,9,Pin_9*%
%TO.N,GND*%
X141860000Y-77950000D03*
%TO.P,J201,10,Pin_10*%
%TO.N,/MCU/CONN_NRST*%
X141860000Y-81850000D03*
%TD*%
D33*
%TO.P,C105,1*%
%TO.N,+3V3*%
X169202500Y-84489500D03*
%TO.P,C105,2*%
%TO.N,GND*%
X169202500Y-86214500D03*
%TD*%
D25*
%TO.P,C207,1*%
%TO.N,+3V3*%
X143400000Y-100275000D03*
%TO.P,C207,2*%
%TO.N,GND*%
X143400000Y-98725000D03*
%TD*%
D34*
%TO.P,R100,1*%
%TO.N,+5V*%
X154300000Y-112150000D03*
%TO.P,R100,2*%
%TO.N,/Power/+5V_FILT*%
X154300000Y-114050000D03*
%TD*%
D20*
%TO.P,R302,1*%
%TO.N,VCOM*%
X147810000Y-126800000D03*
%TO.P,R302,2*%
%TO.N,/ADC/IN_BUF*%
X146790000Y-126800000D03*
%TD*%
D35*
%TO.P,D200,1,GK*%
%TO.N,Net-(D200-Pad1)*%
X129380000Y-98680000D03*
%TO.P,D200,2,A*%
%TO.N,+3V3*%
X128080000Y-98680000D03*
%TO.P,D200,3,RK*%
%TO.N,Net-(D200-Pad3)*%
X128080000Y-100680000D03*
%TO.P,D200,4,BK*%
%TO.N,Net-(D200-Pad4)*%
X129380000Y-100680000D03*
%TD*%
D24*
%TO.P,C107,1*%
%TO.N,/Power/VREF*%
X153675000Y-130100000D03*
%TO.P,C107,2*%
%TO.N,GND*%
X152125000Y-130100000D03*
%TD*%
D15*
%TO.P,R201,1*%
%TO.N,/MCU/XTAL_IN*%
X140140000Y-96250000D03*
%TO.P,R201,2*%
%TO.N,/MCU/HSE_OUT*%
X141160000Y-96250000D03*
%TD*%
D23*
%TO.P,C212,1*%
%TO.N,/MCU/NRST*%
X136700000Y-82520000D03*
%TO.P,C212,2*%
%TO.N,GND*%
X136700000Y-83480000D03*
%TD*%
D36*
%TO.P,C101,1*%
%TO.N,+5V*%
X167700000Y-100925000D03*
%TO.P,C101,2*%
%TO.N,GND*%
X167700000Y-102475000D03*
%TD*%
D17*
%TO.P,C210,2*%
%TO.N,VBUS*%
X169320000Y-94300000D03*
%TO.P,C210,1*%
%TO.N,GND*%
X170280000Y-94300000D03*
%TD*%
D37*
%TO.P,U303,1,VREF*%
%TO.N,/ADC/ADC_VREF*%
X138634500Y-115340000D03*
%TO.P,U303,2,+IN*%
%TO.N,/ADC/ADC_IN+*%
X139134500Y-115340000D03*
%TO.P,U303,3,-IN*%
%TO.N,/ADC/ADC_IN-*%
X139634500Y-115340000D03*
%TO.P,U303,4,GND*%
%TO.N,GND*%
X140134500Y-115340000D03*
%TO.P,U303,5,GND*%
X140634500Y-115340000D03*
%TO.P,U303,6,NCS*%
%TO.N,SPI1_NSS*%
X140634500Y-110940000D03*
%TO.P,U303,7,DOUT*%
%TO.N,SPI1_MISO*%
X140134500Y-110940000D03*
%TO.P,U303,8,SCLK*%
%TO.N,/ADC/ADC_SCLK*%
X139634500Y-110940000D03*
%TO.P,U303,9,VIO*%
%TO.N,+3V3*%
X139134500Y-110940000D03*
%TO.P,U303,10,VA*%
%TO.N,+3.3VA*%
X138634500Y-110940000D03*
%TD*%
D38*
%TO.P,C103,1*%
%TO.N,+3.3VA*%
X149794500Y-120352500D03*
%TO.P,C103,2*%
%TO.N,GND*%
X149794500Y-118627500D03*
%TD*%
D39*
%TO.P,D100,1,K*%
%TO.N,/Power/LED_PWK_K*%
X177400000Y-87103500D03*
%TO.P,D100,2,A*%
%TO.N,+3V3*%
X177400000Y-85528500D03*
%TD*%
D23*
%TO.P,C406,1*%
%TO.N,GND*%
X161000000Y-126620000D03*
%TO.P,C406,2*%
%TO.N,+3.3VA*%
X161000000Y-127580000D03*
%TD*%
D40*
%TO.P,U300,1*%
%TO.N,/ADC/IN_BUF_OUT*%
X144780500Y-125199500D03*
%TO.P,U300,2,V-*%
%TO.N,GND*%
X145730500Y-125199500D03*
%TO.P,U300,3,+*%
%TO.N,/ADC/IN_BUF*%
X146680500Y-125199500D03*
%TO.P,U300,4,-*%
%TO.N,/ADC/IN_BUF_OUT*%
X146680500Y-122924500D03*
%TO.P,U300,5,V+*%
%TO.N,+3.3VA*%
X144780500Y-122924500D03*
%TD*%
D15*
%TO.P,C403,1*%
%TO.N,Net-(C403-Pad1)*%
X164270500Y-121776000D03*
%TO.P,C403,2*%
%TO.N,GND*%
X165290500Y-121776000D03*
%TD*%
%TO.P,R210,1*%
%TO.N,/MCU/CONN_SWDIO*%
X151190000Y-87500000D03*
%TO.P,R210,2*%
%TO.N,/MCU/SWDIO*%
X152210000Y-87500000D03*
%TD*%
D41*
%TO.P,U302,1,IN*%
%TO.N,/ADC/ADC_VREF_VIN*%
X133460000Y-117900000D03*
%TO.P,U302,2,OUT*%
%TO.N,/ADC/ADC_VREF*%
X133460000Y-116000000D03*
%TO.P,U302,3,GND*%
%TO.N,GND*%
X131585000Y-116950000D03*
%TD*%
D27*
%TO.P,C303,1*%
%TO.N,Net-(C303-Pad1)*%
X141158500Y-125078000D03*
%TO.P,C303,2*%
%TO.N,GND*%
X142118500Y-125078000D03*
%TD*%
D15*
%TO.P,R212,1*%
%TO.N,/MCU/CONN_SWO*%
X142090000Y-87500000D03*
%TO.P,R212,2*%
%TO.N,/MCU/SW0*%
X143110000Y-87500000D03*
%TD*%
D36*
%TO.P,C100,1*%
%TO.N,VBUS*%
X169600000Y-100925000D03*
%TO.P,C100,2*%
%TO.N,GND*%
X169600000Y-102475000D03*
%TD*%
D20*
%TO.P,R208,1*%
%TO.N,/MCU/TIM4_CH3*%
X132430000Y-98080000D03*
%TO.P,R208,2*%
%TO.N,Net-(D200-Pad1)*%
X131410000Y-98080000D03*
%TD*%
D22*
%TO.P,R200,1*%
%TO.N,GND*%
X152100000Y-91090000D03*
%TO.P,R200,2*%
%TO.N,/MCU/BOOT0*%
X152100000Y-92110000D03*
%TD*%
D20*
%TO.P,R405,1*%
%TO.N,/DAC/OUT_AA_BUF2_OUT*%
X165010000Y-129400000D03*
%TO.P,R405,2*%
%TO.N,Net-(D400-Pad1)*%
X163990000Y-129400000D03*
%TD*%
D17*
%TO.P,R102,1*%
%TO.N,/Power/BUCK_FB*%
X164348500Y-87892000D03*
%TO.P,R102,2*%
%TO.N,GND*%
X163388500Y-87892000D03*
%TD*%
D36*
%TO.P,C402,1*%
%TO.N,/DAC/DAC_VREF*%
X160208500Y-110743000D03*
%TO.P,C402,2*%
%TO.N,GND*%
X160208500Y-112293000D03*
%TD*%
D17*
%TO.P,C314,1*%
%TO.N,+3V3*%
X138380000Y-109100000D03*
%TO.P,C314,2*%
%TO.N,GND*%
X137420000Y-109100000D03*
%TD*%
D28*
%TO.P,D300,1,A1*%
%TO.N,/ADC/IN*%
X142198500Y-130920000D03*
%TO.P,D300,2,A2*%
%TO.N,GND*%
X144333500Y-130920000D03*
%TD*%
D27*
%TO.P,C401,1*%
%TO.N,GND*%
X161252500Y-109232000D03*
%TO.P,C401,2*%
%TO.N,+3V3*%
X162212500Y-109232000D03*
%TD*%
D17*
%TO.P,C202,1*%
%TO.N,+3V3*%
X155680000Y-103968000D03*
%TO.P,C202,2*%
%TO.N,GND*%
X154720000Y-103968000D03*
%TD*%
D20*
%TO.P,R105,1*%
%TO.N,/Power/VREF*%
X153604500Y-128600000D03*
%TO.P,R105,2*%
%TO.N,GND*%
X152584500Y-128600000D03*
%TD*%
D23*
%TO.P,C404,1*%
%TO.N,/DAC/OUT_AA_BUF2_IN*%
X166558500Y-125360000D03*
%TO.P,C404,2*%
%TO.N,GND*%
X166558500Y-126320000D03*
%TD*%
D16*
%TO.P,R309,1*%
%TO.N,/ADC/ADC_SCLK*%
X139700000Y-106310000D03*
%TO.P,R309,2*%
%TO.N,SPI1_SCK*%
X139700000Y-105290000D03*
%TD*%
D25*
%TO.P,C310,1*%
%TO.N,/ADC/ADC_VREF*%
X135800000Y-115975000D03*
%TO.P,C310,2*%
%TO.N,GND*%
X135800000Y-114425000D03*
%TD*%
D42*
%TO.P,U203,48,VDD*%
%TO.N,+3V3*%
X149950000Y-93837500D03*
%TO.P,U203,47,VSS*%
%TO.N,GND*%
X150450000Y-93837500D03*
%TO.P,U203,46,PB9*%
%TO.N,unconnected-(U203-Pad46)*%
X150950000Y-93837500D03*
%TO.P,U203,45,PB8*%
%TO.N,/MCU/TIM4_CH3*%
X151450000Y-93837500D03*
%TO.P,U203,44,BOOT0*%
%TO.N,/MCU/BOOT0*%
X151950000Y-93837500D03*
%TO.P,U203,43,PB7*%
%TO.N,/MCU/TIM4_CH2*%
X152450000Y-93837500D03*
%TO.P,U203,42,PB6*%
%TO.N,/MCU/TIM4_CH1*%
X152950000Y-93837500D03*
%TO.P,U203,41,PB5*%
%TO.N,unconnected-(U203-Pad41)*%
X153450000Y-93837500D03*
%TO.P,U203,40,PB4*%
%TO.N,unconnected-(U203-Pad40)*%
X153950000Y-93837500D03*
%TO.P,U203,39,PB3*%
%TO.N,/MCU/SW0*%
X154450000Y-93837500D03*
%TO.P,U203,38,PA15*%
%TO.N,unconnected-(U203-Pad38)*%
X154950000Y-93837500D03*
%TO.P,U203,37,PA14*%
%TO.N,/MCU/SWCLK*%
X155450000Y-93837500D03*
D43*
%TO.P,U203,36,VDD*%
%TO.N,+3V3*%
X156862500Y-95250000D03*
%TO.P,U203,35,VSS*%
%TO.N,GND*%
X156862500Y-95750000D03*
%TO.P,U203,34,PA13*%
%TO.N,/MCU/SWDIO*%
X156862500Y-96250000D03*
%TO.P,U203,33,PA12*%
%TO.N,/MCU/USB_D+*%
X156862500Y-96750000D03*
%TO.P,U203,32,PA11*%
%TO.N,/MCU/USB_D-*%
X156862500Y-97250000D03*
%TO.P,U203,31,PA10*%
%TO.N,unconnected-(U203-Pad31)*%
X156862500Y-97750000D03*
%TO.P,U203,30,PA9*%
%TO.N,unconnected-(U203-Pad30)*%
X156862500Y-98250000D03*
%TO.P,U203,29,PA8*%
%TO.N,unconnected-(U203-Pad29)*%
X156862500Y-98750000D03*
%TO.P,U203,28,PB15*%
%TO.N,SPI2_MOSI*%
X156862500Y-99250000D03*
%TO.P,U203,27,PB14*%
%TO.N,unconnected-(U203-Pad27)*%
X156862500Y-99750000D03*
%TO.P,U203,26,PB13*%
%TO.N,SPI2_SCK*%
X156862500Y-100250000D03*
%TO.P,U203,25,PB12*%
%TO.N,SPI2_NSS*%
X156862500Y-100750000D03*
D42*
%TO.P,U203,24,VDD*%
%TO.N,+3V3*%
X155450000Y-102162500D03*
%TO.P,U203,23,VSS*%
%TO.N,GND*%
X154950000Y-102162500D03*
%TO.P,U203,22,PB11*%
%TO.N,unconnected-(U203-Pad22)*%
X154450000Y-102162500D03*
%TO.P,U203,21,PB10*%
%TO.N,DAC_NLDAC*%
X153950000Y-102162500D03*
%TO.P,U203,20,PB2*%
%TO.N,DAC_NCLR*%
X153450000Y-102162500D03*
%TO.P,U203,19,PB1*%
%TO.N,unconnected-(U203-Pad19)*%
X152950000Y-102162500D03*
%TO.P,U203,18,PB0*%
%TO.N,unconnected-(U203-Pad18)*%
X152450000Y-102162500D03*
%TO.P,U203,17,PA7*%
%TO.N,unconnected-(U203-Pad17)*%
X151950000Y-102162500D03*
%TO.P,U203,16,PA6*%
%TO.N,SPI1_MISO*%
X151450000Y-102162500D03*
%TO.P,U203,15,PA5*%
%TO.N,SPI1_SCK*%
X150950000Y-102162500D03*
%TO.P,U203,14,PA4*%
%TO.N,SPI1_NSS*%
X150450000Y-102162500D03*
%TO.P,U203,13,PA3*%
%TO.N,unconnected-(U203-Pad13)*%
X149950000Y-102162500D03*
D43*
%TO.P,U203,12,PA2*%
%TO.N,unconnected-(U203-Pad12)*%
X148537500Y-100750000D03*
%TO.P,U203,11,PA1*%
%TO.N,unconnected-(U203-Pad11)*%
X148537500Y-100250000D03*
%TO.P,U203,10,PA0*%
%TO.N,unconnected-(U203-Pad10)*%
X148537500Y-99750000D03*
%TO.P,U203,9,VDDA*%
%TO.N,VDDA*%
X148537500Y-99250000D03*
%TO.P,U203,8,VSSA*%
%TO.N,GND*%
X148537500Y-98750000D03*
%TO.P,U203,7,NRST*%
%TO.N,/MCU/NRST*%
X148537500Y-98250000D03*
%TO.P,U203,6,PD1*%
%TO.N,/MCU/HSE_OUT*%
X148537500Y-97750000D03*
%TO.P,U203,5,PD0*%
%TO.N,/MCU/HSE_IN*%
X148537500Y-97250000D03*
%TO.P,U203,4,PC15*%
%TO.N,unconnected-(U203-Pad4)*%
X148537500Y-96750000D03*
%TO.P,U203,3,PC14*%
%TO.N,unconnected-(U203-Pad3)*%
X148537500Y-96250000D03*
%TO.P,U203,2,PC13*%
%TO.N,unconnected-(U203-Pad2)*%
X148537500Y-95750000D03*
%TO.P,U203,1,VBAT*%
%TO.N,+3V3*%
X148537500Y-95250000D03*
%TD*%
D33*
%TO.P,C104,1*%
%TO.N,+5V*%
X163106500Y-84489500D03*
%TO.P,C104,2*%
%TO.N,GND*%
X163106500Y-86214500D03*
%TD*%
D22*
%TO.P,R308,1*%
%TO.N,+5V*%
X134300000Y-108090000D03*
%TO.P,R308,2*%
%TO.N,/ADC/ADC_VREF_VIN*%
X134300000Y-109110000D03*
%TD*%
D16*
%TO.P,R202,1*%
%TO.N,+3V3*%
X158900000Y-102010000D03*
%TO.P,R202,2*%
%TO.N,SPI2_NSS*%
X158900000Y-100990000D03*
%TD*%
D44*
%TO.P,U102,1*%
%TO.N,VCOM*%
X153600000Y-125144000D03*
%TO.P,U102,2,V-*%
%TO.N,GND*%
X153600000Y-126094000D03*
%TO.P,U102,3,+*%
%TO.N,/Power/VREF*%
X153600000Y-127044000D03*
%TO.P,U102,4,-*%
%TO.N,VCOM*%
X155875000Y-127044000D03*
%TO.P,U102,5,V+*%
%TO.N,+3.3VA*%
X155875000Y-125144000D03*
%TD*%
D20*
%TO.P,R206,1*%
%TO.N,/MCU/USB_CONN_CC2*%
X179410000Y-91200000D03*
%TO.P,R206,2*%
%TO.N,GND*%
X178390000Y-91200000D03*
%TD*%
D16*
%TO.P,R301,1*%
%TO.N,/ADC/IN_RF*%
X143444500Y-128128000D03*
%TO.P,R301,2*%
%TO.N,GND*%
X143444500Y-127108000D03*
%TD*%
D36*
%TO.P,C312,1*%
%TO.N,+3.3VA*%
X135800000Y-110841000D03*
%TO.P,C312,2*%
%TO.N,GND*%
X135800000Y-112391000D03*
%TD*%
D12*
%TO.P,J400,1,In*%
%TO.N,Net-(D400-Pad1)*%
X164000000Y-136000000D03*
D13*
%TO.P,J400,2,Ext*%
%TO.N,GND*%
X158920000Y-141080000D03*
D12*
X166540000Y-136000000D03*
D13*
X169080000Y-141080000D03*
%TD*%
D27*
%TO.P,C307,1*%
%TO.N,/ADC/ADC_IN+*%
X138900500Y-117458000D03*
%TO.P,C307,2*%
%TO.N,/ADC/ADC_IN-*%
X139860500Y-117458000D03*
%TD*%
D16*
%TO.P,R304,1*%
%TO.N,Net-(C303-Pad1)*%
X138618500Y-124828000D03*
%TO.P,R304,2*%
%TO.N,Net-(C305-Pad1)*%
X138618500Y-123808000D03*
%TD*%
D14*
%TO.P,U101,1,EN*%
%TO.N,+5V*%
X167292000Y-86302000D03*
%TO.P,U101,2,GND*%
%TO.N,GND*%
X167292000Y-85352000D03*
%TO.P,U101,3,SW*%
%TO.N,/Power/BUCK_SW*%
X167292000Y-84402000D03*
%TO.P,U101,4,VIN*%
%TO.N,+5V*%
X165017000Y-84402000D03*
%TO.P,U101,5,FB*%
%TO.N,/Power/BUCK_FB*%
X165017000Y-86302000D03*
%TD*%
D45*
%TO.P,C102,1*%
%TO.N,/Power/+5V_FILT*%
X153451000Y-116188000D03*
%TO.P,C102,2*%
%TO.N,GND*%
X151726000Y-116188000D03*
%TD*%
D24*
%TO.P,C309,1*%
%TO.N,/ADC/ADC_VREF_VIN*%
X133043500Y-119744000D03*
%TO.P,C309,2*%
%TO.N,GND*%
X131493500Y-119744000D03*
%TD*%
D46*
%TO.P,J200,S1,SHIELD*%
%TO.N,unconnected-(J200-PadS1)*%
X176325000Y-93060000D03*
D47*
X180505000Y-101700000D03*
X180505000Y-93060000D03*
D46*
X176325000Y-101700000D03*
D48*
%TO.P,J200,B12,GND*%
%TO.N,GND*%
X175410000Y-100630000D03*
%TO.P,J200,B9,VBUS*%
%TO.N,VBUS*%
X175410000Y-99830000D03*
D49*
%TO.P,J200,B8,SBU2*%
%TO.N,unconnected-(J200-PadB8)*%
X175410000Y-99130000D03*
%TO.P,J200,B7,D-*%
%TO.N,/MCU/USB_CONN_D-*%
X175410000Y-98130000D03*
%TO.P,J200,B6,D+*%
%TO.N,/MCU/USB_CONN_D+*%
X175410000Y-96630000D03*
%TO.P,J200,B5,CC2*%
%TO.N,/MCU/USB_CONN_CC2*%
X175410000Y-95630000D03*
D48*
%TO.P,J200,B4,VBUS*%
%TO.N,VBUS*%
X175410000Y-94930000D03*
%TO.P,J200,B1,GND*%
%TO.N,GND*%
X175410000Y-94130000D03*
%TO.P,J200,A12,GND*%
X175410000Y-94130000D03*
%TO.P,J200,A9,VBUS*%
%TO.N,VBUS*%
X175410000Y-94930000D03*
D49*
%TO.P,J200,A8,SBU1*%
%TO.N,unconnected-(J200-PadA8)*%
X175410000Y-96130000D03*
%TO.P,J200,A7,D-*%
%TO.N,/MCU/USB_CONN_D-*%
X175410000Y-97130000D03*
%TO.P,J200,A6,D+*%
%TO.N,/MCU/USB_CONN_D+*%
X175410000Y-97630000D03*
%TO.P,J200,A5,CC1*%
%TO.N,/MCU/USB_CONN_CC1*%
X175410000Y-98630000D03*
D48*
%TO.P,J200,A4,VBUS*%
%TO.N,VBUS*%
X175410000Y-99830000D03*
%TO.P,J200,A1,GND*%
%TO.N,GND*%
X175410000Y-100630000D03*
%TD*%
D21*
%TO.P,D201,1,A1*%
%TO.N,+3V3*%
X149850000Y-77858000D03*
%TO.P,D201,2,A2*%
%TO.N,GND*%
X149850000Y-79993000D03*
%TD*%
D11*
%TO.P,C302,1*%
%TO.N,GND*%
X142174500Y-121240000D03*
%TO.P,C302,2*%
%TO.N,+3.3VA*%
X142174500Y-120280000D03*
%TD*%
D44*
%TO.P,U301,1*%
%TO.N,/ADC/IN_AA_BUF_OUT*%
X138243000Y-120318000D03*
%TO.P,U301,2,V-*%
%TO.N,GND*%
X138243000Y-121268000D03*
%TO.P,U301,3,+*%
%TO.N,/ADC/IN_AA_BUF_IN*%
X138243000Y-122218000D03*
%TO.P,U301,4,-*%
%TO.N,/ADC/IN_AA_BUF_OUT*%
X140518000Y-122218000D03*
%TO.P,U301,5,V+*%
%TO.N,+3.3VA*%
X140518000Y-120318000D03*
%TD*%
D20*
%TO.P,R211,1*%
%TO.N,/MCU/CONN_SWCLK*%
X146610000Y-87500000D03*
%TO.P,R211,2*%
%TO.N,/MCU/SWCLK*%
X145590000Y-87500000D03*
%TD*%
D37*
%TO.P,U400,1,VOUT_A*%
%TO.N,/DAC/DAC_OUT_A*%
X162002500Y-115496000D03*
%TO.P,U400,2,VOUT_B*%
%TO.N,/DAC/DAC_OUT_B*%
X162502500Y-115496000D03*
%TO.P,U400,3,GND*%
%TO.N,GND*%
X163002500Y-115496000D03*
%TO.P,U400,4,NLDAC*%
%TO.N,DAC_NLDAC*%
X163502500Y-115496000D03*
%TO.P,U400,5,NCLR*%
%TO.N,DAC_NCLR*%
X164002500Y-115496000D03*
%TO.P,U400,6,NSYNC*%
%TO.N,SPI2_NSS*%
X164002500Y-111096000D03*
%TO.P,U400,7,SCLK*%
%TO.N,/DAC/DAC_SCLK*%
X163502500Y-111096000D03*
%TO.P,U400,8,DIN*%
%TO.N,SPI2_MOSI*%
X163002500Y-111096000D03*
%TO.P,U400,9,AVDD*%
%TO.N,+3V3*%
X162502500Y-111096000D03*
%TO.P,U400,10,VREFIN/VREFOUT*%
%TO.N,/DAC/DAC_VREF*%
X162002500Y-111096000D03*
%TD*%
D27*
%TO.P,C204,1*%
%TO.N,+3V3*%
X149870000Y-92100000D03*
%TO.P,C204,2*%
%TO.N,GND*%
X150830000Y-92100000D03*
%TD*%
D24*
%TO.P,C308,1*%
%TO.N,+5V*%
X134250000Y-106700000D03*
%TO.P,C308,2*%
%TO.N,GND*%
X132700000Y-106700000D03*
%TD*%
D50*
%TO.P,Y200,1,1*%
%TO.N,/MCU/HSE_IN*%
X142646000Y-91482000D03*
%TO.P,Y200,2,2*%
%TO.N,GND*%
X140446000Y-91482000D03*
%TO.P,Y200,3,3*%
%TO.N,/MCU/XTAL_IN*%
X140446000Y-93182000D03*
%TO.P,Y200,4,4*%
%TO.N,GND*%
X142646000Y-93182000D03*
%TD*%
D17*
%TO.P,R101,1*%
%TO.N,+3V3*%
X166380500Y-87892000D03*
%TO.P,R101,2*%
%TO.N,/Power/BUCK_FB*%
X165420500Y-87892000D03*
%TD*%
D11*
%TO.P,C304,1*%
%TO.N,/ADC/IN_AA_BUF_IN*%
X136332500Y-122256000D03*
%TO.P,C304,2*%
%TO.N,GND*%
X136332500Y-121296000D03*
%TD*%
D51*
%TO.N,GND*%
X146400000Y-93200000D03*
X160150000Y-106350000D03*
X157000000Y-121000000D03*
X127000000Y-85000000D03*
X137400000Y-113800000D03*
X133000000Y-124000000D03*
X177400000Y-91200000D03*
X144200000Y-126350000D03*
X129150000Y-95900000D03*
X138900000Y-83650000D03*
X127000000Y-127000000D03*
X173000000Y-121000000D03*
X150000000Y-134000000D03*
X142100000Y-124100000D03*
X145200000Y-130900000D03*
X175000000Y-88000000D03*
X138700000Y-98900000D03*
X176500000Y-130000000D03*
X127000000Y-88000000D03*
X160500000Y-109200000D03*
X130900000Y-118700000D03*
X150300000Y-117400000D03*
X152000000Y-112000000D03*
X127000000Y-118000000D03*
X170000000Y-121000000D03*
X154700000Y-104700000D03*
X164800000Y-98900000D03*
X157000000Y-115000000D03*
X139100000Y-132000000D03*
X153000000Y-140000000D03*
X151900000Y-128500000D03*
X166000000Y-121700000D03*
X145750000Y-121400000D03*
X132000000Y-95000000D03*
X151600000Y-76850000D03*
X170000000Y-124000000D03*
X127000000Y-103000000D03*
X157000000Y-80000000D03*
X171000000Y-90000000D03*
X173000000Y-109000000D03*
X170000000Y-106000000D03*
X133000000Y-85000000D03*
X176500000Y-127000000D03*
X157000000Y-88000000D03*
X163500000Y-100300000D03*
X145900000Y-98100000D03*
X173700000Y-93850000D03*
X140800000Y-85600000D03*
X127000000Y-121000000D03*
X147000000Y-112000000D03*
X165750000Y-117050000D03*
X157550000Y-93150000D03*
X137400000Y-113000000D03*
X173000000Y-92000000D03*
X162000000Y-90000000D03*
X176500000Y-121000000D03*
X167300000Y-90250000D03*
X165800000Y-91200000D03*
X135400000Y-121200000D03*
X170000000Y-127000000D03*
X176500000Y-124000000D03*
X142550000Y-127100000D03*
X140850000Y-77900000D03*
X173000000Y-112000000D03*
X139600000Y-101500000D03*
X173800000Y-100600000D03*
X148550000Y-91100000D03*
X174300000Y-101600000D03*
X132000000Y-80000000D03*
X144550000Y-104400000D03*
X152000000Y-109000000D03*
X132500000Y-132000000D03*
X136200000Y-132000000D03*
X149850000Y-81250000D03*
X159007000Y-112293000D03*
X127000000Y-106000000D03*
X159000000Y-77000000D03*
X149100000Y-116500000D03*
X170000000Y-130000000D03*
X157000000Y-118000000D03*
X132000000Y-82000000D03*
X150300000Y-115600000D03*
X130000000Y-85000000D03*
X136700000Y-109100000D03*
X161900000Y-85900000D03*
X145650000Y-76200000D03*
X150350000Y-96350000D03*
X153000000Y-143000000D03*
X150000000Y-140000000D03*
X136250000Y-103450000D03*
X170000000Y-92000000D03*
X160100000Y-126600000D03*
X179500000Y-121000000D03*
X159000000Y-118000000D03*
X147000000Y-109000000D03*
X159000000Y-115000000D03*
X144000000Y-115000000D03*
X127000000Y-109000000D03*
X153000000Y-137000000D03*
X149100000Y-115600000D03*
X167689000Y-103600000D03*
X127000000Y-115000000D03*
X159050000Y-108400000D03*
X176100000Y-108800000D03*
X133000000Y-127000000D03*
X147700000Y-118900000D03*
X156000000Y-77000000D03*
X127000000Y-124000000D03*
X135800000Y-113400000D03*
X145300000Y-85600000D03*
X171100000Y-94600000D03*
X138700000Y-97300000D03*
X179500000Y-124000000D03*
X142650000Y-96050000D03*
X150000000Y-143000000D03*
X144400000Y-76200000D03*
X157000000Y-83000000D03*
X150300000Y-116500000D03*
X127000000Y-97000000D03*
X135000000Y-80000000D03*
X135000000Y-77000000D03*
X136000000Y-128000000D03*
X144200000Y-98100000D03*
X172000000Y-82000000D03*
X149000000Y-112000000D03*
X149000000Y-109000000D03*
X140350000Y-116650000D03*
X173000000Y-106000000D03*
X154150000Y-96850000D03*
X135000000Y-92000000D03*
X177500000Y-103400000D03*
X161900000Y-88200000D03*
X127000000Y-94000000D03*
X130900000Y-117700000D03*
X127000000Y-100000000D03*
X170000000Y-112000000D03*
X127000000Y-112000000D03*
X152125000Y-126100000D03*
X142050000Y-107150000D03*
X178300000Y-89589500D03*
X170000000Y-115000000D03*
X130000000Y-124000000D03*
X144000000Y-112000000D03*
X132000000Y-77000000D03*
X135000000Y-82000000D03*
X127000000Y-91000000D03*
X163000000Y-91000000D03*
X171700000Y-96900000D03*
X173000000Y-130000000D03*
X172000000Y-77000000D03*
X139000000Y-128000000D03*
X179500000Y-127000000D03*
X155300000Y-95700000D03*
X150000000Y-137000000D03*
X143400000Y-124400000D03*
X131691000Y-106732000D03*
X142646000Y-94204000D03*
X179500000Y-118000000D03*
X150400000Y-95400000D03*
X167400000Y-126300000D03*
X155300000Y-110500000D03*
X132950000Y-111850000D03*
X173000000Y-90000000D03*
X153000000Y-146000000D03*
X130090000Y-97120000D03*
X161400000Y-101900000D03*
X145750000Y-126400000D03*
X150000000Y-146000000D03*
X179500000Y-130000000D03*
X159000000Y-121000000D03*
X139000000Y-91500000D03*
X165050000Y-113450000D03*
X130000000Y-127000000D03*
X136750000Y-84400000D03*
X172000000Y-79000000D03*
X175000000Y-90000000D03*
X173000000Y-124000000D03*
X173000000Y-118000000D03*
X144000000Y-109000000D03*
X167373750Y-131300000D03*
X173000000Y-127000000D03*
X149800000Y-85600000D03*
X140750000Y-104200000D03*
X135000000Y-95000000D03*
X173000000Y-88000000D03*
X171500000Y-83650000D03*
X132000000Y-89000000D03*
X132000000Y-92000000D03*
X170000000Y-109000000D03*
X161900000Y-87100000D03*
X169600000Y-103600000D03*
X160000000Y-83000000D03*
X153000000Y-134000000D03*
X149100000Y-117400000D03*
X179100000Y-108800000D03*
X173000000Y-115000000D03*
X164300000Y-118000000D03*
X160000000Y-80000000D03*
X155697177Y-86185171D03*
X170000000Y-118000000D03*
X176500000Y-118000000D03*
X166000000Y-85400000D03*
X146950000Y-103000000D03*
X174300000Y-93200000D03*
X151500000Y-90596185D03*
X150600000Y-91200000D03*
X135000000Y-89000000D03*
X142200000Y-122100000D03*
X146000000Y-115000000D03*
X157600000Y-127100000D03*
%TO.N,+5V*%
X165700000Y-99400000D03*
X154200000Y-110500000D03*
X132900000Y-108000000D03*
X165800000Y-92200000D03*
%TO.N,+3.3VA*%
X132900000Y-110800000D03*
X144800000Y-121400000D03*
X147700000Y-119800000D03*
%TO.N,+3V3*%
X151600000Y-77900000D03*
X157000000Y-103900000D03*
X143899511Y-103400489D03*
X167300000Y-89200000D03*
X158587204Y-93141627D03*
X128100000Y-95800000D03*
X146500000Y-104000000D03*
X149700000Y-91100000D03*
X171500000Y-84700000D03*
X137400000Y-103400000D03*
X161300000Y-94500000D03*
%TO.N,/MCU/NRST*%
X150300000Y-98000000D03*
X148600000Y-93600000D03*
%TO.N,SPI2_NSS*%
X161400000Y-101000000D03*
X164200000Y-101000000D03*
%TO.N,/MCU/TIM4_CH1*%
X153200000Y-96800000D03*
X139600000Y-100500000D03*
%TO.N,/MCU/TIM4_CH2*%
X139500000Y-99500000D03*
X152500000Y-95500000D03*
%TO.N,/MCU/TIM4_CH3*%
X139500000Y-98050000D03*
X151400000Y-96500000D03*
%TO.N,SPI1_NSS*%
X140950000Y-107150000D03*
X141800000Y-104200000D03*
%TO.N,DAC_NCLR*%
X165300000Y-115000000D03*
X159600000Y-107700000D03*
%TO.N,DAC_NLDAC*%
X165300000Y-116200000D03*
X161000000Y-105700000D03*
%TD*%
D52*
%TO.N,/MCU/USB_D+*%
X164380000Y-96650000D02*
X162635780Y-96650000D01*
X164965000Y-96065000D02*
X164380000Y-96650000D01*
%TO.N,/MCU/USB_D-*%
X164472890Y-97242890D02*
X162345839Y-97242890D01*
X164965000Y-97735000D02*
X164472890Y-97242890D01*
%TO.N,/MCU/USB_CMC_D-*%
X168162500Y-97850000D02*
X165900000Y-97850000D01*
X165900000Y-97850000D02*
X165885000Y-97835000D01*
%TO.N,/MCU/USB_CMC_D+*%
X168162500Y-95950000D02*
X166100000Y-95950000D01*
%TO.N,VBUS*%
X169315000Y-98215000D02*
X169300000Y-98200000D01*
D53*
X172700000Y-99700000D02*
X171475000Y-100925000D01*
D52*
X169315000Y-99600000D02*
X169315000Y-98215000D01*
D53*
X174300000Y-99700000D02*
X172700000Y-99700000D01*
X175410000Y-94930000D02*
X173030000Y-94930000D01*
X169600000Y-99915000D02*
X169285000Y-99600000D01*
D52*
X168162500Y-96900000D02*
X169200000Y-96900000D01*
D53*
X175410000Y-99830000D02*
X174430000Y-99830000D01*
X169320000Y-93830000D02*
X169700000Y-93450000D01*
D52*
X171550000Y-93450000D02*
X171580000Y-93480000D01*
D53*
X169700000Y-93450000D02*
X171550000Y-93450000D01*
D52*
X169200000Y-96900000D02*
X169320000Y-96780000D01*
X169320000Y-96780000D02*
X169320000Y-94300000D01*
D53*
X169320000Y-94300000D02*
X169320000Y-93830000D01*
X171475000Y-100925000D02*
X169600000Y-100925000D01*
X173030000Y-94930000D02*
X171580000Y-93480000D01*
D52*
X169300000Y-97000000D02*
X169200000Y-96900000D01*
D53*
X169600000Y-100925000D02*
X169600000Y-99915000D01*
X174430000Y-99830000D02*
X174300000Y-99700000D01*
D52*
X169300000Y-98200000D02*
X169300000Y-97000000D01*
%TO.N,GND*%
X146150000Y-98540000D02*
X145965000Y-98725000D01*
X152125000Y-130100000D02*
X152125000Y-128725000D01*
D53*
X131723000Y-106700000D02*
X131691000Y-106732000D01*
D54*
X138243000Y-121268000D02*
X136360500Y-121268000D01*
D52*
X156866295Y-95753795D02*
X156862500Y-95750000D01*
D54*
X140900000Y-77950000D02*
X141860000Y-77950000D01*
D52*
X144400000Y-77950000D02*
X144400000Y-76200000D01*
D53*
X136700000Y-84350000D02*
X136750000Y-84400000D01*
D52*
X131585000Y-116950000D02*
X131585000Y-117015000D01*
X131493500Y-119293500D02*
X130900000Y-118700000D01*
X160208500Y-112293000D02*
X159007000Y-112293000D01*
D54*
X163285500Y-86214500D02*
X163106500Y-86214500D01*
D52*
X150450000Y-93837500D02*
X150450000Y-93004327D01*
X150780000Y-92753795D02*
X150830000Y-92703795D01*
D54*
X136332500Y-121296000D02*
X135496000Y-121296000D01*
D53*
X166226250Y-131300000D02*
X167373750Y-131300000D01*
D52*
X150830000Y-92703795D02*
X150830000Y-92100000D01*
X150450000Y-95350000D02*
X150400000Y-95400000D01*
D53*
X132700000Y-106700000D02*
X131723000Y-106700000D01*
D52*
X137348500Y-112948500D02*
X137400000Y-113000000D01*
D54*
X140850000Y-77900000D02*
X140900000Y-77950000D01*
D52*
X145965000Y-98725000D02*
X145150000Y-98725000D01*
D54*
X140634500Y-116465500D02*
X140400000Y-116700000D01*
D52*
X145400000Y-93725000D02*
X145875000Y-93725000D01*
X154642000Y-104642000D02*
X154700000Y-104700000D01*
D54*
X152584500Y-128526000D02*
X151926000Y-128526000D01*
D52*
X145275000Y-98725000D02*
X145900000Y-98100000D01*
X178390000Y-103400000D02*
X177500000Y-103400000D01*
D54*
X165980000Y-126320000D02*
X166558500Y-126320000D01*
X145730500Y-126380500D02*
X145730500Y-125199500D01*
D52*
X139018000Y-91482000D02*
X139000000Y-91500000D01*
D54*
X151606185Y-90596185D02*
X152100000Y-91090000D01*
D52*
X150450000Y-93004327D02*
X150700532Y-92753795D01*
X178390000Y-91200000D02*
X177400000Y-91200000D01*
D53*
X157600000Y-126080000D02*
X157600000Y-127100000D01*
D52*
X147480000Y-98750000D02*
X147270000Y-98540000D01*
D54*
X142200000Y-122100000D02*
X142174500Y-122074500D01*
X170280000Y-94300000D02*
X170800000Y-94300000D01*
D52*
X143400000Y-98725000D02*
X143575000Y-98725000D01*
X140290000Y-85618000D02*
X140308000Y-85600000D01*
X145875000Y-93725000D02*
X146400000Y-93200000D01*
D54*
X177400000Y-89620000D02*
X178269500Y-89620000D01*
D52*
X146900000Y-94020000D02*
X146900000Y-93700000D01*
X154822392Y-103220000D02*
X154820000Y-103220000D01*
X154950000Y-102162500D02*
X154950000Y-103092392D01*
X143575000Y-98725000D02*
X144200000Y-98100000D01*
D54*
X135496000Y-121296000D02*
X135400000Y-121200000D01*
D52*
X154642000Y-103968000D02*
X154642000Y-104642000D01*
D54*
X145750000Y-126400000D02*
X145730500Y-126380500D01*
X165290500Y-121776000D02*
X165924000Y-121776000D01*
D52*
X163410000Y-117310000D02*
X163410000Y-118000000D01*
D54*
X165698000Y-126602000D02*
X165980000Y-126320000D01*
D52*
X144714500Y-126864500D02*
X144200000Y-126350000D01*
D53*
X167700000Y-103589000D02*
X167689000Y-103600000D01*
D52*
X161252500Y-109232000D02*
X160532000Y-109232000D01*
X146650000Y-98540000D02*
X146150000Y-98540000D01*
X175410000Y-100630000D02*
X173830000Y-100630000D01*
X148537500Y-98750000D02*
X147480000Y-98750000D01*
X163410000Y-118000000D02*
X164300000Y-118000000D01*
D54*
X143400000Y-124400000D02*
X143400000Y-123526000D01*
D52*
X174300000Y-101600000D02*
X174300000Y-101100000D01*
X173830000Y-100630000D02*
X173800000Y-100600000D01*
D54*
X129190000Y-97080000D02*
X130050000Y-97080000D01*
X136360500Y-121268000D02*
X136332500Y-121296000D01*
D52*
X145150000Y-98725000D02*
X143400000Y-98725000D01*
X158326205Y-95753795D02*
X156866295Y-95753795D01*
X147270000Y-98540000D02*
X146650000Y-98540000D01*
X144714500Y-127138000D02*
X144714500Y-126864500D01*
D54*
X165924000Y-121776000D02*
X166000000Y-121700000D01*
X140400000Y-116700000D02*
X140350000Y-116650000D01*
X140634500Y-115340000D02*
X140634500Y-116465500D01*
D52*
X160532000Y-109232000D02*
X160500000Y-109200000D01*
X154642000Y-103398000D02*
X154642000Y-103968000D01*
D54*
X160120000Y-126620000D02*
X160100000Y-126600000D01*
D52*
X154950000Y-103092392D02*
X154822392Y-103220000D01*
X152125000Y-128725000D02*
X151900000Y-128500000D01*
X146900000Y-93700000D02*
X146400000Y-93200000D01*
D54*
X140800000Y-85600000D02*
X139957000Y-85600000D01*
D52*
X150830000Y-92100000D02*
X150830000Y-91430000D01*
X131585000Y-117015000D02*
X130900000Y-117700000D01*
D54*
X140350000Y-116650000D02*
X140134500Y-116434500D01*
X144333500Y-130920000D02*
X145180000Y-130920000D01*
X142100000Y-125059500D02*
X142118500Y-125078000D01*
D52*
X140446000Y-91482000D02*
X139018000Y-91482000D01*
D54*
X142100000Y-124100000D02*
X142100000Y-125059500D01*
D53*
X169600000Y-102475000D02*
X169600000Y-103600000D01*
D52*
X150830000Y-91430000D02*
X150800000Y-91400000D01*
X142558000Y-127108000D02*
X142550000Y-127100000D01*
D53*
X149800000Y-85600000D02*
X148957000Y-85600000D01*
D52*
X170437500Y-96900000D02*
X171700000Y-96900000D01*
D54*
X164902000Y-126602000D02*
X165698000Y-126602000D01*
X178269500Y-89620000D02*
X178300000Y-89589500D01*
D52*
X145150000Y-98725000D02*
X145275000Y-98725000D01*
X145670000Y-77950000D02*
X145670000Y-76220000D01*
D54*
X151726000Y-118218500D02*
X151700500Y-118244000D01*
X153600000Y-126094000D02*
X152131000Y-126094000D01*
X138900000Y-82443000D02*
X138900000Y-83650000D01*
X166558500Y-126320000D02*
X167380000Y-126320000D01*
X161000000Y-126620000D02*
X160120000Y-126620000D01*
X170800000Y-94300000D02*
X171100000Y-94600000D01*
D52*
X150700532Y-92753795D02*
X150780000Y-92753795D01*
D54*
X151500000Y-90596185D02*
X151606185Y-90596185D01*
D52*
X174300000Y-101100000D02*
X173800000Y-100600000D01*
D54*
X151926000Y-128526000D02*
X151900000Y-128500000D01*
D52*
X145670000Y-76220000D02*
X145650000Y-76200000D01*
D54*
X145180000Y-130920000D02*
X145200000Y-130900000D01*
D52*
X154820000Y-103220000D02*
X154642000Y-103398000D01*
D53*
X167700000Y-102475000D02*
X167700000Y-103589000D01*
D52*
X155350000Y-95750000D02*
X155300000Y-95700000D01*
X143444500Y-127108000D02*
X142558000Y-127108000D01*
D54*
X167380000Y-126320000D02*
X167400000Y-126300000D01*
X142174500Y-122074500D02*
X142174500Y-121240000D01*
D52*
X142646000Y-93182000D02*
X142646000Y-94204000D01*
X158600000Y-95480000D02*
X158326205Y-95753795D01*
D54*
X145300000Y-85600000D02*
X144457000Y-85600000D01*
X140134500Y-116434500D02*
X140134500Y-115340000D01*
D52*
X131493500Y-119744000D02*
X131493500Y-119293500D01*
X150450000Y-93837500D02*
X150450000Y-95350000D01*
X163002500Y-116902500D02*
X163410000Y-117310000D01*
X156862500Y-95750000D02*
X155350000Y-95750000D01*
D53*
X149850000Y-79993000D02*
X149850000Y-81250000D01*
D54*
X152131000Y-126094000D02*
X152125000Y-126100000D01*
D52*
X163002500Y-115496000D02*
X163002500Y-116902500D01*
X142650000Y-96050000D02*
X142632500Y-96032500D01*
D53*
X136700000Y-83480000D02*
X136700000Y-84350000D01*
D54*
%TO.N,+5V*%
X167100000Y-92200000D02*
X165800000Y-92200000D01*
X167300000Y-86310000D02*
X167300000Y-87000000D01*
D53*
X161300000Y-91100000D02*
X162400000Y-92200000D01*
X160500000Y-84500000D02*
X160000000Y-85000000D01*
D54*
X167300000Y-87000000D02*
X168100000Y-87800000D01*
X163194000Y-84402000D02*
X163106500Y-84489500D01*
D53*
X160510500Y-84489500D02*
X160500000Y-84500000D01*
X132900000Y-108000000D02*
X134210000Y-108000000D01*
X160000000Y-85400000D02*
X160000000Y-89800000D01*
X154200000Y-110500000D02*
X154200000Y-112050000D01*
X162400000Y-92200000D02*
X165800000Y-92200000D01*
X160000000Y-85000000D02*
X160000000Y-85400000D01*
X165017000Y-84402000D02*
X163194000Y-84402000D01*
X134210000Y-106740000D02*
X134250000Y-106700000D01*
D54*
X168100000Y-91200000D02*
X167100000Y-92200000D01*
D53*
X154200000Y-112050000D02*
X154300000Y-112150000D01*
X163106500Y-84489500D02*
X160510500Y-84489500D01*
X165700000Y-99600000D02*
X165700000Y-99400000D01*
X166100000Y-100000000D02*
X165700000Y-99600000D01*
X167700000Y-100700000D02*
X167000000Y-100000000D01*
D54*
X167292000Y-86302000D02*
X167300000Y-86310000D01*
D53*
X134210000Y-108000000D02*
X134210000Y-106740000D01*
X134210000Y-108000000D02*
X134300000Y-108090000D01*
D54*
X168100000Y-87800000D02*
X168100000Y-91200000D01*
D53*
X167000000Y-100000000D02*
X166100000Y-100000000D01*
X167700000Y-100925000D02*
X167700000Y-100700000D01*
X160000000Y-89800000D02*
X161300000Y-91100000D01*
D54*
%TO.N,/Power/+5V_FILT*%
X151788000Y-119744000D02*
X154056000Y-119744000D01*
X154056000Y-119744000D02*
X154200000Y-119600000D01*
%TO.N,+3.3VA*%
X135759000Y-110800000D02*
X135800000Y-110841000D01*
D53*
X151700500Y-121244000D02*
X151700500Y-122900500D01*
D52*
X137900000Y-109900000D02*
X137348500Y-110451500D01*
D53*
X158620000Y-125120000D02*
X157000000Y-125120000D01*
X161000000Y-127580000D02*
X159080000Y-127580000D01*
D54*
X143180000Y-120280000D02*
X143500000Y-120600000D01*
D53*
X156600000Y-123400000D02*
X157000000Y-123800000D01*
D54*
X161020000Y-127600000D02*
X161000000Y-127580000D01*
D53*
X159000000Y-128300000D02*
X159000000Y-127500000D01*
D54*
X143434000Y-122600000D02*
X144000000Y-122600000D01*
D52*
X138634500Y-110056240D02*
X138478260Y-109900000D01*
D54*
X161648000Y-127552000D02*
X161600000Y-127600000D01*
X140556000Y-120280000D02*
X140518000Y-120318000D01*
X149742000Y-120300000D02*
X149794500Y-120352500D01*
X143500000Y-122466000D02*
X143400000Y-122566000D01*
X144124500Y-122924500D02*
X144780500Y-122924500D01*
X142174500Y-120280000D02*
X140556000Y-120280000D01*
X144780500Y-122924500D02*
X144780500Y-121419500D01*
X132900000Y-110800000D02*
X135759000Y-110800000D01*
D53*
X155890500Y-128600000D02*
X158700000Y-128600000D01*
X151700500Y-122900500D02*
X152200000Y-123400000D01*
X157000000Y-123800000D02*
X157000000Y-125120000D01*
D54*
X144100000Y-122900000D02*
X144124500Y-122924500D01*
X143400000Y-122566000D02*
X143434000Y-122600000D01*
D53*
X159000000Y-125500000D02*
X158620000Y-125120000D01*
X147700000Y-119800000D02*
X148200000Y-120300000D01*
D54*
X142174500Y-120280000D02*
X143180000Y-120280000D01*
D53*
X159000000Y-127500000D02*
X159000000Y-125500000D01*
D54*
X144000000Y-122600000D02*
X144100000Y-122700000D01*
D53*
X156681000Y-125144000D02*
X156725000Y-125100000D01*
X152200000Y-123400000D02*
X156600000Y-123400000D01*
X156100000Y-125100000D02*
X156900500Y-125100000D01*
X148200000Y-120300000D02*
X149742000Y-120300000D01*
D54*
X161600000Y-127600000D02*
X161020000Y-127600000D01*
D52*
X137348500Y-110451500D02*
X137348500Y-111136000D01*
D53*
X158700000Y-128600000D02*
X159000000Y-128300000D01*
D52*
X138634500Y-110940000D02*
X138634500Y-110056240D01*
D54*
X144100000Y-122700000D02*
X144100000Y-122900000D01*
D53*
X155875000Y-125144000D02*
X156681000Y-125144000D01*
X156900500Y-125100000D02*
X156906500Y-125106000D01*
D54*
X159080000Y-127580000D02*
X159000000Y-127500000D01*
X162627000Y-127552000D02*
X161648000Y-127552000D01*
X144780500Y-121419500D02*
X144800000Y-121400000D01*
D52*
X138478260Y-109900000D02*
X137900000Y-109900000D01*
D54*
X143500000Y-120600000D02*
X143500000Y-122466000D01*
D53*
%TO.N,+3V3*%
X128100000Y-95800000D02*
X128100000Y-97040000D01*
D54*
X162212500Y-109712500D02*
X162212500Y-109232000D01*
D53*
X155748000Y-103900000D02*
X155680000Y-103968000D01*
X162475000Y-107800000D02*
X162475000Y-105475000D01*
X160900000Y-103900000D02*
X158900000Y-103900000D01*
D52*
X147590000Y-94980000D02*
X146900000Y-94980000D01*
D53*
X162475000Y-105475000D02*
X160900000Y-103900000D01*
D52*
X158580000Y-94500000D02*
X158600000Y-94520000D01*
D53*
X146500000Y-104000000D02*
X147890000Y-104000000D01*
D52*
X146420000Y-94980000D02*
X146900000Y-94980000D01*
D54*
X139134500Y-109854500D02*
X139134500Y-110940000D01*
D52*
X149870000Y-92100000D02*
X149870000Y-91270000D01*
D53*
X171500000Y-84700000D02*
X171400000Y-84600000D01*
X177400000Y-85528500D02*
X174328500Y-85528500D01*
X169313000Y-84600000D02*
X169202500Y-84489500D01*
X148750000Y-77950000D02*
X148842000Y-77858000D01*
X173500000Y-84700000D02*
X171500000Y-84700000D01*
X157000000Y-103900000D02*
X155748000Y-103900000D01*
D52*
X149953795Y-94746205D02*
X149450000Y-95250000D01*
D53*
X174328500Y-85528500D02*
X173500000Y-84700000D01*
D52*
X157500000Y-94500000D02*
X158580000Y-94500000D01*
X155450000Y-103050000D02*
X155700000Y-103300000D01*
X148537500Y-95250000D02*
X147860000Y-95250000D01*
D53*
X158900000Y-102010000D02*
X158900000Y-103900000D01*
D52*
X149870000Y-92780000D02*
X149870000Y-92100000D01*
X149950000Y-93837500D02*
X149953795Y-93841295D01*
D53*
X128100000Y-97040000D02*
X128140000Y-97080000D01*
X151558000Y-77858000D02*
X149850000Y-77858000D01*
X137400000Y-104900000D02*
X138600000Y-106100000D01*
D52*
X149953795Y-93841295D02*
X149953795Y-94746205D01*
X145400000Y-95275000D02*
X146125000Y-95275000D01*
X156862500Y-95137500D02*
X157500000Y-94500000D01*
D53*
X128140000Y-97080000D02*
X128140000Y-97560000D01*
D52*
X149450000Y-95250000D02*
X148537500Y-95250000D01*
X146125000Y-95275000D02*
X146420000Y-94980000D01*
D53*
X137400000Y-103400000D02*
X137400000Y-104900000D01*
D52*
X147860000Y-95250000D02*
X147590000Y-94980000D01*
D53*
X166380500Y-87892000D02*
X166380500Y-89162000D01*
X158600000Y-93154423D02*
X158600000Y-94520000D01*
D54*
X162502500Y-110002500D02*
X162212500Y-109712500D01*
D53*
X151600000Y-77900000D02*
X151558000Y-77858000D01*
D52*
X155700000Y-103300000D02*
X155700000Y-103948000D01*
X149870000Y-91270000D02*
X149700000Y-91100000D01*
D53*
X158900000Y-103900000D02*
X157700000Y-103900000D01*
X143915000Y-101750000D02*
X143915000Y-103385000D01*
D52*
X149950000Y-93837500D02*
X149950000Y-92860000D01*
D53*
X171400000Y-84600000D02*
X169313000Y-84600000D01*
X138600000Y-106100000D02*
X138600000Y-107725000D01*
X146940000Y-77950000D02*
X148750000Y-77950000D01*
X157700000Y-103900000D02*
X157000000Y-103900000D01*
X148842000Y-77858000D02*
X149850000Y-77858000D01*
D54*
X162502500Y-111096000D02*
X162502500Y-110002500D01*
X128140000Y-97560000D02*
X128080000Y-97620000D01*
D53*
X128080000Y-97620000D02*
X128080000Y-98680000D01*
D52*
X149950000Y-92860000D02*
X149870000Y-92780000D01*
X145465000Y-95340000D02*
X145400000Y-95275000D01*
D53*
X161300000Y-94500000D02*
X161300000Y-95590000D01*
D54*
X169252000Y-84539000D02*
X169202500Y-84489500D01*
D53*
X138600000Y-107725000D02*
X138675000Y-107800000D01*
D54*
X138380000Y-109100000D02*
X139134500Y-109854500D01*
D53*
X166380500Y-89162000D02*
X167262000Y-89162000D01*
D52*
X155700000Y-103948000D02*
X155680000Y-103968000D01*
D53*
X167262000Y-89162000D02*
X167300000Y-89200000D01*
D52*
X155450000Y-102162500D02*
X155450000Y-103050000D01*
D53*
%TO.N,/Power/BUCK_FB*%
X165017000Y-87383000D02*
X165000000Y-87400000D01*
X165000000Y-87471500D02*
X165420500Y-87892000D01*
X165017000Y-86302000D02*
X165017000Y-87383000D01*
X165000000Y-87400000D02*
X165000000Y-87471500D01*
%TO.N,/Power/VREF*%
X153604500Y-127048500D02*
X153600000Y-127044000D01*
D54*
X154870500Y-128600000D02*
X153604500Y-128600000D01*
D53*
X153604500Y-128600000D02*
X153604500Y-127048500D01*
D54*
X153604500Y-128600000D02*
X153604500Y-130029500D01*
X153604500Y-130029500D02*
X153675000Y-130100000D01*
D52*
%TO.N,VDDA*%
X148537500Y-99250000D02*
X147580000Y-99250000D01*
X145435000Y-99990000D02*
X145150000Y-100275000D01*
X146650000Y-99500000D02*
X146160000Y-99990000D01*
X146160000Y-99990000D02*
X145435000Y-99990000D01*
X147580000Y-99250000D02*
X147330000Y-99500000D01*
X147330000Y-99500000D02*
X146650000Y-99500000D01*
%TO.N,/MCU/HSE_IN*%
X146800000Y-96400000D02*
X144250000Y-96400000D01*
X143900000Y-91900000D02*
X143900000Y-94100000D01*
X143767500Y-95917500D02*
X143767500Y-94800000D01*
X147650000Y-97250000D02*
X146800000Y-96400000D01*
X143750000Y-94250000D02*
X143750000Y-94782500D01*
X143900000Y-94100000D02*
X143750000Y-94250000D01*
X142646000Y-91482000D02*
X143482000Y-91482000D01*
X143750000Y-94782500D02*
X143767500Y-94800000D01*
X143482000Y-91482000D02*
X143900000Y-91900000D01*
X148537500Y-97250000D02*
X147650000Y-97250000D01*
X144250000Y-96400000D02*
X143767500Y-95917500D01*
%TO.N,/MCU/XTAL_IN*%
X140140000Y-96250000D02*
X140140000Y-95130000D01*
X140140000Y-95130000D02*
X140170000Y-95100000D01*
X140170000Y-95100000D02*
X140170000Y-93458000D01*
X140170000Y-93458000D02*
X140446000Y-93182000D01*
D54*
%TO.N,/MCU/NRST*%
X136700000Y-82520000D02*
X135580000Y-82520000D01*
X143500000Y-89600000D02*
X143600000Y-89600000D01*
X136700000Y-81360000D02*
X136700000Y-82520000D01*
X135100000Y-83000000D02*
X135100000Y-86300000D01*
X148500000Y-92000000D02*
X148500000Y-93400000D01*
X135580000Y-82520000D02*
X135100000Y-83000000D01*
X144900000Y-90900000D02*
X147400000Y-90900000D01*
X135100000Y-86300000D02*
X136000000Y-87200000D01*
X144700000Y-90700000D02*
X144900000Y-90900000D01*
X150300000Y-98000000D02*
X150100000Y-98000000D01*
X147400000Y-90900000D02*
X148500000Y-92000000D01*
X150100000Y-98000000D02*
X149850000Y-98250000D01*
X148500000Y-93400000D02*
X148500000Y-93500000D01*
X149850000Y-98250000D02*
X148537500Y-98250000D01*
X148500000Y-93500000D02*
X148600000Y-93600000D01*
X143600000Y-89600000D02*
X144700000Y-90700000D01*
X136000000Y-87200000D02*
X138400000Y-89600000D01*
X138400000Y-89600000D02*
X143500000Y-89600000D01*
%TO.N,/ADC/IN_RF*%
X143440500Y-128124000D02*
X143444500Y-128128000D01*
X144684500Y-128128000D02*
X144714500Y-128098000D01*
X143444500Y-128128000D02*
X144684500Y-128128000D01*
X142174500Y-128124000D02*
X143440500Y-128124000D01*
X144714500Y-128098000D02*
X145984500Y-128098000D01*
%TO.N,/ADC/IN_BUF*%
X146790000Y-126290000D02*
X146680500Y-126180500D01*
X146790000Y-126800000D02*
X146790000Y-126290000D01*
X146790000Y-127690000D02*
X146790000Y-126800000D01*
X146680500Y-126180500D02*
X146680500Y-125199500D01*
X146880000Y-128126000D02*
X146880000Y-127780000D01*
X146880000Y-127780000D02*
X146790000Y-127690000D01*
%TO.N,Net-(C303-Pad1)*%
X139888500Y-125076000D02*
X138866500Y-125076000D01*
X138866500Y-125076000D02*
X138618500Y-124828000D01*
X141156500Y-125076000D02*
X141158500Y-125078000D01*
X139888500Y-125076000D02*
X141156500Y-125076000D01*
%TO.N,Net-(C305-Pad1)*%
X137350500Y-123808000D02*
X138618500Y-123808000D01*
X138618500Y-123808000D02*
X139916500Y-123808000D01*
%TO.N,/ADC/ADC_IN+*%
X138900500Y-117458000D02*
X139134500Y-117224000D01*
X138898500Y-117456000D02*
X138900500Y-117458000D01*
X139134500Y-117224000D02*
X139134500Y-115340000D01*
X137856500Y-117456000D02*
X138898500Y-117456000D01*
%TO.N,/ADC/ADC_IN-*%
X139858000Y-117458000D02*
X139634500Y-117234500D01*
X139860500Y-117458000D02*
X139858000Y-117458000D01*
X139860500Y-117458000D02*
X140902500Y-117458000D01*
X140902500Y-117458000D02*
X140904500Y-117456000D01*
X139634500Y-117234500D02*
X139634500Y-115340000D01*
D53*
%TO.N,/ADC/ADC_VREF_VIN*%
X133100000Y-119800500D02*
X133043500Y-119744000D01*
X130290000Y-109110000D02*
X128900000Y-110500000D01*
X132900000Y-122300000D02*
X133100000Y-122100000D01*
X133100000Y-122100000D02*
X133100000Y-119800500D01*
X128900000Y-110500000D02*
X128900000Y-121200000D01*
X130000000Y-122300000D02*
X132900000Y-122300000D01*
X134300000Y-109110000D02*
X130290000Y-109110000D01*
X128900000Y-121200000D02*
X130000000Y-122300000D01*
D54*
%TO.N,/ADC/ADC_VREF*%
X133485000Y-115975000D02*
X133460000Y-116000000D01*
X137820000Y-115680000D02*
X138160000Y-115340000D01*
X138160000Y-115340000D02*
X138634500Y-115340000D01*
X137200000Y-115680000D02*
X137820000Y-115680000D01*
X135800000Y-115975000D02*
X133485000Y-115975000D01*
%TO.N,/DAC/DAC_VREF*%
X161196000Y-111096000D02*
X160843000Y-110743000D01*
X162002500Y-111096000D02*
X161196000Y-111096000D01*
X160843000Y-110743000D02*
X160208500Y-110743000D01*
%TO.N,Net-(C403-Pad1)*%
X164272500Y-121778000D02*
X164270500Y-121776000D01*
X164272500Y-123044000D02*
X164272500Y-121778000D01*
X163004500Y-121776000D02*
X164270500Y-121776000D01*
%TO.N,/DAC/OUT_AA_BUF2_IN*%
X166090000Y-125360000D02*
X165798000Y-125652000D01*
X166558500Y-125360000D02*
X166090000Y-125360000D01*
X166560500Y-124062000D02*
X166560500Y-125358000D01*
X166560500Y-125358000D02*
X166558500Y-125360000D01*
X165798000Y-125652000D02*
X164902000Y-125652000D01*
%TO.N,Net-(C405-Pad1)*%
X164272500Y-124064000D02*
X165538500Y-124064000D01*
X164270500Y-124062000D02*
X164272500Y-124064000D01*
X165538500Y-124064000D02*
X165540500Y-124062000D01*
X162974500Y-124062000D02*
X164270500Y-124062000D01*
%TO.N,/DAC/OUT_AA_BUF2_OUT*%
X162600000Y-125679000D02*
X162627000Y-125652000D01*
X162627000Y-125652000D02*
X162627000Y-125427000D01*
X161900000Y-124700000D02*
X161900000Y-124176500D01*
X165010000Y-128710000D02*
X165010000Y-129400000D01*
X164902000Y-127552000D02*
X164452000Y-127552000D01*
X164902000Y-127552000D02*
X164902000Y-128602000D01*
X161900000Y-124176500D02*
X162014500Y-124062000D01*
X164452000Y-127552000D02*
X162627000Y-125727000D01*
X164902000Y-128602000D02*
X165010000Y-128710000D01*
X162627000Y-125727000D02*
X162627000Y-125652000D01*
X162627000Y-125427000D02*
X161900000Y-124700000D01*
D53*
%TO.N,/Power/LED_PWK_K*%
X177400000Y-87103500D02*
X177400000Y-88600000D01*
D54*
%TO.N,Net-(D200-Pad1)*%
X130520000Y-98080000D02*
X131410000Y-98080000D01*
X129920000Y-98680000D02*
X130520000Y-98080000D01*
X129380000Y-98680000D02*
X129920000Y-98680000D01*
%TO.N,Net-(D200-Pad3)*%
X128080000Y-100680000D02*
X128080000Y-101440000D01*
X131020000Y-101980000D02*
X131410000Y-101590000D01*
X128080000Y-101440000D02*
X128620000Y-101980000D01*
X131410000Y-101590000D02*
X131410000Y-101080000D01*
X128620000Y-101980000D02*
X131020000Y-101980000D01*
%TO.N,Net-(D200-Pad4)*%
X130420000Y-99580000D02*
X131410000Y-99580000D01*
X129380000Y-100620000D02*
X130420000Y-99580000D01*
X129380000Y-100680000D02*
X129380000Y-100620000D01*
D52*
%TO.N,/MCU/USB_CONN_CC1*%
X178600000Y-101600000D02*
X179410000Y-102410000D01*
X179410000Y-102410000D02*
X179410000Y-103400000D01*
X178600000Y-99800000D02*
X178600000Y-101600000D01*
X177430000Y-98630000D02*
X178600000Y-99800000D01*
X175410000Y-98630000D02*
X177430000Y-98630000D01*
D55*
%TO.N,/MCU/USB_CONN_D+*%
X176320000Y-97630000D02*
X175410000Y-97630000D01*
X176380000Y-96630000D02*
X176600000Y-96850000D01*
X176600000Y-97350000D02*
X176320000Y-97630000D01*
X170587500Y-96100000D02*
X172050000Y-96100000D01*
X176600000Y-96850000D02*
X176600000Y-97350000D01*
X175410000Y-96630000D02*
X176380000Y-96630000D01*
X172550000Y-96600000D02*
X175380000Y-96600000D01*
X175380000Y-96600000D02*
X175410000Y-96630000D01*
X170437500Y-95950000D02*
X170587500Y-96100000D01*
X172050000Y-96100000D02*
X172550000Y-96600000D01*
D56*
%TO.N,/MCU/USB_CONN_D-*%
X173875000Y-97662392D02*
X173875000Y-97125000D01*
D55*
X170437500Y-97850000D02*
X171900000Y-97850000D01*
X171900000Y-97850000D02*
X172625000Y-97125000D01*
D56*
X174342608Y-98130000D02*
X173875000Y-97662392D01*
D55*
X172625000Y-97125000D02*
X173875000Y-97125000D01*
D56*
X175410000Y-98130000D02*
X174342608Y-98130000D01*
D55*
X173875000Y-97125000D02*
X174700000Y-97125000D01*
D52*
%TO.N,/MCU/USB_CONN_CC2*%
X179410000Y-91200000D02*
X179410000Y-92190000D01*
X178600000Y-93000000D02*
X178600000Y-95000000D01*
X177966196Y-95633804D02*
X175500000Y-95633804D01*
X178600000Y-95000000D02*
X177966196Y-95633804D01*
X179100000Y-92500000D02*
X178600000Y-93000000D01*
X179410000Y-92190000D02*
X179100000Y-92500000D01*
%TO.N,/MCU/USB_D-*%
X162345839Y-97242890D02*
X162338729Y-97235780D01*
X162338729Y-97235780D02*
X157785416Y-97235780D01*
X157771196Y-97250000D02*
X156803795Y-97250000D01*
X157785416Y-97235780D02*
X157771196Y-97250000D01*
%TO.N,/MCU/USB_D+*%
X162635780Y-96650000D02*
X162542890Y-96742890D01*
X157702783Y-96742890D02*
X157695673Y-96750000D01*
X157695673Y-96750000D02*
X156862500Y-96750000D01*
X162542890Y-96742890D02*
X157702783Y-96742890D01*
D54*
%TO.N,/MCU/BOOT0*%
X151950000Y-92750000D02*
X151950000Y-93837500D01*
X152100000Y-92600000D02*
X151950000Y-92750000D01*
X152100000Y-92110000D02*
X152100000Y-92600000D01*
D52*
%TO.N,/MCU/HSE_OUT*%
X148537500Y-97750000D02*
X147350000Y-97750000D01*
X147000000Y-97400000D02*
X141750000Y-97400000D01*
X141750000Y-97400000D02*
X141160000Y-96810000D01*
X141160000Y-96810000D02*
X141160000Y-96250000D01*
X147350000Y-97750000D02*
X147000000Y-97400000D01*
%TO.N,SPI2_NSS*%
X164700000Y-109400000D02*
X164002500Y-110097500D01*
X158890000Y-101000000D02*
X158900000Y-100990000D01*
X164002500Y-110097500D02*
X164002500Y-111096000D01*
X158100000Y-101000000D02*
X158890000Y-101000000D01*
X156862500Y-100750000D02*
X157850000Y-100750000D01*
X158910000Y-101000000D02*
X158900000Y-100990000D01*
X161400000Y-101000000D02*
X158910000Y-101000000D01*
X164700000Y-101500000D02*
X164700000Y-109400000D01*
X164200000Y-101000000D02*
X164700000Y-101500000D01*
X157850000Y-100750000D02*
X158100000Y-101000000D01*
D54*
%TO.N,/MCU/TIM4_CH1*%
X139020000Y-101080000D02*
X132430000Y-101080000D01*
X139600000Y-100500000D02*
X139020000Y-101080000D01*
X153200000Y-96800000D02*
X153200000Y-94925361D01*
X152950000Y-94675361D02*
X152950000Y-93837500D01*
X153200000Y-94925361D02*
X152950000Y-94675361D01*
%TO.N,/MCU/TIM4_CH2*%
X152450000Y-93837500D02*
X152450000Y-95450000D01*
X139420000Y-99580000D02*
X132430000Y-99580000D01*
X152450000Y-95450000D02*
X152500000Y-95500000D01*
X139500000Y-99500000D02*
X139420000Y-99580000D01*
%TO.N,/MCU/TIM4_CH3*%
X151449520Y-94400000D02*
X151449520Y-94200000D01*
X139500000Y-98050000D02*
X139470000Y-98080000D01*
X151400000Y-96500000D02*
X151450480Y-96449520D01*
X151450480Y-96449520D02*
X151450480Y-94600000D01*
X139470000Y-98080000D02*
X132430000Y-98080000D01*
D52*
%TO.N,/MCU/SWDIO*%
X156862500Y-96250000D02*
X158527051Y-96250000D01*
X158527051Y-96250000D02*
X158670846Y-96106205D01*
X159900000Y-95800000D02*
X159900000Y-92900000D01*
X159900000Y-92900000D02*
X154500000Y-87500000D01*
X158670846Y-96106205D02*
X159593795Y-96106205D01*
X159593795Y-96106205D02*
X159900000Y-95800000D01*
X154500000Y-87500000D02*
X152210000Y-87500000D01*
D54*
%TO.N,/MCU/SWCLK*%
X155450000Y-91450000D02*
X155450000Y-93837500D01*
X145590000Y-87500000D02*
X145590000Y-88090000D01*
X145590000Y-88090000D02*
X146400000Y-88900000D01*
X146400000Y-88900000D02*
X152900000Y-88900000D01*
X152900000Y-88900000D02*
X155450000Y-91450000D01*
%TO.N,/ADC/IN*%
X142198500Y-130920000D02*
X142198500Y-129168000D01*
X142198500Y-129168000D02*
X142174500Y-129144000D01*
X140000000Y-131750000D02*
X140830000Y-130920000D01*
X140000000Y-136000000D02*
X140000000Y-131750000D01*
X140830000Y-130920000D02*
X142198500Y-130920000D01*
%TO.N,VCOM*%
X155100000Y-126000000D02*
X154244000Y-125144000D01*
X149300000Y-126400000D02*
X149300000Y-125000000D01*
X148900000Y-126800000D02*
X149300000Y-126400000D01*
X155100000Y-126200000D02*
X155100000Y-126000000D01*
X149444000Y-125144000D02*
X149300000Y-125000000D01*
X149300000Y-122900000D02*
X144876000Y-118476000D01*
X155875000Y-126475000D02*
X155800000Y-126400000D01*
X144876000Y-118476000D02*
X140904500Y-118476000D01*
X148010000Y-126800000D02*
X148900000Y-126800000D01*
X155875000Y-127044000D02*
X155875000Y-126475000D01*
X149300000Y-125000000D02*
X149300000Y-122900000D01*
X155800000Y-126400000D02*
X155300000Y-126400000D01*
X153600000Y-125144000D02*
X149444000Y-125144000D01*
X155300000Y-126400000D02*
X155100000Y-126200000D01*
X154244000Y-125144000D02*
X153600000Y-125144000D01*
%TO.N,/ADC/IN_BUF_OUT*%
X145500000Y-124100000D02*
X144800000Y-124100000D01*
X143800500Y-125199500D02*
X142904000Y-126096000D01*
X145800000Y-123800000D02*
X145500000Y-124100000D01*
X144780500Y-125199500D02*
X143800500Y-125199500D01*
X144800000Y-124100000D02*
X144780500Y-124119500D01*
X145800000Y-123100000D02*
X145800000Y-123800000D01*
X142904000Y-126096000D02*
X139888500Y-126096000D01*
X144780500Y-124119500D02*
X144780500Y-125199500D01*
X146680500Y-122924500D02*
X145975500Y-122924500D01*
X145975500Y-122924500D02*
X145800000Y-123100000D01*
D52*
%TO.N,/ADC/ADC_SCLK*%
X139634500Y-106375500D02*
X139634500Y-110940000D01*
X139700000Y-106310000D02*
X139634500Y-106375500D01*
%TO.N,SPI1_SCK*%
X141400000Y-106300000D02*
X140390000Y-105290000D01*
X149300000Y-106300000D02*
X141400000Y-106300000D01*
X150950000Y-104650000D02*
X149300000Y-106300000D01*
X150950000Y-102162500D02*
X150950000Y-104650000D01*
X140390000Y-105290000D02*
X139700000Y-105290000D01*
%TO.N,SPI2_SCK*%
X163500000Y-101700000D02*
X163500000Y-105090000D01*
X156862500Y-100250000D02*
X162050000Y-100250000D01*
X162050000Y-100250000D02*
X163500000Y-101700000D01*
%TO.N,/DAC/DAC_SCLK*%
X163502500Y-106112500D02*
X163502500Y-111096000D01*
X163500000Y-106110000D02*
X163502500Y-106112500D01*
D54*
%TO.N,/DAC/DAC_OUT_B*%
X162502500Y-116597500D02*
X162502500Y-115496000D01*
X162500000Y-116900000D02*
X162500000Y-116600000D01*
X162500000Y-116600000D02*
X162502500Y-116597500D01*
X162390000Y-117010000D02*
X162500000Y-116900000D01*
X162390000Y-118000000D02*
X162390000Y-117010000D01*
%TO.N,/DAC/DAC_OUT_A*%
X162002500Y-115496000D02*
X161404000Y-115496000D01*
X160900000Y-116000000D02*
X160900000Y-121200000D01*
X161404000Y-115496000D02*
X160900000Y-116000000D01*
X161476000Y-121776000D02*
X161984500Y-121776000D01*
X160900000Y-121200000D02*
X161476000Y-121776000D01*
D52*
%TO.N,SPI1_NSS*%
X148400000Y-105200000D02*
X148910000Y-104690000D01*
X150450000Y-102162500D02*
X150450000Y-103760000D01*
X140950000Y-107150000D02*
X140634500Y-107465500D01*
X143900000Y-105200000D02*
X148400000Y-105200000D01*
X142900000Y-104200000D02*
X143900000Y-105200000D01*
X148910000Y-104690000D02*
X148910000Y-104000000D01*
X150450000Y-103760000D02*
X150210000Y-104000000D01*
X150210000Y-104000000D02*
X148910000Y-104000000D01*
X141800000Y-104200000D02*
X142900000Y-104200000D01*
X140634500Y-107465500D02*
X140634500Y-110940000D01*
%TO.N,SPI1_MISO*%
X140134500Y-112007392D02*
X140134500Y-110940000D01*
X151300000Y-107700000D02*
X143000000Y-107700000D01*
X151800000Y-107200000D02*
X151300000Y-107700000D01*
X151450000Y-102162500D02*
X151450000Y-103150000D01*
X151800000Y-103500000D02*
X151800000Y-107200000D01*
X140427108Y-112300000D02*
X140134500Y-112007392D01*
X142600000Y-112000000D02*
X142300000Y-112300000D01*
X143000000Y-107700000D02*
X142600000Y-108100000D01*
X142600000Y-108100000D02*
X142600000Y-112000000D01*
X151450000Y-103150000D02*
X151800000Y-103500000D01*
X142300000Y-112300000D02*
X140427108Y-112300000D01*
%TO.N,DAC_NCLR*%
X164600000Y-114300000D02*
X164300000Y-114300000D01*
X165300000Y-115000000D02*
X164600000Y-114300000D01*
X164002500Y-114597500D02*
X164002500Y-115496000D01*
X153450000Y-103350000D02*
X153450000Y-102162500D01*
X153100000Y-103700000D02*
X153450000Y-103350000D01*
X164300000Y-114300000D02*
X164002500Y-114597500D01*
X153100000Y-107000000D02*
X153100000Y-103700000D01*
X159600000Y-107700000D02*
X153800000Y-107700000D01*
X153800000Y-107700000D02*
X153100000Y-107000000D01*
%TO.N,DAC_NLDAC*%
X161000000Y-105700000D02*
X158100000Y-105700000D01*
X163502500Y-116369696D02*
X163502500Y-115496000D01*
X165300000Y-116200000D02*
X164932804Y-116567196D01*
X158215430Y-105700000D02*
X158100000Y-105700000D01*
X164932804Y-116567196D02*
X163700000Y-116567196D01*
X158207715Y-105707715D02*
X158215430Y-105700000D01*
X163700000Y-116567196D02*
X163502500Y-116369696D01*
X154715429Y-105700000D02*
X153950000Y-104934571D01*
X153950000Y-104934571D02*
X153950000Y-102162500D01*
X158100000Y-105700000D02*
X154715429Y-105700000D01*
%TO.N,/MCU/SW0*%
X152400000Y-89900000D02*
X145500000Y-89900000D01*
X153500000Y-92054327D02*
X153500000Y-91000000D01*
D54*
X143110000Y-87500000D02*
X143800000Y-87500000D01*
X144500000Y-88200000D02*
X144500000Y-88900000D01*
D52*
X154450000Y-93004327D02*
X153500000Y-92054327D01*
X145500000Y-89900000D02*
X144500000Y-88900000D01*
D54*
X143800000Y-87500000D02*
X144500000Y-88200000D01*
D52*
X154450000Y-93837500D02*
X154450000Y-93004327D01*
X153500000Y-91000000D02*
X152400000Y-89900000D01*
D54*
%TO.N,/MCU/CONN_NRST*%
X140008000Y-80308000D02*
X138900000Y-80308000D01*
X140150000Y-81100000D02*
X140150000Y-80450000D01*
X136732000Y-80308000D02*
X136700000Y-80340000D01*
X138900000Y-80308000D02*
X136732000Y-80308000D01*
X140900000Y-81850000D02*
X140150000Y-81100000D01*
X141860000Y-81850000D02*
X140900000Y-81850000D01*
X140150000Y-80450000D02*
X140008000Y-80308000D01*
%TO.N,/MCU/CONN_SWO*%
X144400000Y-83200000D02*
X144200000Y-83400000D01*
X142092000Y-84058000D02*
X142092000Y-85600000D01*
X144400000Y-81850000D02*
X144400000Y-83200000D01*
X143950000Y-83650000D02*
X143451739Y-83650000D01*
X144200000Y-83400000D02*
X143950000Y-83650000D01*
X142090000Y-85602000D02*
X142092000Y-85600000D01*
X143451739Y-83650000D02*
X142500000Y-83650000D01*
X142500000Y-83650000D02*
X142092000Y-84058000D01*
X142090000Y-87500000D02*
X142090000Y-85602000D01*
D52*
%TO.N,/MCU/CONN_SWCLK*%
X146592000Y-85600000D02*
X146592000Y-84392000D01*
X146610000Y-85618000D02*
X146592000Y-85600000D01*
X146592000Y-84392000D02*
X145670000Y-83470000D01*
X146610000Y-87500000D02*
X146610000Y-85618000D01*
X145670000Y-83470000D02*
X145670000Y-81850000D01*
D54*
%TO.N,/MCU/CONN_SWDIO*%
X151190000Y-87500000D02*
X151190000Y-85698000D01*
X146940000Y-83140000D02*
X146940000Y-81850000D01*
X151092000Y-84292000D02*
X150200000Y-83400000D01*
X151190000Y-85698000D02*
X151092000Y-85600000D01*
X151092000Y-85600000D02*
X151092000Y-84292000D01*
X150200000Y-83400000D02*
X147200000Y-83400000D01*
X147200000Y-83400000D02*
X146940000Y-83140000D01*
%TO.N,/ADC/IN_AA_BUF_OUT*%
X140518000Y-122218000D02*
X139800000Y-121500000D01*
X138243000Y-119743000D02*
X138243000Y-120318000D01*
X139800000Y-121300000D02*
X138818000Y-120318000D01*
X137856500Y-118476000D02*
X137856500Y-119356500D01*
X140876500Y-122576500D02*
X140518000Y-122218000D01*
X137856500Y-119356500D02*
X138243000Y-119743000D01*
X138818000Y-120318000D02*
X138243000Y-120318000D01*
X139800000Y-121500000D02*
X139800000Y-121300000D01*
X140876500Y-123808000D02*
X140876500Y-122576500D01*
%TO.N,/ADC/IN_AA_BUF_IN*%
X136332500Y-122256000D02*
X138205000Y-122256000D01*
X138205000Y-122256000D02*
X138243000Y-122218000D01*
X136330500Y-122258000D02*
X136332500Y-122256000D01*
X136330500Y-123808000D02*
X136330500Y-122258000D01*
%TO.N,Net-(D400-Pad1)*%
X164008000Y-131300000D02*
X164008000Y-129418000D01*
X164008000Y-129418000D02*
X163990000Y-129400000D01*
X164000000Y-136000000D02*
X164000000Y-131508000D01*
D52*
%TO.N,SPI2_MOSI*%
X163002500Y-112163392D02*
X163439108Y-112600000D01*
X158400000Y-98800000D02*
X157950000Y-99250000D01*
X163439108Y-112600000D02*
X164700000Y-112600000D01*
X163002500Y-111096000D02*
X163002500Y-112163392D01*
X164700000Y-112600000D02*
X165800000Y-111500000D01*
X165800000Y-111500000D02*
X165800000Y-101000000D01*
X165800000Y-101000000D02*
X163600000Y-98800000D01*
X157950000Y-99250000D02*
X156862500Y-99250000D01*
X163600000Y-98800000D02*
X158400000Y-98800000D01*
%TD*%
%TA.AperFunction,Conductor*%
%TO.N,GND*%
G36*
X170726121Y-101820002D02*
G01*
X170733600Y-101825200D01*
X171049600Y-102062200D01*
X171092095Y-102119074D01*
X171100000Y-102163000D01*
X171100000Y-104037000D01*
X171079998Y-104105121D01*
X171049600Y-104137800D01*
X170733600Y-104374800D01*
X170667102Y-104399671D01*
X170658000Y-104400000D01*
X167034899Y-104400000D01*
X166970074Y-104382045D01*
X166561173Y-104136704D01*
X166513051Y-104084505D01*
X166500000Y-104028660D01*
X166500000Y-102152190D01*
X166520002Y-102084069D01*
X166536905Y-102063095D01*
X166763095Y-101836905D01*
X166825407Y-101802879D01*
X166852190Y-101800000D01*
X170658000Y-101800000D01*
X170726121Y-101820002D01*
G37*
%TD.AperFunction*%
%TD*%
%TA.AperFunction,Conductor*%
%TO.N,GND*%
G36*
X137665931Y-111920002D02*
G01*
X137686905Y-111936905D01*
X137812106Y-112062106D01*
X137846132Y-112124418D01*
X137848989Y-112153578D01*
X137800958Y-114699207D01*
X137779674Y-114766938D01*
X137764075Y-114785925D01*
X137636905Y-114913095D01*
X137574593Y-114947121D01*
X137547810Y-114950000D01*
X135260559Y-114950000D01*
X135192438Y-114929998D01*
X135162170Y-114902712D01*
X135027611Y-114734514D01*
X135000675Y-114668825D01*
X135000000Y-114655802D01*
X135000000Y-112067433D01*
X135020002Y-111999312D01*
X135056106Y-111962596D01*
X135118258Y-111921161D01*
X135188149Y-111900000D01*
X137597810Y-111900000D01*
X137665931Y-111920002D01*
G37*
%TD.AperFunction*%
%TD*%
%TA.AperFunction,Conductor*%
%TO.N,GND*%
G36*
X174054858Y-100366084D02*
G01*
X174063070Y-100370598D01*
X174079593Y-100381452D01*
X174089975Y-100389506D01*
X174089977Y-100389507D01*
X174096237Y-100394363D01*
X174128627Y-100408379D01*
X174138046Y-100412455D01*
X174148706Y-100417677D01*
X174188632Y-100439627D01*
X174209037Y-100444866D01*
X174227742Y-100451270D01*
X174247074Y-100459636D01*
X174254900Y-100460876D01*
X174254905Y-100460877D01*
X174292076Y-100466765D01*
X174303696Y-100469171D01*
X174340142Y-100478528D01*
X174347823Y-100480500D01*
X174368884Y-100480500D01*
X174388596Y-100482051D01*
X174409405Y-100485347D01*
X174417297Y-100484601D01*
X174449573Y-100481550D01*
X174518634Y-100494724D01*
X174559696Y-100515646D01*
X174569485Y-100517196D01*
X174569487Y-100517197D01*
X174596849Y-100521530D01*
X174653481Y-100530500D01*
X175031254Y-100530500D01*
X175087603Y-100543802D01*
X175130349Y-100565175D01*
X175182333Y-100613530D01*
X175200000Y-100677873D01*
X175200000Y-100949891D01*
X175179998Y-101018012D01*
X175158311Y-101043527D01*
X175102112Y-101094129D01*
X174990849Y-101247270D01*
X174913856Y-101420197D01*
X174908992Y-101443081D01*
X174881463Y-101572597D01*
X174874500Y-101605354D01*
X174874500Y-101688808D01*
X174863206Y-101740947D01*
X174733573Y-102026139D01*
X174687175Y-102079877D01*
X174618867Y-102100000D01*
X173352190Y-102100000D01*
X173284069Y-102079998D01*
X173263095Y-102063095D01*
X173136905Y-101936905D01*
X173102879Y-101874593D01*
X173100000Y-101847810D01*
X173100000Y-100476500D01*
X173120002Y-100408379D01*
X173173658Y-100361886D01*
X173226000Y-100350500D01*
X173994161Y-100350500D01*
X174054858Y-100366084D01*
G37*
%TD.AperFunction*%
%TD*%
%TA.AperFunction,Conductor*%
%TO.N,/ADC/ADC_VREF*%
G36*
X136985252Y-115400167D02*
G01*
X136988005Y-115400500D01*
X137199972Y-115400500D01*
X137411994Y-115400499D01*
X137414742Y-115400166D01*
X137420275Y-115400000D01*
X137647810Y-115400000D01*
X137715931Y-115420002D01*
X137736905Y-115436905D01*
X137863095Y-115563095D01*
X137897121Y-115625407D01*
X137900000Y-115652190D01*
X137900000Y-116247810D01*
X137879998Y-116315931D01*
X137863095Y-116336905D01*
X137736905Y-116463095D01*
X137674593Y-116497121D01*
X137647810Y-116500000D01*
X132867433Y-116500000D01*
X132799312Y-116479998D01*
X132762595Y-116443893D01*
X132721161Y-116381742D01*
X132700000Y-116311851D01*
X132700000Y-115652190D01*
X132720002Y-115584069D01*
X132736905Y-115563095D01*
X132863095Y-115436905D01*
X132925407Y-115402879D01*
X132952190Y-115400000D01*
X136979707Y-115400000D01*
X136985252Y-115400167D01*
G37*
%TD.AperFunction*%
%TD*%
%TA.AperFunction,Conductor*%
%TO.N,GND*%
G36*
X137515931Y-107020002D02*
G01*
X137536905Y-107036905D01*
X137663095Y-107163095D01*
X137697121Y-107225407D01*
X137700000Y-107252190D01*
X137700000Y-108879707D01*
X137699833Y-108885252D01*
X137699500Y-108888005D01*
X137699500Y-108891799D01*
X137699501Y-109307740D01*
X137679499Y-109375860D01*
X137628689Y-109419006D01*
X137629108Y-109419698D01*
X137624805Y-109422304D01*
X137623542Y-109423377D01*
X137613879Y-109427558D01*
X137607207Y-109432961D01*
X137607205Y-109432962D01*
X137602324Y-109436915D01*
X137583729Y-109449411D01*
X137570688Y-109456580D01*
X137565688Y-109460897D01*
X137565687Y-109460897D01*
X137564366Y-109462037D01*
X137564359Y-109462043D01*
X137562615Y-109463549D01*
X137538265Y-109487899D01*
X137528464Y-109496725D01*
X137497369Y-109521905D01*
X137486570Y-109537101D01*
X137472963Y-109553201D01*
X137463069Y-109563095D01*
X137400757Y-109597121D01*
X137373974Y-109600000D01*
X136552190Y-109600000D01*
X136484069Y-109579998D01*
X136463095Y-109563095D01*
X136336905Y-109436905D01*
X136302879Y-109374593D01*
X136300000Y-109347810D01*
X136300000Y-107252190D01*
X136320002Y-107184069D01*
X136336905Y-107163095D01*
X136463095Y-107036905D01*
X136525407Y-107002879D01*
X136552190Y-107000000D01*
X137447810Y-107000000D01*
X137515931Y-107020002D01*
G37*
%TD.AperFunction*%
%TD*%
%TA.AperFunction,Conductor*%
%TO.N,/Power/BUCK_SW*%
G36*
X165515931Y-78320002D02*
G01*
X165536905Y-78336905D01*
X165763095Y-78563095D01*
X165797121Y-78625407D01*
X165800000Y-78652190D01*
X165800000Y-81600000D01*
X165807390Y-81607054D01*
X165807390Y-81607055D01*
X167961000Y-83662773D01*
X167996465Y-83724278D01*
X168000000Y-83753916D01*
X168000000Y-84387000D01*
X167979998Y-84455121D01*
X167949600Y-84487800D01*
X167833600Y-84574800D01*
X167767102Y-84599671D01*
X167758000Y-84600000D01*
X166742000Y-84600000D01*
X166673879Y-84579998D01*
X166666400Y-84574800D01*
X166550400Y-84487800D01*
X166507905Y-84430926D01*
X166500000Y-84387000D01*
X166500000Y-83800000D01*
X166491994Y-83793595D01*
X166491993Y-83793594D01*
X166300855Y-83640684D01*
X166000000Y-83400000D01*
X162334899Y-83400000D01*
X162270074Y-83382045D01*
X161861173Y-83136704D01*
X161813051Y-83084505D01*
X161800000Y-83028660D01*
X161800000Y-78742000D01*
X161820002Y-78673879D01*
X161825200Y-78666400D01*
X162062200Y-78350400D01*
X162119074Y-78307905D01*
X162163000Y-78300000D01*
X165447810Y-78300000D01*
X165515931Y-78320002D01*
G37*
%TD.AperFunction*%
%TD*%
%TA.AperFunction,Conductor*%
%TO.N,GND*%
G36*
X146789280Y-97967187D02*
G01*
X146810254Y-97984090D01*
X146952514Y-98126350D01*
X146956167Y-98130159D01*
X146992113Y-98169250D01*
X146992117Y-98169253D01*
X146997932Y-98175577D01*
X147034664Y-98198351D01*
X147044438Y-98205069D01*
X147050183Y-98209430D01*
X147092348Y-98266549D01*
X147100000Y-98309790D01*
X147100000Y-98647810D01*
X147079998Y-98715931D01*
X147063095Y-98736905D01*
X147036905Y-98763095D01*
X146974593Y-98797121D01*
X146947810Y-98800000D01*
X146250000Y-98800000D01*
X146239496Y-98808403D01*
X145784514Y-99172389D01*
X145718825Y-99199325D01*
X145705802Y-99200000D01*
X142352190Y-99200000D01*
X142284069Y-99179998D01*
X142263095Y-99163095D01*
X142136905Y-99036905D01*
X142102879Y-98974593D01*
X142100000Y-98947810D01*
X142100000Y-98073185D01*
X142120002Y-98005064D01*
X142173658Y-97958571D01*
X142226000Y-97947185D01*
X146721159Y-97947185D01*
X146789280Y-97967187D01*
G37*
%TD.AperFunction*%
%TD*%
%TA.AperFunction,Conductor*%
%TO.N,GND*%
G36*
X174615931Y-92820002D02*
G01*
X174636905Y-92836905D01*
X174763095Y-92963095D01*
X174797121Y-93025407D01*
X174800000Y-93052190D01*
X174800000Y-93600000D01*
X175214406Y-94014406D01*
X175248432Y-94076718D01*
X175243367Y-94147533D01*
X175200820Y-94204369D01*
X175134300Y-94229180D01*
X175125320Y-94229501D01*
X174653482Y-94229501D01*
X174648589Y-94230276D01*
X174648588Y-94230276D01*
X174569494Y-94242802D01*
X174569492Y-94242803D01*
X174559696Y-94244354D01*
X174550859Y-94248857D01*
X174550858Y-94248857D01*
X174517671Y-94265767D01*
X174460468Y-94279500D01*
X173351636Y-94279500D01*
X173283515Y-94259498D01*
X173262541Y-94242595D01*
X173136905Y-94116959D01*
X173102879Y-94054647D01*
X173100000Y-94027864D01*
X173100000Y-93052190D01*
X173120002Y-92984069D01*
X173136905Y-92963095D01*
X173263095Y-92836905D01*
X173325407Y-92802879D01*
X173352190Y-92800000D01*
X174547810Y-92800000D01*
X174615931Y-92820002D01*
G37*
%TD.AperFunction*%
%TD*%
%TA.AperFunction,Conductor*%
%TO.N,VBUS*%
G36*
X170731743Y-99221162D02*
G01*
X170943892Y-99362595D01*
X170989477Y-99417024D01*
X171000000Y-99467433D01*
X171000000Y-101132567D01*
X170979998Y-101200688D01*
X170943892Y-101237405D01*
X170731743Y-101378838D01*
X170661851Y-101400000D01*
X169338149Y-101400000D01*
X169268257Y-101378838D01*
X169056108Y-101237405D01*
X169010523Y-101182976D01*
X169000000Y-101132567D01*
X169000000Y-99909434D01*
X169000913Y-99894297D01*
X169010044Y-99818840D01*
X169010500Y-99815074D01*
X169010500Y-99408746D01*
X169023802Y-99352397D01*
X169065175Y-99269651D01*
X169113530Y-99217667D01*
X169177873Y-99200000D01*
X170661851Y-99200000D01*
X170731743Y-99221162D01*
G37*
%TD.AperFunction*%
%TD*%
%TA.AperFunction,Conductor*%
%TO.N,GND*%
G36*
X131976604Y-116413302D02*
G01*
X132080349Y-116465175D01*
X132132333Y-116513530D01*
X132150000Y-116577873D01*
X132150000Y-117297810D01*
X132129998Y-117365931D01*
X132113095Y-117386905D01*
X132000000Y-117500000D01*
X132000000Y-120632567D01*
X131979998Y-120700688D01*
X131943892Y-120737405D01*
X131731743Y-120878838D01*
X131661851Y-120900000D01*
X130742000Y-120900000D01*
X130673879Y-120879998D01*
X130666400Y-120874800D01*
X130350400Y-120637800D01*
X130307905Y-120580926D01*
X130300000Y-120537000D01*
X130300000Y-116738149D01*
X130321162Y-116668257D01*
X130462595Y-116456108D01*
X130517024Y-116410523D01*
X130567433Y-116400000D01*
X131920255Y-116400000D01*
X131976604Y-116413302D01*
G37*
%TD.AperFunction*%
%TD*%
%TA.AperFunction,Conductor*%
%TO.N,GND*%
G36*
X147315931Y-92920002D02*
G01*
X147336905Y-92936905D01*
X147463095Y-93063095D01*
X147497121Y-93125407D01*
X147500000Y-93152190D01*
X147500000Y-94047810D01*
X147479998Y-94115931D01*
X147463095Y-94136905D01*
X147386905Y-94213095D01*
X147324593Y-94247121D01*
X147297810Y-94250000D01*
X144715511Y-94250000D01*
X144684953Y-94246238D01*
X144595440Y-94223860D01*
X144534205Y-94187933D01*
X144502114Y-94124603D01*
X144500000Y-94101622D01*
X144500000Y-93152190D01*
X144520002Y-93084069D01*
X144536905Y-93063095D01*
X144663095Y-92936905D01*
X144725407Y-92902879D01*
X144752190Y-92900000D01*
X147247810Y-92900000D01*
X147315931Y-92920002D01*
G37*
%TD.AperFunction*%
%TD*%
%TA.AperFunction,Conductor*%
%TO.N,/Power/BUCK_FB*%
G36*
X165515931Y-87320002D02*
G01*
X165536905Y-87336905D01*
X165663095Y-87463095D01*
X165697121Y-87525407D01*
X165700000Y-87552190D01*
X165700000Y-89547810D01*
X165679998Y-89615931D01*
X165663095Y-89636905D01*
X165536905Y-89763095D01*
X165474593Y-89797121D01*
X165447810Y-89800000D01*
X164277872Y-89800000D01*
X164209751Y-89779998D01*
X164165174Y-89730348D01*
X164113302Y-89626603D01*
X164100000Y-89570255D01*
X164100000Y-87552190D01*
X164120002Y-87484069D01*
X164136905Y-87463095D01*
X164263095Y-87336905D01*
X164325407Y-87302879D01*
X164352190Y-87300000D01*
X165447810Y-87300000D01*
X165515931Y-87320002D01*
G37*
%TD.AperFunction*%
%TD*%
%TA.AperFunction,Conductor*%
%TO.N,GND*%
G36*
X152115931Y-115120002D02*
G01*
X152136905Y-115136905D01*
X152263095Y-115263095D01*
X152297121Y-115325407D01*
X152300000Y-115352190D01*
X152300000Y-118304382D01*
X152279998Y-118372503D01*
X152270796Y-118385045D01*
X152087781Y-118604663D01*
X152028805Y-118644190D01*
X151990985Y-118650000D01*
X150600000Y-118650000D01*
X150600000Y-118947810D01*
X150579998Y-119015931D01*
X150563095Y-119036905D01*
X150436905Y-119163095D01*
X150374593Y-119197121D01*
X150347810Y-119200000D01*
X148852190Y-119200000D01*
X148784069Y-119179998D01*
X148763095Y-119163095D01*
X148636905Y-119036905D01*
X148602879Y-118974593D01*
X148600000Y-118947810D01*
X148600000Y-115352190D01*
X148620002Y-115284069D01*
X148636905Y-115263095D01*
X148763095Y-115136905D01*
X148825407Y-115102879D01*
X148852190Y-115100000D01*
X152047810Y-115100000D01*
X152115931Y-115120002D01*
G37*
%TD.AperFunction*%
%TD*%
%TA.AperFunction,Conductor*%
%TO.N,VDDA*%
G36*
X147012547Y-99222429D02*
G01*
X147046748Y-99246748D01*
X147063095Y-99263095D01*
X147097121Y-99325407D01*
X147100000Y-99352190D01*
X147100000Y-101847810D01*
X147079998Y-101915931D01*
X147063095Y-101936905D01*
X146736905Y-102263095D01*
X146674593Y-102297121D01*
X146647810Y-102300000D01*
X144767433Y-102300000D01*
X144699312Y-102279998D01*
X144662596Y-102243894D01*
X144612499Y-102168748D01*
X144591356Y-102100974D01*
X144595214Y-102067845D01*
X144596707Y-102061967D01*
X144599685Y-102054445D01*
X144600657Y-102046413D01*
X144600658Y-102046409D01*
X144610044Y-101968840D01*
X144610500Y-101965074D01*
X144610500Y-101534926D01*
X144599685Y-101445555D01*
X144544414Y-101305956D01*
X144525637Y-101281218D01*
X144500384Y-101214865D01*
X144500000Y-101205039D01*
X144500000Y-99952190D01*
X144520002Y-99884069D01*
X144536905Y-99863095D01*
X144663095Y-99736905D01*
X144725407Y-99702879D01*
X144752190Y-99700000D01*
X146000000Y-99700000D01*
X146350000Y-99500000D01*
X146350000Y-99352190D01*
X146370002Y-99284069D01*
X146386905Y-99263095D01*
X146392595Y-99257405D01*
X146454907Y-99223379D01*
X146481690Y-99220500D01*
X146828113Y-99220499D01*
X146861994Y-99220499D01*
X146865754Y-99220044D01*
X146865771Y-99220043D01*
X146942516Y-99210756D01*
X147012547Y-99222429D01*
G37*
%TD.AperFunction*%
%TD*%
%TA.AperFunction,Conductor*%
%TO.N,+3V3*%
G36*
X162897436Y-107020002D02*
G01*
X162943929Y-107073658D01*
X162955315Y-107126000D01*
X162955315Y-109674000D01*
X162935313Y-109742121D01*
X162881657Y-109788614D01*
X162829315Y-109800000D01*
X162152190Y-109800000D01*
X162084069Y-109779998D01*
X162063095Y-109763095D01*
X161953879Y-109653879D01*
X161919853Y-109591567D01*
X161920813Y-109535980D01*
X161922333Y-109532140D01*
X161933000Y-109443995D01*
X161932999Y-109020006D01*
X161922333Y-108931860D01*
X161908847Y-108897799D01*
X161900000Y-108851418D01*
X161900000Y-107252190D01*
X161920002Y-107184069D01*
X161936905Y-107163095D01*
X162063095Y-107036905D01*
X162125407Y-107002879D01*
X162152190Y-107000000D01*
X162829315Y-107000000D01*
X162897436Y-107020002D01*
G37*
%TD.AperFunction*%
%TD*%
%TA.AperFunction,Conductor*%
%TO.N,+5V*%
G36*
X168426604Y-99213302D02*
G01*
X168520569Y-99260285D01*
X168572553Y-99308641D01*
X168589992Y-99380565D01*
X168589957Y-99381153D01*
X168589500Y-99384926D01*
X168589500Y-99791254D01*
X168576198Y-99847603D01*
X168534825Y-99930349D01*
X168486470Y-99982333D01*
X168422127Y-100000000D01*
X168300000Y-100000000D01*
X168200000Y-100100000D01*
X168200000Y-101147810D01*
X168179998Y-101215931D01*
X168163095Y-101236905D01*
X168036905Y-101363095D01*
X167974593Y-101397121D01*
X167947810Y-101400000D01*
X166852190Y-101400000D01*
X166784069Y-101379998D01*
X166763095Y-101363095D01*
X166536905Y-101136905D01*
X166502879Y-101074593D01*
X166500000Y-101047810D01*
X166500000Y-99467433D01*
X166520002Y-99399312D01*
X166556108Y-99362595D01*
X166768257Y-99221162D01*
X166838149Y-99200000D01*
X168370255Y-99200000D01*
X168426604Y-99213302D01*
G37*
%TD.AperFunction*%
%TD*%
%TA.AperFunction,Conductor*%
%TO.N,/ADC/ADC_VREF_VIN*%
G36*
X134590248Y-117520002D02*
G01*
X134634825Y-117569651D01*
X134686698Y-117673396D01*
X134700000Y-117729745D01*
X134700000Y-120347810D01*
X134679998Y-120415931D01*
X134663095Y-120436905D01*
X134536905Y-120563095D01*
X134474593Y-120597121D01*
X134447810Y-120600000D01*
X132752190Y-120600000D01*
X132684069Y-120579998D01*
X132663095Y-120563095D01*
X132536905Y-120436905D01*
X132502879Y-120374593D01*
X132500000Y-120347810D01*
X132500000Y-117752190D01*
X132520002Y-117684069D01*
X132536905Y-117663095D01*
X132663095Y-117536905D01*
X132725407Y-117502879D01*
X132752190Y-117500000D01*
X134522127Y-117500000D01*
X134590248Y-117520002D01*
G37*
%TD.AperFunction*%
%TD*%
%TA.AperFunction,Conductor*%
%TO.N,+3.3VA*%
G36*
X137815931Y-110020002D02*
G01*
X137836905Y-110036905D01*
X137963095Y-110163095D01*
X137997121Y-110225407D01*
X138000000Y-110252190D01*
X138000000Y-111061851D01*
X137978838Y-111131743D01*
X137837405Y-111343892D01*
X137782976Y-111389477D01*
X137732567Y-111400000D01*
X135202190Y-111400000D01*
X135134069Y-111379998D01*
X135113095Y-111363095D01*
X135036905Y-111286905D01*
X135002879Y-111224593D01*
X135000000Y-111197810D01*
X135000000Y-110202190D01*
X135020002Y-110134069D01*
X135036905Y-110113095D01*
X135113095Y-110036905D01*
X135175407Y-110002879D01*
X135202190Y-110000000D01*
X137747810Y-110000000D01*
X137815931Y-110020002D01*
G37*
%TD.AperFunction*%
%TD*%
%TA.AperFunction,Conductor*%
%TO.N,/Power/+5V_FILT*%
G36*
X155705121Y-113520002D02*
G01*
X155737800Y-113550400D01*
X155974800Y-113866400D01*
X155999671Y-113932898D01*
X156000000Y-113942000D01*
X156000000Y-120737000D01*
X155979998Y-120805121D01*
X155949600Y-120837800D01*
X155633600Y-121074800D01*
X155567102Y-121099671D01*
X155558000Y-121100000D01*
X153469835Y-121100000D01*
X153401714Y-121079998D01*
X153362987Y-121040780D01*
X153215701Y-120805121D01*
X152900000Y-120300000D01*
X151067433Y-120300000D01*
X150999312Y-120279998D01*
X150962595Y-120243892D01*
X150821162Y-120031743D01*
X150800000Y-119961851D01*
X150800000Y-119452190D01*
X150820002Y-119384069D01*
X150836905Y-119363095D01*
X150963095Y-119236905D01*
X151025407Y-119202879D01*
X151052190Y-119200000D01*
X152400000Y-119200000D01*
X152409564Y-119161744D01*
X152445492Y-119100509D01*
X152476946Y-119081886D01*
X152475804Y-119079646D01*
X152588842Y-119022050D01*
X152678550Y-118932342D01*
X152736146Y-118819304D01*
X152740177Y-118793853D01*
X152775531Y-118724469D01*
X152900000Y-118600000D01*
X152900000Y-113852190D01*
X152920002Y-113784069D01*
X152936905Y-113763095D01*
X153163095Y-113536905D01*
X153225407Y-113502879D01*
X153252190Y-113500000D01*
X155637000Y-113500000D01*
X155705121Y-113520002D01*
G37*
%TD.AperFunction*%
%TD*%
%TA.AperFunction,Conductor*%
%TO.N,GND*%
G36*
X166484856Y-85020002D02*
G01*
X166492913Y-85025636D01*
X166499873Y-85030919D01*
X166499878Y-85030922D01*
X166506717Y-85036113D01*
X166548106Y-85052500D01*
X166639423Y-85088655D01*
X166639425Y-85088656D01*
X166646953Y-85091636D01*
X166736728Y-85102500D01*
X167847272Y-85102500D01*
X167937047Y-85091636D01*
X167944577Y-85088655D01*
X167952416Y-85086664D01*
X167953042Y-85089128D01*
X168011173Y-85083801D01*
X168074153Y-85116574D01*
X168091693Y-85137540D01*
X168400000Y-85600000D01*
X170447810Y-85600000D01*
X170515931Y-85620002D01*
X170536905Y-85636905D01*
X170663095Y-85763095D01*
X170697121Y-85825407D01*
X170700000Y-85852190D01*
X170700000Y-87047810D01*
X170679998Y-87115931D01*
X170663095Y-87136905D01*
X170536905Y-87263095D01*
X170474593Y-87297121D01*
X170447810Y-87300000D01*
X168567433Y-87300000D01*
X168499312Y-87279998D01*
X168462595Y-87243892D01*
X168321162Y-87031743D01*
X168300000Y-86961851D01*
X168300000Y-86720058D01*
X168308848Y-86673675D01*
X168341155Y-86592077D01*
X168341156Y-86592075D01*
X168344136Y-86584547D01*
X168355000Y-86494772D01*
X168355000Y-86109228D01*
X168344136Y-86019453D01*
X168288613Y-85879217D01*
X168197422Y-85759078D01*
X168077283Y-85667887D01*
X167956339Y-85620002D01*
X167944577Y-85615345D01*
X167944575Y-85615344D01*
X167937047Y-85612364D01*
X167847272Y-85601500D01*
X166736728Y-85601500D01*
X166646953Y-85612364D01*
X166639425Y-85615344D01*
X166639423Y-85615345D01*
X166627661Y-85620002D01*
X166506717Y-85667887D01*
X166499876Y-85673079D01*
X166499877Y-85673079D01*
X166414151Y-85738149D01*
X166386578Y-85759078D01*
X166383048Y-85763729D01*
X166321901Y-85797120D01*
X166295114Y-85800000D01*
X166013886Y-85800000D01*
X165945765Y-85779998D01*
X165926543Y-85764508D01*
X165922422Y-85759078D01*
X165894850Y-85738149D01*
X165809123Y-85673079D01*
X165809124Y-85673079D01*
X165802283Y-85667887D01*
X165681339Y-85620002D01*
X165669577Y-85615345D01*
X165669575Y-85615344D01*
X165662047Y-85612364D01*
X165572272Y-85601500D01*
X164461728Y-85601500D01*
X164371953Y-85612364D01*
X164364425Y-85615344D01*
X164364423Y-85615345D01*
X164352661Y-85620002D01*
X164231717Y-85667887D01*
X164224876Y-85673079D01*
X164224877Y-85673079D01*
X164139151Y-85738149D01*
X164111578Y-85759078D01*
X164108048Y-85763729D01*
X164046901Y-85797120D01*
X164020114Y-85800000D01*
X163850000Y-85800000D01*
X163650000Y-86000000D01*
X163650000Y-88261851D01*
X163628838Y-88331743D01*
X163487405Y-88543892D01*
X163432976Y-88589477D01*
X163382567Y-88600000D01*
X161752190Y-88600000D01*
X161684069Y-88579998D01*
X161663095Y-88563095D01*
X161536905Y-88436905D01*
X161502879Y-88374593D01*
X161500000Y-88347810D01*
X161500000Y-85738149D01*
X161521162Y-85668257D01*
X161662595Y-85456108D01*
X161717024Y-85410523D01*
X161767433Y-85400000D01*
X162665611Y-85400000D01*
X162700764Y-85405003D01*
X162762226Y-85422860D01*
X162762229Y-85422861D01*
X162768402Y-85424654D01*
X162790080Y-85426360D01*
X162802108Y-85427307D01*
X162802117Y-85427307D01*
X162804565Y-85427500D01*
X163106255Y-85427500D01*
X163408434Y-85427499D01*
X163427642Y-85425988D01*
X163438180Y-85425159D01*
X163438181Y-85425159D01*
X163444598Y-85424654D01*
X163512237Y-85405003D01*
X163547389Y-85400000D01*
X163600000Y-85400000D01*
X163610504Y-85391597D01*
X163692191Y-85326248D01*
X163706762Y-85316185D01*
X163731316Y-85301664D01*
X163731319Y-85301662D01*
X163738143Y-85297626D01*
X163773907Y-85261862D01*
X163784290Y-85252568D01*
X163928075Y-85137540D01*
X163999862Y-85080111D01*
X164065550Y-85053175D01*
X164078573Y-85052500D01*
X164249071Y-85052500D01*
X164295452Y-85061348D01*
X164337419Y-85077963D01*
X164364424Y-85088655D01*
X164371953Y-85091636D01*
X164461728Y-85102500D01*
X165572272Y-85102500D01*
X165662047Y-85091636D01*
X165669575Y-85088656D01*
X165669577Y-85088655D01*
X165760894Y-85052500D01*
X165802283Y-85036113D01*
X165809122Y-85030922D01*
X165809127Y-85030919D01*
X165816087Y-85025636D01*
X165882441Y-85000384D01*
X165892265Y-85000000D01*
X166416735Y-85000000D01*
X166484856Y-85020002D01*
G37*
%TD.AperFunction*%
%TD*%
%TA.AperFunction,Conductor*%
%TO.N,+3.3VA*%
G36*
X150215931Y-119820002D02*
G01*
X150236905Y-119836905D01*
X150363095Y-119963095D01*
X150397121Y-120025407D01*
X150400000Y-120052190D01*
X150400000Y-120500000D01*
X150650000Y-120850000D01*
X152146418Y-120850000D01*
X152214539Y-120870002D01*
X152235513Y-120886905D01*
X152263095Y-120914487D01*
X152297121Y-120976799D01*
X152300000Y-121003582D01*
X152300000Y-122047810D01*
X152279998Y-122115931D01*
X152263095Y-122136905D01*
X152036905Y-122363095D01*
X151974593Y-122397121D01*
X151947810Y-122400000D01*
X150447906Y-122400000D01*
X150379785Y-122379998D01*
X150364196Y-122368174D01*
X148642290Y-120837591D01*
X148604665Y-120777384D01*
X148600000Y-120743417D01*
X148600000Y-120052190D01*
X148620002Y-119984069D01*
X148636905Y-119963095D01*
X148763095Y-119836905D01*
X148825407Y-119802879D01*
X148852190Y-119800000D01*
X150147810Y-119800000D01*
X150215931Y-119820002D01*
G37*
%TD.AperFunction*%
%TD*%
%TA.AperFunction,Conductor*%
%TO.N,GND*%
G36*
X152715931Y-128120002D02*
G01*
X152736905Y-128136905D01*
X152863095Y-128263095D01*
X152897121Y-128325407D01*
X152900000Y-128352190D01*
X152900000Y-129047810D01*
X152879998Y-129115931D01*
X152863095Y-129136905D01*
X152700000Y-129300000D01*
X152700000Y-130661851D01*
X152678838Y-130731743D01*
X152537405Y-130943892D01*
X152482976Y-130989477D01*
X152432567Y-131000000D01*
X151567433Y-131000000D01*
X151499312Y-130979998D01*
X151462595Y-130943892D01*
X151321162Y-130731743D01*
X151300000Y-130661851D01*
X151300000Y-128352190D01*
X151320002Y-128284069D01*
X151336905Y-128263095D01*
X151463095Y-128136905D01*
X151525407Y-128102879D01*
X151552190Y-128100000D01*
X152647810Y-128100000D01*
X152715931Y-128120002D01*
G37*
%TD.AperFunction*%
%TD*%
%TA.AperFunction,Conductor*%
%TO.N,+3V3*%
G36*
X139029436Y-107020002D02*
G01*
X139075929Y-107073658D01*
X139087315Y-107126000D01*
X139087315Y-109430720D01*
X139067313Y-109498841D01*
X139013657Y-109545334D01*
X138943383Y-109555438D01*
X138878803Y-109525944D01*
X138868567Y-109516007D01*
X138836143Y-109480747D01*
X138830328Y-109474423D01*
X138793596Y-109451649D01*
X138783828Y-109444936D01*
X138749401Y-109418803D01*
X138735558Y-109413322D01*
X138715558Y-109403262D01*
X138702912Y-109395422D01*
X138661414Y-109383366D01*
X138650184Y-109379521D01*
X138617998Y-109366778D01*
X138610009Y-109363615D01*
X138595223Y-109362061D01*
X138573238Y-109357748D01*
X138558946Y-109353596D01*
X138552362Y-109353113D01*
X138552359Y-109353112D01*
X138551702Y-109353064D01*
X138548310Y-109352815D01*
X138513868Y-109352815D01*
X138500697Y-109352125D01*
X138495315Y-109351559D01*
X138460910Y-109347943D01*
X138452444Y-109349375D01*
X138452441Y-109349375D01*
X138442533Y-109351051D01*
X138421521Y-109352815D01*
X138276000Y-109352815D01*
X138207879Y-109332813D01*
X138161386Y-109279157D01*
X138150000Y-109226815D01*
X138150000Y-107215511D01*
X138153762Y-107184951D01*
X138176140Y-107095440D01*
X138212067Y-107034205D01*
X138275397Y-107002114D01*
X138298378Y-107000000D01*
X138961315Y-107000000D01*
X139029436Y-107020002D01*
G37*
%TD.AperFunction*%
%TD*%
%TA.AperFunction,Conductor*%
%TO.N,GND*%
G36*
X161215931Y-107020002D02*
G01*
X161236905Y-107036905D01*
X161264177Y-107064177D01*
X161298203Y-107126489D01*
X161301055Y-107150648D01*
X161309160Y-107539672D01*
X161325298Y-108314275D01*
X161349352Y-109468874D01*
X161336077Y-109527847D01*
X161284826Y-109630349D01*
X161236471Y-109682333D01*
X161172128Y-109700000D01*
X160352190Y-109700000D01*
X160284069Y-109679998D01*
X160263095Y-109663095D01*
X160136905Y-109536905D01*
X160102879Y-109474593D01*
X160100000Y-109447810D01*
X160100000Y-108314275D01*
X160120002Y-108246154D01*
X160139108Y-108223029D01*
X160173454Y-108190322D01*
X160173455Y-108190320D01*
X160178554Y-108185465D01*
X160271731Y-108045223D01*
X160331521Y-107887823D01*
X160354955Y-107721088D01*
X160355249Y-107700000D01*
X160354809Y-107696077D01*
X160337266Y-107539672D01*
X160337265Y-107539669D01*
X160336481Y-107532676D01*
X160281108Y-107373668D01*
X160197784Y-107240320D01*
X160178648Y-107171953D01*
X160199513Y-107104091D01*
X160215543Y-107084457D01*
X160263095Y-107036905D01*
X160325407Y-107002879D01*
X160352190Y-107000000D01*
X161147810Y-107000000D01*
X161215931Y-107020002D01*
G37*
%TD.AperFunction*%
%TD*%
%TA.AperFunction,Conductor*%
%TO.N,+3V3*%
G36*
X143842121Y-99820002D02*
G01*
X143888614Y-99873658D01*
X143900000Y-99926000D01*
X143900000Y-100800000D01*
X143963095Y-100863095D01*
X143997121Y-100925407D01*
X144000000Y-100952190D01*
X144000000Y-101947810D01*
X143979998Y-102015931D01*
X143963095Y-102036905D01*
X143836905Y-102163095D01*
X143774593Y-102197121D01*
X143747810Y-102200000D01*
X142367433Y-102200000D01*
X142299312Y-102179998D01*
X142262595Y-102143892D01*
X142121162Y-101931743D01*
X142100000Y-101861851D01*
X142100000Y-100052190D01*
X142120002Y-99984069D01*
X142136905Y-99963095D01*
X142263095Y-99836905D01*
X142325407Y-99802879D01*
X142352190Y-99800000D01*
X143774000Y-99800000D01*
X143842121Y-99820002D01*
G37*
%TD.AperFunction*%
%TD*%
%TA.AperFunction,Conductor*%
%TO.N,GND*%
G36*
X142992121Y-93970002D02*
G01*
X143038614Y-94023658D01*
X143050000Y-94076000D01*
X143050000Y-94687354D01*
X143041152Y-94733736D01*
X143010463Y-94811249D01*
X142999500Y-94901840D01*
X142999500Y-95298160D01*
X143010463Y-95388751D01*
X143013442Y-95396275D01*
X143041152Y-95466263D01*
X143050000Y-95512646D01*
X143050000Y-96297810D01*
X143029998Y-96365931D01*
X143013095Y-96386905D01*
X142936905Y-96463095D01*
X142874593Y-96497121D01*
X142847810Y-96500000D01*
X142417433Y-96500000D01*
X142349312Y-96479998D01*
X142312595Y-96443893D01*
X142271161Y-96381742D01*
X142250000Y-96311851D01*
X142250000Y-95750000D01*
X142000000Y-95600000D01*
X141599344Y-95600000D01*
X141552961Y-95591152D01*
X141431466Y-95543049D01*
X141431464Y-95543048D01*
X141423936Y-95540068D01*
X141336607Y-95529500D01*
X141332818Y-95529500D01*
X140983394Y-95529501D01*
X140983394Y-95527996D01*
X140920182Y-95513510D01*
X140892693Y-95492693D01*
X140886905Y-95486905D01*
X140852879Y-95424593D01*
X140850000Y-95397810D01*
X140850000Y-95320293D01*
X140850167Y-95314748D01*
X140850500Y-95311995D01*
X140850499Y-94888006D01*
X140850166Y-94885258D01*
X140850000Y-94879725D01*
X140850000Y-94526000D01*
X140870002Y-94457879D01*
X140923658Y-94411386D01*
X140976000Y-94400000D01*
X141800000Y-94400000D01*
X141800000Y-94076000D01*
X141820002Y-94007879D01*
X141873658Y-93961386D01*
X141926000Y-93950000D01*
X142924000Y-93950000D01*
X142992121Y-93970002D01*
G37*
%TD.AperFunction*%
%TD*%
%TA.AperFunction,Conductor*%
%TO.N,+3V3*%
G36*
X170500688Y-78320002D02*
G01*
X170537405Y-78356108D01*
X170678838Y-78568257D01*
X170700000Y-78638149D01*
X170700000Y-84847810D01*
X170679998Y-84915931D01*
X170663095Y-84936905D01*
X170436905Y-85163095D01*
X170374593Y-85197121D01*
X170347810Y-85200000D01*
X168952190Y-85200000D01*
X168884069Y-85179998D01*
X168863095Y-85163095D01*
X168636905Y-84936905D01*
X168602879Y-84874593D01*
X168600000Y-84847810D01*
X168600000Y-82200000D01*
X168589173Y-82192782D01*
X168589172Y-82192781D01*
X168315523Y-82010348D01*
X168315521Y-82010347D01*
X168300000Y-82000000D01*
X167438149Y-82000000D01*
X167368257Y-81978838D01*
X167156108Y-81837405D01*
X167110523Y-81782976D01*
X167100000Y-81732567D01*
X167100000Y-78638149D01*
X167121162Y-78568257D01*
X167262595Y-78356108D01*
X167317024Y-78310523D01*
X167367433Y-78300000D01*
X170432567Y-78300000D01*
X170500688Y-78320002D01*
G37*
%TD.AperFunction*%
%TD*%
%TA.AperFunction,Conductor*%
%TO.N,+3V3*%
G36*
X146576739Y-94680679D02*
G01*
X146599860Y-94689833D01*
X146688005Y-94700500D01*
X146899860Y-94700500D01*
X147111994Y-94700499D01*
X147115751Y-94700044D01*
X147115757Y-94700044D01*
X147149834Y-94695920D01*
X147200140Y-94689833D01*
X147207172Y-94687049D01*
X147277883Y-94689659D01*
X147336153Y-94730220D01*
X147363432Y-94797755D01*
X147393213Y-95125340D01*
X147379460Y-95194992D01*
X147337623Y-95241584D01*
X147258444Y-95294371D01*
X147131743Y-95378838D01*
X147061851Y-95400000D01*
X146400000Y-95400000D01*
X146220000Y-95700000D01*
X146165015Y-95791642D01*
X146112816Y-95839764D01*
X146056971Y-95852815D01*
X144705005Y-95852815D01*
X144636884Y-95832813D01*
X144615910Y-95815910D01*
X144536905Y-95736905D01*
X144502879Y-95674593D01*
X144500000Y-95647810D01*
X144500000Y-95474760D01*
X144508847Y-95428379D01*
X144524537Y-95388751D01*
X144535500Y-95298160D01*
X144535500Y-94936375D01*
X144555502Y-94868254D01*
X144585900Y-94835575D01*
X144666400Y-94775200D01*
X144732898Y-94750329D01*
X144742000Y-94750000D01*
X146400000Y-94750000D01*
X146441263Y-94708737D01*
X146503575Y-94674711D01*
X146576739Y-94680679D01*
G37*
%TD.AperFunction*%
%TD*%
M02*
